<svg width="18" height="19" viewBox="0 0 18 19" fill="none" xmlns="http://www.w3.org/2000/svg">
<path fill-rule="evenodd" clip-rule="evenodd" d="M12.1719 7.41479C12.1719 10.1072 9.98926 12.2898 7.29688 12.2898C4.60449 12.2898 2.42188 10.1072 2.42188 7.41479C2.42188 4.72241 4.60449 2.53979 7.29688 2.53979C9.98926 2.53979 12.1719 4.72241 12.1719 7.41479ZM10.971 13.5207C9.89815 14.1676 8.64097 14.5398 7.29688 14.5398C3.36185 14.5398 0.171875 11.3498 0.171875 7.41479C0.171875 3.47977 3.36185 0.289795 7.29688 0.289795C11.2319 0.289795 14.4219 3.47977 14.4219 7.41479C14.4219 9.19138 13.7717 10.8161 12.6962 12.0639L17.422 16.7897C17.8613 17.229 17.8613 17.9414 17.422 18.3807C16.9826 18.82 16.2703 18.82 15.831 18.3807L10.971 13.5207Z" fill="#A9A9B3"/>
</svg>
