<svg width="65" height="61" viewBox="0 0 65 61" fill="none" xmlns="http://www.w3.org/2000/svg">
<rect x="0.744141" y="0.583984" width="64.2231" height="59.8918" rx="12.7904" fill="white"/>
<path d="M21.1363 24.0572V23.5129L20.7645 23.9104L18.9145 25.8886L17.7376 27.0684C17.4972 27.2929 17.2242 27.408 16.9624 27.417C16.7025 27.4259 16.4369 27.3312 16.2033 27.1052C15.762 26.6615 15.7756 26.0061 16.2347 25.5757L16.2348 25.5758L16.2398 25.5707L20.7377 21.0618C21.2305 20.5763 21.7259 20.3549 22.1982 20.3549C22.6703 20.3549 23.1611 20.5762 23.6448 21.0611L23.6451 21.0614L28.1613 25.571L28.1612 25.5711L28.1662 25.5757C28.6252 26.0061 28.6389 26.6615 28.1975 27.1051C27.9639 27.3312 27.6983 27.4259 27.4384 27.417C27.1766 27.408 26.9036 27.2929 26.6632 27.0684L25.4866 25.8889L23.6193 23.8757L23.2469 23.4742V24.0219V38.8416C23.2469 39.5508 23.4383 40.1177 23.8311 40.5063C24.2234 40.8946 24.784 41.0725 25.4552 41.0725H36.1812C36.6042 41.0725 36.8985 41.1823 37.0876 41.3562C37.2747 41.5283 37.3874 41.7896 37.3953 42.1533C37.403 42.5101 37.2922 42.7627 37.1038 42.9294C36.9108 43.1002 36.6068 43.207 36.1812 43.207H25.42C23.9531 43.207 22.8925 42.8438 22.1973 42.1551C21.5025 41.4668 21.1363 40.4172 21.1363 38.9654V24.0572ZM28.3163 18.9287H28.3164L28.3163 18.9241C28.3084 18.5548 28.4172 18.2979 28.6011 18.1304C28.789 17.9593 29.0871 17.8526 29.5127 17.8526H40.2916C41.7585 17.8526 42.8191 18.2158 43.5143 18.9045C44.2091 19.5928 44.5753 20.6424 44.5753 22.0942V37.02V37.5718L44.9484 37.1654L46.779 35.1715L47.9741 34.0087C48.2155 33.7745 48.4887 33.656 48.7492 33.647C49.007 33.6382 49.2724 33.7357 49.5068 33.9709L49.5068 33.9709L49.5095 33.9735C49.9471 34.3975 49.9378 35.0516 49.4769 35.4839L49.4769 35.4839L49.4721 35.4886L44.9559 39.9982L44.9556 39.9985C44.4718 40.4834 43.981 40.7047 43.5089 40.7047C43.0366 40.7047 42.5411 40.4832 42.0483 39.9977C42.0481 39.9975 42.0479 39.9974 42.0478 39.9972L37.5505 35.4889L37.5506 35.4888L37.5454 35.4839C37.0844 35.0516 37.0751 34.3975 37.5127 33.9735L37.5153 33.9709C37.7499 33.7357 38.0153 33.6382 38.2731 33.647C38.5334 33.656 38.8063 33.7743 39.0476 34.0081C39.0478 34.0083 39.048 34.0085 39.0482 34.0087L40.2255 35.1713L42.0922 37.1839L42.4647 37.5854V37.0378V22.218C42.4647 21.5169 42.2729 20.9507 41.881 20.5604C41.4893 20.1702 40.929 19.9871 40.2563 19.9871H29.5127C29.0874 19.9871 28.7935 19.8805 28.6077 19.7114C28.425 19.5453 28.3163 19.2911 28.3163 18.9287Z" fill="black" stroke="white" stroke-width="0.429737"/>
</svg>
