<svg width="64" height="62" viewBox="0 0 64 62" fill="none" xmlns="http://www.w3.org/2000/svg">
<rect width="64" height="62" rx="13.1022" fill="white"/>
<path d="M19.9948 24.37V23.8124L19.6139 24.2197L17.7188 26.2461L16.5132 27.4546C16.2669 27.6846 15.9873 27.8025 15.7191 27.8117C15.4529 27.8208 15.1808 27.7238 14.9415 27.4923C14.4894 27.0378 14.5034 26.3664 14.9736 25.9255L14.9737 25.9256L14.9789 25.9204L19.5858 21.3022C19.586 21.3019 19.5863 21.3017 19.5865 21.3015C20.0913 20.8042 20.5988 20.5775 21.0826 20.5775C21.5662 20.5775 22.069 20.8041 22.5645 21.3008L22.5648 21.3011L27.1911 25.9207L27.191 25.9208L27.1961 25.9255C27.6663 26.3664 27.6803 27.0378 27.2282 27.4923C26.9889 27.7238 26.7168 27.8208 26.4506 27.8117C26.1824 27.8025 25.9028 27.6846 25.6565 27.4546L24.4512 26.2464L22.5384 24.1841L22.1569 23.7728V24.3338V39.5149C22.1569 40.2414 22.3529 40.8221 22.7553 41.2202C23.1572 41.6179 23.7315 41.8002 24.419 41.8002H35.4065C35.8399 41.8002 36.1414 41.9127 36.335 42.0908C36.5268 42.2672 36.6422 42.5348 36.6502 42.9073C36.6582 43.2729 36.5447 43.5316 36.3517 43.7024C36.154 43.8774 35.8425 43.9868 35.4065 43.9868H24.3829C22.8802 43.9868 21.7938 43.6147 21.0816 42.9092C20.3699 42.2041 19.9948 41.129 19.9948 39.6417V24.37ZM27.3499 19.1164H27.3499L27.3498 19.1117C27.3418 18.7334 27.4532 18.4702 27.6416 18.2986C27.8341 18.1234 28.1394 18.0141 28.5755 18.0141H39.6172C41.1199 18.0141 42.2063 18.3861 42.9185 19.0916C43.6302 19.7967 44.0053 20.8719 44.0053 22.3591V37.6489V38.2141L44.3876 37.7978L46.2628 35.7553L47.487 34.5642C47.7343 34.3242 48.0141 34.2028 48.281 34.1937C48.5451 34.1846 48.8169 34.2845 49.0571 34.5254L49.0571 34.5254L49.0598 34.5281C49.5081 34.9624 49.4986 35.6325 49.0265 36.0754L49.0264 36.0753L49.0216 36.0801L44.3952 40.6997L44.3949 40.7C43.8993 41.1968 43.3966 41.4234 42.913 41.4234C42.4292 41.4234 41.9217 41.1966 41.4169 40.6994C41.4167 40.6992 41.4164 40.6989 41.4162 40.6987L36.8093 36.0804L36.8094 36.0804L36.804 36.0753C36.3317 35.6324 36.3223 34.9624 36.7705 34.5281L36.7731 34.5254C37.0135 34.2845 37.2853 34.1846 37.5495 34.1937C37.8161 34.2028 38.0957 34.324 38.3428 34.5636C38.343 34.5638 38.3433 34.564 38.3435 34.5642L39.5494 35.7551L41.4617 37.8168L41.8432 38.228V37.6671V22.486C41.8432 21.7678 41.6468 21.1877 41.2453 20.7879C40.844 20.3882 40.2701 20.2006 39.581 20.2006H28.5755C28.1398 20.2006 27.8387 20.0915 27.6483 19.9183C27.4612 19.748 27.3499 19.4876 27.3499 19.1164Z" fill="black" stroke="white" stroke-width="0.440216"/>
</svg>
