<svg width="480" height="360" viewBox="0 0 480 360" fill="none" xmlns="http://www.w3.org/2000/svg">
<rect width="480" height="328.35" rx="30.4654" fill="#F2F2F7"/>
<rect x="2.41699" y="8.40363" width="477.506" height="311.263" rx="26.0653" fill="#F2F2F7"/>
<g filter="url(#filter0_b_339_2952)">
<path fill-rule="evenodd" clip-rule="evenodd" d="M96.8923 70.3024C77.9241 70.3024 62.5474 85.6792 62.5474 104.647V223.423C62.5474 242.391 77.9241 257.768 96.8923 257.768H384.814C403.782 257.768 419.159 242.391 419.159 223.423V104.647C419.159 85.6792 403.782 70.3024 384.814 70.3024H96.8923ZM119.613 218.692H130.365C122.238 203.662 115.737 186.77 115.737 163.791C115.737 141.309 122.238 124.417 130.365 109.388H119.613C110.236 121.933 102.235 141.309 102.235 163.791C102.235 187.018 110.236 206.146 119.613 218.692ZM362.696 218.692H351.944C360.071 203.662 366.572 186.77 366.572 163.791C366.572 141.309 360.071 124.417 351.944 109.388H362.696C372.073 121.933 380.074 141.309 380.074 163.791C380.074 187.018 372.073 206.146 362.696 218.692ZM131.806 198.197H146.058L162.937 173.976H163.187L180.44 198.197H194.817L170.563 165.779L192.442 134.851H178.439L163.437 157.457H163.187L147.934 134.851H133.931L155.81 165.779L131.806 198.197ZM210.358 198.197H198.106V109.388H210.358V198.197ZM213.735 198.197H227.988L244.866 173.976H245.116L262.369 198.197H276.747L252.492 165.779L274.371 134.851H260.369L245.366 157.457H245.116L229.863 134.851H215.86L237.739 165.779L213.735 198.197ZM303.089 199.936C283.711 199.936 274.084 189.999 273.709 177.082H286.086C286.586 184.41 291.087 190.124 302.964 190.124C313.716 190.124 316.592 185.404 316.592 180.808C316.592 173.612 309.625 172.217 302.184 170.728C301.405 170.572 300.621 170.415 299.839 170.25C288.712 167.642 275.959 164.412 275.959 151.246C275.959 140.316 284.836 132.987 300.214 132.987C317.717 132.987 326.094 142.303 326.969 153.233H314.591C313.716 148.389 311.091 142.8 300.464 142.8C292.212 142.8 288.712 146.029 288.712 150.749C288.712 156.57 294.282 157.729 301.794 159.294C302.779 159.499 303.797 159.71 304.84 159.941C316.592 162.673 329.344 166.027 329.344 180.187C329.344 192.484 319.842 199.936 303.089 199.936ZM338.803 152.304H352.431V138.765H338.803V152.304ZM338.803 190.311H352.431V176.773H338.803V190.311Z" fill="black"/>
</g>
<path d="M104.975 71.1865H0.682617" stroke="black" stroke-opacity="0.2" stroke-width="1.79102"/>
<path d="M103.791 256.883H0.0771484" stroke="black" stroke-opacity="0.2" stroke-width="1.79386"/>
<path d="M61.9946 0.478134L61.9946 327.872" stroke="black" stroke-opacity="0.2" stroke-width="1.81297"/>
<path d="M32.4186 178.404H32.1008L17.2907 201.174H2.41699L24.4733 170.284L2.73481 139.275H18.117L32.7364 161.693H32.9907L47.4194 139.275H62.5474L40.6182 169.872L62.2931 201.174H47.1652L32.4186 178.404Z" fill="#D9D9D9"/>
<path d="M163.986 47.5317H163.669L148.859 70.3025H133.985L156.041 39.4119L134.303 8.40363H149.685L164.304 30.8214H164.559L178.987 8.40363H194.115L172.186 39L193.861 70.3025H178.733L163.986 47.5317Z" fill="#D9D9D9"/>
<path opacity="0.5" d="M9.11719 351.905C9.11719 353.951 7.59375 355.35 5.40625 355.35H1.11719V344.076H8.02344V345.584H2.86719V348.475H5.36719C7.57031 348.475 9.11719 349.873 9.11719 351.905ZM2.86719 353.865H4.96094C6.46875 353.865 7.32812 353.162 7.32812 351.905C7.32812 350.639 6.46094 349.936 4.95312 349.936H2.86719V353.865ZM11.3203 358.412C11.1875 358.412 10.7578 358.397 10.6328 358.373V357.006C10.7578 357.037 11.0391 357.037 11.1797 357.037C11.9688 357.037 12.3828 356.709 12.6406 355.865C12.6406 355.85 12.7891 355.365 12.7891 355.358L9.82031 347.131H11.6484L13.7344 353.819H13.7578L15.8438 347.131H17.625L14.5391 355.78C13.8359 357.772 13.0312 358.412 11.3203 358.412ZM22.0859 350.99L25.8672 355.35H23.75L20.4922 351.561H20.4297V355.35H18.75V347.131H20.4297V350.647H20.4922L23.7109 347.131H25.7266L22.0859 350.99ZM30.3125 348.358H28.5859V350.514H30.1484C31.1016 350.514 31.5781 350.147 31.5781 349.42C31.5781 348.74 31.1328 348.358 30.3125 348.358ZM30.2578 351.694H28.5859V354.123H30.4453C31.3984 354.123 31.9141 353.701 31.9141 352.912C31.9141 352.1 31.3672 351.694 30.2578 351.694ZM26.9219 355.35V347.131H30.6562C32.2578 347.131 33.2266 347.928 33.2266 349.225C33.2266 350.076 32.6172 350.85 31.8281 350.998V351.061C32.8906 351.201 33.5938 351.951 33.5938 352.983C33.5938 354.428 32.4844 355.35 30.7031 355.35H26.9219ZM37.9766 354.155C39.1562 354.155 40.0781 353.342 40.0781 352.272V351.623L38.0547 351.748C37.0469 351.819 36.4766 352.264 36.4766 352.967C36.4766 353.686 37.0703 354.155 37.9766 354.155ZM37.5078 355.49C35.8984 355.49 34.7734 354.49 34.7734 353.014C34.7734 351.576 35.875 350.694 37.8281 350.584L40.0781 350.451V349.819C40.0781 348.905 39.4609 348.358 38.4297 348.358C37.4531 348.358 36.8438 348.826 36.6953 349.561H35.1016C35.1953 348.076 36.4609 346.983 38.4922 346.983C40.4844 346.983 41.7578 348.037 41.7578 349.686V355.35H40.1406V353.998H40.1016C39.625 354.912 38.5859 355.49 37.5078 355.49ZM47.9688 344.076H49.3047L48.5859 348.201H46.875L47.9688 344.076ZM51.1484 344.076H52.4922L51.7969 348.201H50.0859L51.1484 344.076ZM57.4141 352.326H57.375L55.5547 355.35H53.7266L56.4375 351.248L53.7656 347.131H55.6562L57.4531 350.108H57.4844L59.2578 347.131H61.1172L58.4219 351.194L61.0859 355.35H59.2266L57.4141 352.326ZM63.6875 348.201H62.3438L63.0391 344.076H64.75L63.6875 348.201ZM66.8672 348.201H65.5312L66.25 344.076H67.9609L66.8672 348.201ZM68.6562 357.67H67.3125L68.0156 353.545H69.7188L68.6562 357.67ZM77.4766 350.99L81.2578 355.35H79.1406L75.8828 351.561H75.8203V355.35H74.1406V347.131H75.8203V350.647H75.8828L79.1016 347.131H81.1172L77.4766 350.99ZM84.9922 354.155C86.1719 354.155 87.0938 353.342 87.0938 352.272V351.623L85.0703 351.748C84.0625 351.819 83.4922 352.264 83.4922 352.967C83.4922 353.686 84.0859 354.155 84.9922 354.155ZM84.5234 355.49C82.9141 355.49 81.7891 354.49 81.7891 353.014C81.7891 351.576 82.8906 350.694 84.8438 350.584L87.0938 350.451V349.819C87.0938 348.905 86.4766 348.358 85.4453 348.358C84.4688 348.358 83.8594 348.826 83.7109 349.561H82.1172C82.2109 348.076 83.4766 346.983 85.5078 346.983C87.5 346.983 88.7734 348.037 88.7734 349.686V355.35H87.1562V353.998H87.1172C86.6406 354.912 85.6016 355.49 84.5234 355.49ZM93.8828 350.99L97.6641 355.35H95.5469L92.2891 351.561H92.2266V355.35H90.5469V347.131H92.2266V350.647H92.2891L95.5078 347.131H97.5234L93.8828 350.99ZM103.594 355.35H101.969V347.131H104.086L106.719 353.155H106.781L109.43 347.131H111.5V355.35H109.859V349.647H109.805L107.344 355.03H106.109L103.648 349.647H103.594V355.35ZM116.852 355.506C114.5 355.506 112.953 353.889 112.953 351.24C112.953 348.6 114.508 346.983 116.852 346.983C119.195 346.983 120.75 348.6 120.75 351.24C120.75 353.889 119.203 355.506 116.852 355.506ZM116.852 354.115C118.18 354.115 119.031 353.069 119.031 351.24C119.031 349.42 118.172 348.373 116.852 348.373C115.531 348.373 114.672 349.42 114.672 351.24C114.672 353.069 115.531 354.115 116.852 354.115ZM127.531 354.014V348.467H124.672L124.445 351.608C124.383 352.576 124.18 353.42 123.805 353.951V354.014H127.531ZM122.859 357.506H121.305V354.014H121.969C122.57 353.639 122.844 352.647 122.922 351.537L123.219 347.131H129.211V354.014H130.484V357.506H128.922V355.35H122.859V357.506ZM132.32 358.412C132.188 358.412 131.758 358.397 131.633 358.373V357.006C131.758 357.037 132.039 357.037 132.18 357.037C132.969 357.037 133.383 356.709 133.641 355.865C133.641 355.85 133.789 355.365 133.789 355.358L130.82 347.131H132.648L134.734 353.819H134.758L136.844 347.131H138.625L135.539 355.78C134.836 357.772 134.031 358.412 132.32 358.412ZM141.719 351.608C141.562 353.936 140.977 355.428 139.133 355.428C138.859 355.428 138.664 355.381 138.562 355.342V353.858C138.641 353.881 138.797 353.92 139.008 353.92C139.805 353.92 140.086 352.967 140.18 351.537L140.461 347.131H146.156V355.35H144.477V348.467H141.945L141.719 351.608ZM151.07 350.99H149.648V354.022H151.07C152.039 354.022 152.664 353.412 152.664 352.506C152.664 351.592 152.031 350.99 151.07 350.99ZM147.969 355.35V347.131H149.648V349.67H151.219C153.117 349.67 154.344 350.772 154.344 352.506C154.344 354.248 153.117 355.35 151.219 355.35H147.969ZM162.539 355.506C160.188 355.506 158.641 353.889 158.641 351.24C158.641 348.6 160.195 346.983 162.539 346.983C164.883 346.983 166.438 348.6 166.438 351.24C166.438 353.889 164.891 355.506 162.539 355.506ZM162.539 354.115C163.867 354.115 164.719 353.069 164.719 351.24C164.719 349.42 163.859 348.373 162.539 348.373C161.219 348.373 160.359 349.42 160.359 351.24C160.359 353.069 161.219 354.115 162.539 354.115ZM170.805 352.326H170.766L168.945 355.35H167.117L169.828 351.248L167.156 347.131H169.047L170.844 350.108H170.875L172.648 347.131H174.508L171.812 351.194L174.477 355.35H172.617L170.805 352.326ZM180.008 346.998C182.094 346.998 183.469 348.639 183.469 351.24C183.469 353.842 182.102 355.49 180.039 355.49C178.859 355.49 177.922 354.912 177.453 353.998H177.414V358.069H175.727V347.131H177.359V348.545H177.391C177.875 347.6 178.82 346.998 180.008 346.998ZM179.562 354.061C180.898 354.061 181.734 352.967 181.734 351.24C181.734 349.522 180.898 348.42 179.562 348.42C178.273 348.42 177.406 349.545 177.406 351.24C177.406 352.951 178.266 354.061 179.562 354.061ZM187.805 354.155C188.984 354.155 189.906 353.342 189.906 352.272V351.623L187.883 351.748C186.875 351.819 186.305 352.264 186.305 352.967C186.305 353.686 186.898 354.155 187.805 354.155ZM187.336 355.49C185.727 355.49 184.602 354.49 184.602 353.014C184.602 351.576 185.703 350.694 187.656 350.584L189.906 350.451V349.819C189.906 348.905 189.289 348.358 188.258 348.358C187.281 348.358 186.672 348.826 186.523 349.561H184.93C185.023 348.076 186.289 346.983 188.32 346.983C190.312 346.983 191.586 348.037 191.586 349.686V355.35H189.969V353.998H189.93C189.453 354.912 188.414 355.49 187.336 355.49ZM198.758 355.35V351.772H195.039V355.35H193.359V347.131H195.039V350.444H198.758V347.131H200.438V355.35H198.758ZM207.664 355.35V351.772H203.945V355.35H202.266V347.131H203.945V350.444H207.664V347.131H209.344V355.35H207.664ZM214.711 355.506C212.359 355.506 210.812 353.889 210.812 351.24C210.812 348.6 212.367 346.983 214.711 346.983C217.055 346.983 218.609 348.6 218.609 351.24C218.609 353.889 217.062 355.506 214.711 355.506ZM214.711 354.115C216.039 354.115 216.891 353.069 216.891 351.24C216.891 349.42 216.031 348.373 214.711 348.373C213.391 348.373 212.531 349.42 212.531 351.24C212.531 353.069 213.391 354.115 214.711 354.115ZM225.508 348.467H221.742V355.35H220.062V347.131H225.508V348.467ZM230.195 355.506C227.844 355.506 226.297 353.889 226.297 351.24C226.297 348.6 227.852 346.983 230.195 346.983C232.539 346.983 234.094 348.6 234.094 351.24C234.094 353.889 232.547 355.506 230.195 355.506ZM230.195 354.115C231.523 354.115 232.375 353.069 232.375 351.24C232.375 349.42 231.516 348.373 230.195 348.373C228.875 348.373 228.016 349.42 228.016 351.24C228.016 353.069 228.875 354.115 230.195 354.115ZM244.117 355.35V348.467H240.477V355.35H238.797V347.131H245.805V355.35H244.117ZM251.164 355.506C248.812 355.506 247.266 353.889 247.266 351.24C247.266 348.6 248.82 346.983 251.164 346.983C253.508 346.983 255.062 348.6 255.062 351.24C255.062 353.889 253.516 355.506 251.164 355.506ZM251.164 354.115C252.492 354.115 253.344 353.069 253.344 351.24C253.344 349.42 252.484 348.373 251.164 348.373C249.844 348.373 248.984 349.42 248.984 351.24C248.984 353.069 249.844 354.115 251.164 354.115ZM258.703 351.608C258.547 353.936 257.961 355.428 256.117 355.428C255.844 355.428 255.648 355.381 255.547 355.342V353.858C255.625 353.881 255.781 353.92 255.992 353.92C256.789 353.92 257.07 352.967 257.164 351.537L257.445 347.131H263.141V355.35H261.461V348.467H258.93L258.703 351.608ZM268.07 351.233H269.562V348.459H268.07C267.109 348.459 266.492 349.006 266.492 349.897C266.492 350.678 267.117 351.233 268.07 351.233ZM269.562 355.35V352.53H268.312L266.32 355.35H264.414L266.656 352.24C265.516 351.905 264.812 351.053 264.812 349.905C264.812 348.194 266.062 347.131 267.984 347.131H271.219V355.35H269.562Z" fill="black"/>
<defs>
<filter id="filter0_b_339_2952" x="-891.097" y="-883.342" width="2263.9" height="2094.75" filterUnits="userSpaceOnUse" color-interpolation-filters="sRGB">
<feFlood flood-opacity="0" result="BackgroundImageFix"/>
<feGaussianBlur in="BackgroundImageFix" stdDeviation="476.822"/>
<feComposite in2="SourceAlpha" operator="in" result="effect1_backgroundBlur_339_2952"/>
<feBlend mode="normal" in="SourceGraphic" in2="effect1_backgroundBlur_339_2952" result="shape"/>
</filter>
</defs>
</svg>
