<svg width="480" height="370" viewBox="0 0 480 370" fill="none" xmlns="http://www.w3.org/2000/svg">
<rect width="480" height="328.35" rx="30.4654" fill="#F2F2F7"/>
<rect x="2.41675" y="8.40381" width="477.506" height="311.263" rx="26.0653" fill="#F2F2F7"/>
<g filter="url(#filter0_b_802_7121)">
<path fill-rule="evenodd" clip-rule="evenodd" d="M96.892 70.3025C77.9239 70.3025 62.5471 85.6792 62.5471 104.647V223.423C62.5471 242.391 77.9239 257.768 96.8921 257.768H384.814C403.782 257.768 419.159 242.391 419.159 223.423V104.647C419.159 85.6792 403.782 70.3025 384.814 70.3025H96.892ZM119.613 218.692H130.365C122.238 203.662 115.737 186.77 115.737 163.791C115.737 141.309 122.238 124.417 130.365 109.388H119.613C110.236 121.933 102.234 141.309 102.234 163.791C102.234 187.018 110.236 206.147 119.613 218.692ZM362.696 218.692H351.944C360.07 203.662 366.571 186.77 366.571 163.791C366.571 141.309 360.07 124.417 351.944 109.388H362.696C372.072 121.933 380.074 141.309 380.074 163.791C380.074 187.018 372.072 206.147 362.696 218.692ZM131.806 198.197H146.058L162.936 173.976H163.186L180.44 198.197H194.817L170.563 165.779L192.442 134.851H178.439L163.436 157.457H163.186L147.934 134.851H133.931L155.81 165.779L131.806 198.197ZM210.358 198.197H198.106V109.388H210.358V198.197ZM213.735 198.197H227.987L244.865 173.976H245.116L262.369 198.197H276.746L252.492 165.779L274.371 134.851H260.368L245.366 157.457H245.116L229.863 134.851H215.86L237.739 165.779L213.735 198.197ZM303.089 199.936C283.71 199.936 274.084 189.999 273.709 177.082H286.086C286.586 184.41 291.087 190.124 302.964 190.124C313.716 190.124 316.592 185.404 316.592 180.808C316.592 173.612 309.625 172.218 302.184 170.728C301.405 170.572 300.621 170.415 299.838 170.25C288.711 167.642 275.959 164.412 275.959 151.246C275.959 140.316 284.836 132.987 300.214 132.987C317.717 132.987 326.093 142.303 326.969 153.234H314.591C313.716 148.389 311.091 142.8 300.464 142.8C292.212 142.8 288.711 146.029 288.711 150.749C288.711 156.57 294.282 157.73 301.794 159.294C302.779 159.499 303.796 159.711 304.839 159.941C316.592 162.673 329.344 166.027 329.344 180.187C329.344 192.484 319.842 199.936 303.089 199.936ZM338.803 152.304H352.43V138.765H338.803V152.304ZM338.803 190.312H352.43V176.773H338.803V190.312Z" fill="black"/>
</g>
<path d="M104.975 71.1865H0.682617" stroke="black" stroke-opacity="0.2" stroke-width="1.79102"/>
<path d="M103.791 256.884H0.0771484" stroke="black" stroke-opacity="0.2" stroke-width="1.79386"/>
<path d="M61.9946 0.478134L61.9946 327.872" stroke="black" stroke-opacity="0.2" stroke-width="1.81297"/>
<path d="M32.4184 178.404H32.1006L17.2904 201.174H2.41675L24.473 170.284L2.73456 139.275H18.1168L32.7362 161.693H32.9904L47.4192 139.275H62.5471L40.618 169.872L62.2929 201.174H47.1649L32.4184 178.404Z" fill="#D9D9D9"/>
<path d="M163.986 47.5319H163.668L148.858 70.3027H133.985L156.041 39.4121L134.302 8.40381H149.685L164.304 30.8216H164.558L178.987 8.40381H194.115L172.186 39.0002L193.861 70.3027H178.733L163.986 47.5319Z" fill="#D9D9D9"/>
<path opacity="0.5" d="M12.4915 360.593C12.4915 363.394 10.3931 365.35 7.41577 365.35H1.64795V349.497H10.9094V351.276H3.62549V355.814H7.3938C10.3711 355.814 12.4915 357.78 12.4915 360.593ZM3.62549 363.57H6.89941C9.17358 363.57 10.459 362.504 10.459 360.593C10.459 358.67 9.1626 357.594 6.89941 357.594H3.62549V363.57ZM15.5676 369.624C15.3369 369.624 14.9524 369.602 14.7437 369.558V367.954C14.9524 367.998 15.249 368.009 15.4907 368.009C16.5564 368.009 17.1497 367.492 17.5891 366.163L17.8528 365.361L13.634 353.924H15.6775L18.8416 363.438H18.8745L22.0386 353.924H24.0491L19.5557 366.152C18.5779 368.822 17.6331 369.624 15.5676 369.624ZM29.6301 359.329L35.1233 365.35H32.6624L27.7295 359.857H27.6416V365.35H25.752V353.924H27.6416V358.978H27.7295L32.6074 353.924H34.9695L29.6301 359.329ZM41.3416 355.473H38.606V358.67H41.0559C42.4951 358.67 43.1873 358.143 43.1873 357.044C43.1873 356.033 42.5391 355.473 41.3416 355.473ZM41.2097 360.208H38.606V363.801H41.5503C42.9346 363.801 43.6816 363.175 43.6816 362.021C43.6816 360.802 42.8796 360.208 41.2097 360.208ZM36.7163 365.35V353.924H41.6052C43.7476 353.924 45.0549 355.034 45.0549 356.846C45.0549 358.011 44.231 359.088 43.1763 359.307V359.395C44.6155 359.593 45.5603 360.637 45.5603 362.065C45.5603 364.086 44.0662 365.35 41.6382 365.35H36.7163ZM51.5259 363.922C53.3276 363.922 54.7119 362.658 54.7119 361.01V360.076L51.6577 360.263C50.1196 360.362 49.2407 361.043 49.2407 362.12C49.2407 363.208 50.1526 363.922 51.5259 363.922ZM51.0974 365.548C48.8232 365.548 47.2961 364.174 47.2961 362.12C47.2961 360.164 48.8013 358.934 51.438 358.78L54.7119 358.593V357.637C54.7119 356.242 53.7891 355.407 52.207 355.407C50.7349 355.407 49.812 356.099 49.5703 357.22H47.7246C47.8564 355.242 49.5483 353.726 52.251 353.726C54.9316 353.726 56.6235 355.177 56.6235 357.451V365.35H54.8108V363.383H54.7668C54.0857 364.691 52.6355 365.548 51.0974 365.548ZM65.4456 349.497H67.0386L65.9729 355.089H63.9404L65.4456 349.497ZM69.7083 349.497H71.3013L70.2356 355.089H68.2031L69.7083 349.497ZM77.9919 360.999H77.948L75.1904 365.35H73.0701L76.9592 359.637L73.136 353.924H75.2673L78.0139 358.209H78.0579L80.7715 353.924H82.9028L79.0466 359.56L82.8479 365.35H80.7275L77.9919 360.999ZM86.2756 355.089H84.6826L85.7483 349.497H87.7808L86.2756 355.089ZM90.5383 355.089H88.9453L90.011 349.497H92.0435L90.5383 355.089ZM92.7026 368.503H91.1096L92.1753 362.911H94.2078L92.7026 368.503ZM104.601 359.329L110.094 365.35H107.633L102.7 359.857H102.612V365.35H100.723V353.924H102.612V358.978H102.7L107.578 353.924H109.94L104.601 359.329ZM115.137 363.922C116.938 363.922 118.323 362.658 118.323 361.01V360.076L115.269 360.263C113.73 360.362 112.852 361.043 112.852 362.12C112.852 363.208 113.763 363.922 115.137 363.922ZM114.708 365.548C112.434 365.548 110.907 364.174 110.907 362.12C110.907 360.164 112.412 358.934 115.049 358.78L118.323 358.593V357.637C118.323 356.242 117.4 355.407 115.818 355.407C114.346 355.407 113.423 356.099 113.181 357.22H111.335C111.467 355.242 113.159 353.726 115.862 353.726C118.542 353.726 120.234 355.177 120.234 357.451V365.35H118.422V363.383H118.378C117.697 364.691 116.246 365.548 114.708 365.548ZM126.749 359.329L132.242 365.35H129.781L124.849 359.857H124.761V365.35H122.871V353.924H124.761V358.978H124.849L129.727 353.924H132.089L126.749 359.329ZM140.339 365.35H138.45V353.924H140.768L144.833 362.823H144.921L149.008 353.924H151.238V365.35H149.337V357.242H149.26L145.569 365.02H144.108L140.416 357.242H140.339V365.35ZM158.665 365.548C155.5 365.548 153.369 363.273 153.369 359.637C153.369 355.99 155.5 353.726 158.665 353.726C161.818 353.726 163.949 355.99 163.949 359.637C163.949 363.273 161.818 365.548 158.665 365.548ZM158.665 363.867C160.686 363.867 162.004 362.329 162.004 359.637C162.004 356.945 160.686 355.407 158.665 355.407C156.643 355.407 155.314 356.945 155.314 359.637C155.314 362.329 156.643 363.867 158.665 363.867ZM173.43 363.779V355.495H169.146L168.794 360.307C168.695 361.724 168.398 362.966 167.86 363.691V363.779H173.43ZM166.498 368.371H164.718V363.779H165.674C166.509 363.229 166.915 361.801 167.025 360.263L167.465 353.924H175.331V363.779H177.144V368.371H175.364V365.35H166.498V368.371ZM179.594 369.624C179.363 369.624 178.978 369.602 178.77 369.558V367.954C178.978 367.998 179.275 368.009 179.517 368.009C180.582 368.009 181.176 367.492 181.615 366.163L181.879 365.361L177.66 353.924H179.703L182.867 363.438H182.9L186.064 353.924H188.075L183.582 366.152C182.604 368.822 181.659 369.624 179.594 369.624ZM192.173 360.307C191.942 363.46 191.184 365.449 188.778 365.449C188.448 365.449 188.229 365.383 188.097 365.328V363.603C188.196 363.636 188.405 363.691 188.679 363.691C189.811 363.691 190.239 362.362 190.382 360.263L190.822 353.924H198.303V365.35H196.414V355.495H192.524L192.173 360.307ZM205.027 359.143H202.896V363.779H205.027C206.51 363.779 207.466 362.856 207.466 361.461C207.466 360.054 206.499 359.143 205.027 359.143ZM201.006 365.35V353.924H202.896V357.572H205.06C207.675 357.572 209.355 359.077 209.355 361.461C209.355 363.845 207.675 365.35 205.06 365.35H201.006ZM220.803 365.548C217.639 365.548 215.508 363.273 215.508 359.637C215.508 355.99 217.639 353.726 220.803 353.726C223.956 353.726 226.088 355.99 226.088 359.637C226.088 363.273 223.956 365.548 220.803 365.548ZM220.803 363.867C222.825 363.867 224.143 362.329 224.143 359.637C224.143 356.945 222.825 355.407 220.803 355.407C218.782 355.407 217.452 356.945 217.452 359.637C217.452 362.329 218.782 363.867 220.803 363.867ZM232.042 360.999H231.998L229.241 365.35H227.12L231.01 359.637L227.186 353.924H229.318L232.064 358.209H232.108L234.822 353.924H236.953L233.097 359.56L236.898 365.35H234.778L232.042 360.999ZM244.314 353.726C247.225 353.726 249.203 356.055 249.203 359.637C249.203 363.219 247.236 365.548 244.358 365.548C242.721 365.548 241.403 364.746 240.721 363.493H240.677V369.162H238.766V353.924H240.579V355.858H240.623C241.326 354.572 242.655 353.726 244.314 353.726ZM243.94 363.867C245.973 363.867 247.247 362.23 247.247 359.637C247.247 357.055 245.973 355.407 243.94 355.407C241.985 355.407 240.667 357.099 240.667 359.637C240.667 362.186 241.985 363.867 243.94 363.867ZM255.103 363.922C256.904 363.922 258.289 362.658 258.289 361.01V360.076L255.234 360.263C253.696 360.362 252.817 361.043 252.817 362.12C252.817 363.208 253.729 363.922 255.103 363.922ZM254.674 365.548C252.4 365.548 250.873 364.174 250.873 362.12C250.873 360.164 252.378 358.934 255.015 358.78L258.289 358.593V357.637C258.289 356.242 257.366 355.407 255.784 355.407C254.312 355.407 253.389 356.099 253.147 357.22H251.301C251.433 355.242 253.125 353.726 255.828 353.726C258.508 353.726 260.2 355.177 260.2 357.451V365.35H258.387V363.383H258.344C257.662 364.691 256.212 365.548 254.674 365.548ZM270.363 365.35V360.208H264.727V365.35H262.837V353.924H264.727V358.637H270.363V353.924H272.252V365.35H270.363ZM282.469 365.35V360.208H276.833V365.35H274.944V353.924H276.833V358.637H282.469V353.924H284.359V365.35H282.469ZM291.797 365.548C288.633 365.548 286.501 363.273 286.501 359.637C286.501 355.99 288.633 353.726 291.797 353.726C294.95 353.726 297.081 355.99 297.081 359.637C297.081 363.273 294.95 365.548 291.797 365.548ZM291.797 363.867C293.818 363.867 295.137 362.329 295.137 359.637C295.137 356.945 293.818 355.407 291.797 355.407C289.775 355.407 288.446 356.945 288.446 359.637C288.446 362.329 289.775 363.867 291.797 363.867ZM306.552 355.495H301.091V365.35H299.202V353.924H306.552V355.495ZM312.935 365.548C309.771 365.548 307.639 363.273 307.639 359.637C307.639 355.99 309.771 353.726 312.935 353.726C316.088 353.726 318.219 355.99 318.219 359.637C318.219 363.273 316.088 365.548 312.935 365.548ZM312.935 363.867C314.956 363.867 316.274 362.329 316.274 359.637C316.274 356.945 314.956 355.407 312.935 355.407C310.913 355.407 309.584 356.945 309.584 359.637C309.584 362.329 310.913 363.867 312.935 363.867ZM332.369 365.35V355.495H326.843V365.35H324.954V353.924H334.27V365.35H332.369ZM341.697 365.548C338.533 365.548 336.401 363.273 336.401 359.637C336.401 355.99 338.533 353.726 341.697 353.726C344.85 353.726 346.981 355.99 346.981 359.637C346.981 363.273 344.85 365.548 341.697 365.548ZM341.697 363.867C343.718 363.867 345.037 362.329 345.037 359.637C345.037 356.945 343.718 355.407 341.697 355.407C339.675 355.407 338.346 356.945 338.346 359.637C338.346 362.329 339.675 363.867 341.697 363.867ZM351.716 360.307C351.486 363.46 350.728 365.449 348.322 365.449C347.992 365.449 347.772 365.383 347.64 365.328V363.603C347.739 363.636 347.948 363.691 348.223 363.691C349.354 363.691 349.783 362.362 349.926 360.263L350.365 353.924H357.847V365.35H355.957V355.495H352.068L351.716 360.307ZM364.658 359.714H366.844V355.495H364.658C363.175 355.495 362.23 356.308 362.23 357.681C362.23 358.868 363.186 359.714 364.658 359.714ZM366.844 365.35V361.285H364.823L361.923 365.35H359.736L362.922 360.933C361.307 360.472 360.33 359.285 360.33 357.714C360.33 355.363 362.021 353.924 364.647 353.924H368.734V365.35H366.844Z" fill="black"/>
<defs>
<filter id="filter0_b_802_7121" x="-891.097" y="-883.342" width="2263.9" height="2094.75" filterUnits="userSpaceOnUse" color-interpolation-filters="sRGB">
<feFlood flood-opacity="0" result="BackgroundImageFix"/>
<feGaussianBlur in="BackgroundImageFix" stdDeviation="476.822"/>
<feComposite in2="SourceAlpha" operator="in" result="effect1_backgroundBlur_802_7121"/>
<feBlend mode="normal" in="SourceGraphic" in2="effect1_backgroundBlur_802_7121" result="shape"/>
</filter>
</defs>
</svg>
