<svg width="343" height="97" viewBox="0 0 343 97" fill="none" xmlns="http://www.w3.org/2000/svg">
<g filter="url(#filter0_b_697_5409)">
<rect x="8" y="9.44987" width="202" height="83" fill="white" fill-opacity="0.24"/>
</g>
<g filter="url(#filter1_b_697_5409)">
<rect x="188" y="39.4499" width="152" height="53" fill="white" fill-opacity="0.24"/>
</g>
<path fill-rule="evenodd" clip-rule="evenodd" d="M216.723 0C221.351 0 225.103 3.75183 225.103 8.37995V25.1398C225.103 29.768 228.855 33.5198 233.483 33.5198H334.62C339.248 33.5198 343 37.2716 343 41.8997V88.1339C343 92.7621 339.248 96.5139 334.62 96.5139H8.37995C3.75184 96.5139 0 92.7621 0 88.134V33.5198V8.37995C0 3.75184 3.75183 0 8.37995 0H216.723ZM13.8008 17.7599V43.5585H38.2125C46.6386 43.5585 49.1006 40.1603 49.1006 36.1033V35.6872C49.1006 31.1447 45.4597 29.6189 43.1711 29.0641C44.8702 28.6827 47.6096 27.2263 47.6096 24.0015V23.62C47.6096 20.6726 45.5984 17.7599 38.0738 17.7599H13.8008ZM23.6487 23.62H35.0916C37.1375 23.62 37.727 24.3829 37.727 25.3885V25.4579C37.727 26.4288 37.1375 27.261 35.0916 27.261H23.6487V23.62ZM23.6487 33.0518H35.7158C38.2471 33.0518 38.7673 34.0574 38.7673 35.167V35.2711C38.7673 36.2767 38.2818 37.4903 35.7158 37.4903H23.6487V33.0518ZM61.0334 28.4746V24.0362H72.3376C74.5569 24.0362 75.3197 25.0071 75.3197 26.2207V26.2554C75.3197 27.5037 74.5222 28.4746 72.3376 28.4746H61.0334ZM61.0334 43.5585V34.7163H70.4651C74.3488 34.7163 75.7012 36.242 75.7012 39.1894V42.2062C75.7012 42.9344 75.7705 43.2811 76.0133 43.5585H86.0692V43.3852C85.8265 42.9344 85.5837 42.2756 85.5837 40.4724V36.6581C85.5837 33.3292 83.4685 31.2487 80.2784 30.5205C82.2202 30.0697 85.4797 28.5093 85.4797 24.7643V24.3829C85.4797 20.1872 82.1508 17.7599 74.6262 17.7599H51.1855V43.5585H61.0334ZM105.629 24.0708L109.963 32.9478H101.399L105.629 24.0708ZM113.119 39.3975L115.13 43.5585H125.914L112.425 17.7599H99.1793L86.4186 43.5585H96.4052L98.3818 39.3975H113.119ZM138.065 17.7599H127.038V43.5585H136.817V27.9198L152.976 43.5585H162.824V17.7599H153.045V32.4277L138.065 17.7599ZM166.15 17.7599V43.5585H184.494C199.855 43.5585 203.08 36.8661 203.08 31.006V29.9657C203.08 23.8975 199.335 17.7599 184.459 17.7599H166.15ZM175.998 36.7274V24.5216H183.315C191.914 24.5216 192.85 28.2319 192.85 30.4858V30.6939C192.85 32.9478 191.914 36.7274 183.315 36.7274H175.998ZM30.3411 78.044H31.1386C39.1834 78.044 42.4082 75.0966 43.4138 73.987C43.8993 74.9232 44.4541 76.7263 44.6274 77.5585H50.8344V63.0294H31.7281V68.0574H40.7785C40.7785 68.8896 38.6286 71.2823 31.9708 71.2823C25.5905 71.2823 23.1285 68.0574 23.1285 64.7632V64.3818C23.1285 60.9836 25.1051 58.0015 32.0402 58.0015C39.3221 58.0015 40.2236 60.6022 40.397 61.261H50.661V61.2263C50.5223 57.62 48.3724 51.2744 32.5603 51.2744H31.208C15.9854 51.2744 12.9339 58.5216 12.9339 64.0697V65.0406C12.9339 70.4847 16.2281 78.044 30.3411 78.044ZM53.5494 51.7599V64.0697C53.5494 69.063 55.6646 77.9747 70.6792 77.9747H72.0662C86.6646 77.9747 89.0573 69.063 89.0573 64.0697V51.7599H79.2094V63.3069C79.2094 66.4623 77.753 70.242 71.338 70.242C64.819 70.242 63.4319 66.4623 63.4319 63.3069V51.7599H53.5494ZM101.905 77.5585V51.7599H92.0919V77.5585H101.905ZM105.231 51.7599V77.5585H123.574C138.935 77.5585 142.16 70.8661 142.16 65.006V63.9657C142.16 57.8975 138.415 51.7599 123.539 51.7599H105.231ZM115.079 70.7274V58.5216H122.395C130.995 58.5216 131.931 62.2319 131.931 64.4858V64.6939C131.931 66.9478 130.995 70.7274 122.395 70.7274H115.079ZM173.05 51.7599H144.512V77.5585H173.327V71.1089H154.221V67.572H172.668V61.2957H154.221V58.0708H173.05V51.7599ZM186.021 51.7599H176.174V77.5585H203.914V70.1726H186.021V51.7599ZM216.328 77.5585V51.7599H206.515V77.5585H216.328ZM230.68 51.7599H219.654V77.5585H229.432V61.9198L245.591 77.5585H255.439V51.7599H245.66V66.4277L230.68 51.7599ZM287.303 51.7599H258.765V77.5585H287.581V71.1089H268.474V67.572H286.922V61.2957H268.474V58.0708H287.303V51.7599ZM304.991 78.044H308.146C321.705 78.044 324.132 73.6055 324.132 69.2711V68.7856C324.132 63.5843 320.318 61.2957 310.504 61.0183L305.858 60.9142C301.003 60.8102 300.24 59.978 300.24 58.9377V58.903C300.24 57.8975 300.76 56.9959 305.927 56.9959H306.274C311.857 56.9959 312.412 58.799 312.516 59.7353H323.23V59.4579C323.23 55.3661 320.318 51.3091 307.557 51.3091H304.471C292.438 51.3091 289.63 54.9847 289.63 59.1805V59.4925C289.63 63.4802 292.3 66.9825 302.286 67.2599L307.071 67.3986C312.481 67.572 313.14 68.4042 313.14 69.7218V69.7565C313.14 71.0049 312.342 72.1838 306.829 72.1838H306.517C300.899 72.1838 300.171 69.9299 300.067 68.5429H289.248V68.8896C289.248 72.2532 290.739 78.044 304.991 78.044Z" fill="white"/>
<defs>
<filter id="filter0_b_697_5409" x="-42" y="-40.5501" width="302" height="183" filterUnits="userSpaceOnUse" color-interpolation-filters="sRGB">
<feFlood flood-opacity="0" result="BackgroundImageFix"/>
<feGaussianBlur in="BackgroundImageFix" stdDeviation="25"/>
<feComposite in2="SourceAlpha" operator="in" result="effect1_backgroundBlur_697_5409"/>
<feBlend mode="normal" in="SourceGraphic" in2="effect1_backgroundBlur_697_5409" result="shape"/>
</filter>
<filter id="filter1_b_697_5409" x="138" y="-10.5501" width="252" height="153" filterUnits="userSpaceOnUse" color-interpolation-filters="sRGB">
<feFlood flood-opacity="0" result="BackgroundImageFix"/>
<feGaussianBlur in="BackgroundImageFix" stdDeviation="25"/>
<feComposite in2="SourceAlpha" operator="in" result="effect1_backgroundBlur_697_5409"/>
<feBlend mode="normal" in="SourceGraphic" in2="effect1_backgroundBlur_697_5409" result="shape"/>
</filter>
</defs>
</svg>
