<svg width="891" height="251" viewBox="0 0 891 251" fill="none" xmlns="http://www.w3.org/2000/svg">
<path fill-rule="evenodd" clip-rule="evenodd" d="M563 0C575.012 0 584.75 9.73781 584.75 21.75V65.25C584.75 77.2622 594.488 87 606.5 87H869C881.012 87 890.75 96.7378 890.75 108.75V228.75C890.75 240.762 881.012 250.5 869 250.5H22.25C10.2378 250.5 0.5 240.762 0.5 228.75V87V21.75C0.5 9.73781 10.2378 0 22.25 0H563ZM36.32 45.04V112H99.68C121.55 112 127.94 103.18 127.94 92.65V91.57C127.94 79.78 118.49 75.82 112.55 74.38C116.96 73.39 124.07 69.61 124.07 61.24V60.25C124.07 52.6 118.85 45.04 99.32 45.04H36.32ZM61.88 60.25H91.58C96.89 60.25 98.42 62.23 98.42 64.84V65.02C98.42 67.54 96.89 69.7 91.58 69.7H61.88V60.25ZM61.88 84.73H93.2C99.77 84.73 101.12 87.34 101.12 90.22V90.49C101.12 93.1 99.86 96.25 93.2 96.25H61.88V84.73ZM158.911 72.85V61.33H188.251C194.011 61.33 195.991 63.85 195.991 67V67.09C195.991 70.33 193.921 72.85 188.251 72.85H158.911ZM158.911 112V89.05H183.391C193.471 89.05 196.981 93.01 196.981 100.66V108.49C196.981 110.38 197.161 111.28 197.791 112H223.891V111.55C223.261 110.38 222.631 108.67 222.631 103.99V94.09C222.631 85.45 217.141 80.05 208.861 78.16C213.901 76.99 222.361 72.94 222.361 63.22V62.23C222.361 51.34 213.721 45.04 194.191 45.04H133.351V112H158.911ZM274.658 61.42L285.908 84.46H263.678L274.658 61.42ZM294.098 101.2L299.318 112H327.308L292.298 45.04H257.918L224.798 112H250.718L255.848 101.2H294.098ZM358.846 45.04H330.226V112H355.606V71.41L397.546 112H423.106V45.04H397.726V83.11L358.846 45.04ZM431.74 45.04V112H479.35C519.22 112 527.59 94.63 527.59 79.42V76.72C527.59 60.97 517.87 45.04 479.26 45.04H431.74ZM457.3 94.27V62.59H476.29C498.61 62.59 501.04 72.22 501.04 78.07V78.61C501.04 84.46 498.61 94.27 476.29 94.27H457.3ZM79.25 203.26H81.32C102.2 203.26 110.57 195.61 113.18 192.73C114.44 195.16 115.88 199.84 116.33 202H132.44V164.29H82.85V177.34H106.34C106.34 179.5 100.76 185.71 83.48 185.71C66.92 185.71 60.53 177.34 60.53 168.79V167.8C60.53 158.98 65.66 151.24 83.66 151.24C102.56 151.24 104.9 157.99 105.35 159.7H131.99V159.61C131.63 150.25 126.05 133.78 85.01 133.78H81.5C41.99 133.78 34.07 152.59 34.07 166.99V169.51C34.07 183.64 42.62 203.26 79.25 203.26ZM139.487 135.04V166.99C139.487 179.95 144.977 203.08 183.947 203.08H187.547C225.437 203.08 231.647 179.95 231.647 166.99V135.04H206.087V165.01C206.087 173.2 202.307 183.01 185.657 183.01C168.737 183.01 165.137 173.2 165.137 165.01V135.04H139.487ZM264.993 202V135.04H239.523V202H264.993ZM273.625 135.04V202H321.235C361.105 202 369.475 184.63 369.475 169.42V166.72C369.475 150.97 359.755 135.04 321.145 135.04H273.625ZM299.185 184.27V152.59H318.175C340.495 152.59 342.925 162.22 342.925 168.07V168.61C342.925 174.46 340.495 184.27 318.175 184.27H299.185ZM449.648 135.04H375.578V202H450.368V185.26H400.778V176.08H448.658V159.79H400.778V151.42H449.648V135.04ZM483.316 135.04H457.756V202H529.756V182.83H483.316V135.04ZM561.976 202V135.04H536.506V202H561.976ZM599.227 135.04H570.607V202H595.987V161.41L637.927 202H663.487V135.04H638.107V173.11L599.227 135.04ZM746.191 135.04H672.121V202H746.911V185.26H697.321V176.08H745.201V159.79H697.321V151.42H746.191V135.04ZM792.099 203.26H800.289C835.479 203.26 841.779 191.74 841.779 180.49V179.23C841.779 165.73 831.879 159.79 806.409 159.07L794.349 158.8C781.749 158.53 779.768 156.37 779.768 153.67V153.58C779.768 150.97 781.119 148.63 794.529 148.63H795.429C809.919 148.63 811.359 153.31 811.629 155.74H839.439V155.02C839.439 144.4 831.879 133.87 798.759 133.87H790.749C759.518 133.87 752.229 143.41 752.229 154.3V155.11C752.229 165.46 759.159 174.55 785.078 175.27L797.499 175.63C811.539 176.08 813.249 178.24 813.249 181.66V181.75C813.249 184.99 811.179 188.05 796.869 188.05H796.059C781.479 188.05 779.589 182.2 779.319 178.6H751.239V179.5C751.239 188.23 755.109 203.26 792.099 203.26Z" fill="white"/>
</svg>
