<svg width="745" height="313" viewBox="0 0 745 313" fill="none" xmlns="http://www.w3.org/2000/svg">
<path opacity="0.3" d="M1.3325 21.0498V8.9448H7.4525V16.0548L14.0225 8.9448H20.21V21.0498H14.1125V13.9398L7.52 21.0498H1.3325ZM31.7319 21.3873H30.3819C22.6194 21.3873 21.4719 17.6523 21.4719 15.1323V14.7273C21.4719 12.2298 22.5969 8.6073 30.3594 8.6073H31.7544C39.8319 8.6073 40.6644 12.3423 40.6644 14.0073V14.0748H34.4094C34.3419 13.6248 33.9369 11.9823 31.0569 11.9823H30.9669C28.3569 11.9823 27.6819 13.4223 27.6819 14.7948V14.9073C27.6819 16.3698 28.4019 17.9673 30.9669 17.9673H31.0569C33.9144 17.9673 34.3419 16.2573 34.4094 15.7848H40.6644V15.8298C40.6644 17.4723 40.0119 21.3873 31.7319 21.3873ZM41.6963 21.0498V8.9448H59.5163V21.0498H53.4188V12.6348H47.8163V21.0498H41.6963ZM71.626 21.3873H69.961C62.221 21.3873 60.781 17.7198 60.781 15.1098V14.7498C60.781 12.1848 62.176 8.6073 69.9385 8.6073H71.6485C79.681 8.6073 80.7835 12.2073 80.7835 14.7273V15.1323C80.7835 17.7198 79.771 21.3873 71.626 21.3873ZM70.816 12.0273H70.7935C67.7785 12.0273 66.991 13.5348 66.991 14.8623V14.9523C66.991 16.2798 67.756 17.9448 70.7935 17.9448H70.816C73.8085 17.9448 74.596 16.2123 74.596 14.9523V14.8623C74.596 13.5348 73.8085 12.0273 70.816 12.0273ZM92.5352 21.0498V12.6348H88.3502C88.2827 16.1448 88.1702 17.6748 87.6077 18.8448C86.9552 20.2848 85.6277 21.0498 83.1752 21.0498H80.8802V17.2023H81.1502C81.8477 17.2023 82.2977 16.9098 82.5002 16.1223C82.7252 15.3123 82.8827 14.3448 82.8827 8.9448H98.6327V21.0498H92.5352ZM100.451 21.0498V8.9448H106.571V11.9598H111.724C116.156 11.9598 117.956 13.8723 117.956 16.2348V16.5273C117.956 18.8898 116.156 21.0498 111.724 21.0498H100.451ZM106.571 17.8098H110.194C111.341 17.8098 111.769 17.1573 111.769 16.5498V16.4598C111.769 15.7623 111.341 15.1998 110.194 15.1998H106.571V17.8098ZM137.036 17.4498V17.6298C137.036 19.6548 134.696 21.3873 128.419 21.3873H127.744C121.421 21.3873 118.654 19.0698 118.654 16.3023V16.2123H124.729C124.729 17.3823 125.584 18.2823 128.059 18.2823C129.859 18.2823 130.759 17.9223 130.759 17.1798V17.1123C130.759 16.3248 129.859 16.1223 128.599 16.1223H125.471V13.5123H128.711C129.724 13.5123 130.241 13.2198 130.241 12.6123V12.5448C130.241 11.8923 129.341 11.5773 127.789 11.5773C125.471 11.5773 124.796 12.3648 124.729 13.1973H118.654V13.0623C118.654 10.7223 121.106 8.6073 127.676 8.6073H128.419C133.639 8.6073 136.384 9.6648 136.384 11.6448V11.8248C136.384 13.1748 135.169 14.1648 133.076 14.4123C135.326 14.6598 137.036 15.7398 137.036 17.4498ZM148.486 21.3873H146.821C139.081 21.3873 137.641 17.7198 137.641 15.1098V14.7498C137.641 12.1848 139.036 8.6073 146.799 8.6073H148.509C156.541 8.6073 157.644 12.2073 157.644 14.7273V15.1323C157.644 17.7198 156.631 21.3873 148.486 21.3873ZM147.676 12.0273H147.654C144.639 12.0273 143.851 13.5348 143.851 14.8623V14.9523C143.851 16.2798 144.616 17.9448 147.654 17.9448H147.676C150.669 17.9448 151.456 16.2123 151.456 14.9523V14.8623C151.456 13.5348 150.669 12.0273 147.676 12.0273ZM170.557 21.0498H158.767V8.9448H169.724C174.607 8.9448 176.092 10.0698 176.092 11.7348V11.9148C176.092 13.2648 174.944 14.0523 173.347 14.3898C175.079 14.6823 176.767 15.6273 176.767 17.4048V17.5848C176.767 19.4973 175.147 21.0498 170.557 21.0498ZM164.797 13.3773H168.194C169.544 13.3773 169.972 13.1073 169.972 12.5673V12.5223C169.972 11.9823 169.522 11.7798 168.172 11.7798H164.797V13.3773ZM164.797 18.1473H168.577C169.949 18.1473 170.512 17.7648 170.512 17.1123V17.0223C170.512 16.3923 169.972 16.0773 168.554 16.0773H164.797V18.1473ZM188.861 15.8523V15.3348L184.811 16.0548C183.753 16.2348 183.326 16.4823 183.326 17.0898V17.1123C183.326 17.6748 183.731 18.3498 185.238 18.3498C187.488 18.3498 188.861 17.1123 188.861 15.8523ZM188.973 19.4298C188.388 20.0148 186.836 21.2748 183.303 21.2748H183.056C179.006 21.2748 177.453 19.3623 177.453 17.3823V17.1123C177.453 15.0873 178.758 13.8948 182.358 13.6023L188.186 13.0848C188.703 13.0173 188.861 12.8373 188.861 12.4998C188.861 12.0498 188.613 11.5773 186.228 11.5773H186.138C183.551 11.5773 183.483 12.4323 183.416 12.8148H177.746V12.6798C177.746 11.0598 178.241 8.6298 185.508 8.6298H186.768C194.328 8.6298 194.846 10.8798 194.846 12.5223V16.9998C194.846 17.3373 194.936 17.5173 195.363 17.5173H196.016V21.0498H190.931C189.873 21.0498 189.153 20.4873 188.973 19.4298ZM202.987 21.0498H196.867V8.9448H202.987V13.1748H208.95V8.9448H215.07V21.0498H208.95V16.8873H202.987V21.0498ZM216.73 21.0498V8.9448H222.85V16.0548L229.42 8.9448H235.608V21.0498H229.51V13.9398L222.918 21.0498H216.73ZM246.432 11.5773C244.115 11.5773 243.237 12.3198 242.945 13.3998H249.92C249.672 12.2523 248.75 11.5773 246.432 11.5773ZM255.995 16.6398V16.6848C255.995 18.3723 254.96 21.3873 247.062 21.3873H245.87C238.422 21.3873 236.87 17.9898 236.87 15.1548V14.7048C236.87 11.9148 238.31 8.6073 245.802 8.6073H247.04C254.937 8.6073 256.04 12.2973 256.04 15.1998V15.8748H242.877C243.057 17.1348 244.092 18.1023 246.545 18.1023H246.567C249.47 18.1023 249.92 16.9098 249.965 16.6398H255.995Z" fill="black"/>
<path d="M272.895 14.0071C272.664 17.1602 271.906 19.1487 269.5 19.1487C269.17 19.1487 268.95 19.0828 268.819 19.0278V17.303C268.917 17.3359 269.126 17.3909 269.401 17.3909C270.532 17.3909 270.961 16.0615 271.104 13.9631L271.543 7.62402H279.025V19.0498H277.135V9.19507H273.246L272.895 14.0071ZM286.474 19.2476C283.31 19.2476 281.178 16.9734 281.178 13.3369C281.178 9.68945 283.31 7.42627 286.474 7.42627C289.627 7.42627 291.758 9.68945 291.758 13.3369C291.758 16.9734 289.627 19.2476 286.474 19.2476ZM286.474 17.5667C288.495 17.5667 289.813 16.0286 289.813 13.3369C289.813 10.6453 288.495 9.10718 286.474 9.10718C284.452 9.10718 283.123 10.6453 283.123 13.3369C283.123 16.0286 284.452 17.5667 286.474 17.5667ZM301.228 9.19507H295.768V19.0498H293.878V7.62402H301.228V9.19507ZM307.611 19.2476C304.447 19.2476 302.316 16.9734 302.316 13.3369C302.316 9.68945 304.447 7.42627 307.611 7.42627C310.764 7.42627 312.896 9.68945 312.896 13.3369C312.896 16.9734 310.764 19.2476 307.611 19.2476ZM307.611 17.5667C309.633 17.5667 310.951 16.0286 310.951 13.3369C310.951 10.6453 309.633 9.10718 307.611 9.10718C305.59 9.10718 304.26 10.6453 304.26 13.3369C304.26 16.0286 305.59 17.5667 307.611 17.5667ZM322.937 7.62402V9.19507H319.246V19.0498H317.356V9.19507H313.665V7.62402H322.937ZM326.596 19.0498H324.706V7.62402H326.596V16.1274H326.684L332.396 7.62402H334.286V19.0498H332.396V10.5464H332.309L326.596 19.0498ZM344.383 19.0498V9.19507H338.856V19.0498H336.967V7.62402H346.283V19.0498H344.383ZM358.203 9.1731H355.468V12.3701H357.918C359.357 12.3701 360.049 11.8428 360.049 10.7441C360.049 9.7334 359.401 9.1731 358.203 9.1731ZM358.072 13.9082H355.468V17.5007H358.412C359.796 17.5007 360.543 16.8745 360.543 15.7209C360.543 14.5015 359.741 13.9082 358.072 13.9082ZM353.578 19.0498V7.62402H358.467C360.609 7.62402 361.917 8.73364 361.917 10.5464C361.917 11.7109 361.093 12.7876 360.038 13.0073V13.0952C361.477 13.293 362.422 14.3367 362.422 15.7649C362.422 17.7864 360.928 19.0498 358.5 19.0498H353.578ZM374.068 11.1396H372.178C371.848 10.041 370.915 9.10718 369.3 9.10718C367.311 9.10718 366.004 10.7881 366.004 13.3369C366.004 15.9517 367.333 17.5667 369.322 17.5667C370.838 17.5667 371.837 16.8196 372.2 15.5562H374.09C373.716 17.7205 371.881 19.2476 369.311 19.2476C366.135 19.2476 364.059 16.9734 364.059 13.3369C364.059 9.77734 366.125 7.42627 369.289 7.42627C372.046 7.42627 373.727 9.19507 374.068 11.1396ZM380.67 9.08521C378.88 9.08521 377.627 10.4585 377.506 12.3591H383.714C383.67 10.4475 382.472 9.08521 380.67 9.08521ZM383.67 15.7759H385.548C385.219 17.7754 383.285 19.2476 380.791 19.2476C377.517 19.2476 375.529 16.9734 375.529 13.3809C375.529 9.83228 377.55 7.42627 380.703 7.42627C383.791 7.42627 385.691 9.66748 385.691 13.1282V13.8533H377.495V13.9631C377.495 16.1494 378.781 17.5886 380.835 17.5886C382.285 17.5886 383.351 16.8525 383.67 15.7759ZM395.161 9.19507H389.701V19.0498H387.812V7.62402H395.161V9.19507ZM403.939 17.4788V9.19507H399.655L399.303 14.0071C399.204 15.4243 398.908 16.6658 398.369 17.3909V17.4788H403.939ZM397.007 22.071H395.227V17.4788H396.183C397.018 16.9294 397.425 15.5012 397.534 13.9631L397.974 7.62402H405.84V17.4788H407.653V22.071H405.873V19.0498H397.007V22.071ZM413.146 17.6216C414.948 17.6216 416.332 16.3582 416.332 14.7102V13.7764L413.278 13.9631C411.74 14.062 410.861 14.7432 410.861 15.8198C410.861 16.9075 411.773 17.6216 413.146 17.6216ZM412.718 19.2476C410.443 19.2476 408.916 17.8743 408.916 15.8198C408.916 13.8643 410.421 12.6338 413.058 12.48L416.332 12.2932V11.3374C416.332 9.94214 415.409 9.10718 413.827 9.10718C412.355 9.10718 411.432 9.79932 411.19 10.9199H409.345C409.477 8.94238 411.168 7.42627 413.871 7.42627C416.552 7.42627 418.244 8.87646 418.244 11.1506V19.0498H416.431V17.0833H416.387C415.706 18.3906 414.256 19.2476 412.718 19.2476ZM429.307 19.2476C426.802 19.2476 424.989 18.0171 424.792 16.0835H426.725C426.945 17.0833 427.89 17.6655 429.307 17.6655C430.966 17.6655 431.889 16.8745 431.889 15.7649C431.889 14.4795 431.032 13.8972 429.307 13.8972H427.593V12.3372H429.307C430.757 12.3372 431.504 11.7878 431.504 10.6672C431.504 9.71143 430.823 9.01929 429.351 9.01929C428 9.01929 427.055 9.60156 426.901 10.5134H425.044C425.286 8.62378 426.934 7.42627 429.351 7.42627C431.955 7.42627 433.372 8.67871 433.372 10.5134C433.372 11.678 432.625 12.7107 431.482 12.9744V13.0623C432.987 13.3918 433.767 14.3586 433.767 15.677C433.767 17.8083 431.988 19.2476 429.307 19.2476ZM439.733 17.6216C441.535 17.6216 442.919 16.3582 442.919 14.7102V13.7764L439.865 13.9631C438.327 14.062 437.448 14.7432 437.448 15.8198C437.448 16.9075 438.36 17.6216 439.733 17.6216ZM439.304 19.2476C437.03 19.2476 435.503 17.8743 435.503 15.8198C435.503 13.8643 437.008 12.6338 439.645 12.48L442.919 12.2932V11.3374C442.919 9.94214 441.996 9.10718 440.414 9.10718C438.942 9.10718 438.019 9.79932 437.777 10.9199H435.932C436.063 8.94238 437.755 7.42627 440.458 7.42627C443.139 7.42627 444.831 8.87646 444.831 11.1506V19.0498H443.018V17.0833H442.974C442.293 18.3906 440.843 19.2476 439.304 19.2476ZM454.993 19.0498V13.9082H449.357V19.0498H447.467V7.62402H449.357V12.3372H454.993V7.62402H456.883V19.0498H454.993ZM461.464 19.0498H459.574V7.62402H461.464V16.1274H461.552L467.265 7.62402H469.154V19.0498H467.265V10.5464H467.177L461.464 19.0498ZM473.725 19.0498H471.835V7.62402H474.153L478.218 16.5229H478.306L482.393 7.62402H484.623V19.0498H482.722V10.9419H482.646L478.954 18.7202H477.493L473.802 10.9419H473.725V19.0498ZM491.083 17.6216C492.885 17.6216 494.269 16.3582 494.269 14.7102V13.7764L491.215 13.9631C489.677 14.062 488.798 14.7432 488.798 15.8198C488.798 16.9075 489.71 17.6216 491.083 17.6216ZM490.655 19.2476C488.38 19.2476 486.853 17.8743 486.853 15.8198C486.853 13.8643 488.358 12.6338 490.995 12.48L494.269 12.2932V11.3374C494.269 9.94214 493.346 9.10718 491.764 9.10718C490.292 9.10718 489.369 9.79932 489.127 10.9199H487.282C487.414 8.94238 489.105 7.42627 491.808 7.42627C494.489 7.42627 496.181 8.87646 496.181 11.1506V19.0498H494.368V17.0833H494.324C493.643 18.3906 492.193 19.2476 490.655 19.2476ZM503.41 9.08521C501.619 9.08521 500.366 10.4585 500.246 12.3591H506.453C506.409 10.4475 505.211 9.08521 503.41 9.08521ZM506.409 15.7759H508.288C507.958 17.7754 506.024 19.2476 503.531 19.2476C500.257 19.2476 498.268 16.9734 498.268 13.3809C498.268 9.83228 500.29 7.42627 503.443 7.42627C506.53 7.42627 508.43 9.66748 508.43 13.1282V13.8533H500.235V13.9631C500.235 16.1494 501.52 17.5886 503.574 17.5886C505.025 17.5886 506.09 16.8525 506.409 15.7759ZM518.472 7.62402V9.19507H514.781V19.0498H512.891V9.19507H509.199V7.62402H518.472ZM524.701 7.76685C524.701 4.99829 526.942 2.93286 529.931 2.93286C532.765 2.93286 534.995 4.85547 534.995 7.28345C534.995 9.05225 534.193 10.3706 531.546 13.1062L527.536 17.248V17.292H535.259V19.0498H524.8V17.6875L530.381 11.8098C532.512 9.5686 533.018 8.72266 533.018 7.4043C533.018 5.8772 531.623 4.65771 529.876 4.65771C528.019 4.65771 526.613 5.99805 526.613 7.76685V7.77783H524.701V7.76685ZM546.092 13.0293L551.585 19.0498H549.124L544.191 13.5566H544.103V19.0498H542.213V7.62402H544.103V12.6777H544.191L549.069 7.62402H551.431L546.092 13.0293ZM557.704 19.2476C554.54 19.2476 552.409 16.9734 552.409 13.3369C552.409 9.68945 554.54 7.42627 557.704 7.42627C560.857 7.42627 562.989 9.68945 562.989 13.3369C562.989 16.9734 560.857 19.2476 557.704 19.2476ZM557.704 17.5667C559.726 17.5667 561.044 16.0286 561.044 13.3369C561.044 10.6453 559.726 9.10718 557.704 9.10718C555.683 9.10718 554.353 10.6453 554.353 13.3369C554.353 16.0286 555.683 17.5667 557.704 17.5667ZM567.724 14.0071C567.493 17.1602 566.735 19.1487 564.329 19.1487C563.999 19.1487 563.78 19.0828 563.648 19.0278V17.303C563.747 17.3359 563.955 17.3909 564.23 17.3909C565.362 17.3909 565.79 16.0615 565.933 13.9631L566.372 7.62402H573.854V19.0498H571.964V9.19507H568.075L567.724 14.0071ZM581.303 19.2476C578.139 19.2476 576.007 16.9734 576.007 13.3369C576.007 9.68945 578.139 7.42627 581.303 7.42627C584.456 7.42627 586.587 9.68945 586.587 13.3369C586.587 16.9734 584.456 19.2476 581.303 19.2476ZM581.303 17.5667C583.324 17.5667 584.643 16.0286 584.643 13.3369C584.643 10.6453 583.324 9.10718 581.303 9.10718C579.281 9.10718 577.952 10.6453 577.952 13.3369C577.952 16.0286 579.281 17.5667 581.303 17.5667ZM596.233 19.0498V13.9082H590.597V19.0498H588.708V7.62402H590.597V12.3372H596.233V7.62402H598.123V19.0498H596.233ZM604.693 13.0293L610.186 19.0498H607.725L602.792 13.5566H602.704V19.0498H600.814V7.62402H602.704V12.6777H602.792L607.67 7.62402H610.032L604.693 13.0293ZM613.668 19.0498H611.779V7.62402H613.668V16.1274H613.756L619.469 7.62402H621.359V19.0498H619.469V10.5464H619.381L613.668 19.0498ZM633.279 9.1731H630.543V12.3701H632.993C634.433 12.3701 635.125 11.8428 635.125 10.7441C635.125 9.7334 634.477 9.1731 633.279 9.1731ZM633.147 13.9082H630.543V17.5007H633.488C634.872 17.5007 635.619 16.8745 635.619 15.7209C635.619 14.5015 634.817 13.9082 633.147 13.9082ZM628.654 19.0498V7.62402H633.543C635.685 7.62402 636.992 8.73364 636.992 10.5464C636.992 11.7109 636.168 12.7876 635.114 13.0073V13.0952C636.553 13.293 637.498 14.3367 637.498 15.7649C637.498 17.7864 636.004 19.0498 633.576 19.0498H628.654ZM653.758 11.1396H651.868C651.538 10.041 650.604 9.10718 648.99 9.10718C647.001 9.10718 645.694 10.7881 645.694 13.3369C645.694 15.9517 647.023 17.5667 649.011 17.5667C650.528 17.5667 651.527 16.8196 651.89 15.5562H653.78C653.406 17.7205 651.571 19.2476 649 19.2476C645.825 19.2476 643.749 16.9734 643.749 13.3369C643.749 9.77734 645.814 7.42627 648.979 7.42627C651.736 7.42627 653.417 9.19507 653.758 11.1396ZM660.36 9.08521C658.57 9.08521 657.317 10.4585 657.196 12.3591H663.404C663.36 10.4475 662.162 9.08521 660.36 9.08521ZM663.36 15.7759H665.238C664.909 17.7754 662.975 19.2476 660.481 19.2476C657.207 19.2476 655.219 16.9734 655.219 13.3809C655.219 9.83228 657.24 7.42627 660.393 7.42627C663.48 7.42627 665.381 9.66748 665.381 13.1282V13.8533H657.185V13.9631C657.185 16.1494 658.471 17.5886 660.525 17.5886C661.975 17.5886 663.041 16.8525 663.36 15.7759ZM675.423 7.62402V9.19507H671.731V19.0498H669.842V9.19507H666.15V7.62402H675.423ZM681.07 13.0293L686.563 19.0498H684.102L679.169 13.5566H679.081V19.0498H677.191V7.62402H679.081V12.6777H679.169L684.047 7.62402H686.409L681.07 13.0293ZM690.045 19.0498H688.156V7.62402H690.045V16.1274H690.133L695.846 7.62402H697.736V19.0498H695.846V10.5464H695.758L690.045 19.0498ZM277.366 42.0498V36.9082H271.73V42.0498H269.84V30.624H271.73V35.3372H277.366V30.624H279.256V42.0498H277.366ZM285.727 40.6216C287.528 40.6216 288.913 39.3582 288.913 37.7102V36.7764L285.858 36.9631C284.32 37.062 283.441 37.7432 283.441 38.8198C283.441 39.9075 284.353 40.6216 285.727 40.6216ZM285.298 42.2476C283.024 42.2476 281.497 40.8743 281.497 38.8198C281.497 36.8643 283.002 35.6338 285.639 35.48L288.913 35.2932V34.3374C288.913 32.9421 287.99 32.1072 286.408 32.1072C284.936 32.1072 284.013 32.7993 283.771 33.9199H281.925C282.057 31.9424 283.749 30.4263 286.452 30.4263C289.132 30.4263 290.824 31.8765 290.824 34.1506V42.0498H289.011V40.0833H288.968C288.286 41.3906 286.836 42.2476 285.298 42.2476ZM307.534 34.1396H305.645C305.315 33.041 304.381 32.1072 302.766 32.1072C300.778 32.1072 299.47 33.7881 299.47 36.3369C299.47 38.9517 300.8 40.5667 302.788 40.5667C304.304 40.5667 305.304 39.8196 305.667 38.5562H307.556C307.183 40.7205 305.348 42.2476 302.777 42.2476C299.602 42.2476 297.526 39.9734 297.526 36.3369C297.526 32.7773 299.591 30.4263 302.755 30.4263C305.513 30.4263 307.194 32.1951 307.534 34.1396ZM313.324 40.6216C315.126 40.6216 316.51 39.3582 316.51 37.7102V36.7764L313.456 36.9631C311.918 37.062 311.039 37.7432 311.039 38.8198C311.039 39.9075 311.951 40.6216 313.324 40.6216ZM312.896 42.2476C310.622 42.2476 309.094 40.8743 309.094 38.8198C309.094 36.8643 310.6 35.6338 313.236 35.48L316.51 35.2932V34.3374C316.51 32.9421 315.587 32.1072 314.005 32.1072C312.533 32.1072 311.61 32.7993 311.369 33.9199H309.523C309.655 31.9424 311.347 30.4263 314.049 30.4263C316.73 30.4263 318.422 31.8765 318.422 34.1506V42.0498H316.609V40.0833H316.565C315.884 41.3906 314.434 42.2476 312.896 42.2476ZM322.948 42.0498H321.059V30.624H322.948V39.1274H323.036L328.749 30.624H330.639V42.0498H328.749V33.5464H328.661L322.948 42.0498ZM322.52 25.6802H323.926C323.926 26.9546 324.75 27.9543 326.057 27.9543C327.365 27.9543 328.189 26.9546 328.189 25.6802H329.595C329.595 27.7017 328.156 29.0859 326.057 29.0859C323.959 29.0859 322.52 27.7017 322.52 25.6802ZM341.68 30.624V32.1951H337.989V42.0498H336.099V32.1951H332.407V30.624H341.68ZM347.821 32.0852C346.031 32.0852 344.778 33.4585 344.657 35.3591H350.865C350.821 33.4475 349.623 32.0852 347.821 32.0852ZM350.821 38.7759H352.699C352.37 40.7754 350.436 42.2476 347.942 42.2476C344.668 42.2476 342.68 39.9734 342.68 36.3809C342.68 32.8323 344.701 30.4263 347.854 30.4263C350.941 30.4263 352.842 32.6675 352.842 36.1282V36.8533H344.646V36.9631C344.646 39.1494 345.932 40.5886 347.986 40.5886C349.436 40.5886 350.502 39.8525 350.821 38.7759ZM361.466 42.0498H359.577V30.624H361.466V39.1274H361.554L367.267 30.624H369.157V42.0498H367.267V33.5464H367.179L361.466 42.0498ZM379.627 34.7329V33.063H381.527C383.351 33.063 384.625 31.8875 384.625 30.2834C384.625 28.7124 383.56 27.6467 381.549 27.6467C379.726 27.6467 378.517 28.6904 378.341 30.3494H376.441C376.66 27.6577 378.66 25.9329 381.637 25.9329C384.472 25.9329 386.614 27.6357 386.614 30.0198C386.614 32.0083 385.34 33.4365 383.362 33.7881V33.832C385.757 33.9749 387.295 35.458 387.295 37.6882C387.295 40.4128 384.812 42.3135 381.703 42.3135C378.385 42.3135 376.265 40.4788 376.122 37.853H378.023C378.198 39.479 379.55 40.5996 381.681 40.5996C383.78 40.5996 385.285 39.4131 385.285 37.7542C385.285 35.8865 383.878 34.7329 381.615 34.7329H379.627ZM398.26 36.0293L403.753 42.0498H401.292L396.359 36.5566H396.271V42.0498H394.381V30.624H396.271V35.6777H396.359L401.237 30.624H403.599L398.26 36.0293ZM409.872 42.2476C406.708 42.2476 404.577 39.9734 404.577 36.3369C404.577 32.6895 406.708 30.4263 409.872 30.4263C413.025 30.4263 415.156 32.6895 415.156 36.3369C415.156 39.9734 413.025 42.2476 409.872 42.2476ZM409.872 40.5667C411.894 40.5667 413.212 39.0286 413.212 36.3369C413.212 33.6453 411.894 32.1072 409.872 32.1072C407.851 32.1072 406.521 33.6453 406.521 36.3369C406.521 39.0286 407.851 40.5667 409.872 40.5667ZM419.892 37.0071C419.661 40.1602 418.903 42.1487 416.497 42.1487C416.167 42.1487 415.948 42.0828 415.816 42.0278V40.303C415.915 40.3359 416.123 40.3909 416.398 40.3909C417.53 40.3909 417.958 39.0615 418.101 36.9631L418.54 30.624H426.022V42.0498H424.132V32.1951H420.243L419.892 37.0071ZM433.471 42.2476C430.307 42.2476 428.175 39.9734 428.175 36.3369C428.175 32.6895 430.307 30.4263 433.471 30.4263C436.624 30.4263 438.755 32.6895 438.755 36.3369C438.755 39.9734 436.624 42.2476 433.471 42.2476ZM433.471 40.5667C435.492 40.5667 436.811 39.0286 436.811 36.3369C436.811 33.6453 435.492 32.1072 433.471 32.1072C431.449 32.1072 430.12 33.6453 430.12 36.3369C430.12 39.0286 431.449 40.5667 433.471 40.5667ZM448.401 42.0498V36.9082H442.765V42.0498H440.875V30.624H442.765V35.3372H448.401V30.624H450.291V42.0498H448.401ZM456.861 36.0293L462.354 42.0498H459.893L454.96 36.5566H454.872V42.0498H452.982V30.624H454.872V35.6777H454.96L459.838 30.624H462.2L456.861 36.0293ZM465.836 42.0498H463.947V30.624H465.836V39.1274H465.924L471.637 30.624H473.527V42.0498H471.637V33.5464H471.549L465.836 42.0498ZM485.447 32.1731H482.711V35.3701H485.161C486.601 35.3701 487.293 34.8428 487.293 33.7441C487.293 32.7334 486.645 32.1731 485.447 32.1731ZM485.315 36.9082H482.711V40.5007H485.656C487.04 40.5007 487.787 39.8745 487.787 38.7209C487.787 37.5015 486.985 36.9082 485.315 36.9082ZM480.822 42.0498V30.624H485.711C487.853 30.624 489.16 31.7336 489.16 33.5464C489.16 34.7109 488.336 35.7876 487.282 36.0073V36.0952C488.721 36.293 489.666 37.3367 489.666 38.7649C489.666 40.7864 488.172 42.0498 485.744 42.0498H480.822ZM503.882 42.0498V32.1951H498.356V42.0498H496.466V30.624H505.783V42.0498H503.882ZM511.518 37.0071C511.287 40.1602 510.529 42.1487 508.123 42.1487C507.793 42.1487 507.573 42.0828 507.442 42.0278V40.303C507.541 40.3359 507.749 40.3909 508.024 40.3909C509.156 40.3909 509.584 39.0615 509.727 36.9631L510.166 30.624H517.648V42.0498H515.758V32.1951H511.869L511.518 37.0071ZM524.13 40.6216C525.932 40.6216 527.316 39.3582 527.316 37.7102V36.7764L524.262 36.9631C522.724 37.062 521.845 37.7432 521.845 38.8198C521.845 39.9075 522.757 40.6216 524.13 40.6216ZM523.701 42.2476C521.427 42.2476 519.9 40.8743 519.9 38.8198C519.9 36.8643 521.405 35.6338 524.042 35.48L527.316 35.2932V34.3374C527.316 32.9421 526.393 32.1072 524.811 32.1072C523.339 32.1072 522.416 32.7993 522.174 33.9199H520.329C520.46 31.9424 522.152 30.4263 524.855 30.4263C527.536 30.4263 529.228 31.8765 529.228 34.1506V42.0498H527.415V40.0833H527.371C526.69 41.3906 525.24 42.2476 523.701 42.2476ZM535.742 36.0293L541.236 42.0498H538.775L533.842 36.5566H533.754V42.0498H531.864V30.624H533.754V35.6777H533.842L538.72 30.624H541.082L535.742 36.0293ZM546.278 40.6216C548.08 40.6216 549.464 39.3582 549.464 37.7102V36.7764L546.41 36.9631C544.872 37.062 543.993 37.7432 543.993 38.8198C543.993 39.9075 544.905 40.6216 546.278 40.6216ZM545.85 42.2476C543.576 42.2476 542.049 40.8743 542.049 38.8198C542.049 36.8643 543.554 35.6338 546.19 35.48L549.464 35.2932V34.3374C549.464 32.9421 548.542 32.1072 546.959 32.1072C545.487 32.1072 544.564 32.7993 544.323 33.9199H542.477C542.609 31.9424 544.301 30.4263 547.003 30.4263C549.684 30.4263 551.376 31.8765 551.376 34.1506V42.0498H549.563V40.0833H549.519C548.838 41.3906 547.388 42.2476 545.85 42.2476ZM562.154 30.624V32.1951H558.462V42.0498H556.573V32.1951H552.881V30.624H562.154ZM567.262 40.6216C569.064 40.6216 570.448 39.3582 570.448 37.7102V36.7764L567.394 36.9631C565.856 37.062 564.977 37.7432 564.977 38.8198C564.977 39.9075 565.889 40.6216 567.262 40.6216ZM566.834 42.2476C564.56 42.2476 563.032 40.8743 563.032 38.8198C563.032 36.8643 564.538 35.6338 567.174 35.48L570.448 35.2932V34.3374C570.448 32.9421 569.525 32.1072 567.943 32.1072C566.471 32.1072 565.548 32.7993 565.307 33.9199H563.461C563.593 31.9424 565.285 30.4263 567.987 30.4263C570.668 30.4263 572.36 31.8765 572.36 34.1506V42.0498H570.547V40.0833H570.503C569.822 41.3906 568.372 42.2476 566.834 42.2476ZM579.051 37.6992H579.007L576.249 42.0498H574.129L578.018 36.3369L574.195 30.624H576.326L579.073 34.9087H579.116L581.83 30.624H583.961L580.105 36.26L583.906 42.0498H581.786L579.051 37.6992ZM586.972 45.2029H585.379L586.444 39.6108H588.477L586.972 45.2029ZM599.584 32.0852C597.793 32.0852 596.541 33.4585 596.42 35.3591H602.627C602.583 33.4475 601.386 32.0852 599.584 32.0852ZM602.583 38.7759H604.462C604.132 40.7754 602.199 42.2476 599.705 42.2476C596.431 42.2476 594.442 39.9734 594.442 36.3809C594.442 32.8323 596.464 30.4263 599.617 30.4263C602.704 30.4263 604.605 32.6675 604.605 36.1282V36.8533H596.409V36.9631C596.409 39.1494 597.694 40.5886 599.749 40.5886C601.199 40.5886 602.265 39.8525 602.583 38.7759ZM614.075 32.1951H608.615V42.0498H606.725V30.624H614.075V32.1951ZM620.458 42.2476C617.294 42.2476 615.163 39.9734 615.163 36.3369C615.163 32.6895 617.294 30.4263 620.458 30.4263C623.611 30.4263 625.742 32.6895 625.742 36.3369C625.742 39.9734 623.611 42.2476 620.458 42.2476ZM620.458 40.5667C622.479 40.5667 623.798 39.0286 623.798 36.3369C623.798 33.6453 622.479 32.1072 620.458 32.1072C618.437 32.1072 617.107 33.6453 617.107 36.3369C617.107 39.0286 618.437 40.5667 620.458 40.5667ZM271.73 65.0498H269.84V53.624H272.158L276.223 62.5229H276.311L280.398 53.624H282.628V65.0498H280.728V56.9419H280.651L276.959 64.7202H275.498L271.807 56.9419H271.73V65.0498ZM287.199 65.0498H285.309V53.624H287.199V62.1274H287.287L293 53.624H294.889V65.0498H293V56.5464H292.912L287.199 65.0498ZM305.095 65.0498V59.9082H299.459V65.0498H297.57V53.624H299.459V58.3372H305.095V53.624H306.985V65.0498H305.095ZM311.566 65.0498H309.677V53.624H311.566V62.1274H311.654L317.367 53.624H319.257V65.0498H317.367V56.5464H317.279L311.566 65.0498ZM323.827 65.0498H321.938V53.624H324.256L328.321 62.5229H328.408L332.495 53.624H334.726V65.0498H332.825V56.9419H332.748L329.057 64.7202H327.595L323.904 56.9419H323.827V65.0498ZM341.186 63.6216C342.987 63.6216 344.372 62.3582 344.372 60.7102V59.7764L341.317 59.9631C339.779 60.062 338.9 60.7432 338.9 61.8198C338.9 62.9075 339.812 63.6216 341.186 63.6216ZM340.757 65.2476C338.483 65.2476 336.956 63.8743 336.956 61.8198C336.956 59.8643 338.461 58.6338 341.098 58.48L344.372 58.2932V57.3374C344.372 55.9421 343.449 55.1072 341.867 55.1072C340.395 55.1072 339.472 55.7993 339.23 56.9199H337.384C337.516 54.9424 339.208 53.4263 341.911 53.4263C344.591 53.4263 346.283 54.8765 346.283 57.1506V65.0498H344.47V63.0833H344.427C343.745 64.3906 342.295 65.2476 340.757 65.2476ZM351.974 60.0071C351.743 63.1602 350.985 65.1487 348.579 65.1487C348.25 65.1487 348.03 65.0828 347.898 65.0278V63.303C347.997 63.3359 348.206 63.3909 348.48 63.3909C349.612 63.3909 350.041 62.0615 350.183 59.9631L350.623 53.624H358.104V65.0498H356.215V55.1951H352.326L351.974 60.0071ZM364.828 58.8425H362.697V63.4788H364.828C366.311 63.4788 367.267 62.5559 367.267 61.1606C367.267 59.7544 366.3 58.8425 364.828 58.8425ZM360.807 65.0498V53.624H362.697V57.2715H364.861C367.476 57.2715 369.157 58.7766 369.157 61.1606C369.157 63.5447 367.476 65.0498 364.861 65.0498H360.807ZM378.77 65.0498V59.9082H373.134V65.0498H371.244V53.624H373.134V58.3372H378.77V53.624H380.659V65.0498H378.77ZM393.129 65.0498V53.624H395.019V65.0498H393.129ZM387.372 58.8425H385.241V63.4788H387.372C388.855 63.4788 389.811 62.5559 389.811 61.1606C389.811 59.7544 388.844 58.8425 387.372 58.8425ZM383.351 65.0498V53.624H385.241V57.2715H387.405C390.02 57.2715 391.701 58.7766 391.701 61.1606C391.701 63.5447 390.02 65.0498 387.405 65.0498H383.351ZM399.589 65.0498H397.699V53.624H399.589V62.1274H399.677L405.39 53.624H407.279V65.0498H405.39V56.5464H405.302L399.589 65.0498ZM399.16 48.6802H400.567C400.567 49.9546 401.391 50.9543 402.698 50.9543C404.005 50.9543 404.829 49.9546 404.829 48.6802H406.236C406.236 50.7017 404.796 52.0859 402.698 52.0859C400.6 52.0859 399.16 50.7017 399.16 48.6802ZM420.133 53.4263C423.045 53.4263 425.022 55.7554 425.022 59.3369C425.022 62.9185 423.056 65.2476 420.177 65.2476C418.54 65.2476 417.222 64.4456 416.541 63.1931H416.497V68.8621H414.585V53.624H416.398V55.5576H416.442C417.145 54.2722 418.474 53.4263 420.133 53.4263ZM419.76 63.5667C421.792 63.5667 423.067 61.9297 423.067 59.3369C423.067 56.7551 421.792 55.1072 419.76 55.1072C417.804 55.1072 416.486 56.7991 416.486 59.3369C416.486 61.8857 417.804 63.5667 419.76 63.5667ZM430.922 63.6216C432.724 63.6216 434.108 62.3582 434.108 60.7102V59.7764L431.054 59.9631C429.516 60.062 428.637 60.7432 428.637 61.8198C428.637 62.9075 429.549 63.6216 430.922 63.6216ZM430.493 65.2476C428.219 65.2476 426.692 63.8743 426.692 61.8198C426.692 59.8643 428.197 58.6338 430.834 58.48L434.108 58.2932V57.3374C434.108 55.9421 433.185 55.1072 431.603 55.1072C430.131 55.1072 429.208 55.7993 428.966 56.9199H427.121C427.252 54.9424 428.944 53.4263 431.647 53.4263C434.328 53.4263 436.02 54.8765 436.02 57.1506V65.0498H434.207V63.0833H434.163C433.482 64.3906 432.031 65.2476 430.493 65.2476ZM442.469 65.2476C439.964 65.2476 438.151 64.0171 437.953 62.0835H439.887C440.106 63.0833 441.051 63.6655 442.469 63.6655C444.127 63.6655 445.05 62.8745 445.05 61.7649C445.05 60.4795 444.193 59.8972 442.469 59.8972H440.755V58.3372H442.469C443.919 58.3372 444.666 57.7878 444.666 56.6672C444.666 55.7114 443.985 55.0193 442.512 55.0193C441.161 55.0193 440.216 55.6016 440.062 56.5134H438.206C438.448 54.6238 440.095 53.4263 442.512 53.4263C445.116 53.4263 446.533 54.6787 446.533 56.5134C446.533 57.678 445.786 58.7107 444.644 58.9744V59.0623C446.149 59.3918 446.929 60.3586 446.929 61.677C446.929 63.8083 445.149 65.2476 442.469 65.2476ZM451.005 65.0498H449.115V53.624H451.433L455.498 62.5229H455.586L459.673 53.624H461.903V65.0498H460.003V56.9419H459.926L456.234 64.7202H454.773L451.082 56.9419H451.005V65.0498ZM469.176 55.0852C467.385 55.0852 466.133 56.4585 466.012 58.3591H472.219C472.176 56.4475 470.978 55.0852 469.176 55.0852ZM472.176 61.7759H474.054C473.725 63.7754 471.791 65.2476 469.297 65.2476C466.023 65.2476 464.035 62.9734 464.035 59.3809C464.035 55.8323 466.056 53.4263 469.209 53.4263C472.296 53.4263 474.197 55.6675 474.197 59.1282V59.8533H466.001V59.9631C466.001 62.1494 467.287 63.5886 469.341 63.5886C470.791 63.5886 471.857 62.8525 472.176 61.7759ZM481.876 53.4263C484.788 53.4263 486.765 55.7554 486.765 59.3369C486.765 62.9185 484.799 65.2476 481.92 65.2476C480.283 65.2476 478.965 64.4456 478.284 63.1931H478.24V68.8621H476.328V53.624H478.141V55.5576H478.185C478.888 54.2722 480.218 53.4263 481.876 53.4263ZM481.503 63.5667C483.535 63.5667 484.81 61.9297 484.81 59.3369C484.81 56.7551 483.535 55.1072 481.503 55.1072C479.547 55.1072 478.229 56.7991 478.229 59.3369C478.229 61.8857 479.547 63.5667 481.503 63.5667ZM514.66 59.5127H492.16V57.7329H514.66V59.5127ZM524.602 65.0498V51.2949H524.558L520.362 54.3162V52.2288L524.58 49.1965H526.514V65.0498H524.602ZM538.072 65.0498V61.7539H530.106V59.9631C531.458 57.4583 533.314 54.5688 537.061 49.1965H539.983V60.0181H542.224V61.7539H539.983V65.0498H538.072ZM532.062 59.9741V60.0181H538.072V50.8445H538.039C535.039 55.1292 533.314 57.7769 532.062 59.9741ZM554.276 53.4263C557.188 53.4263 559.165 55.7554 559.165 59.3369C559.165 62.9185 557.199 65.2476 554.32 65.2476C552.683 65.2476 551.365 64.4456 550.684 63.1931H550.64V68.8621H548.728V53.624H550.541V55.5576H550.585C551.288 54.2722 552.617 53.4263 554.276 53.4263ZM553.903 63.5667C555.935 63.5667 557.21 61.9297 557.21 59.3369C557.21 56.7551 555.935 55.1072 553.903 55.1072C551.947 55.1072 550.629 56.7991 550.629 59.3369C550.629 61.8857 551.947 63.5667 553.903 63.5667ZM564.922 60.6992H564.878L562.121 65.0498H560L563.889 59.3369L560.066 53.624H562.198L564.944 57.9087H564.988L567.702 53.624H569.833L565.977 59.26L569.778 65.0498H567.658L564.922 60.6992ZM573.063 65.1597C572.36 65.1597 571.811 64.6104 571.811 63.9072C571.811 63.2041 572.36 62.6548 573.063 62.6548C573.766 62.6548 574.315 63.2041 574.315 63.9072C574.315 64.6104 573.766 65.1597 573.063 65.1597Z" fill="black"/>
<rect x="0.5" y="105.05" width="363" height="207.75" rx="15" fill="white"/>
<rect x="0.875" y="105.425" width="362.25" height="207" rx="14.625" stroke="black" stroke-opacity="0.3" stroke-width="0.75"/>
<g filter="url(#filter0_b_780_4190)">
<path fill-rule="evenodd" clip-rule="evenodd" d="M118.131 167.34C109.715 167.34 102.893 174.162 102.893 182.577V235.273C102.893 243.688 109.715 250.51 118.131 250.51H245.87C254.285 250.51 261.107 243.688 261.107 235.273V182.577C261.107 174.162 254.285 167.34 245.87 167.34H118.131ZM128.211 233.174H132.981C129.376 226.506 126.491 219.012 126.491 208.817C126.491 198.843 129.376 191.348 132.981 184.68H128.211C124.051 190.246 120.501 198.843 120.501 208.817C120.501 219.122 124.051 227.608 128.211 233.174ZM236.057 233.174H231.287C234.892 226.506 237.776 219.012 237.776 208.817C237.776 198.843 234.892 191.348 231.287 184.68H236.057C240.217 190.246 243.767 198.843 243.767 208.817C243.767 219.122 240.217 227.608 236.057 233.174ZM133.62 224.081H139.944L147.432 213.336H147.543L155.197 224.081H161.576L150.815 209.699L160.522 195.977H154.31L147.654 206.007H147.543L140.776 195.977H134.563L144.27 209.699L133.62 224.081ZM168.471 224.081H163.035V184.68H168.471V224.081ZM169.969 224.081H176.292L183.78 213.336H183.891L191.546 224.081H197.925L187.164 209.699L196.871 195.977H190.658L184.002 206.007H183.891L177.124 195.977H170.912L180.619 209.699L169.969 224.081ZM209.612 224.853C201.014 224.853 196.743 220.444 196.577 214.713H202.068C202.29 217.965 204.287 220.5 209.556 220.5C214.326 220.5 215.602 218.405 215.602 216.367C215.602 213.174 212.512 212.555 209.21 211.894C208.865 211.825 208.517 211.756 208.17 211.683C203.233 210.525 197.575 209.093 197.575 203.251C197.575 198.402 201.513 195.151 208.336 195.151C216.101 195.151 219.818 199.284 220.206 204.133H214.715C214.326 201.984 213.162 199.504 208.447 199.504C204.786 199.504 203.233 200.937 203.233 203.031C203.233 205.613 205.704 206.128 209.037 206.822C209.474 206.912 209.926 207.007 210.388 207.109C215.602 208.321 221.26 209.809 221.26 216.091C221.26 221.547 217.044 224.853 209.612 224.853ZM225.456 203.72H231.502V197.714H225.456V203.72ZM225.456 220.583H231.502V214.576H225.456V220.583Z" fill="black"/>
</g>
<rect x="381.5" y="105.05" width="363" height="207.75" rx="15" fill="black"/>
<g filter="url(#filter1_b_780_4190)">
<path fill-rule="evenodd" clip-rule="evenodd" d="M499.131 167.34C490.715 167.34 483.893 174.162 483.893 182.577V235.273C483.893 243.688 490.715 250.51 499.131 250.51H626.87C635.285 250.51 642.107 243.688 642.107 235.273V182.577C642.107 174.162 635.285 167.34 626.87 167.34H499.131ZM509.211 233.174H513.981C510.376 226.506 507.491 219.012 507.491 208.817C507.491 198.843 510.376 191.348 513.981 184.68H509.211C505.051 190.246 501.501 198.843 501.501 208.817C501.501 219.122 505.051 227.608 509.211 233.174ZM617.057 233.174H612.287C615.892 226.506 618.776 219.012 618.776 208.817C618.776 198.843 615.892 191.348 612.287 184.68H617.057C621.217 190.246 624.767 198.843 624.767 208.817C624.767 219.122 621.217 227.608 617.057 233.174ZM514.62 224.081H520.944L528.432 213.336H528.543L536.197 224.081H542.576L531.815 209.699L541.522 195.977H535.31L528.654 206.007H528.543L521.776 195.977H515.563L525.27 209.699L514.62 224.081ZM549.471 224.081H544.035V184.68H549.471V224.081ZM550.969 224.081H557.292L564.78 213.336H564.891L572.546 224.081H578.925L568.164 209.699L577.871 195.977H571.658L565.002 206.007H564.891L558.124 195.977H551.912L561.619 209.699L550.969 224.081ZM590.612 224.853C582.014 224.853 577.743 220.444 577.577 214.713H583.068C583.29 217.965 585.287 220.5 590.556 220.5C595.326 220.5 596.602 218.405 596.602 216.367C596.602 213.174 593.512 212.555 590.21 211.894L590.21 211.894C589.864 211.825 589.516 211.756 589.17 211.683C584.233 210.525 578.575 209.093 578.575 203.251C578.575 198.402 582.513 195.151 589.336 195.151C597.101 195.151 600.818 199.284 601.206 204.133H595.715C595.326 201.984 594.162 199.504 589.447 199.504C585.786 199.504 584.233 200.937 584.233 203.031C584.233 205.613 586.704 206.128 590.037 206.822C590.474 206.912 590.926 207.007 591.388 207.109C596.602 208.321 602.26 209.809 602.26 216.091C602.26 221.547 598.044 224.853 590.612 224.853ZM606.456 203.72H612.502V197.714H606.456V203.72ZM606.456 220.583H612.502V214.576H606.456V220.583Z" fill="white"/>
</g>
<defs>
<filter id="filter0_b_780_4190" x="-320.2" y="-255.753" width="1004.4" height="929.356" filterUnits="userSpaceOnUse" color-interpolation-filters="sRGB">
<feFlood flood-opacity="0" result="BackgroundImageFix"/>
<feGaussianBlur in="BackgroundImageFix" stdDeviation="211.546"/>
<feComposite in2="SourceAlpha" operator="in" result="effect1_backgroundBlur_780_4190"/>
<feBlend mode="normal" in="SourceGraphic" in2="effect1_backgroundBlur_780_4190" result="shape"/>
</filter>
<filter id="filter1_b_780_4190" x="60.8002" y="-255.753" width="1004.4" height="929.356" filterUnits="userSpaceOnUse" color-interpolation-filters="sRGB">
<feFlood flood-opacity="0" result="BackgroundImageFix"/>
<feGaussianBlur in="BackgroundImageFix" stdDeviation="211.546"/>
<feComposite in2="SourceAlpha" operator="in" result="effect1_backgroundBlur_780_4190"/>
<feBlend mode="normal" in="SourceGraphic" in2="effect1_backgroundBlur_780_4190" result="shape"/>
</filter>
</defs>
</svg>
