<svg width="364" height="208" viewBox="0 0 364 208" fill="none" xmlns="http://www.w3.org/2000/svg">
<rect x="0.5" y="0.0498047" width="363" height="207.75" rx="15" fill="white"/>
<rect x="0.875" y="0.424805" width="362.25" height="207" rx="14.625" stroke="black" stroke-opacity="0.3" stroke-width="0.75"/>
<g filter="url(#filter0_b_780_4195)">
<path fill-rule="evenodd" clip-rule="evenodd" d="M118.131 62.3396C109.715 62.3396 102.893 69.1616 102.893 77.577V130.273C102.893 138.688 109.715 145.51 118.131 145.51H245.87C254.285 145.51 261.107 138.688 261.107 130.273V77.577C261.107 69.1616 254.285 62.3396 245.87 62.3396H118.131ZM128.211 128.174H132.981C129.376 121.506 126.491 114.012 126.491 103.817C126.491 93.8427 129.376 86.3482 132.981 79.6804H128.211C124.051 85.2461 120.501 93.8427 120.501 103.817C120.501 114.122 124.051 122.608 128.211 128.174ZM236.057 128.174H231.287C234.892 121.506 237.776 114.012 237.776 103.817C237.776 93.8427 234.892 86.3482 231.287 79.6804H236.057C240.217 85.2461 243.767 93.8427 243.767 103.817C243.767 114.122 240.217 122.608 236.057 128.174ZM133.62 119.081H139.944L147.432 108.336H147.543L155.197 119.081H161.576L150.815 104.699L160.522 90.9772H154.31L147.654 101.007H147.543L140.776 90.9772H134.563L144.27 104.699L133.62 119.081ZM168.471 119.081H163.035V79.6804H168.471V119.081ZM169.969 119.081H176.292L183.78 108.336H183.891L191.546 119.081H197.925L187.164 104.699L196.871 90.9772H190.658L184.002 101.007H183.891L177.124 90.9772H170.912L180.619 104.699L169.969 119.081ZM209.612 119.853C201.014 119.853 196.743 115.444 196.577 109.713H202.068C202.29 112.965 204.287 115.5 209.556 115.5C214.326 115.5 215.602 113.405 215.602 111.367C215.602 108.174 212.512 107.555 209.21 106.894C208.865 106.825 208.517 106.756 208.17 106.683C203.233 105.525 197.575 104.093 197.575 98.2512C197.575 93.4019 201.513 90.1506 208.336 90.1506C216.101 90.1506 219.818 94.2836 220.206 99.1329H214.715C214.326 96.9838 213.162 94.504 208.447 94.504C204.786 94.504 203.233 95.9368 203.233 98.0308C203.233 100.613 205.704 101.128 209.037 101.822C209.474 101.912 209.926 102.007 210.388 102.109C215.602 103.321 221.26 104.809 221.26 111.091C221.26 116.547 217.044 119.853 209.612 119.853ZM225.456 98.7203H231.502V92.7137H225.456V98.7203ZM225.456 115.583H231.502V109.576H225.456V115.583Z" fill="black"/>
</g>
<defs>
<filter id="filter0_b_780_4195" x="-320.2" y="-360.753" width="1004.4" height="929.356" filterUnits="userSpaceOnUse" color-interpolation-filters="sRGB">
<feFlood flood-opacity="0" result="BackgroundImageFix"/>
<feGaussianBlur in="BackgroundImageFix" stdDeviation="211.546"/>
<feComposite in2="SourceAlpha" operator="in" result="effect1_backgroundBlur_780_4195"/>
<feBlend mode="normal" in="SourceGraphic" in2="effect1_backgroundBlur_780_4195" result="shape"/>
</filter>
</defs>
</svg>
