<svg width="1338" height="100" viewBox="0 0 1338 100" fill="none" xmlns="http://www.w3.org/2000/svg">
<rect width="1338" height="100" rx="24" fill="white"/>
<path opacity="0.5" d="M40.448 41.96H40.896C46.544 41.96 49.024 43.496 49.024 47.464V47.656C49.024 51.624 46.544 53.16 40.896 53.16H40.448C34.8 53.16 32.32 51.624 32.32 47.656V47.464C32.32 43.496 34.8 41.96 40.448 41.96ZM40.544 45.16C38.448 45.16 37.28 45.816 37.28 47.512V47.608C37.28 49.288 38.448 49.96 40.544 49.96H40.8C42.896 49.96 44.064 49.288 44.064 47.608V47.512C44.064 45.816 42.896 45.16 40.8 45.16H40.544ZM55.7438 53H50.9758V46.248H49.4238V42.888L50.1278 42.872C51.4078 42.84 51.8558 42.728 52.0638 42.12H55.7438V53Z" fill="black"/>
<path d="M101.312 49.2031L112.156 61H107.578L97.8594 50.4219H97.7344V61H94.2344V38.4531H97.7344V48.5469H97.8594L107.047 38.4531H111.234L101.312 49.2031ZM119.196 58.6094C121.555 58.6094 123.399 56.9844 123.399 54.8438V53.5469L119.352 53.7969C117.336 53.9375 116.196 54.8281 116.196 56.2344C116.196 57.6719 117.383 58.6094 119.196 58.6094ZM118.258 61.2812C115.039 61.2812 112.789 59.2812 112.789 56.3281C112.789 53.4531 114.993 51.6875 118.899 51.4688L123.399 51.2031V49.9375C123.399 48.1094 122.164 47.0156 120.102 47.0156C118.149 47.0156 116.93 47.9531 116.633 49.4219H113.446C113.633 46.4531 116.164 44.2656 120.227 44.2656C124.211 44.2656 126.758 46.375 126.758 49.6719V61H123.524V58.2969H123.446C122.493 60.125 120.414 61.2812 118.258 61.2812ZM136.657 52.2812L144.219 61H139.985L133.469 53.4219H133.344V61H129.985V44.5625H133.344V51.5938H133.469L139.907 44.5625H143.938L136.657 52.2812ZM166.22 49.8281H162.97C162.533 48.3125 161.283 47.0781 159.189 47.0781C156.579 47.0781 154.876 49.3125 154.876 52.7812C154.876 56.3438 156.595 58.4844 159.22 58.4844C161.22 58.4844 162.533 57.4844 163.001 55.7656H166.251C165.767 59.0625 163.064 61.3125 159.189 61.3125C154.486 61.3125 151.454 58.0469 151.454 52.7812C151.454 47.625 154.486 44.2656 159.158 44.2656C163.22 44.2656 165.751 46.7969 166.22 49.8281ZM179.463 58.3281V47.2344H173.744L173.291 53.5156C173.166 55.4531 172.759 57.1406 172.009 58.2031V58.3281H179.463ZM170.119 65.3125H167.009V58.3281H168.338C169.541 57.5781 170.088 55.5938 170.244 53.375L170.838 44.5625H182.822V58.3281H185.369V65.3125H182.244V61H170.119V65.3125ZM194.221 46.9844C191.861 46.9844 190.205 48.7812 190.033 51.2656H198.252C198.174 48.75 196.58 46.9844 194.221 46.9844ZM198.236 56.1719H201.439C200.971 59.1719 198.127 61.3125 194.361 61.3125C189.533 61.3125 186.611 58.0469 186.611 52.8594C186.611 47.7031 189.58 44.2656 194.221 44.2656C198.783 44.2656 201.627 47.4844 201.627 52.4688V53.625H190.018V53.8281C190.018 56.6875 191.736 58.5781 194.439 58.5781C196.361 58.5781 197.783 57.6094 198.236 56.1719ZM208.573 53.5156C208.26 58.1719 207.088 61.1562 203.401 61.1562C202.854 61.1562 202.463 61.0625 202.26 60.9844V58.0156C202.416 58.0625 202.729 58.1406 203.151 58.1406C204.744 58.1406 205.307 56.2344 205.494 53.375L206.057 44.5625H217.448V61H214.088V47.2344H209.026L208.573 53.5156ZM226.518 58.6094C228.878 58.6094 230.721 56.9844 230.721 54.8438V53.5469L226.674 53.7969C224.659 53.9375 223.518 54.8281 223.518 56.2344C223.518 57.6719 224.706 58.6094 226.518 58.6094ZM225.581 61.2812C222.362 61.2812 220.112 59.2812 220.112 56.3281C220.112 53.4531 222.315 51.6875 226.221 51.4688L230.721 51.2031V49.9375C230.721 48.1094 229.487 47.0156 227.424 47.0156C225.471 47.0156 224.253 47.9531 223.956 49.4219H220.768C220.956 46.4531 223.487 44.2656 227.549 44.2656C231.534 44.2656 234.081 46.375 234.081 49.6719V61H230.846V58.2969H230.768C229.815 60.125 227.737 61.2812 225.581 61.2812ZM249.557 44.5625V47.2344H244.401V61H241.042V47.2344H235.886V44.5625H249.557ZM257.909 52.2812H255.066V58.3438H257.909C259.847 58.3438 261.097 57.125 261.097 55.3125C261.097 53.4844 259.831 52.2812 257.909 52.2812ZM251.706 61V44.5625H255.066V49.6406H258.206C262.003 49.6406 264.456 51.8438 264.456 55.3125C264.456 58.7969 262.003 61 258.206 61H251.706ZM287.16 49.8281H283.91C283.473 48.3125 282.223 47.0781 280.129 47.0781C277.519 47.0781 275.816 49.3125 275.816 52.7812C275.816 56.3438 277.535 58.4844 280.16 58.4844C282.16 58.4844 283.473 57.4844 283.941 55.7656H287.191C286.707 59.0625 284.004 61.3125 280.129 61.3125C275.426 61.3125 272.394 58.0469 272.394 52.7812C272.394 47.625 275.426 44.2656 280.098 44.2656C284.16 44.2656 286.691 46.7969 287.16 49.8281ZM296.262 52.2812L303.824 61H299.59L293.074 53.4219H292.949V61H289.59V44.5625H292.949V51.5938H293.074L299.512 44.5625H303.543L296.262 52.2812ZM306.942 67.125C306.676 67.125 305.817 67.0938 305.567 67.0469V64.3125C305.817 64.375 306.379 64.375 306.661 64.375C308.239 64.375 309.067 63.7188 309.583 62.0312C309.583 62 309.879 61.0312 309.879 61.0156L303.942 44.5625H307.598L311.77 57.9375H311.817L315.989 44.5625H319.551L313.379 61.8594C311.973 65.8438 310.364 67.125 306.942 67.125ZM334.747 61H331.403V54H331.184C330.294 54.8438 328.934 55.4062 327.122 55.4062C323.247 55.4062 321.106 53.0469 321.106 49.4531V44.5625H324.466V49.2031C324.466 51.25 325.575 52.5312 327.653 52.5312C329.481 52.5312 330.716 51.8438 331.403 51.0312V44.5625H334.747V61ZM348.864 61V53.8438H341.427V61H338.068V44.5625H341.427V51.1875H348.864V44.5625H352.224V61H348.864ZM370.201 61V44.5625H373.544V61H370.201ZM361.763 52.2812H358.919V58.3438H361.763C363.701 58.3438 364.951 57.125 364.951 55.3125C364.951 53.4844 363.685 52.2812 361.763 52.2812ZM355.56 61V44.5625H358.919V49.6406H362.06C365.857 49.6406 368.31 51.8438 368.31 55.3125C368.31 58.7969 365.857 61 362.06 61H355.56ZM380.193 61H376.865V44.5625H380.193V56.0781H380.318L387.912 44.5625H391.24V61H387.912V49.4531H387.787L380.193 61ZM379.099 37.3438H381.381C381.396 39.1094 382.521 40.4531 384.287 40.4531C386.068 40.4531 387.193 39.1094 387.209 37.3438H389.49C389.49 40.2969 387.396 42.2969 384.287 42.2969C381.193 42.2969 379.099 40.2969 379.099 37.3438ZM411.616 47.2344H404.084V61H400.725V44.5625H411.616V47.2344ZM422.702 44.2969C426.874 44.2969 429.624 47.5781 429.624 52.7812C429.624 57.9844 426.889 61.2812 422.764 61.2812C420.405 61.2812 418.53 60.125 417.592 58.2969H417.514V66.4375H414.139V44.5625H417.405V47.3906H417.467C418.436 45.5 420.327 44.2969 422.702 44.2969ZM421.811 58.4219C424.483 58.4219 426.155 56.2344 426.155 52.7812C426.155 49.3438 424.483 47.1406 421.811 47.1406C419.233 47.1406 417.499 49.3906 417.499 52.7812C417.499 56.2031 419.217 58.4219 421.811 58.4219ZM437.976 58.6094C440.335 58.6094 442.179 56.9844 442.179 54.8438V53.5469L438.132 53.7969C436.116 53.9375 434.976 54.8281 434.976 56.2344C434.976 57.6719 436.163 58.6094 437.976 58.6094ZM437.038 61.2812C433.819 61.2812 431.569 59.2812 431.569 56.3281C431.569 53.4531 433.772 51.6875 437.679 51.4688L442.179 51.2031V49.9375C442.179 48.1094 440.944 47.0156 438.882 47.0156C436.929 47.0156 435.71 47.9531 435.413 49.4219H432.226C432.413 46.4531 434.944 44.2656 439.007 44.2656C442.991 44.2656 445.538 46.375 445.538 49.6719V61H442.304V58.2969H442.226C441.272 60.125 439.194 61.2812 437.038 61.2812ZM456.703 58.5V47.0625C453.499 47.1406 451.453 49.2969 451.453 52.7812C451.453 56.2812 453.484 58.4062 456.703 58.5ZM465.203 52.7812C465.203 49.2812 463.156 47.1562 459.953 47.0625V58.5C463.14 58.4219 465.203 56.2812 465.203 52.7812ZM456.687 61.2188C451.453 61.1094 448.031 57.9062 448.031 52.7812C448.031 47.6875 451.468 44.4375 456.687 44.3594V39.2344H459.968V44.3594C465.171 44.4531 468.609 47.6719 468.609 52.7812C468.609 57.875 465.156 61.125 459.968 61.2188V66.4375H456.687V61.2188ZM474.523 61H471.195V44.5625H474.523V56.0781H474.648L482.242 44.5625H485.57V61H482.242V49.4531H482.117L474.523 61ZM495.547 52.2812L503.109 61H498.875L492.359 53.4219H492.234V61H488.875V44.5625H492.234V51.5938H492.359L498.797 44.5625H502.828L495.547 52.2812ZM517.751 52.2812L525.313 61H521.079L514.563 53.4219H514.438V61H511.079V44.5625H514.438V51.5938H514.563L521.001 44.5625H525.032L517.751 52.2812ZM535.681 44.2969C539.853 44.2969 542.603 47.5781 542.603 52.7812C542.603 57.9844 539.868 61.2812 535.743 61.2812C533.384 61.2812 531.509 60.125 530.571 58.2969H530.493V66.4375H527.118V44.5625H530.384V47.3906H530.446C531.415 45.5 533.306 44.2969 535.681 44.2969ZM534.79 58.4219C537.462 58.4219 539.134 56.2344 539.134 52.7812C539.134 49.3438 537.462 47.1406 534.79 47.1406C532.212 47.1406 530.478 49.3906 530.478 52.7812C530.478 56.2031 532.196 58.4219 534.79 58.4219ZM550.954 58.6094C553.314 58.6094 555.158 56.9844 555.158 54.8438V53.5469L551.111 53.7969C549.095 53.9375 547.954 54.8281 547.954 56.2344C547.954 57.6719 549.142 58.6094 550.954 58.6094ZM550.017 61.2812C546.798 61.2812 544.548 59.2812 544.548 56.3281C544.548 53.4531 546.751 51.6875 550.658 51.4688L555.158 51.2031V49.9375C555.158 48.1094 553.923 47.0156 551.861 47.0156C549.908 47.0156 548.689 47.9531 548.392 49.4219H545.204C545.392 46.4531 547.923 44.2656 551.986 44.2656C555.97 44.2656 558.517 46.375 558.517 49.6719V61H555.283V58.2969H555.204C554.251 60.125 552.173 61.2812 550.017 61.2812ZM575.775 49.8281H572.525C572.087 48.3125 570.837 47.0781 568.744 47.0781C566.134 47.0781 564.431 49.3125 564.431 52.7812C564.431 56.3438 566.15 58.4844 568.775 58.4844C570.775 58.4844 572.087 57.4844 572.556 55.7656H575.806C575.322 59.0625 572.619 61.3125 568.744 61.3125C564.041 61.3125 561.009 58.0469 561.009 52.7812C561.009 47.625 564.041 44.2656 568.712 44.2656C572.775 44.2656 575.306 46.7969 575.775 49.8281ZM581.533 61H578.205V44.5625H581.533V56.0781H581.658L589.252 44.5625H592.58V61H589.252V49.4531H589.127L581.533 61ZM602.666 47.0156H599.213V51.3281H602.338C604.244 51.3281 605.198 50.5938 605.198 49.1406C605.198 47.7812 604.307 47.0156 602.666 47.0156ZM602.557 53.6875H599.213V58.5469H602.932C604.838 58.5469 605.869 57.7031 605.869 56.125C605.869 54.5 604.776 53.6875 602.557 53.6875ZM595.885 61V44.5625H603.354C606.557 44.5625 608.494 46.1562 608.494 48.75C608.494 50.4531 607.276 52 605.698 52.2969V52.4219C607.823 52.7031 609.229 54.2031 609.229 56.2656C609.229 59.1562 607.01 61 603.448 61H595.885ZM626.549 61V44.5625H629.893V61H626.549ZM618.112 52.2812H615.268V58.3438H618.112C620.049 58.3438 621.299 57.125 621.299 55.3125C621.299 53.4844 620.034 52.2812 618.112 52.2812ZM611.909 61V44.5625H615.268V49.6406H618.409C622.206 49.6406 624.659 51.8438 624.659 55.3125C624.659 58.7969 622.206 61 618.409 61H611.909ZM636.464 61H633.214V44.5625H637.448L642.714 56.6094H642.839L648.136 44.5625H652.276V61H648.995V49.5938H648.886L643.964 60.3594H641.495L636.573 49.5938H636.464V61ZM665.089 61H661.761V44.5625H665.089V56.0781H665.214L672.808 44.5625H676.136V61H672.808V49.4531H672.683L665.089 61ZM688.949 61H685.621V44.5625H688.949V56.0781H689.074L696.668 44.5625H699.996V61H696.668V49.4531H696.543L688.949 61ZM714.098 61V53.8438H706.661V61H703.301V44.5625H706.661V51.1875H714.098V44.5625H717.458V61H714.098ZM733.294 44.5625V47.2344H728.138V61H724.778V47.2344H719.622V44.5625H733.294ZM742.021 46.9844C739.661 46.9844 738.005 48.7812 737.833 51.2656H746.052C745.974 48.75 744.38 46.9844 742.021 46.9844ZM746.036 56.1719H749.239C748.771 59.1719 745.927 61.3125 742.161 61.3125C737.333 61.3125 734.411 58.0469 734.411 52.8594C734.411 47.7031 737.38 44.2656 742.021 44.2656C746.583 44.2656 749.427 47.4844 749.427 52.4688V53.625H737.818V53.8281C737.818 56.6875 739.536 58.5781 742.239 58.5781C744.161 58.5781 745.583 57.6094 746.036 56.1719ZM760.576 44.2969C764.747 44.2969 767.497 47.5781 767.497 52.7812C767.497 57.9844 764.763 61.2812 760.638 61.2812C758.279 61.2812 756.404 60.125 755.466 58.2969H755.388V66.4375H752.013V44.5625H755.279V47.3906H755.341C756.31 45.5 758.201 44.2969 760.576 44.2969ZM759.685 58.4219C762.357 58.4219 764.029 56.2344 764.029 52.7812C764.029 49.3438 762.357 47.1406 759.685 47.1406C757.107 47.1406 755.372 49.3906 755.372 52.7812C755.372 56.2031 757.091 58.4219 759.685 58.4219ZM776.974 46.9844C774.615 46.9844 772.959 48.7812 772.787 51.2656H781.006C780.927 48.75 779.334 46.9844 776.974 46.9844ZM780.99 56.1719H784.193C783.724 59.1719 780.881 61.3125 777.115 61.3125C772.287 61.3125 769.365 58.0469 769.365 52.8594C769.365 47.7031 772.334 44.2656 776.974 44.2656C781.537 44.2656 784.381 47.4844 784.381 52.4688V53.625H772.771V53.8281C772.771 56.6875 774.49 58.5781 777.193 58.5781C779.115 58.5781 780.537 57.6094 780.99 56.1719ZM800.982 49.8281H797.732C797.295 48.3125 796.045 47.0781 793.951 47.0781C791.342 47.0781 789.639 49.3125 789.639 52.7812C789.639 56.3438 791.357 58.4844 793.982 58.4844C795.982 58.4844 797.295 57.4844 797.764 55.7656H801.014C800.529 59.0625 797.826 61.3125 793.951 61.3125C789.248 61.3125 786.217 58.0469 786.217 52.7812C786.217 47.625 789.248 44.2656 793.92 44.2656C797.982 44.2656 800.514 46.7969 800.982 49.8281ZM814.209 61V53.8438H806.772V61H803.412V44.5625H806.772V51.1875H814.209V44.5625H817.569V61H814.209ZM835.546 61V44.5625H838.889V61H835.546ZM827.108 52.2812H824.264V58.3438H827.108C829.046 58.3438 830.296 57.125 830.296 55.3125C830.296 53.4844 829.03 52.2812 827.108 52.2812ZM820.905 61V44.5625H824.264V49.6406H827.405C831.202 49.6406 833.655 51.8438 833.655 55.3125C833.655 58.7969 831.202 61 827.405 61H820.905ZM845.46 61H842.21V44.5625H846.444L851.71 56.6094H851.835L857.132 44.5625H861.273V61H857.991V49.5938H857.882L852.96 60.3594H850.491L845.569 49.5938H845.46V61ZM863.624 44.5C863.765 40.9531 866.187 38.2656 870.718 38.2656C874.843 38.2656 877.624 40.7188 877.624 44.0625C877.624 46.4844 876.406 48.1875 874.343 49.4219C872.328 50.6094 871.749 51.4375 871.749 53.0469V54H868.515L868.499 52.75C868.421 50.5469 869.374 49.1406 871.515 47.8594C873.406 46.7188 874.078 45.8125 874.078 44.2031C874.078 42.4375 872.687 41.1406 870.546 41.1406C868.39 41.1406 866.999 42.4375 866.859 44.5H863.624ZM870.156 61.2344C869.015 61.2344 868.109 60.3594 868.109 59.2188C868.109 58.0781 869.015 57.2031 870.156 57.2031C871.328 57.2031 872.218 58.0781 872.218 59.2188C872.218 60.3594 871.328 61.2344 870.156 61.2344Z" fill="black"/>
</svg>
