<svg width="1329" height="101" viewBox="0 0 1329 101" fill="none" xmlns="http://www.w3.org/2000/svg">
<rect x="0.25" y="0.25" width="1328" height="100" rx="24" fill="#F2F2F7"/>
<path opacity="0.5" d="M40.698 46.21H41.146C46.794 46.21 49.274 47.746 49.274 51.714V51.906C49.274 55.874 46.794 57.41 41.146 57.41H40.698C35.05 57.41 32.57 55.874 32.57 51.906V51.714C32.57 47.746 35.05 46.21 40.698 46.21ZM40.794 49.41C38.698 49.41 37.53 50.066 37.53 51.762V51.858C37.53 53.538 38.698 54.21 40.794 54.21H41.05C43.146 54.21 44.314 53.538 44.314 51.858V51.762C44.314 50.066 43.146 49.41 41.05 49.41H40.794ZM55.9937 57.25H51.2257V50.498H49.6737V47.138L50.3777 47.122C51.6577 47.09 52.1057 46.978 52.3137 46.37H55.9937V57.25Z" fill="black"/>
<path d="M101.562 49.4531L112.406 61.25H107.828L98.1094 50.6719H97.9844V61.25H94.4844V38.7031H97.9844V48.7969H98.1094L107.297 38.7031H111.484L101.562 49.4531ZM119.446 58.8594C121.805 58.8594 123.649 57.2344 123.649 55.0938V53.7969L119.602 54.0469C117.586 54.1875 116.446 55.0781 116.446 56.4844C116.446 57.9219 117.633 58.8594 119.446 58.8594ZM118.508 61.5312C115.289 61.5312 113.039 59.5313 113.039 56.5781C113.039 53.7031 115.242 51.9375 119.149 51.7188L123.649 51.4531V50.1875C123.649 48.3594 122.414 47.2656 120.352 47.2656C118.399 47.2656 117.18 48.2031 116.883 49.6719H113.696C113.883 46.7031 116.414 44.5156 120.477 44.5156C124.461 44.5156 127.008 46.625 127.008 49.9219V61.25H123.774V58.5469H123.696C122.742 60.375 120.664 61.5312 118.508 61.5312ZM136.907 52.5313L144.469 61.25H140.235L133.719 53.6719H133.594V61.25H130.235V44.8125H133.594V51.8438H133.719L140.157 44.8125H144.188L136.907 52.5313ZM166.47 50.0781H163.22C162.782 48.5625 161.532 47.3281 159.439 47.3281C156.829 47.3281 155.126 49.5625 155.126 53.0313C155.126 56.5938 156.845 58.7344 159.47 58.7344C161.47 58.7344 162.782 57.7344 163.251 56.0156H166.501C166.017 59.3125 163.314 61.5625 159.439 61.5625C154.736 61.5625 151.704 58.2969 151.704 53.0313C151.704 47.875 154.736 44.5156 159.407 44.5156C163.47 44.5156 166.001 47.0469 166.47 50.0781ZM179.712 58.5781V47.4844H173.994L173.541 53.7656C173.416 55.7031 173.009 57.3906 172.259 58.4531V58.5781H179.712ZM170.369 65.5625H167.259V58.5781H168.587C169.791 57.8281 170.337 55.8438 170.494 53.625L171.087 44.8125H183.072V58.5781H185.619V65.5625H182.494V61.25H170.369V65.5625ZM194.471 47.2344C192.111 47.2344 190.455 49.0313 190.283 51.5156H198.502C198.424 49 196.83 47.2344 194.471 47.2344ZM198.486 56.4219H201.689C201.221 59.4219 198.377 61.5625 194.611 61.5625C189.783 61.5625 186.861 58.2969 186.861 53.1094C186.861 47.9531 189.83 44.5156 194.471 44.5156C199.033 44.5156 201.877 47.7344 201.877 52.7188V53.875H190.267V54.0781C190.267 56.9375 191.986 58.8281 194.689 58.8281C196.611 58.8281 198.033 57.8594 198.486 56.4219ZM208.822 53.7656C208.51 58.4219 207.338 61.4062 203.651 61.4062C203.104 61.4062 202.713 61.3125 202.51 61.2344V58.2656C202.666 58.3125 202.979 58.3906 203.401 58.3906C204.994 58.3906 205.557 56.4844 205.744 53.625L206.307 44.8125H217.697V61.25H214.338V47.4844H209.276L208.822 53.7656ZM226.768 58.8594C229.127 58.8594 230.971 57.2344 230.971 55.0938V53.7969L226.924 54.0469C224.909 54.1875 223.768 55.0781 223.768 56.4844C223.768 57.9219 224.956 58.8594 226.768 58.8594ZM225.831 61.5312C222.612 61.5312 220.362 59.5313 220.362 56.5781C220.362 53.7031 222.565 51.9375 226.471 51.7188L230.971 51.4531V50.1875C230.971 48.3594 229.737 47.2656 227.674 47.2656C225.721 47.2656 224.502 48.2031 224.206 49.6719H221.018C221.206 46.7031 223.737 44.5156 227.799 44.5156C231.784 44.5156 234.331 46.625 234.331 49.9219V61.25H231.096V58.5469H231.018C230.065 60.375 227.987 61.5312 225.831 61.5312ZM249.807 44.8125V47.4844H244.651V61.25H241.292V47.4844H236.136V44.8125H249.807ZM258.159 52.5313H255.316V58.5938H258.159C260.097 58.5938 261.347 57.375 261.347 55.5625C261.347 53.7344 260.081 52.5313 258.159 52.5313ZM251.956 61.25V44.8125H255.316V49.8906H258.456C262.253 49.8906 264.706 52.0938 264.706 55.5625C264.706 59.0469 262.253 61.25 258.456 61.25H251.956ZM287.41 50.0781H284.16C283.722 48.5625 282.472 47.3281 280.379 47.3281C277.769 47.3281 276.066 49.5625 276.066 53.0313C276.066 56.5938 277.785 58.7344 280.41 58.7344C282.41 58.7344 283.722 57.7344 284.191 56.0156H287.441C286.957 59.3125 284.254 61.5625 280.379 61.5625C275.676 61.5625 272.644 58.2969 272.644 53.0313C272.644 47.875 275.676 44.5156 280.347 44.5156C284.41 44.5156 286.941 47.0469 287.41 50.0781ZM296.512 52.5313L304.074 61.25H299.84L293.324 53.6719H293.199V61.25H289.84V44.8125H293.199V51.8438H293.324L299.762 44.8125H303.793L296.512 52.5313ZM307.192 67.375C306.926 67.375 306.067 67.3437 305.817 67.2969V64.5625C306.067 64.625 306.629 64.625 306.911 64.625C308.489 64.625 309.317 63.9687 309.832 62.2812C309.832 62.25 310.129 61.2812 310.129 61.2656L304.192 44.8125H307.848L312.02 58.1875H312.067L316.239 44.8125H319.801L313.629 62.1094C312.223 66.0937 310.614 67.375 307.192 67.375ZM334.997 61.25H331.653V54.25H331.434C330.544 55.0938 329.184 55.6563 327.372 55.6563C323.497 55.6563 321.356 53.2969 321.356 49.7031V44.8125H324.716V49.4531C324.716 51.5 325.825 52.7813 327.903 52.7813C329.731 52.7813 330.966 52.0938 331.653 51.2813V44.8125H334.997V61.25ZM349.114 61.25V54.0938H341.677V61.25H338.317V44.8125H341.677V51.4375H349.114V44.8125H352.474V61.25H349.114ZM370.451 61.25V44.8125H373.794V61.25H370.451ZM362.013 52.5313H359.169V58.5938H362.013C363.951 58.5938 365.201 57.375 365.201 55.5625C365.201 53.7344 363.935 52.5313 362.013 52.5313ZM355.81 61.25V44.8125H359.169V49.8906H362.31C366.107 49.8906 368.56 52.0938 368.56 55.5625C368.56 59.0469 366.107 61.25 362.31 61.25H355.81ZM380.443 61.25H377.115V44.8125H380.443V56.3281H380.568L388.162 44.8125H391.49V61.25H388.162V49.7031H388.037L380.443 61.25ZM379.349 37.5938H381.631C381.646 39.3594 382.771 40.7031 384.537 40.7031C386.318 40.7031 387.443 39.3594 387.459 37.5938H389.74C389.74 40.5469 387.646 42.5469 384.537 42.5469C381.443 42.5469 379.349 40.5469 379.349 37.5938ZM411.866 47.4844H404.334V61.25H400.975V44.8125H411.866V47.4844ZM422.952 44.5469C427.124 44.5469 429.874 47.8281 429.874 53.0313C429.874 58.2344 427.139 61.5312 423.014 61.5312C420.655 61.5312 418.78 60.375 417.842 58.5469H417.764V66.6875H414.389V44.8125H417.655V47.6406H417.717C418.686 45.75 420.577 44.5469 422.952 44.5469ZM422.061 58.6719C424.733 58.6719 426.405 56.4844 426.405 53.0313C426.405 49.5938 424.733 47.3906 422.061 47.3906C419.483 47.3906 417.749 49.6406 417.749 53.0313C417.749 56.4531 419.467 58.6719 422.061 58.6719ZM438.226 58.8594C440.585 58.8594 442.429 57.2344 442.429 55.0938V53.7969L438.382 54.0469C436.366 54.1875 435.226 55.0781 435.226 56.4844C435.226 57.9219 436.413 58.8594 438.226 58.8594ZM437.288 61.5312C434.069 61.5312 431.819 59.5313 431.819 56.5781C431.819 53.7031 434.022 51.9375 437.929 51.7188L442.429 51.4531V50.1875C442.429 48.3594 441.194 47.2656 439.132 47.2656C437.179 47.2656 435.96 48.2031 435.663 49.6719H432.476C432.663 46.7031 435.194 44.5156 439.257 44.5156C443.241 44.5156 445.788 46.625 445.788 49.9219V61.25H442.554V58.5469H442.476C441.522 60.375 439.444 61.5312 437.288 61.5312ZM456.952 58.75V47.3125C453.749 47.3906 451.702 49.5469 451.702 53.0313C451.702 56.5313 453.734 58.6563 456.952 58.75ZM465.452 53.0313C465.452 49.5313 463.406 47.4063 460.202 47.3125V58.75C463.39 58.6719 465.452 56.5313 465.452 53.0313ZM456.937 61.4687C451.702 61.3594 448.281 58.1563 448.281 53.0313C448.281 47.9375 451.718 44.6875 456.937 44.6094V39.4844H460.218V44.6094C465.421 44.7031 468.859 47.9219 468.859 53.0313C468.859 58.125 465.406 61.375 460.218 61.4687V66.6875H456.937V61.4687ZM474.773 61.25H471.445V44.8125H474.773V56.3281H474.898L482.492 44.8125H485.82V61.25H482.492V49.7031H482.367L474.773 61.25ZM495.797 52.5313L503.359 61.25H499.125L492.609 53.6719H492.484V61.25H489.125V44.8125H492.484V51.8438H492.609L499.047 44.8125H503.078L495.797 52.5313ZM518.001 52.5313L525.563 61.25H521.329L514.813 53.6719H514.688V61.25H511.329V44.8125H514.688V51.8438H514.813L521.251 44.8125H525.282L518.001 52.5313ZM535.931 44.5469C540.102 44.5469 542.852 47.8281 542.852 53.0313C542.852 58.2344 540.118 61.5312 535.993 61.5312C533.634 61.5312 531.759 60.375 530.821 58.5469H530.743V66.6875H527.368V44.8125H530.634V47.6406H530.696C531.665 45.75 533.556 44.5469 535.931 44.5469ZM535.04 58.6719C537.712 58.6719 539.384 56.4844 539.384 53.0313C539.384 49.5938 537.712 47.3906 535.04 47.3906C532.462 47.3906 530.727 49.6406 530.727 53.0313C530.727 56.4531 532.446 58.6719 535.04 58.6719ZM551.204 58.8594C553.564 58.8594 555.407 57.2344 555.407 55.0938V53.7969L551.361 54.0469C549.345 54.1875 548.204 55.0781 548.204 56.4844C548.204 57.9219 549.392 58.8594 551.204 58.8594ZM550.267 61.5312C547.048 61.5312 544.798 59.5313 544.798 56.5781C544.798 53.7031 547.001 51.9375 550.907 51.7188L555.407 51.4531V50.1875C555.407 48.3594 554.173 47.2656 552.111 47.2656C550.157 47.2656 548.939 48.2031 548.642 49.6719H545.454C545.642 46.7031 548.173 44.5156 552.236 44.5156C556.22 44.5156 558.767 46.625 558.767 49.9219V61.25H555.532V58.5469H555.454C554.501 60.375 552.423 61.5312 550.267 61.5312ZM576.025 50.0781H572.775C572.337 48.5625 571.087 47.3281 568.994 47.3281C566.384 47.3281 564.681 49.5625 564.681 53.0313C564.681 56.5938 566.4 58.7344 569.025 58.7344C571.025 58.7344 572.337 57.7344 572.806 56.0156H576.056C575.572 59.3125 572.869 61.5625 568.994 61.5625C564.291 61.5625 561.259 58.2969 561.259 53.0313C561.259 47.875 564.291 44.5156 568.962 44.5156C573.025 44.5156 575.556 47.0469 576.025 50.0781ZM581.783 61.25H578.455V44.8125H581.783V56.3281H581.908L589.502 44.8125H592.83V61.25H589.502V49.7031H589.377L581.783 61.25ZM602.916 47.2656H599.463V51.5781H602.588C604.494 51.5781 605.447 50.8438 605.447 49.3906C605.447 48.0313 604.557 47.2656 602.916 47.2656ZM602.807 53.9375H599.463V58.7969H603.182C605.088 58.7969 606.119 57.9531 606.119 56.375C606.119 54.75 605.026 53.9375 602.807 53.9375ZM596.135 61.25V44.8125H603.604C606.807 44.8125 608.744 46.4063 608.744 49C608.744 50.7031 607.526 52.25 605.947 52.5469V52.6719C608.072 52.9531 609.479 54.4531 609.479 56.5156C609.479 59.4063 607.26 61.25 603.697 61.25H596.135ZM626.799 61.25V44.8125H630.143V61.25H626.799ZM618.362 52.5313H615.518V58.5938H618.362C620.299 58.5938 621.549 57.375 621.549 55.5625C621.549 53.7344 620.284 52.5313 618.362 52.5313ZM612.159 61.25V44.8125H615.518V49.8906H618.659C622.456 49.8906 624.909 52.0938 624.909 55.5625C624.909 59.0469 622.456 61.25 618.659 61.25H612.159ZM636.714 61.25H633.464V44.8125H637.698L642.964 56.8594H643.089L648.386 44.8125H652.526V61.25H649.245V49.8438H649.136L644.214 60.6094H641.745L636.823 49.8438H636.714V61.25ZM665.339 61.25H662.011V44.8125H665.339V56.3281H665.464L673.058 44.8125H676.386V61.25H673.058V49.7031H672.933L665.339 61.25ZM689.199 61.25H685.871V44.8125H689.199V56.3281H689.324L696.918 44.8125H700.246V61.25H696.918V49.7031H696.793L689.199 61.25ZM714.348 61.25V54.0938H706.911V61.25H703.551V44.8125H706.911V51.4375H714.348V44.8125H717.707V61.25H714.348ZM733.544 44.8125V47.4844H728.387V61.25H725.028V47.4844H719.872V44.8125H733.544ZM742.271 47.2344C739.911 47.2344 738.255 49.0313 738.083 51.5156H746.302C746.224 49 744.63 47.2344 742.271 47.2344ZM746.286 56.4219H749.489C749.021 59.4219 746.177 61.5625 742.411 61.5625C737.583 61.5625 734.661 58.2969 734.661 53.1094C734.661 47.9531 737.63 44.5156 742.271 44.5156C746.833 44.5156 749.677 47.7344 749.677 52.7188V53.875H738.067V54.0781C738.067 56.9375 739.786 58.8281 742.489 58.8281C744.411 58.8281 745.833 57.8594 746.286 56.4219ZM760.826 44.5469C764.997 44.5469 767.747 47.8281 767.747 53.0313C767.747 58.2344 765.013 61.5312 760.888 61.5312C758.529 61.5312 756.654 60.375 755.716 58.5469H755.638V66.6875H752.263V44.8125H755.529V47.6406H755.591C756.56 45.75 758.451 44.5469 760.826 44.5469ZM759.935 58.6719C762.607 58.6719 764.279 56.4844 764.279 53.0313C764.279 49.5938 762.607 47.3906 759.935 47.3906C757.357 47.3906 755.622 49.6406 755.622 53.0313C755.622 56.4531 757.341 58.6719 759.935 58.6719ZM777.224 47.2344C774.865 47.2344 773.209 49.0313 773.037 51.5156H781.256C781.177 49 779.584 47.2344 777.224 47.2344ZM781.24 56.4219H784.443C783.974 59.4219 781.131 61.5625 777.365 61.5625C772.537 61.5625 769.615 58.2969 769.615 53.1094C769.615 47.9531 772.584 44.5156 777.224 44.5156C781.787 44.5156 784.631 47.7344 784.631 52.7188V53.875H773.021V54.0781C773.021 56.9375 774.74 58.8281 777.443 58.8281C779.365 58.8281 780.787 57.8594 781.24 56.4219ZM801.232 50.0781H797.982C797.545 48.5625 796.295 47.3281 794.201 47.3281C791.592 47.3281 789.889 49.5625 789.889 53.0313C789.889 56.5938 791.607 58.7344 794.232 58.7344C796.232 58.7344 797.545 57.7344 798.014 56.0156H801.264C800.779 59.3125 798.076 61.5625 794.201 61.5625C789.498 61.5625 786.467 58.2969 786.467 53.0313C786.467 47.875 789.498 44.5156 794.17 44.5156C798.232 44.5156 800.764 47.0469 801.232 50.0781ZM814.459 61.25V54.0938H807.022V61.25H803.662V44.8125H807.022V51.4375H814.459V44.8125H817.819V61.25H814.459ZM835.796 61.25V44.8125H839.139V61.25H835.796ZM827.358 52.5313H824.514V58.5938H827.358C829.296 58.5938 830.546 57.375 830.546 55.5625C830.546 53.7344 829.28 52.5313 827.358 52.5313ZM821.155 61.25V44.8125H824.514V49.8906H827.655C831.452 49.8906 833.905 52.0938 833.905 55.5625C833.905 59.0469 831.452 61.25 827.655 61.25H821.155ZM845.71 61.25H842.46V44.8125H846.694L851.96 56.8594H852.085L857.382 44.8125H861.522V61.25H858.241V49.8438H858.132L853.21 60.6094H850.741L845.819 49.8438H845.71V61.25ZM863.874 44.75C864.015 41.2031 866.437 38.5156 870.968 38.5156C875.093 38.5156 877.874 40.9688 877.874 44.3125C877.874 46.7344 876.656 48.4375 874.593 49.6719C872.577 50.8594 871.999 51.6875 871.999 53.2969V54.25H868.765L868.749 53C868.671 50.7969 869.624 49.3906 871.765 48.1094C873.656 46.9688 874.327 46.0625 874.327 44.4531C874.327 42.6875 872.937 41.3906 870.796 41.3906C868.64 41.3906 867.249 42.6875 867.109 44.75H863.874ZM870.406 61.4844C869.265 61.4844 868.359 60.6094 868.359 59.4688C868.359 58.3281 869.265 57.4531 870.406 57.4531C871.577 57.4531 872.468 58.3281 872.468 59.4688C872.468 60.6094 871.577 61.4844 870.406 61.4844Z" fill="black"/>
</svg>
