<svg width="1329" height="101" viewBox="0 0 1329 101" fill="none" xmlns="http://www.w3.org/2000/svg">
<rect x="0.25" y="0.25" width="1328" height="100" rx="24" fill="#F2F2F7"/>
<path opacity="0.5" d="M40.698 46.21H41.146C46.794 46.21 49.274 47.746 49.274 51.714V51.906C49.274 55.874 46.794 57.41 41.146 57.41H40.698C35.05 57.41 32.57 55.874 32.57 51.906V51.714C32.57 47.746 35.05 46.21 40.698 46.21ZM40.794 49.41C38.698 49.41 37.53 50.066 37.53 51.762V51.858C37.53 53.538 38.698 54.21 40.794 54.21H41.05C43.146 54.21 44.314 53.538 44.314 51.858V51.762C44.314 50.066 43.146 49.41 41.05 49.41H40.794ZM65.1617 53.89V57.25H49.7537V55.202C49.7537 52.386 51.4817 51.314 55.1777 50.962L59.1137 50.594C59.8817 50.53 60.2657 50.386 60.2657 50.018V49.986C60.2657 49.602 59.8657 49.41 58.0417 49.41H57.8017C56.0257 49.41 55.0817 49.65 54.9217 50.306L54.9057 50.37H49.8657L49.8817 50.178C50.1217 47.346 52.2497 46.21 57.3697 46.21H58.0577C63.3377 46.21 65.2577 47.33 65.2577 49.362V49.474C65.2577 51.602 64.0577 52.434 59.7697 52.85L55.9457 53.218C54.7937 53.33 54.2337 53.442 54.1857 53.89H65.1617Z" fill="black"/>
<path d="M101.562 49.4531L112.406 61.25H107.828L98.1094 50.6719H97.9844V61.25H94.4844V38.7031H97.9844V48.7969H98.1094L107.297 38.7031H111.484L101.562 49.4531ZM119.446 58.8594C121.805 58.8594 123.649 57.2344 123.649 55.0938V53.7969L119.602 54.0469C117.586 54.1875 116.446 55.0781 116.446 56.4844C116.446 57.9219 117.633 58.8594 119.446 58.8594ZM118.508 61.5312C115.289 61.5312 113.039 59.5313 113.039 56.5781C113.039 53.7031 115.242 51.9375 119.149 51.7188L123.649 51.4531V50.1875C123.649 48.3594 122.414 47.2656 120.352 47.2656C118.399 47.2656 117.18 48.2031 116.883 49.6719H113.696C113.883 46.7031 116.414 44.5156 120.477 44.5156C124.461 44.5156 127.008 46.625 127.008 49.9219V61.25H123.774V58.5469H123.696C122.742 60.375 120.664 61.5312 118.508 61.5312ZM136.907 52.5313L144.469 61.25H140.235L133.719 53.6719H133.594V61.25H130.235V44.8125H133.594V51.8438H133.719L140.157 44.8125H144.188L136.907 52.5313ZM161.017 44.5469C165.189 44.5469 167.939 47.8281 167.939 53.0313C167.939 58.2344 165.204 61.5312 161.079 61.5312C158.72 61.5312 156.845 60.375 155.907 58.5469H155.829V66.6875H152.454V44.8125H155.72V47.6406H155.782C156.751 45.75 158.642 44.5469 161.017 44.5469ZM160.126 58.6719C162.798 58.6719 164.47 56.4844 164.47 53.0313C164.47 49.5938 162.798 47.3906 160.126 47.3906C157.548 47.3906 155.814 49.6406 155.814 53.0313C155.814 56.4531 157.532 58.6719 160.126 58.6719ZM176.291 58.8594C178.65 58.8594 180.494 57.2344 180.494 55.0938V53.7969L176.447 54.0469C174.431 54.1875 173.291 55.0781 173.291 56.4844C173.291 57.9219 174.478 58.8594 176.291 58.8594ZM175.353 61.5312C172.134 61.5312 169.884 59.5313 169.884 56.5781C169.884 53.7031 172.087 51.9375 175.994 51.7188L180.494 51.4531V50.1875C180.494 48.3594 179.259 47.2656 177.197 47.2656C175.244 47.2656 174.025 48.2031 173.728 49.6719H170.541C170.728 46.7031 173.259 44.5156 177.322 44.5156C181.306 44.5156 183.853 46.625 183.853 49.9219V61.25H180.619V58.5469H180.541C179.587 60.375 177.509 61.5312 175.353 61.5312ZM192.986 61.5625C189.142 61.5625 186.471 59.6719 186.174 56.6406H189.502C189.846 58.0625 191.096 58.8438 192.986 58.8438C195.142 58.8438 196.346 57.8438 196.346 56.3906C196.346 54.75 195.236 54 193.002 54H190.596V51.5156H192.955C194.846 51.5156 195.83 50.7969 195.83 49.3594C195.83 48.0938 194.924 47.2031 193.002 47.2031C191.189 47.2031 189.971 47.9844 189.752 49.2656H186.517C186.861 46.3438 189.314 44.5156 192.986 44.5156C196.971 44.5156 199.127 46.2969 199.127 49.0313C199.127 50.7031 198.096 52.125 196.502 52.5313V52.6563C198.596 53.1406 199.705 54.5 199.705 56.375C199.705 59.5 197.064 61.5625 192.986 61.5625ZM209.432 61.5625C204.729 61.5625 201.635 58.3281 201.635 53.0313C201.635 47.75 204.744 44.5156 209.432 44.5156C214.119 44.5156 217.229 47.75 217.229 53.0313C217.229 58.3281 214.135 61.5625 209.432 61.5625ZM209.432 58.7813C212.088 58.7813 213.791 56.6875 213.791 53.0313C213.791 49.3906 212.072 47.2969 209.432 47.2969C206.791 47.2969 205.072 49.3906 205.072 53.0313C205.072 56.6875 206.791 58.7813 209.432 58.7813ZM227.143 61.5625C222.002 61.5625 219.221 58.2031 219.221 51.7031C219.221 42.5781 221.877 38.875 228.127 38.6563L229.596 38.6094C231.362 38.5313 233.143 38.2031 233.893 37.7969V40.5938C233.471 40.9844 231.799 41.3906 229.784 41.4688L228.346 41.5156C223.956 41.6719 222.565 43.6406 221.956 48.2813H222.081C223.127 46.3438 225.112 45.2813 227.69 45.2813C232.127 45.2813 234.971 48.375 234.971 53.2188C234.971 58.3906 231.987 61.5625 227.143 61.5625ZM227.112 58.7344C229.893 58.7344 231.518 56.7656 231.518 53.2656C231.518 49.9375 229.893 48.0313 227.112 48.0313C224.315 48.0313 222.674 49.9375 222.674 53.2656C222.674 56.7656 224.299 58.7344 227.112 58.7344ZM246.136 44.5469C250.307 44.5469 253.057 47.8281 253.057 53.0313C253.057 58.2344 250.323 61.5312 246.198 61.5312C243.839 61.5312 241.964 60.375 241.026 58.5469H240.948V66.6875H237.573V44.8125H240.839V47.6406H240.901C241.87 45.75 243.761 44.5469 246.136 44.5469ZM245.245 58.6719C247.917 58.6719 249.589 56.4844 249.589 53.0313C249.589 49.5938 247.917 47.3906 245.245 47.3906C242.667 47.3906 240.932 49.6406 240.932 53.0313C240.932 56.4531 242.651 58.6719 245.245 58.6719ZM261.409 58.8594C263.769 58.8594 265.612 57.2344 265.612 55.0938V53.7969L261.566 54.0469C259.55 54.1875 258.409 55.0781 258.409 56.4844C258.409 57.9219 259.597 58.8594 261.409 58.8594ZM260.472 61.5312C257.253 61.5312 255.003 59.5313 255.003 56.5781C255.003 53.7031 257.206 51.9375 261.112 51.7188L265.612 51.4531V50.1875C265.612 48.3594 264.378 47.2656 262.316 47.2656C260.362 47.2656 259.144 48.2031 258.847 49.6719H255.659C255.847 46.7031 258.378 44.5156 262.441 44.5156C266.425 44.5156 268.972 46.625 268.972 49.9219V61.25H265.737V58.5469H265.659C264.706 60.375 262.628 61.5312 260.472 61.5312ZM284.449 44.8125V47.4844H279.292V61.25H275.933V47.4844H270.777V44.8125H284.449ZM292.801 52.5313H289.957V58.5938H292.801C294.738 58.5938 295.988 57.375 295.988 55.5625C295.988 53.7344 294.722 52.5313 292.801 52.5313ZM286.597 61.25V44.8125H289.957V49.8906H293.097C296.894 49.8906 299.347 52.0938 299.347 55.5625C299.347 59.0469 296.894 61.25 293.097 61.25H286.597ZM315.871 50.0781H312.621C312.184 48.5625 310.934 47.3281 308.84 47.3281C306.231 47.3281 304.527 49.5625 304.527 53.0313C304.527 56.5938 306.246 58.7344 308.871 58.7344C310.871 58.7344 312.184 57.7344 312.652 56.0156H315.902C315.418 59.3125 312.715 61.5625 308.84 61.5625C304.137 61.5625 301.106 58.2969 301.106 53.0313C301.106 47.875 304.137 44.5156 308.809 44.5156C312.871 44.5156 315.402 47.0469 315.871 50.0781ZM324.442 53.0156H327.426V47.4688H324.442C322.52 47.4688 321.286 48.5625 321.286 50.3438C321.286 51.9063 322.536 53.0156 324.442 53.0156ZM327.426 61.25V55.6094H324.926L320.942 61.25H317.129L321.614 55.0313C319.332 54.3594 317.926 52.6563 317.926 50.3594C317.926 46.9375 320.426 44.8125 324.27 44.8125H330.739V61.25H327.426ZM354.255 50.0781H351.005C350.567 48.5625 349.317 47.3281 347.224 47.3281C344.614 47.3281 342.911 49.5625 342.911 53.0313C342.911 56.5938 344.63 58.7344 347.255 58.7344C349.255 58.7344 350.567 57.7344 351.036 56.0156H354.286C353.802 59.3125 351.099 61.5625 347.224 61.5625C342.521 61.5625 339.489 58.2969 339.489 53.0313C339.489 47.875 342.521 44.5156 347.192 44.5156C351.255 44.5156 353.786 47.0469 354.255 50.0781ZM363.763 61.5625C359.06 61.5625 355.966 58.3281 355.966 53.0313C355.966 47.75 359.076 44.5156 363.763 44.5156C368.451 44.5156 371.56 47.75 371.56 53.0313C371.56 58.3281 368.466 61.5625 363.763 61.5625ZM363.763 58.7813C366.419 58.7813 368.122 56.6875 368.122 53.0313C368.122 49.3906 366.404 47.2969 363.763 47.2969C361.122 47.2969 359.404 49.3906 359.404 53.0313C359.404 56.6875 361.122 58.7813 363.763 58.7813ZM387.107 47.2656H383.654V51.5781H386.779C388.686 51.5781 389.639 50.8438 389.639 49.3906C389.639 48.0313 388.748 47.2656 387.107 47.2656ZM386.998 53.9375H383.654V58.7969H387.373C389.279 58.7969 390.311 57.9531 390.311 56.375C390.311 54.75 389.217 53.9375 386.998 53.9375ZM380.326 61.25V44.8125H387.795C390.998 44.8125 392.936 46.4063 392.936 49C392.936 50.7031 391.717 52.25 390.139 52.5469V52.6719C392.264 52.9531 393.67 54.4531 393.67 56.5156C393.67 59.4063 391.451 61.25 387.889 61.25H380.326ZM410.381 50.0781H407.131C406.694 48.5625 405.444 47.3281 403.35 47.3281C400.741 47.3281 399.037 49.5625 399.037 53.0313C399.037 56.5938 400.756 58.7344 403.381 58.7344C405.381 58.7344 406.694 57.7344 407.162 56.0156H410.412C409.928 59.3125 407.225 61.5625 403.35 61.5625C398.647 61.5625 395.616 58.2969 395.616 53.0313C395.616 47.875 398.647 44.5156 403.319 44.5156C407.381 44.5156 409.912 47.0469 410.381 50.0781ZM419.702 47.2344C417.342 47.2344 415.686 49.0313 415.514 51.5156H423.733C423.655 49 422.061 47.2344 419.702 47.2344ZM423.717 56.4219H426.921C426.452 59.4219 423.608 61.5625 419.842 61.5625C415.014 61.5625 412.092 58.2969 412.092 53.1094C412.092 47.9531 415.061 44.5156 419.702 44.5156C424.264 44.5156 427.108 47.7344 427.108 52.7188V53.875H415.499V54.0781C415.499 56.9375 417.217 58.8281 419.921 58.8281C421.842 58.8281 423.264 57.8594 423.717 56.4219ZM432.929 61.25H429.679V44.8125H433.913L439.179 56.8594H439.304L444.601 44.8125H448.741V61.25H445.46V49.8438H445.351L440.429 60.6094H437.96L433.038 49.8438H432.929V61.25ZM455.374 61.25H452.046V44.8125H455.374V56.3281H455.499L463.093 44.8125H466.421V61.25H463.093V49.7031H462.968L455.374 61.25ZM482.687 47.2656H479.234V51.5781H482.359C484.266 51.5781 485.219 50.8438 485.219 49.3906C485.219 48.0313 484.328 47.2656 482.687 47.2656ZM482.578 53.9375H479.234V58.7969H482.953C484.859 58.7969 485.891 57.9531 485.891 56.375C485.891 54.75 484.797 53.9375 482.578 53.9375ZM475.906 61.25V44.8125H483.375C486.578 44.8125 488.516 46.4063 488.516 49C488.516 50.7031 487.297 52.25 485.719 52.5469V52.6719C487.844 52.9531 489.25 54.4531 489.25 56.5156C489.25 59.4063 487.031 61.25 483.469 61.25H475.906ZM495.258 61.25H491.93V44.8125H495.258V56.3281H495.383L502.977 44.8125H506.305V61.25H502.977V49.7031H502.852L495.258 61.25ZM520.547 58.5781V47.4844H514.829L514.376 53.7656C514.251 55.7031 513.844 57.3906 513.094 58.4531V58.5781H520.547ZM511.204 65.5625H508.094V58.5781H509.422C510.626 57.8281 511.172 55.8438 511.329 53.625L511.922 44.8125H523.907V58.5781H526.454V65.5625H523.329V61.25H511.204V65.5625ZM534.181 58.8594C536.54 58.8594 538.384 57.2344 538.384 55.0938V53.7969L534.337 54.0469C532.321 54.1875 531.181 55.0781 531.181 56.4844C531.181 57.9219 532.368 58.8594 534.181 58.8594ZM533.243 61.5312C530.024 61.5312 527.774 59.5313 527.774 56.5781C527.774 53.7031 529.977 51.9375 533.884 51.7188L538.384 51.4531V50.1875C538.384 48.3594 537.149 47.2656 535.087 47.2656C533.134 47.2656 531.915 48.2031 531.618 49.6719H528.431C528.618 46.7031 531.149 44.5156 535.212 44.5156C539.196 44.5156 541.743 46.625 541.743 49.9219V61.25H538.509V58.5469H538.431C537.477 60.375 535.399 61.5312 533.243 61.5312ZM548.22 61.25H544.97V44.8125H549.204L554.47 56.8594H554.595L559.892 44.8125H564.032V61.25H560.751V49.8438H560.642L555.72 60.6094H553.251L548.329 49.8438H548.22V61.25ZM570.666 61.25H567.337V44.8125H570.666V56.3281H570.791L578.384 44.8125H581.712V61.25H578.384V49.7031H578.259L570.666 61.25ZM602.135 58.5781V47.4844H596.416L595.963 53.7656C595.838 55.7031 595.432 57.3906 594.682 58.4531V58.5781H602.135ZM592.791 65.5625H589.682V58.5781H591.01C592.213 57.8281 592.76 55.8438 592.916 53.625L593.51 44.8125H605.494V58.5781H608.041V65.5625H604.916V61.25H592.791V65.5625ZM613.331 61.25H610.002V44.8125H613.331V56.3281H613.456L621.049 44.8125H624.377V61.25H621.049V49.7031H620.924L613.331 61.25ZM633.448 58.8594C635.807 58.8594 637.651 57.2344 637.651 55.0938V53.7969L633.604 54.0469C631.589 54.1875 630.448 55.0781 630.448 56.4844C630.448 57.9219 631.636 58.8594 633.448 58.8594ZM632.511 61.5312C629.292 61.5312 627.042 59.5313 627.042 56.5781C627.042 53.7031 629.245 51.9375 633.151 51.7188L637.651 51.4531V50.1875C637.651 48.3594 636.417 47.2656 634.354 47.2656C632.401 47.2656 631.182 48.2031 630.886 49.6719H627.698C627.886 46.7031 630.417 44.5156 634.479 44.5156C638.464 44.5156 641.011 46.625 641.011 49.9219V61.25H637.776V58.5469H637.698C636.745 60.375 634.667 61.5312 632.511 61.5312ZM655.128 47.4844H647.597V61.25H644.237V44.8125H655.128V47.4844ZM666.214 44.5469C670.386 44.5469 673.136 47.8281 673.136 53.0313C673.136 58.2344 670.402 61.5312 666.277 61.5312C663.917 61.5312 662.042 60.375 661.105 58.5469H661.027V66.6875H657.652V44.8125H660.917V47.6406H660.98C661.949 45.75 663.839 44.5469 666.214 44.5469ZM665.324 58.6719C667.996 58.6719 669.667 56.4844 669.667 53.0313C669.667 49.5938 667.996 47.3906 665.324 47.3906C662.746 47.3906 661.011 49.6406 661.011 53.0313C661.011 56.4531 662.73 58.6719 665.324 58.6719ZM681.488 58.8594C683.847 58.8594 685.691 57.2344 685.691 55.0938V53.7969L681.644 54.0469C679.629 54.1875 678.488 55.0781 678.488 56.4844C678.488 57.9219 679.676 58.8594 681.488 58.8594ZM680.551 61.5312C677.332 61.5312 675.082 59.5313 675.082 56.5781C675.082 53.7031 677.285 51.9375 681.191 51.7188L685.691 51.4531V50.1875C685.691 48.3594 684.457 47.2656 682.394 47.2656C680.441 47.2656 679.222 48.2031 678.926 49.6719H675.738C675.926 46.7031 678.457 44.5156 682.519 44.5156C686.504 44.5156 689.051 46.625 689.051 49.9219V61.25H685.816V58.5469H685.738C684.785 60.375 682.707 61.5312 680.551 61.5312ZM695.527 61.25H692.277V44.8125H696.512L701.777 56.8594H701.902L707.199 44.8125H711.34V61.25H708.059V49.8438H707.949L703.027 60.6094H700.559L695.637 49.8438H695.527V61.25ZM717.895 61.25H714.645V44.8125H718.879L724.145 56.8594H724.27L729.567 44.8125H733.707V61.25H730.426V49.8438H730.317L725.395 60.6094H722.926L718.004 49.8438H717.895V61.25ZM736.059 44.75C736.2 41.2031 738.622 38.5156 743.153 38.5156C747.278 38.5156 750.059 40.9688 750.059 44.3125C750.059 46.7344 748.841 48.4375 746.778 49.6719C744.762 50.8594 744.184 51.6875 744.184 53.2969V54.25H740.95L740.934 53C740.856 50.7969 741.809 49.3906 743.95 48.1094C745.841 46.9688 746.512 46.0625 746.512 44.4531C746.512 42.6875 745.122 41.3906 742.981 41.3906C740.825 41.3906 739.434 42.6875 739.294 44.75H736.059ZM742.591 61.4844C741.45 61.4844 740.544 60.6094 740.544 59.4688C740.544 58.3281 741.45 57.4531 742.591 57.4531C743.762 57.4531 744.653 58.3281 744.653 59.4688C744.653 60.6094 743.762 61.4844 742.591 61.4844Z" fill="black"/>
</svg>
