<svg width="1329" height="101" viewBox="0 0 1329 101" fill="none" xmlns="http://www.w3.org/2000/svg">
<rect x="0.25" y="0.25" width="1328" height="100" rx="24" fill="#F2F2F7"/>
<path opacity="0.5" d="M40.698 46.21H41.146C46.794 46.21 49.274 47.746 49.274 51.714V51.906C49.274 55.874 46.794 57.41 41.146 57.41H40.698C35.05 57.41 32.57 55.874 32.57 51.906V51.714C32.57 47.746 35.05 46.21 40.698 46.21ZM40.794 49.41C38.698 49.41 37.53 50.066 37.53 51.762V51.858C37.53 53.538 38.698 54.21 40.794 54.21H41.05C43.146 54.21 44.314 53.538 44.314 51.858V51.762C44.314 50.066 43.146 49.41 41.05 49.41H40.794ZM49.6257 52.866H54.5057L54.5217 52.962C54.6497 53.714 55.3057 54.21 57.1297 54.21H57.8017C59.7537 54.21 60.3137 54.002 60.3137 53.506V53.474C60.3137 52.978 59.9137 52.866 59.0337 52.866H55.3217V50.754H58.9857C59.8497 50.754 60.2017 50.562 60.2017 50.098V50.066C60.2017 49.57 59.5937 49.41 57.8337 49.41H57.1297C55.3057 49.41 54.6497 49.906 54.5217 50.658L54.5057 50.754H49.6257L49.6417 50.546C49.8657 47.602 52.0577 46.21 57.1297 46.21H57.6097C63.2417 46.21 65.2097 47.282 65.2097 49.266V49.362C65.2097 50.45 64.6337 51.378 63.1937 51.714C64.7617 52.002 65.3217 52.898 65.3217 54.018V54.146C65.3217 56.258 63.3217 57.41 57.6097 57.41H57.1297C52.0577 57.41 49.8657 56.018 49.6417 53.074L49.6257 52.866Z" fill="black"/>
<path d="M101.562 49.4531L112.406 61.25H107.828L98.1094 50.6719H97.9844V61.25H94.4844V38.7031H97.9844V48.7969H98.1094L107.297 38.7031H111.484L101.562 49.4531ZM125.055 44.8125V47.4844H119.899V61.25H116.539V47.4844H111.383V44.8125H125.055ZM133.969 61.5625C129.266 61.5625 126.172 58.3281 126.172 53.0313C126.172 47.75 129.282 44.5156 133.969 44.5156C138.657 44.5156 141.766 47.75 141.766 53.0313C141.766 58.3281 138.672 61.5625 133.969 61.5625ZM133.969 58.7813C136.626 58.7813 138.329 56.6875 138.329 53.0313C138.329 49.3906 136.61 47.2969 133.969 47.2969C131.329 47.2969 129.61 49.3906 129.61 53.0313C129.61 56.6875 131.329 58.7813 133.969 58.7813ZM163.032 44.8125V47.4844H157.876V61.25H154.517V47.4844H149.361V44.8125H163.032ZM170.416 58.8594C172.775 58.8594 174.619 57.2344 174.619 55.0938V53.7969L170.572 54.0469C168.556 54.1875 167.416 55.0781 167.416 56.4844C167.416 57.9219 168.603 58.8594 170.416 58.8594ZM169.478 61.5312C166.259 61.5312 164.009 59.5313 164.009 56.5781C164.009 53.7031 166.212 51.9375 170.119 51.7188L174.619 51.4531V50.1875C174.619 48.3594 173.384 47.2656 171.322 47.2656C169.369 47.2656 168.15 48.2031 167.853 49.6719H164.666C164.853 46.7031 167.384 44.5156 171.447 44.5156C175.431 44.5156 177.978 46.625 177.978 49.9219V61.25H174.744V58.5469H174.666C173.712 60.375 171.634 61.5312 169.478 61.5312ZM187.877 52.5313L195.439 61.25H191.205L184.689 53.6719H184.564V61.25H181.205V44.8125H184.564V51.8438H184.689L191.127 44.8125H195.158L187.877 52.5313ZM200.557 61.25H197.229V44.8125H200.557V56.3281H200.682L208.276 44.8125H211.604V61.25H208.276V49.7031H208.151L200.557 61.25ZM221.799 47.2344C219.44 47.2344 217.784 49.0313 217.612 51.5156H225.831C225.752 49 224.159 47.2344 221.799 47.2344ZM225.815 56.4219H229.018C228.549 59.4219 225.706 61.5625 221.94 61.5625C217.112 61.5625 214.19 58.2969 214.19 53.1094C214.19 47.9531 217.159 44.5156 221.799 44.5156C226.362 44.5156 229.206 47.7344 229.206 52.7188V53.875H217.596V54.0781C217.596 56.9375 219.315 58.8281 222.018 58.8281C223.94 58.8281 225.362 57.8594 225.815 56.4219ZM244.191 53.0156H247.175V47.4688H244.191C242.269 47.4688 241.034 48.5625 241.034 50.3438C241.034 51.9063 242.284 53.0156 244.191 53.0156ZM247.175 61.25V55.6094H244.675L240.691 61.25H236.878L241.362 55.0313C239.081 54.3594 237.675 52.6563 237.675 50.3594C237.675 46.9375 240.175 44.8125 244.019 44.8125H250.487V61.25H247.175ZM277.417 65.5625H274.308V61.25H253.792V44.8125H257.152V58.5781H262.667V44.8125H266.027V58.5781H271.542V44.8125H274.902V58.5781H277.417V65.5625ZM282.738 61.25H279.41V44.8125H282.738V56.3281H282.863L290.457 44.8125H293.785V61.25H290.457V49.7031H290.332L282.738 61.25ZM303.762 52.5313L311.324 61.25H307.09L300.574 53.6719H300.449V61.25H297.09V44.8125H300.449V51.8438H300.574L307.012 44.8125H311.043L303.762 52.5313ZM316.442 61.25H313.114V44.8125H316.442V56.3281H316.567L324.161 44.8125H327.489V61.25H324.161V49.7031H324.036L316.442 61.25ZM351.005 50.0781H347.755C347.317 48.5625 346.067 47.3281 343.974 47.3281C341.364 47.3281 339.661 49.5625 339.661 53.0313C339.661 56.5938 341.38 58.7344 344.005 58.7344C346.005 58.7344 347.317 57.7344 347.786 56.0156H351.036C350.552 59.3125 347.849 61.5625 343.974 61.5625C339.271 61.5625 336.239 58.2969 336.239 53.0313C336.239 47.875 339.271 44.5156 343.942 44.5156C348.005 44.5156 350.536 47.0469 351.005 50.0781ZM361.256 67.375C360.99 67.375 360.131 67.3437 359.881 67.2969V64.5625C360.131 64.625 360.693 64.625 360.974 64.625C362.552 64.625 363.381 63.9687 363.896 62.2812C363.896 62.25 364.193 61.2812 364.193 61.2656L358.256 44.8125H361.912L366.084 58.1875H366.131L370.302 44.8125H373.865L367.693 62.1094C366.287 66.0937 364.677 67.375 361.256 67.375ZM389.357 50.0781H386.107C385.67 48.5625 384.42 47.3281 382.326 47.3281C379.717 47.3281 378.014 49.5625 378.014 53.0313C378.014 56.5938 379.732 58.7344 382.357 58.7344C384.357 58.7344 385.67 57.7344 386.139 56.0156H389.389C388.904 59.3125 386.201 61.5625 382.326 61.5625C377.623 61.5625 374.592 58.2969 374.592 53.0313C374.592 47.875 377.623 44.5156 382.295 44.5156C386.357 44.5156 388.889 47.0469 389.357 50.0781ZM397.553 58.8594C399.912 58.8594 401.756 57.2344 401.756 55.0938V53.7969L397.709 54.0469C395.694 54.1875 394.553 55.0781 394.553 56.4844C394.553 57.9219 395.741 58.8594 397.553 58.8594ZM396.616 61.5312C393.397 61.5312 391.147 59.5313 391.147 56.5781C391.147 53.7031 393.35 51.9375 397.256 51.7188L401.756 51.4531V50.1875C401.756 48.3594 400.522 47.2656 398.459 47.2656C396.506 47.2656 395.287 48.2031 394.991 49.6719H391.803C391.991 46.7031 394.522 44.5156 398.584 44.5156C402.569 44.5156 405.116 46.625 405.116 49.9219V61.25H401.881V58.5469H401.803C400.85 60.375 398.772 61.5312 396.616 61.5312ZM411.592 61.25H408.342V44.8125H412.577L417.842 56.8594H417.967L423.264 44.8125H427.405V61.25H424.124V49.8438H424.014L419.092 60.6094H416.624L411.702 49.8438H411.592V61.25ZM434.038 61.25H430.71V44.8125H434.038V56.3281H434.163L441.757 44.8125H445.085V61.25H441.757V49.7031H441.632L434.038 61.25ZM447.437 44.75C447.577 41.2031 449.999 38.5156 454.531 38.5156C458.656 38.5156 461.437 40.9688 461.437 44.3125C461.437 46.7344 460.218 48.4375 458.156 49.6719C456.14 50.8594 455.562 51.6875 455.562 53.2969V54.25H452.327L452.312 53C452.234 50.7969 453.187 49.3906 455.327 48.1094C457.218 46.9688 457.89 46.0625 457.89 44.4531C457.89 42.6875 456.499 41.3906 454.359 41.3906C452.202 41.3906 450.812 42.6875 450.671 44.75H447.437ZM453.968 61.4844C452.827 61.4844 451.921 60.6094 451.921 59.4688C451.921 58.3281 452.827 57.4531 453.968 57.4531C455.14 57.4531 456.031 58.3281 456.031 59.4688C456.031 60.6094 455.14 61.4844 453.968 61.4844Z" fill="black"/>
</svg>
