<svg width="1338" height="100" viewBox="0 0 1338 100" fill="none" xmlns="http://www.w3.org/2000/svg">
<rect width="1338" height="100" rx="24" fill="white"/>
<path opacity="0.5" d="M40.448 41.96H40.896C46.544 41.96 49.024 43.496 49.024 47.464V47.656C49.024 51.624 46.544 53.16 40.896 53.16H40.448C34.8 53.16 32.32 51.624 32.32 47.656V47.464C32.32 43.496 34.8 41.96 40.448 41.96ZM40.544 45.16C38.448 45.16 37.28 45.816 37.28 47.512V47.608C37.28 49.288 38.448 49.96 40.544 49.96H40.8C42.896 49.96 44.064 49.288 44.064 47.608V47.512C44.064 45.816 42.896 45.16 40.8 45.16H40.544ZM49.3758 48.616H54.2558L54.2718 48.712C54.3998 49.464 55.0558 49.96 56.8798 49.96H57.5518C59.5038 49.96 60.0638 49.752 60.0638 49.256V49.224C60.0638 48.728 59.6638 48.616 58.7838 48.616H55.0718V46.504H58.7358C59.5998 46.504 59.9518 46.312 59.9518 45.848V45.816C59.9518 45.32 59.3438 45.16 57.5838 45.16H56.8798C55.0558 45.16 54.3998 45.656 54.2718 46.408L54.2558 46.504H49.3758L49.3918 46.296C49.6158 43.352 51.8078 41.96 56.8798 41.96H57.3598C62.9918 41.96 64.9598 43.032 64.9598 45.016V45.112C64.9598 46.2 64.3838 47.128 62.9438 47.464C64.5118 47.752 65.0718 48.648 65.0718 49.768V49.896C65.0718 52.008 63.0718 53.16 57.3598 53.16H56.8798C51.8078 53.16 49.6158 51.768 49.3918 48.824L49.3758 48.616Z" fill="black"/>
<path d="M97.7344 61H94.2344V38.4531H97.7344V48.1406H98.6094L107.016 38.4531H111.188L101.547 49.1875L112.125 61H107.594L98.6094 50.8906H97.7344V61ZM124.774 44.5625V47.25H119.633V61H116.243V47.25H111.102V44.5625H124.774ZM133.673 61.3281C128.954 61.3281 125.876 58.0625 125.876 52.7812V52.75C125.876 47.5 129.001 44.25 133.673 44.25C138.344 44.25 141.469 47.4844 141.469 52.75V52.7812C141.469 58.0781 138.376 61.3281 133.673 61.3281ZM133.688 58.5C136.329 58.5 138.032 56.4062 138.032 52.7812V52.75C138.032 49.1562 136.298 47.0781 133.673 47.0781C131.063 47.0781 129.329 49.1562 129.329 52.75V52.7812C129.329 56.4219 131.048 58.5 133.688 58.5ZM162.72 44.5625V47.25H157.579V61H154.189V47.25H149.048V44.5625H162.72ZM169.166 61.2969C165.884 61.2969 163.681 59.2812 163.681 56.3281V56.2969C163.681 53.4375 165.9 51.6875 169.791 51.4531L174.275 51.1875V49.9531C174.275 48.1406 173.088 47.0469 170.994 47.0469C169.041 47.0469 167.838 47.9688 167.556 49.2812L167.525 49.4219H164.338L164.353 49.25C164.588 46.4219 167.041 44.25 171.088 44.25C175.103 44.25 177.65 46.375 177.65 49.6719V61H174.275V58.4062H174.197C173.244 60.1719 171.353 61.2969 169.166 61.2969ZM167.088 56.25C167.088 57.6875 168.275 58.5938 170.088 58.5938C172.463 58.5938 174.275 56.9844 174.275 54.8438V53.5625L170.244 53.8125C168.213 53.9375 167.088 54.8281 167.088 56.2188V56.25ZM184.861 53.6719H184.268V61H180.893V44.5625H184.268V51.3438H184.861L190.814 44.5625H194.799L187.877 52.2812L195.08 61H190.908L184.861 53.6719ZM196.948 61V44.5625H200.291V56.0625H200.448L207.994 44.5625H211.323V61H207.963V49.4531H207.823L200.276 61H196.948ZM221.643 61.3281C216.815 61.3281 213.893 58.0312 213.893 52.8438V52.8281C213.893 47.6875 216.862 44.25 221.471 44.25C226.081 44.25 228.909 47.5625 228.909 52.5V53.6406H217.268C217.331 56.75 219.034 58.5625 221.721 58.5625C223.721 58.5625 225.049 57.5312 225.471 56.2969L225.518 56.1719H228.737L228.69 56.3438C228.174 58.9531 225.628 61.3281 221.643 61.3281ZM221.487 47.0156C219.299 47.0156 217.628 48.5 217.315 51.25H225.565C225.299 48.4062 223.69 47.0156 221.487 47.0156ZM247.05 61V55.3594H244.409L240.441 61H236.597L241.081 54.7812C238.8 54.1094 237.394 52.4062 237.394 50.125V50.0938C237.394 46.6875 239.894 44.5625 243.738 44.5625H250.409V61H247.05ZM243.909 52.75H247.05V47.2344H243.909C241.988 47.2344 240.816 48.2969 240.816 50.0781V50.1094C240.816 51.6562 242.003 52.75 243.909 52.75ZM253.699 61V44.5625H257.074V58.2969H262.558V44.5625H265.949V58.2969H271.433V44.5625H274.808V58.3281H277.339V65.4531H274.277V61H253.699ZM279.316 61V44.5625H282.66V56.0625H282.816L290.363 44.5625H293.691V61H290.332V49.4531H290.191L282.644 61H279.316ZM300.965 53.6719H300.371V61H296.996V44.5625H300.371V51.3438H300.965L306.918 44.5625H310.902L303.981 52.2812L311.184 61H307.012L300.965 53.6719ZM313.051 61V44.5625H316.395V56.0625H316.551L324.098 44.5625H327.426V61H324.067V49.4531H323.926L316.379 61H313.051ZM343.974 61.3281C339.177 61.3281 336.177 58.0312 336.177 52.7656V52.75C336.177 47.5469 339.239 44.25 343.943 44.25C348.161 44.25 350.724 46.9688 351.005 50.0625L351.021 50.1719H347.802L347.771 50.0469C347.411 48.4375 346.161 47.0781 343.958 47.0781C341.333 47.0781 339.63 49.2656 339.63 52.7812V52.7969C339.63 56.3906 341.364 58.5 343.989 58.5C346.068 58.5 347.38 57.2969 347.786 55.5156L347.818 55.3906H351.052L351.036 55.5C350.677 58.7969 347.927 61.3281 343.974 61.3281ZM361.521 66.4844C360.865 66.4844 360.162 66.4062 359.756 66.3281V63.6875C360.021 63.75 360.412 63.8125 360.865 63.8125C362.459 63.8125 363.334 63.3906 363.896 61.7969L364.177 61.0156L358.193 44.5625H361.849L365.99 57.9375H366.099L370.24 44.5625H373.802L367.677 61.7656C366.459 65.1719 364.74 66.4844 361.521 66.4844ZM382.326 61.3281C377.529 61.3281 374.529 58.0312 374.529 52.7656V52.75C374.529 47.5469 377.592 44.25 382.295 44.25C386.514 44.25 389.076 46.9688 389.358 50.0625L389.373 50.1719H386.154L386.123 50.0469C385.764 48.4375 384.514 47.0781 382.311 47.0781C379.686 47.0781 377.983 49.2656 377.983 52.7812V52.7969C377.983 56.3906 379.717 58.5 382.342 58.5C384.42 58.5 385.733 57.2969 386.139 55.5156L386.17 55.3906H389.404L389.389 55.5C389.029 58.7969 386.279 61.3281 382.326 61.3281ZM396.584 61.2969C393.303 61.2969 391.1 59.2812 391.1 56.3281V56.2969C391.1 53.4375 393.319 51.6875 397.209 51.4531L401.694 51.1875V49.9531C401.694 48.1406 400.506 47.0469 398.413 47.0469C396.459 47.0469 395.256 47.9688 394.975 49.2812L394.944 49.4219H391.756L391.772 49.25C392.006 46.4219 394.459 44.25 398.506 44.25C402.522 44.25 405.069 46.375 405.069 49.6719V61H401.694V58.4062H401.616C400.663 60.1719 398.772 61.2969 396.584 61.2969ZM394.506 56.25C394.506 57.6875 395.694 58.5938 397.506 58.5938C399.881 58.5938 401.694 56.9844 401.694 54.8438V53.5625L397.663 53.8125C395.631 53.9375 394.506 54.8281 394.506 56.2188V56.25ZM411.592 61H408.311V44.5625H412.577L417.811 56.6094H417.936L423.217 44.5625H427.374V61H424.077V49.5938H423.967L419.061 60.3594H416.592L411.702 49.5938H411.592V61ZM430.679 61V44.5625H434.022V56.0625H434.179L441.726 44.5625H445.054V61H441.694V49.4531H441.554L434.007 61H430.679ZM452.296 53.9219L452.281 52.6719C452.234 50.5469 453.156 49.1406 455.296 47.8594C457.187 46.7188 457.859 45.8125 457.859 44.2188V44.2031C457.859 42.4219 456.453 41.1406 454.328 41.1406C452.171 41.1406 450.828 42.4531 450.656 44.3594L450.64 44.5H447.406L447.421 44.3125C447.624 40.9531 449.968 38.2656 454.499 38.2656C458.609 38.2656 461.406 40.7031 461.406 44.0625V44.0781C461.406 46.4844 460.187 48.1875 458.124 49.4219C456.109 50.6094 455.531 51.4531 455.531 53.0312V53.9219H452.296ZM453.937 61.1719C452.796 61.1719 451.89 60.2812 451.89 59.1406C451.89 58 452.796 57.125 453.937 57.125C455.109 57.125 455.999 58 455.999 59.1406C455.999 60.2812 455.109 61.1719 453.937 61.1719Z" fill="black"/>
</svg>
