<svg width="429" height="168" viewBox="0 0 429 168" fill="none" xmlns="http://www.w3.org/2000/svg">
<path d="M0.333374 24C0.333374 10.7452 11.0785 0 24.3334 0H405C418.255 0 429 10.7452 429 24V144C429 157.255 418.255 168 405 168H24.3334C11.0785 168 0.333374 157.255 0.333374 144V24Z" fill="#01576A"/>
<path d="M94.357 88H79.957V65.92H60.709V88H46.309V55.36H94.357V88ZM96.4896 72.064V71.296C96.4896 59.584 105.13 54.88 122.026 54.88H123.562C140.458 54.88 149.098 59.584 149.098 71.296V72.064C149.098 83.776 140.458 88.48 123.562 88.48H122.026C105.13 88.48 96.4896 83.776 96.4896 72.064ZM111.37 71.872C111.37 76.912 115.162 78.88 121.882 78.88H123.706C130.426 78.88 134.218 76.912 134.218 71.872V71.488C134.218 66.448 130.426 64.48 123.706 64.48H121.882C115.162 64.48 111.37 66.448 111.37 71.488V71.872ZM151.193 88V55.36H171.497L181.001 74.896L190.361 55.36H210.665V88H196.505V68.752L187.049 88H174.569L165.113 68.752V88H151.193ZM212.764 72.064V71.296C212.764 59.584 221.404 54.88 238.3 54.88H239.836C256.732 54.88 265.372 59.584 265.372 71.296V72.064C265.372 83.776 256.732 88.48 239.836 88.48H238.3C221.404 88.48 212.764 83.776 212.764 72.064ZM227.644 71.872C227.644 76.912 231.436 78.88 238.156 78.88H239.98C246.7 78.88 250.492 76.912 250.492 71.872V71.488C250.492 66.448 246.7 64.48 239.98 64.48H238.156C231.436 64.48 227.644 66.448 227.644 71.488V71.872ZM322.667 94.24V88H267.467V55.36H281.867V77.44H291.707V55.36H306.107V77.44H315.947V55.36H330.347V77.44H336.107V94.24H322.667ZM367 63.712C378.184 63.712 383.752 66.688 383.752 75.616V76.096C383.752 85.024 378.184 88 367 88H337.768V55.36H352.168V63.712H367ZM365.416 78.4C367.912 78.4 369.352 77.92 369.352 75.904V75.808C369.352 73.792 367.912 73.312 365.416 73.312H352.168V78.4H365.416Z" fill="white"/>
<path d="M99.9633 122.094C99.5571 122.094 99.1977 122.023 99.1117 121.984V120.305C99.268 120.344 99.518 120.375 99.7758 120.375C100.526 120.375 101.049 120.109 101.463 119.414L97.6821 110.727H99.8149L102.487 117.367H102.588L105.151 110.727H107.268L103.815 118.773C102.799 121.141 101.838 122.094 99.9633 122.094ZM116.682 122V118.492H113.198V122H111.253V113.719H113.198V116.984H116.682V113.719H118.628V122H116.682ZM122.647 122.141C120.983 122.141 119.866 121.117 119.866 119.641V119.625C119.866 118.156 121.015 117.273 123.015 117.148L125.179 117.016V116.445C125.179 115.609 124.632 115.102 123.655 115.102C122.733 115.102 122.163 115.531 122.038 116.141L122.022 116.211H120.218L120.225 116.117C120.35 114.648 121.616 113.547 123.718 113.547C125.796 113.547 127.124 114.641 127.124 116.305V122H125.179V120.727H125.14C124.655 121.594 123.733 122.141 122.647 122.141ZM121.811 119.562C121.811 120.242 122.366 120.656 123.225 120.656C124.343 120.656 125.179 119.914 125.179 118.93V118.305L123.288 118.422C122.335 118.484 121.811 118.898 121.811 119.555V119.562ZM132.315 122.164C129.855 122.164 128.315 120.508 128.315 117.852V117.844C128.315 115.203 129.878 113.547 132.3 113.547C134.48 113.547 135.831 114.93 135.948 116.586L135.956 116.648H134.12L134.112 116.578C133.948 115.773 133.355 115.125 132.315 115.125C131.089 115.125 130.3 116.164 130.3 117.859V117.867C130.3 119.594 131.097 120.594 132.331 120.594C133.315 120.594 133.933 120.008 134.112 119.141L134.128 119.07H135.964V119.125C135.815 120.852 134.409 122.164 132.315 122.164ZM142.378 118.398H142.089V122H140.144V113.719H142.089V117.062H142.378L145.183 113.719H147.425L144.089 117.586L147.589 122H145.222L142.378 118.398ZM151.21 118.234C151.054 120.586 150.476 122.078 148.531 122.078C148.171 122.078 147.914 122.023 147.789 121.984V120.32C147.867 120.344 148.023 120.375 148.234 120.375C149.07 120.375 149.351 119.594 149.445 118.094L149.718 113.719H155.968V122H154.015V115.227H151.414L151.21 118.234ZM159.55 112.523C158.988 112.523 158.55 112.078 158.55 111.539C158.55 111 158.988 110.562 159.55 110.562C160.113 110.562 160.55 111 160.55 111.539C160.55 112.078 160.113 112.523 159.55 112.523ZM162.754 112.523C162.199 112.523 161.761 112.078 161.761 111.539C161.761 111 162.199 110.562 162.754 110.562C163.324 110.562 163.761 111 163.761 111.539C163.761 112.078 163.324 112.523 162.754 112.523ZM161.191 122.164C158.707 122.164 157.207 120.516 157.207 117.883V117.875C157.207 115.266 158.73 113.547 161.097 113.547C163.472 113.547 164.941 115.211 164.941 117.711V118.336H159.144C159.168 119.789 159.965 120.648 161.23 120.648C162.207 120.648 162.832 120.133 163.019 119.578L163.035 119.523H164.855L164.84 119.609C164.574 120.883 163.355 122.164 161.191 122.164ZM161.121 115.07C160.097 115.07 159.316 115.766 159.168 117.039H163.043C162.902 115.727 162.152 115.07 161.121 115.07ZM166.164 122V113.719H170.094C171.765 113.719 172.765 114.516 172.765 115.828V115.844C172.765 116.711 172.133 117.492 171.312 117.633V117.695C172.398 117.828 173.133 118.578 173.133 119.602V119.617C173.133 121.07 171.992 122 170.156 122H166.164ZM168.086 117.094H169.484C170.39 117.094 170.851 116.758 170.851 116.078V116.062C170.851 115.406 170.414 115.055 169.633 115.055H168.086V117.094ZM168.086 120.656H169.703C170.625 120.656 171.133 120.273 171.133 119.516V119.5C171.133 118.75 170.594 118.398 169.547 118.398H168.086V120.656ZM174.41 122V113.719H176.355V116.203H177.949C179.879 116.203 181.121 117.328 181.121 119.094V119.109C181.121 120.875 179.879 122 177.949 122H174.41ZM182.059 122V113.719H184.004V122H182.059ZM177.676 117.703H176.355V120.5H177.676C178.574 120.5 179.137 119.945 179.137 119.109V119.094C179.137 118.25 178.566 117.703 177.676 117.703ZM189.211 122.164C186.727 122.164 185.227 120.516 185.227 117.883V117.875C185.227 115.266 186.75 113.547 189.117 113.547C191.492 113.547 192.961 115.211 192.961 117.711V118.336H187.164C187.188 119.789 187.985 120.648 189.25 120.648C190.227 120.648 190.852 120.133 191.039 119.578L191.055 119.523H192.875L192.86 119.609C192.594 120.883 191.375 122.164 189.211 122.164ZM189.141 115.07C188.117 115.07 187.336 115.766 187.188 117.039H191.063C190.922 115.727 190.172 115.07 189.141 115.07ZM197.227 122V113.719H199.149V119.242H199.227L202.797 113.719H204.704V122H202.782V116.438H202.704L199.133 122H197.227ZM209.329 122V113.719H216.634V122H214.68V115.219H211.274V122H209.329ZM221.872 122.164C219.435 122.164 217.864 120.539 217.864 117.859V117.844C217.864 115.188 219.458 113.547 221.872 113.547C224.278 113.547 225.88 115.172 225.88 117.844V117.859C225.88 120.547 224.302 122.164 221.872 122.164ZM221.88 120.594C223.114 120.594 223.903 119.594 223.903 117.859V117.844C223.903 116.117 223.099 115.125 221.872 115.125C220.653 115.125 219.849 116.125 219.849 117.844V117.859C219.849 119.602 220.646 120.594 221.88 120.594ZM229.611 118.234C229.454 120.586 228.876 122.078 226.931 122.078C226.571 122.078 226.314 122.023 226.189 121.984V120.32C226.267 120.344 226.423 120.375 226.634 120.375C227.47 120.375 227.751 119.594 227.845 118.094L228.118 113.719H234.368V122H232.415V115.227H229.814L229.611 118.234ZM239.591 122.164C237.107 122.164 235.607 120.516 235.607 117.883V117.875C235.607 115.266 237.13 113.547 239.497 113.547C241.872 113.547 243.341 115.211 243.341 117.711V118.336H237.544C237.568 119.789 238.365 120.648 239.63 120.648C240.607 120.648 241.232 120.133 241.419 119.578L241.435 119.523H243.255L243.24 119.609C242.974 120.883 241.755 122.164 239.591 122.164ZM239.521 115.07C238.497 115.07 237.716 115.766 237.568 117.039H241.443C241.302 115.727 240.552 115.07 239.521 115.07ZM247.712 122.164C245.673 122.164 244.33 121.219 244.158 119.656L244.15 119.594H246.025L246.048 119.672C246.228 120.32 246.806 120.656 247.705 120.656C248.673 120.656 249.275 120.234 249.275 119.547V119.531C249.275 118.805 248.751 118.453 247.689 118.453H246.525V117.141H247.673C248.611 117.141 249.08 116.789 249.08 116.109V116.094C249.08 115.438 248.587 115.055 247.751 115.055C246.9 115.055 246.337 115.414 246.212 116.031L246.205 116.086H244.369L244.376 116.031C244.58 114.453 245.822 113.547 247.79 113.547C249.775 113.547 250.978 114.43 250.978 115.867V115.883C250.978 116.766 250.408 117.453 249.486 117.656V117.719C250.603 117.938 251.205 118.594 251.205 119.57V119.586C251.205 121.141 249.822 122.164 247.712 122.164ZM257.912 122V118.492H254.427V122H252.482V113.719H254.427V116.984H257.912V113.719H259.857V122H257.912ZM261.431 122V113.719H263.377V116.203H264.97C266.9 116.203 268.142 117.328 268.142 119.094V119.109C268.142 120.875 266.9 122 264.97 122H261.431ZM269.08 122V113.719H271.025V122H269.08ZM264.697 117.703H263.377V120.5H264.697C265.595 120.5 266.158 119.945 266.158 119.109V119.094C266.158 118.25 265.588 117.703 264.697 117.703ZM276.232 122.164C273.748 122.164 272.248 120.516 272.248 117.883V117.875C272.248 115.266 273.771 113.547 276.139 113.547C278.514 113.547 279.982 115.211 279.982 117.711V118.336H274.185C274.209 119.789 275.006 120.648 276.271 120.648C277.248 120.648 277.873 120.133 278.06 119.578L278.076 119.523H279.896L279.881 119.609C279.615 120.883 278.396 122.164 276.232 122.164ZM276.162 115.07C275.139 115.07 274.357 115.766 274.209 117.039H278.084C277.943 115.727 277.193 115.07 276.162 115.07ZM287.897 122.164C285.436 122.164 283.897 120.508 283.897 117.852V117.844C283.897 115.203 285.459 113.547 287.881 113.547C290.061 113.547 291.412 114.93 291.53 116.586L291.537 116.648H289.701L289.694 116.578C289.53 115.773 288.936 115.125 287.897 115.125C286.67 115.125 285.881 116.164 285.881 117.859V117.867C285.881 119.594 286.678 120.594 287.912 120.594C288.897 120.594 289.514 120.008 289.694 119.141L289.709 119.07H291.545V119.125C291.397 120.852 289.991 122.164 287.897 122.164ZM298.979 113.719V115.227H296.44V122H294.495V115.227H291.956V113.719H298.979ZM302.249 122.141C300.585 122.141 299.467 121.117 299.467 119.641V119.625C299.467 118.156 300.616 117.273 302.616 117.148L304.78 117.016V116.445C304.78 115.609 304.233 115.102 303.256 115.102C302.335 115.102 301.764 115.531 301.639 116.141L301.624 116.211H299.819L299.827 116.117C299.952 114.648 301.217 113.547 303.319 113.547C305.397 113.547 306.725 114.641 306.725 116.305V122H304.78V120.727H304.741C304.256 121.594 303.335 122.141 302.249 122.141ZM301.413 119.562C301.413 120.242 301.967 120.656 302.827 120.656C303.944 120.656 304.78 119.914 304.78 118.93V118.305L302.889 118.422C301.936 118.484 301.413 118.898 301.413 119.555V119.562ZM314.643 113.719V115.227H312.104V122H310.159V115.227H307.62V113.719H314.643ZM315.686 122V113.719H317.632V116.203H319.225C321.155 116.203 322.397 117.328 322.397 119.094V119.109C322.397 120.875 321.155 122 319.225 122H315.686ZM318.952 117.703H317.632V120.5H318.952C319.85 120.5 320.413 119.945 320.413 119.109V119.094C320.413 118.25 319.843 117.703 318.952 117.703ZM323.589 122V113.719H325.511V119.242H325.589L329.159 113.719H331.065V122H329.144V116.438H329.065L325.495 122H323.589Z" fill="white"/>
</svg>
