<svg width="430" height="168" viewBox="0 0 430 168" fill="none" xmlns="http://www.w3.org/2000/svg">
<path d="M0.666748 24C0.666748 10.7452 11.4119 0 24.6667 0H405.333C418.588 0 429.333 10.7452 429.333 24V144C429.333 157.255 418.588 168 405.333 168H24.6667C11.4119 168 0.666748 157.255 0.666748 144V24Z" fill="#FE6B1B"/>
<path d="M168.189 77.44H173.949V94.24H160.509V88H132.093V94.24H118.653V77.44H123.453C126.429 74.896 126.957 70.24 127.053 63.328L127.149 55.36H168.189V77.44ZM139.581 67.6C139.485 71.44 138.621 75.28 137.229 77.44H153.789V65.92H139.629L139.581 67.6ZM221.604 67.744C221.604 76.672 216.036 79.648 204.852 79.648H190.02V88H175.62V55.36H204.852C216.036 55.36 221.604 58.336 221.604 67.264V67.744ZM207.204 67.552V67.456C207.204 65.488 205.764 64.96 203.268 64.96H190.02V70.048H203.268C205.764 70.048 207.204 69.52 207.204 67.552ZM218.791 55.36H235.687L246.151 71.488L256.087 55.36H272.071L256.999 78.4C252.103 85.888 249.127 88 238.663 88H232.615V78.256H237.751C240.679 78.256 241.831 77.632 243.127 75.76H232.615L218.791 55.36ZM272.629 88V55.36H311.029V65.92H287.029V88H272.629Z" fill="#FFD7F0"/>
<path d="M85.8629 122V110.727H88.1832L91.6442 119.336H91.6911L95.152 110.727H97.4723V122H95.6598V113.984H95.5973L92.3551 122H90.9801L87.7379 113.984H87.6754V122H85.8629ZM99.242 122V113.719H101.187V116.203H102.781C104.711 116.203 105.953 117.328 105.953 119.094V119.109C105.953 120.875 104.711 122 102.781 122H99.242ZM106.89 122V113.719H108.836V122H106.89ZM102.508 117.703H101.187V120.5H102.508C103.406 120.5 103.969 119.945 103.969 119.109V119.094C103.969 118.25 103.398 117.703 102.508 117.703ZM119.07 115.219H115.399V122H113.453V113.719H119.07V115.219ZM123.715 122.164C121.278 122.164 119.707 120.539 119.707 117.859V117.844C119.707 115.188 121.301 113.547 123.715 113.547C126.121 113.547 127.723 115.172 127.723 117.844V117.859C127.723 120.547 126.145 122.164 123.715 122.164ZM123.723 120.594C124.957 120.594 125.746 119.594 125.746 117.859V117.844C125.746 116.117 124.942 115.125 123.715 115.125C122.496 115.125 121.692 116.125 121.692 117.844V117.859C121.692 119.602 122.489 120.594 123.723 120.594ZM128.961 122V113.719H132.891C134.563 113.719 135.563 114.516 135.563 115.828V115.844C135.563 116.711 134.93 117.492 134.11 117.633V117.695C135.196 117.828 135.93 118.578 135.93 119.602V119.617C135.93 121.07 134.789 122 132.954 122H128.961ZM130.883 117.094H132.282C133.188 117.094 133.649 116.758 133.649 116.078V116.062C133.649 115.406 133.211 115.055 132.43 115.055H130.883V117.094ZM130.883 120.656H132.5C133.422 120.656 133.93 120.273 133.93 119.516V119.5C133.93 118.75 133.391 118.398 132.344 118.398H130.883V120.656ZM140.864 122.164C138.426 122.164 136.856 120.539 136.856 117.859V117.844C136.856 115.188 138.45 113.547 140.864 113.547C143.27 113.547 144.872 115.172 144.872 117.844V117.859C144.872 120.547 143.294 122.164 140.864 122.164ZM140.872 120.594C142.106 120.594 142.895 119.594 142.895 117.859V117.844C142.895 116.117 142.09 115.125 140.864 115.125C139.645 115.125 138.84 116.125 138.84 117.844V117.859C138.84 119.602 139.637 120.594 140.872 120.594ZM146.102 124.734V113.719H148.048V115.148H148.094C148.563 114.156 149.477 113.547 150.657 113.547C152.766 113.547 154.087 115.188 154.087 117.859V117.867C154.087 120.523 152.759 122.164 150.688 122.164C149.509 122.164 148.563 121.57 148.087 120.602H148.048V124.734H146.102ZM150.079 120.523C151.329 120.523 152.102 119.5 152.102 117.867V117.859C152.102 116.203 151.321 115.188 150.079 115.188C148.876 115.188 148.04 116.234 148.04 117.859V117.867C148.04 119.484 148.884 120.523 150.079 120.523ZM155.325 122V113.719H157.247V119.242H157.325L160.895 113.719H162.802V122H160.88V116.438H160.802L157.231 122H155.325ZM166.243 122H164.384V113.719H166.876L169.306 119.5H169.368L171.806 113.719H174.251V122H172.392V116.336H172.329L170.001 121.617H168.626L166.298 116.336H166.243V122ZM182.525 122.164C180.064 122.164 178.525 120.508 178.525 117.852V117.844C178.525 115.203 180.087 113.547 182.509 113.547C184.689 113.547 186.04 114.93 186.158 116.586L186.165 116.648H184.329L184.322 116.578C184.158 115.773 183.564 115.125 182.525 115.125C181.298 115.125 180.509 116.164 180.509 117.859V117.867C180.509 119.594 181.306 120.594 182.54 120.594C183.525 120.594 184.142 120.008 184.322 119.141L184.337 119.07H186.173V119.125C186.025 120.852 184.619 122.164 182.525 122.164ZM190.353 122V113.719H194.283C195.955 113.719 196.955 114.516 196.955 115.828V115.844C196.955 116.711 196.322 117.492 195.502 117.633V117.695C196.588 117.828 197.322 118.578 197.322 119.602V119.617C197.322 121.07 196.181 122 194.345 122H190.353ZM192.275 117.094H193.674C194.58 117.094 195.041 116.758 195.041 116.078V116.062C195.041 115.406 194.603 115.055 193.822 115.055H192.275V117.094ZM192.275 120.656H193.892C194.814 120.656 195.322 120.273 195.322 119.516V119.5C195.322 118.75 194.783 118.398 193.736 118.398H192.275V120.656ZM201.045 122.141C199.381 122.141 198.264 121.117 198.264 119.641V119.625C198.264 118.156 199.412 117.273 201.412 117.148L203.576 117.016V116.445C203.576 115.609 203.029 115.102 202.053 115.102C201.131 115.102 200.56 115.531 200.435 116.141L200.42 116.211H198.615L198.623 116.117C198.748 114.648 200.014 113.547 202.115 113.547C204.193 113.547 205.521 114.641 205.521 116.305V122H203.576V120.727H203.537C203.053 121.594 202.131 122.141 201.045 122.141ZM200.209 119.562C200.209 120.242 200.764 120.656 201.623 120.656C202.74 120.656 203.576 119.914 203.576 118.93V118.305L201.685 118.422C200.732 118.484 200.209 118.898 200.209 119.555V119.562ZM208.924 122H207.064V113.719H209.557L211.986 119.5H212.049L214.486 113.719H216.932V122H215.072V116.336H215.01L212.682 121.617H211.307L208.979 116.336H208.924V122ZM218.514 122V113.719H220.436V119.242H220.514L224.084 113.719H225.99V122H224.069V116.438H223.99L220.42 122H218.514ZM236.045 122V118.492H232.561V122H230.616V113.719H232.561V116.984H236.045V113.719H237.991V122H236.045ZM242.01 122.141C240.346 122.141 239.229 121.117 239.229 119.641V119.625C239.229 118.156 240.378 117.273 242.378 117.148L244.542 117.016V116.445C244.542 115.609 243.995 115.102 243.018 115.102C242.096 115.102 241.526 115.531 241.401 116.141L241.385 116.211H239.581L239.589 116.117C239.714 114.648 240.979 113.547 243.081 113.547C245.159 113.547 246.487 114.641 246.487 116.305V122H244.542V120.727H244.503C244.018 121.594 243.096 122.141 242.01 122.141ZM241.174 119.562C241.174 120.242 241.729 120.656 242.589 120.656C243.706 120.656 244.542 119.914 244.542 118.93V118.305L242.651 118.422C241.698 118.484 241.174 118.898 241.174 119.555V119.562ZM254.729 122.164C252.292 122.164 250.722 120.539 250.722 117.859V117.844C250.722 115.188 252.315 113.547 254.729 113.547C257.136 113.547 258.737 115.172 258.737 117.844V117.859C258.737 120.547 257.159 122.164 254.729 122.164ZM254.737 120.594C255.972 120.594 256.761 119.594 256.761 117.859V117.844C256.761 116.117 255.956 115.125 254.729 115.125C253.511 115.125 252.706 116.125 252.706 117.844V117.859C252.706 119.602 253.503 120.594 254.737 120.594ZM260.898 124.227H259.116V120.477H259.773C260.382 120.117 260.632 119.156 260.71 118.039L260.999 113.719H267.296V120.477H268.562V124.227H266.78V122H260.898V124.227ZM265.351 120.477V115.242H262.655L262.444 118.141C262.382 119.086 262.194 119.883 261.796 120.438V120.477H265.351ZM274.917 122V118.492H271.433V122H269.488V113.719H271.433V116.984H274.917V113.719H276.863V122H274.917ZM282.093 122.164C279.656 122.164 278.085 120.539 278.085 117.859V117.844C278.085 115.188 279.679 113.547 282.093 113.547C284.499 113.547 286.101 115.172 286.101 117.844V117.859C286.101 120.547 284.523 122.164 282.093 122.164ZM282.101 120.594C283.335 120.594 284.124 119.594 284.124 117.859V117.844C284.124 116.117 283.32 115.125 282.093 115.125C280.874 115.125 280.07 116.125 280.07 117.844V117.859C280.07 119.602 280.867 120.594 282.101 120.594ZM289.199 122H287.339V113.719H289.832L292.261 119.5H292.324L294.761 113.719H297.207V122H295.347V116.336H295.285L292.957 121.617H291.582L289.254 116.336H289.199V122ZM306.613 122V119.227H305.449L303.512 122H301.332L303.559 118.922C302.41 118.57 301.715 117.719 301.715 116.555V116.539C301.715 114.805 302.988 113.719 304.957 113.719H308.527V122H306.613ZM305.105 117.797H306.613V115.211H305.105C304.215 115.211 303.668 115.711 303.668 116.531V116.547C303.668 117.273 304.215 117.797 305.105 117.797ZM313.258 122.164C311.219 122.164 309.875 121.219 309.703 119.656L309.695 119.594H311.57L311.594 119.672C311.774 120.32 312.352 120.656 313.25 120.656C314.219 120.656 314.82 120.234 314.82 119.547V119.531C314.82 118.805 314.297 118.453 313.234 118.453H312.07V117.141H313.219C314.156 117.141 314.625 116.789 314.625 116.109V116.094C314.625 115.438 314.133 115.055 313.297 115.055C312.445 115.055 311.883 115.414 311.758 116.031L311.75 116.086H309.914L309.922 116.031C310.125 114.453 311.367 113.547 313.336 113.547C315.32 113.547 316.524 114.43 316.524 115.867V115.883C316.524 116.766 315.953 117.453 315.031 117.656V117.719C316.149 117.938 316.75 118.594 316.75 119.57V119.586C316.75 121.141 315.367 122.164 313.258 122.164ZM318.028 122V113.719H319.973V116.203H321.567C323.496 116.203 324.739 117.328 324.739 119.094V119.109C324.739 120.875 323.496 122 321.567 122H318.028ZM325.676 122V113.719H327.621V122H325.676ZM321.293 117.703H319.973V120.5H321.293C322.192 120.5 322.754 119.945 322.754 119.109V119.094C322.754 118.25 322.184 117.703 321.293 117.703ZM331.43 118.398H331.141V122H329.196V113.719H331.141V117.062H331.43L334.235 113.719H336.477L333.141 117.586L336.641 122H334.274L331.43 118.398ZM340.934 122.164C338.45 122.164 336.95 120.516 336.95 117.883V117.875C336.95 115.266 338.473 113.547 340.84 113.547C343.215 113.547 344.684 115.211 344.684 117.711V118.336H338.887C338.911 119.789 339.708 120.648 340.973 120.648C341.95 120.648 342.575 120.133 342.762 119.578L342.778 119.523H344.598L344.583 119.609C344.317 120.883 343.098 122.164 340.934 122.164ZM340.864 115.07C339.84 115.07 339.059 115.766 338.911 117.039H342.786C342.645 115.727 341.895 115.07 340.864 115.07Z" fill="#FFD7F0"/>
</svg>
