<svg width="357" height="375" viewBox="0 0 357 375" fill="none" xmlns="http://www.w3.org/2000/svg">
<rect width="93.949" height="60.8316" transform="matrix(0.89463 0.446809 3.68043e-05 1 60.9127 133.188)" fill="#6E6E6E"/>
<rect width="68.0772" height="60.8316" transform="matrix(0.89463 -0.446809 -3.68043e-05 1 0.00618744 163.604)" fill="#5A5A5A"/>
<rect width="93.9497" height="68.0777" transform="matrix(0.894656 0.446756 -0.894656 0.446756 60.9127 194.014)" fill="#AAAAAA"/>
<path d="M0 30.2861L84.0496 72.2634L84.0567 266.402L0.00714514 224.425L0 30.2861Z" fill="#FFD7F0"/>
<path d="M84.0581 72.3154L144.962 41.8979L144.96 235.984L84.0558 266.402L84.0581 72.3154Z" fill="#F0C2DF"/>
<rect width="68.27" height="93.5703" transform="matrix(0.894656 -0.446756 0.894656 0.446756 0.361137 30.4999)" fill="#EBC1DB"/>
<rect width="93.949" height="60.8316" transform="matrix(0.89463 0.446809 3.68043e-05 1 175.8 192.396)" fill="#6E6E6E"/>
<rect width="68.0772" height="60.8316" transform="matrix(0.89463 -0.446809 -3.68043e-05 1 114.894 222.813)" fill="#5A5A5A"/>
<rect width="93.9497" height="68.0777" transform="matrix(0.894656 0.446756 -0.894656 0.446756 175.8 253.224)" fill="#AAAAAA"/>
<path d="M114.888 163.797L198.937 205.774L198.944 325.61L114.895 283.633L114.888 163.797Z" fill="#FE6B1B"/>
<path d="M198.945 205.826L259.849 175.409L259.846 295.192L198.943 325.61L198.945 205.826Z" fill="#E96015"/>
<rect width="68.27" height="93.5703" transform="matrix(0.894656 -0.446756 0.894656 0.446756 115.249 163.93)" fill="#D15715"/>
<rect width="68.0772" height="60.8316" transform="matrix(0.89463 0.446809 3.68043e-05 1 295.879 253.341)" fill="#6E6E6E"/>
<rect width="68.0772" height="60.8316" transform="matrix(0.89463 -0.446809 -3.68043e-05 1 234.973 283.762)" fill="#5A5A5A"/>
<rect width="68.0777" height="68.0777" transform="matrix(0.894656 0.446756 -0.894656 0.446756 295.879 314.17)" fill="#AAAAAA"/>
<rect width="68.0772" height="60.8316" transform="matrix(0.89463 0.446809 3.68043e-05 1 234.971 283.748)" fill="#C3FF34"/>
<rect width="68.0772" height="60.8316" transform="matrix(0.89463 -0.446809 -3.68043e-05 1 295.879 314.168)" fill="#AAE02A"/>
<rect width="68.0777" height="68.0777" transform="matrix(0.894656 -0.446756 0.894656 0.446756 234.971 283.755)" fill="#9CCD28"/>
</svg>
