<svg width="387" height="273" viewBox="0 0 387 273" fill="none" xmlns="http://www.w3.org/2000/svg">
<path d="M190.901 234.513C285.592 235.541 363.863 193.967 365.723 141.655L194.268 139.795L190.901 234.513Z" fill="#FFD7F0"/>
<path d="M190.901 234.513L194.268 139.795L70.6501 205.456C101.068 222.933 143.555 234 190.901 234.513Z" fill="#C3FF34"/>
<path d="M365.723 141.655C365.768 140.386 365.768 136.884 365.723 135.625C365.596 132.057 365.11 128.535 364.284 125.071C355.754 89.2822 310.954 61.5845 250.616 50.2621C243.266 48.8828 235.622 51.5067 233.603 55.8179L194.268 139.795L365.723 141.655Z" fill="#FFD7F0"/>
<path d="M365.723 135.625L365.723 125.902C365.723 125.443 365.079 125.071 364.284 125.071V125.071C365.11 128.535 365.596 132.057 365.723 135.625Z" fill="#FFD7F0"/>
<path d="M24.1855 127.629C23.9285 127.21 22.8519 127.321 22.8608 127.766L23.0037 134.945C23.2299 132.479 23.626 130.04 24.1855 127.629V127.629Z" fill="#FE6B1B"/>
<path fill-rule="evenodd" clip-rule="evenodd" d="M23.329 147.455C22.8756 144.321 22.6993 141.145 22.8135 137.935C22.8491 136.934 22.9126 135.937 23.0037 134.945C23.2299 132.479 23.626 130.04 24.1855 127.629C31.0402 98.0973 62.4264 72.9221 106.515 58.3866C113.166 56.1938 121.462 57.8452 124.952 61.7737L156.482 97.2633L188.005 132.746L75.7295 187.202C72.5098 188.764 70.6501 191.066 70.6501 193.492L70.6501 205.456C43.9658 190.123 26.5695 169.858 23.329 147.455Z" fill="#FE6B1B"/>
<path d="M70.6501 205.456L194.268 139.795L188.005 132.746L75.7295 187.202C72.5098 188.764 70.6501 191.066 70.6501 193.492L70.6501 205.456Z" fill="#C3FF34"/>
<g filter="url(#filter0_d_533_460)">
<path d="M190.901 218.515C285.592 219.542 363.863 177.968 365.723 125.657L194.268 123.796L190.901 218.515Z" fill="#FFD7F0"/>
<path d="M190.901 218.515L194.268 123.796L70.6501 189.457C101.068 206.934 143.555 218.001 190.901 218.515Z" fill="#C3FF34"/>
<path d="M22.8135 121.936C21.8836 148.092 40.2324 171.979 70.6501 189.457L194.268 123.796L156.482 81.2645L124.952 45.775C121.462 41.8464 113.166 40.1952 106.515 42.388C57.3785 58.5876 24.02 88.0026 22.8135 121.936Z" fill="#FE6B1B"/>
<path d="M365.723 125.657C367.219 83.5902 318.847 47.3901 250.601 34.2899C243.267 32.882 235.622 35.508 233.603 39.8191L194.268 123.796L365.723 125.657Z" fill="#016B83"/>
</g>
<g filter="url(#filter1_d_533_460)">
<path d="M156.466 72.5846L185.272 105.009C188.445 108.58 197.577 108.017 199.394 104.138L234.051 30.1475C234.227 29.7732 234.316 29.3873 234.316 28.9998L234.316 20.0565C234.316 18.0102 231.834 16.1763 228.297 16.3163C218.362 16.7095 208.11 20.5118 197.62 20.398C175.06 20.1532 148.736 16.0412 131.053 14.2128C126.607 13.7531 122.703 15.7708 122.703 18.3788L122.703 32.9998C122.703 33.6882 122.984 34.3667 123.521 34.9806L156.466 72.5846Z" fill="#005C71"/>
</g>
<g filter="url(#filter2_d_533_460)">
<path d="M122.703 14.429L178.509 12.5104L178.509 8.63051C152.377 8.63051 122.703 14.429 122.703 14.429Z" fill="#016B83"/>
<path d="M178.509 12.5104L234.316 10.5917C234.316 10.5917 202.066 8.63051 178.509 8.63051L178.509 12.5104Z" fill="#016B83"/>
<path fill-rule="evenodd" clip-rule="evenodd" d="M131.966 25.463C152.244 21.4313 174.702 20.1493 197.62 20.398C203.306 20.4597 208.922 19.3707 214.456 18.2978C221.206 16.989 227.834 15.7041 234.316 16.5606L199.656 88.4513C197.775 92.3541 188.529 92.8433 185.472 89.2017L131.966 25.463Z" fill="#016B83"/>
<path fill-rule="evenodd" clip-rule="evenodd" d="M197.62 20.398C174.702 20.1493 152.244 21.4313 131.966 25.463L122.703 14.429L178.509 12.5104L234.316 10.5917L234.316 16.5606C227.834 15.7041 221.206 16.989 214.456 18.2978C208.922 19.3707 203.306 20.4597 197.62 20.398Z" fill="#016B83"/>
</g>
<defs>
<filter id="filter0_d_533_460" x="0.820849" y="33.9078" width="385.238" height="238.487" filterUnits="userSpaceOnUse" color-interpolation-filters="sRGB">
<feFlood flood-opacity="0" result="BackgroundImageFix"/>
<feColorMatrix in="SourceAlpha" type="matrix" values="0 0 0 0 0 0 0 0 0 0 0 0 0 0 0 0 0 0 127 0" result="hardAlpha"/>
<feOffset dx="-0.828638" dy="32.7312"/>
<feGaussianBlur stdDeviation="10.5651"/>
<feComposite in2="hardAlpha" operator="out"/>
<feColorMatrix type="matrix" values="0 0 0 0 0.00625 0 0 0 0 0.154038 0 0 0 0 0.1875 0 0 0 0.15 0"/>
<feBlend mode="normal" in2="BackgroundImageFix" result="effect1_dropShadow_533_460"/>
<feBlend mode="normal" in="SourceGraphic" in2="effect1_dropShadow_533_460" result="shape"/>
</filter>
<filter id="filter1_d_533_460" x="108.617" y="5.86084" width="139.786" height="121.42" filterUnits="userSpaceOnUse" color-interpolation-filters="sRGB">
<feFlood flood-opacity="0" result="BackgroundImageFix"/>
<feColorMatrix in="SourceAlpha" type="matrix" values="0 0 0 0 0 0 0 0 0 0 0 0 0 0 0 0 0 0 127 0" result="hardAlpha"/>
<feOffset dy="5.80046"/>
<feGaussianBlur stdDeviation="7.04342"/>
<feComposite in2="hardAlpha" operator="out"/>
<feColorMatrix type="matrix" values="0 0 0 0 0 0 0 0 0 0 0 0 0 0 0 0 0 0 0.04 0"/>
<feBlend mode="normal" in2="BackgroundImageFix" result="effect1_dropShadow_533_460"/>
<feBlend mode="normal" in="SourceGraphic" in2="effect1_dropShadow_533_460" result="shape"/>
</filter>
<filter id="filter2_d_533_460" x="108.617" y="0.344114" width="139.786" height="126.936" filterUnits="userSpaceOnUse" color-interpolation-filters="sRGB">
<feFlood flood-opacity="0" result="BackgroundImageFix"/>
<feColorMatrix in="SourceAlpha" type="matrix" values="0 0 0 0 0 0 0 0 0 0 0 0 0 0 0 0 0 0 127 0" result="hardAlpha"/>
<feOffset dy="5.80046"/>
<feGaussianBlur stdDeviation="7.04342"/>
<feComposite in2="hardAlpha" operator="out"/>
<feColorMatrix type="matrix" values="0 0 0 0 0 0 0 0 0 0 0 0 0 0 0 0 0 0 0.04 0"/>
<feBlend mode="normal" in2="BackgroundImageFix" result="effect1_dropShadow_533_460"/>
<feBlend mode="normal" in="SourceGraphic" in2="effect1_dropShadow_533_460" result="shape"/>
</filter>
</defs>
</svg>
