<svg width="364" height="51" viewBox="0 0 364 51" fill="none" xmlns="http://www.w3.org/2000/svg">
<rect width="364" height="51" rx="11.25" fill="#016B83"/>
<path d="M66.094 31.5H60.694V23.22H53.476V31.5H48.076V19.26H66.094V31.5ZM84.4977 23.904C84.4977 27.252 82.4097 28.368 78.2157 28.368H72.6537V31.5H67.2537V19.26H78.2157C82.4097 19.26 84.4977 20.376 84.4977 23.724V23.904ZM79.0977 23.832V23.796C79.0977 23.058 78.5577 22.86 77.6217 22.86H72.6537V24.768H77.6217C78.5577 24.768 79.0977 24.57 79.0977 23.832ZM85.1968 25.524V25.236C85.1968 20.844 88.4368 19.08 94.7728 19.08H95.3488C101.685 19.08 104.925 20.844 104.925 25.236V25.524C104.925 29.916 101.685 31.68 95.3488 31.68H94.7728C88.4368 31.68 85.1968 29.916 85.1968 25.524ZM90.7768 25.452C90.7768 27.342 92.1988 28.08 94.7188 28.08H95.4028C97.9228 28.08 99.3448 27.342 99.3448 25.452V25.308C99.3448 23.418 97.9228 22.68 95.4028 22.68H94.7188C92.1988 22.68 90.7768 23.418 90.7768 25.308V25.452ZM105.269 19.26H123.485V23.22H117.077V31.5H111.677V23.22H105.269V19.26ZM123.834 25.524V25.236C123.834 20.844 127.074 19.08 133.41 19.08H133.986C140.322 19.08 143.562 20.844 143.562 25.236V25.524C143.562 29.916 140.322 31.68 133.986 31.68H133.41C127.074 31.68 123.834 29.916 123.834 25.524ZM129.414 25.452C129.414 27.342 130.836 28.08 133.355 28.08H134.04C136.56 28.08 137.982 27.342 137.982 25.452V25.308C137.982 23.418 136.56 22.68 134.04 22.68H133.355C130.836 22.68 129.414 23.418 129.414 25.308V25.452ZM143.906 19.26H162.122V23.22H155.714V31.5H150.314V23.22H143.906V19.26ZM176.178 31.5V24.588L168.222 31.5H163.002V19.26H168.222V26.172L176.178 19.26H181.398V31.5H176.178ZM200.567 31.5H195.167V23.22H187.949V31.5H182.549V19.26H200.567V31.5ZM223.974 28.026C223.974 30.42 222.642 31.5 217.584 31.5H206.226V19.26H217.35C222.3 19.26 223.74 20.106 223.74 22.536V22.662C223.74 23.742 223.128 24.858 221.562 25.308C223.362 25.65 223.974 26.694 223.974 27.9V28.026ZM216.702 22.698H211.59V24.246H216.702C217.944 24.246 218.286 24.03 218.286 23.49V23.454C218.286 22.914 217.944 22.698 216.702 22.698ZM218.52 27.27V27.234C218.52 26.694 218.178 26.442 216.936 26.442H211.59V28.062H216.936C218.178 28.062 218.52 27.81 218.52 27.27ZM229.359 31.5V19.26H245.199V22.86H234.759V24.12H243.651V27.54H234.759V31.5H229.359ZM251.529 31.5H246.129V19.26H251.529V31.5ZM262.711 22.68H262.027C259.507 22.68 258.085 23.418 258.085 25.308V25.452C258.085 27.342 259.507 28.08 262.027 28.08H262.711C264.817 28.08 265.897 27.594 266.347 26.874H263.125V24.714H272.179V31.5H267.139V30.366C265.969 31.158 264.241 31.68 261.901 31.68H261.721C255.925 31.68 252.505 29.916 252.505 25.524V25.236C252.505 20.844 255.745 19.08 262.081 19.08H262.657C268.777 19.08 271.873 20.736 272.143 23.994L272.161 24.21H266.419L266.365 24.066C266.113 23.382 265.249 22.68 262.711 22.68ZM273.234 31.5V19.26H280.848L284.412 26.586L287.922 19.26H295.536V31.5H290.226V24.282L286.68 31.5H282L278.454 24.282V31.5H273.234ZM310.345 31.5L309.265 29.466H302.515L301.435 31.5H295.927L302.929 19.26H309.139L316.141 31.5H310.345ZM305.899 23.094L304.243 26.226H307.555L305.899 23.094Z" fill="#C3FF34"/>
</svg>
