<svg width="1046" height="282" viewBox="0 0 1046 282" fill="none" xmlns="http://www.w3.org/2000/svg">
<g filter="url(#filter0_b_35_1691)">
<rect x="33.75" y="39" width="942" height="141.75" fill="white" fill-opacity="0.2"/>
</g>
<path fill-rule="evenodd" clip-rule="evenodd" d="M1017.75 0C1033.08 0 1045.5 12.4241 1045.5 27.75V187.5C1045.5 202.826 1033.08 215.25 1017.75 215.25H763.5C748.174 215.25 735.75 227.674 735.75 243V254.25C735.75 269.576 723.326 282 708 282H27.75C12.4241 282 0 269.576 0 254.25V215.25V129.75V27.75C0 12.4241 12.4241 0 27.75 0H1017.75ZM42.81 56.908V107.5H62.122V70.372H91.43V107.5H110.674V56.908H42.81ZM154.255 55.956H151.195C118.419 55.956 114.271 71.528 114.271 81.048V83.088C114.271 92.54 118.419 108.452 151.195 108.452H154.255C186.963 108.452 191.111 92.54 191.111 83.088V81.048C191.111 71.528 186.895 55.956 154.255 55.956ZM171.119 81.524V82.476C171.119 87.916 167.651 94.784 152.691 94.784C137.731 94.784 134.263 87.644 134.263 82.34V81.524C134.263 76.152 137.459 69.556 152.691 69.556C167.651 69.556 171.119 76.152 171.119 81.524ZM196.187 94.036H189.523V116.34H207.679V107.5H248.547V116.34H266.703V94.036H258.543V56.908H199.723C199.723 79.212 199.111 88.46 196.187 94.036ZM239.231 94.036H214.071C216.247 89.752 217.131 80.504 217.131 70.372H239.231V94.036ZM288.567 91.656H311.415C329.911 91.656 335.419 83.904 335.419 74.724V73.636C335.419 64.32 330.115 56.908 311.415 56.908H269.255V107.5H288.567V91.656ZM288.567 79.008V69.556H309.103C313.659 69.556 315.495 71.256 315.495 74.18V74.384C315.495 77.172 313.523 79.008 309.103 79.008H288.567ZM374.887 96.008L399.755 58.38L425.287 80.028L397.339 107.5H422.363L443.443 85.944V107.5H462.755V85.944L483.835 107.5H508.995L480.911 79.96L508.043 56.908H484.039L462.755 75.744V56.908H443.443V75.744L422.159 56.908H400.727H398.019H381.075L367.611 78.872L352.719 56.908H330.347L355.235 90.636C355.847 91.384 356.119 92.132 356.119 92.744V92.812C356.119 93.56 355.711 93.968 354.351 93.968H345.443V107.5H355.575C366.795 107.5 369.107 104.712 374.887 96.008ZM560.969 75.744V107.5H580.281V56.908H560.969L529.213 88.732V56.908H509.901V107.5H529.213L560.969 75.744ZM585.585 56.908V107.5H604.421V75.948L622.101 107.5H631.961L649.709 75.948V107.5H668.817V56.908H643.385L627.609 85.332L612.105 56.908H585.585ZM713.844 70.712V107.5H733.156V70.712H754.984V56.908H692.016V70.712H713.844ZM814.532 56.908H758.568V107.5H815.076V94.852H777.608V87.916H813.784V75.608H777.608V69.284H814.532V56.908ZM819.035 56.908V107.5H860.515C880.983 107.5 886.083 100.156 886.083 91.112V90.5C886.083 81.592 880.983 74.86 860.515 74.86H838.347V68.808H881.255V56.908H819.035ZM858.407 95.26H838.347V86.284H858.407C864.459 86.284 866.091 88.12 866.091 90.568V90.772C866.091 93.152 864.459 95.26 858.407 95.26ZM926.02 91.248H934.927V107.5H954.24V56.908H909.768C892.292 56.908 886.784 65 886.784 73.5V74.588C886.784 82.34 891.883 88.528 904.192 90.16L884.948 107.5H908.747L926.02 91.248ZM934.927 69.556V79.144H912.964C908.544 79.144 906.776 77.036 906.776 74.384V74.248C906.776 71.732 908.476 69.556 912.896 69.556H934.927ZM77.082 180.452H79.734C110.198 180.452 114.958 166.172 114.958 159.576V158.488H94.966L94.9562 158.53C94.6581 159.806 93.0282 166.784 78.306 166.784C64.706 166.784 61.306 159.644 61.306 154.204V153.388C61.306 147.744 64.298 141.556 78.238 141.556C92.6122 141.556 94.4172 147.678 94.8701 149.214C94.88 149.248 94.8893 149.279 94.898 149.308H114.958V148.424C114.958 141.896 110.47 127.956 79.734 127.956H77.082C45.53 127.956 41.314 143.392 41.314 153.048V155.02C41.314 164.608 46.006 180.452 77.082 180.452ZM171.862 180.452H174.514C204.978 180.452 209.738 166.172 209.738 159.576V158.488H189.746L189.737 158.53C189.438 159.806 187.809 166.784 173.086 166.784C159.486 166.784 156.086 159.644 156.086 154.204V153.388C156.086 147.744 159.078 141.556 173.018 141.556C187.392 141.556 189.197 147.678 189.65 149.214C189.66 149.248 189.67 149.279 189.678 149.308H209.738V148.424C209.738 141.896 205.25 127.956 174.514 127.956H171.862C140.31 127.956 136.094 143.392 136.094 153.048V155.02C136.094 164.608 140.786 180.452 171.862 180.452ZM263.806 147.744V179.5H283.118V128.908H263.806L232.05 160.732V128.908H212.738V179.5H232.05L263.806 147.744ZM322.49 180.452H325.142C355.606 180.452 360.366 166.172 360.366 159.576V158.488H340.374L340.364 158.53C340.066 159.806 338.437 166.784 323.714 166.784C310.114 166.784 306.714 159.644 306.714 154.204V153.388C306.714 147.744 309.706 141.556 323.646 141.556C338.02 141.556 339.825 147.678 340.278 149.214C340.288 149.248 340.298 149.279 340.306 149.308H360.366V148.424C360.366 141.896 355.878 127.956 325.142 127.956H322.49C290.938 127.956 286.722 143.392 286.722 153.048V155.02C286.722 164.608 291.414 180.452 322.49 180.452ZM382.971 142.712V179.5H402.283V142.712H424.111V128.908H361.143V142.712H382.971ZM483.659 128.908H427.695V179.5H484.203V166.852H446.735V159.916H482.911V147.608H446.735V141.284H483.659V128.908ZM488.366 128.908V179.5H507.202V147.948L524.882 179.5H534.742L552.49 147.948V179.5H571.598V128.908H546.166L530.39 157.332L514.886 128.908H488.366ZM610.049 141.284L618.549 158.692H601.753L610.049 141.284ZM624.737 171.34L628.681 179.5H649.829L623.377 128.908H597.401L572.377 179.5H591.961L595.837 171.34H624.737ZM650.549 128.908V179.5H669.385V147.948L687.065 179.5H696.925L714.673 147.948V179.5H733.781V128.908H708.349L692.573 157.332L677.069 128.908H650.549ZM789.776 147.744V179.5H809.088V128.908H789.776L758.02 160.732V128.908H738.708V179.5H758.02L789.776 147.744Z" fill="white"/>
<path d="M55.0474 243.75H46.99V223.669H55.0056C58.5681 223.669 60.906 225.645 60.906 228.679C60.906 230.808 59.3335 232.715 57.3296 233.049V233.16C60.0571 233.466 61.894 235.4 61.894 238.072C61.894 241.607 59.3196 243.75 55.0474 243.75ZM50.1072 226.216V232.214H53.6001C56.2998 232.214 57.7888 231.1 57.7888 229.11C57.7888 227.246 56.5085 226.216 54.2542 226.216H50.1072ZM50.1072 241.203H54.4072C57.2183 241.203 58.7073 240.048 58.7073 237.877C58.7073 235.707 57.1765 234.593 54.2263 234.593H50.1072V241.203ZM79.3175 243.75V237.376H72.6934V243.75H69.7015V229.11H72.6934V235.011H79.3175V229.11H82.3094V243.75H79.3175ZM90.4158 241.621C92.5171 241.621 94.1592 240.174 94.1592 238.267V237.112L90.5549 237.335C88.7597 237.46 87.7439 238.253 87.7439 239.506C87.7439 240.786 88.8015 241.621 90.4158 241.621ZM89.5808 244C86.7141 244 84.7102 242.219 84.7102 239.589C84.7102 237.029 86.6723 235.456 90.1513 235.261L94.1592 235.025V233.897C94.1592 232.269 93.0598 231.295 91.2229 231.295C89.4834 231.295 88.3979 232.13 88.1335 233.438H85.2947C85.4617 230.794 87.716 228.846 91.3342 228.846C94.8828 228.846 97.1511 230.725 97.1511 233.661V243.75H94.2705V241.343H94.2009C93.352 242.971 91.5012 244 89.5808 244ZM100.025 243.75V229.11H103.017V241.37H107.929V229.11H110.921V241.37H115.834V229.11H118.826V243.75H100.025ZM127.92 231.267C125.819 231.267 124.344 232.868 124.19 235.08H131.51C131.441 232.84 130.021 231.267 127.92 231.267ZM131.496 239.45H134.349C133.932 242.122 131.399 244.028 128.045 244.028C123.745 244.028 121.143 241.12 121.143 236.5C121.143 231.907 123.787 228.846 127.92 228.846C131.983 228.846 134.516 231.713 134.516 236.152V237.182H124.177V237.363C124.177 239.909 125.707 241.593 128.115 241.593C129.826 241.593 131.093 240.73 131.496 239.45ZM139.77 243.75H136.806V229.11H139.77V239.366H139.881L146.644 229.11H149.608V243.75H146.644V233.466H146.533L139.77 243.75ZM138.796 222.681H140.827C140.841 224.254 141.843 225.45 143.416 225.45C145.002 225.45 146.004 224.254 146.018 222.681H148.05C148.05 225.311 146.185 227.093 143.416 227.093C140.66 227.093 138.796 225.311 138.796 222.681ZM164.36 244.028C160.171 244.028 157.416 241.148 157.416 236.43C157.416 231.727 160.185 228.846 164.36 228.846C168.535 228.846 171.304 231.727 171.304 236.43C171.304 241.148 168.549 244.028 164.36 244.028ZM164.36 241.551C166.726 241.551 168.242 239.687 168.242 236.43C168.242 233.188 166.712 231.323 164.36 231.323C162.008 231.323 160.477 233.188 160.477 236.43C160.477 239.687 162.008 241.551 164.36 241.551ZM183.223 243.75V237.376H176.599V243.75H173.607V229.11H176.599V235.011H183.223V229.11H186.215V243.75H183.223ZM193.612 237.084C193.334 241.231 192.29 243.889 189.006 243.889C188.519 243.889 188.171 243.806 187.99 243.736V241.092C188.129 241.134 188.407 241.203 188.783 241.203C190.202 241.203 190.703 239.506 190.87 236.959L191.371 229.11H201.516V243.75H198.524V231.49H194.015L193.612 237.084ZM209.595 241.621C211.696 241.621 213.338 240.174 213.338 238.267V237.112L209.734 237.335C207.939 237.46 206.923 238.253 206.923 239.506C206.923 240.786 207.98 241.621 209.595 241.621ZM208.76 244C205.893 244 203.889 242.219 203.889 239.589C203.889 237.029 205.851 235.456 209.33 235.261L213.338 235.025V233.897C213.338 232.269 212.239 231.295 210.402 231.295C208.662 231.295 207.577 232.13 207.313 233.438H204.474C204.641 230.794 206.895 228.846 210.513 228.846C214.062 228.846 216.33 230.725 216.33 233.661V243.75H213.449V241.343H213.38C212.531 242.971 210.68 244 208.76 244ZM222.168 243.75H219.204V229.11H222.168V239.366H222.279L229.043 229.11H232.007V243.75H229.043V233.466H228.931L222.168 243.75ZM221.194 222.681H223.226C223.24 224.254 224.242 225.45 225.814 225.45C227.401 225.45 228.403 224.254 228.416 222.681H230.448C230.448 225.311 228.583 227.093 225.814 227.093C223.059 227.093 221.194 225.311 221.194 222.681ZM244.566 243.75V237.376H237.942V243.75H234.95V229.11H237.942V235.011H244.566V229.11H247.558V243.75H244.566ZM259.658 236.959H250.53V234.245H259.658V236.959ZM269.129 244.028C264.55 244.028 262.073 241.036 262.073 235.247C262.073 227.12 264.439 223.822 270.005 223.627L271.313 223.586C272.886 223.516 274.472 223.224 275.14 222.862V225.353C274.765 225.701 273.276 226.063 271.48 226.132L270.2 226.174C266.29 226.313 265.051 228.067 264.508 232.2H264.62C265.552 230.474 267.319 229.528 269.616 229.528C273.568 229.528 276.1 232.283 276.1 236.597C276.1 241.203 273.443 244.028 269.129 244.028ZM269.101 241.51C271.578 241.51 273.025 239.756 273.025 236.639C273.025 233.675 271.578 231.977 269.101 231.977C266.61 231.977 265.149 233.675 265.149 236.639C265.149 239.756 266.596 241.51 269.101 241.51ZM281.368 243.75H278.404V229.11H281.368V239.366H281.479L288.242 229.11H291.207V243.75H288.242V233.466H288.131L281.368 243.75ZM300.677 244.028C296.098 244.028 293.621 241.036 293.621 235.247C293.621 227.12 295.987 223.822 301.553 223.627L302.862 223.586C304.434 223.516 306.02 223.224 306.688 222.862V225.353C306.313 225.701 304.824 226.063 303.029 226.132L301.748 226.174C297.838 226.313 296.599 228.067 296.057 232.2H296.168C297.1 230.474 298.868 229.528 301.164 229.528C305.116 229.528 307.649 232.283 307.649 236.597C307.649 241.203 304.991 244.028 300.677 244.028ZM300.649 241.51C303.126 241.51 304.573 239.756 304.573 236.639C304.573 233.675 303.126 231.977 300.649 231.977C298.158 231.977 296.697 233.675 296.697 236.639C296.697 239.756 298.144 241.51 300.649 241.51ZM313.849 237.084C313.57 241.231 312.526 243.889 309.242 243.889C308.755 243.889 308.407 243.806 308.226 243.736V241.092C308.366 241.134 308.644 241.203 309.02 241.203C310.439 241.203 310.94 239.506 311.107 236.959L311.608 229.11H321.753V243.75H318.761V231.49H314.252L313.849 237.084ZM327.66 243.75H324.696V229.11H327.66V239.366H327.772L334.535 229.11H337.499V243.75H334.535V233.466H334.424L327.66 243.75ZM346.747 244.028C342.558 244.028 339.802 241.148 339.802 236.43C339.802 231.727 342.572 228.846 346.747 228.846C350.921 228.846 353.691 231.727 353.691 236.43C353.691 241.148 350.935 244.028 346.747 244.028ZM346.747 241.551C349.112 241.551 350.629 239.687 350.629 236.43C350.629 233.188 349.098 231.323 346.747 231.323C344.395 231.323 342.864 233.188 342.864 236.43C342.864 239.687 344.395 241.551 346.747 241.551ZM366.626 229.11V231.49H362.034V243.75H359.042V231.49H354.449V229.11H366.626ZM374.398 231.267C372.297 231.267 370.822 232.868 370.669 235.08H377.989C377.919 232.84 376.5 231.267 374.398 231.267ZM377.975 239.45H380.827C380.41 242.122 377.877 244.028 374.523 244.028C370.223 244.028 367.621 241.12 367.621 236.5C367.621 231.907 370.265 228.846 374.398 228.846C378.462 228.846 380.994 231.713 380.994 236.152V237.182H370.655V237.363C370.655 239.909 372.186 241.593 374.593 241.593C376.305 241.593 377.571 240.73 377.975 239.45ZM389.226 235.985L395.961 243.75H392.19L386.387 237.001H386.276V243.75H383.284V229.11H386.276V235.373H386.387L392.121 229.11H395.711L389.226 235.985ZM403.33 231.267C401.229 231.267 399.754 232.868 399.601 235.08H406.921C406.851 232.84 405.431 231.267 403.33 231.267ZM406.907 239.45H409.759C409.342 242.122 406.809 244.028 403.455 244.028C399.155 244.028 396.553 241.12 396.553 236.5C396.553 231.907 399.197 228.846 403.33 228.846C407.394 228.846 409.926 231.713 409.926 236.152V237.182H399.587V237.363C399.587 239.909 401.118 241.593 403.525 241.593C405.237 241.593 406.503 240.73 406.907 239.45ZM423.759 231.295H420.684V235.136H423.467C425.165 235.136 426.014 234.482 426.014 233.188C426.014 231.977 425.221 231.295 423.759 231.295ZM423.662 237.237H420.684V241.565H423.996C425.694 241.565 426.612 240.814 426.612 239.408C426.612 237.961 425.638 237.237 423.662 237.237ZM417.72 243.75V229.11H424.372C427.225 229.11 428.95 230.53 428.95 232.84C428.95 234.357 427.865 235.734 426.459 235.999V236.11C428.352 236.361 429.604 237.697 429.604 239.533C429.604 242.108 427.628 243.75 424.455 243.75H417.72ZM434.955 243.75H431.991V229.11H434.955V239.366H435.066L441.83 229.11H444.794V243.75H441.83V233.466H441.718L434.955 243.75ZM452.998 244.028C449.574 244.028 447.195 242.344 446.93 239.645H449.894C450.2 240.911 451.314 241.607 452.998 241.607C454.918 241.607 455.989 240.716 455.989 239.422C455.989 237.961 455.001 237.293 453.011 237.293H450.868V235.08H452.97C454.654 235.08 455.53 234.44 455.53 233.16C455.53 232.033 454.723 231.24 453.011 231.24C451.397 231.24 450.312 231.935 450.117 233.076H447.236C447.542 230.474 449.727 228.846 452.998 228.846C456.546 228.846 458.467 230.432 458.467 232.868C458.467 234.357 457.548 235.623 456.129 235.985V236.096C457.993 236.528 458.981 237.738 458.981 239.408C458.981 242.191 456.63 244.028 452.998 244.028ZM462.579 249.205C462.342 249.205 461.577 249.177 461.354 249.135V246.7C461.577 246.756 462.078 246.756 462.328 246.756C463.734 246.756 464.472 246.171 464.931 244.668C464.931 244.641 465.195 243.778 465.195 243.764L459.907 229.11H463.163L466.879 241.022H466.921L470.636 229.11H473.809L468.312 244.515C467.06 248.064 465.627 249.205 462.579 249.205ZM480.301 241.621C482.403 241.621 484.045 240.174 484.045 238.267V237.112L480.44 237.335C478.645 237.46 477.629 238.253 477.629 239.506C477.629 240.786 478.687 241.621 480.301 241.621ZM479.466 244C476.6 244 474.596 242.219 474.596 239.589C474.596 237.029 476.558 235.456 480.037 235.261L484.045 235.025V233.897C484.045 232.269 482.945 231.295 481.108 231.295C479.369 231.295 478.284 232.13 478.019 233.438H475.18C475.347 230.794 477.602 228.846 481.22 228.846C484.768 228.846 487.037 230.725 487.037 233.661V243.75H484.156V241.343H484.086C483.238 242.971 481.387 244 479.466 244ZM494.336 237.084C494.058 241.231 493.014 243.889 489.73 243.889C489.243 243.889 488.895 243.806 488.714 243.736V241.092C488.853 241.134 489.131 241.203 489.507 241.203C490.926 241.203 491.427 239.506 491.594 236.959L492.095 229.11H502.24V243.75H499.248V231.49H494.739L494.336 237.084ZM508.148 243.75H505.184V229.11H508.148V239.366H508.259L515.022 229.11H517.986V243.75H515.022V233.466H514.911L508.148 243.75ZM526.19 244.028C522.767 244.028 520.387 242.344 520.123 239.645H523.087C523.393 240.911 524.506 241.607 526.19 241.607C528.111 241.607 529.182 240.716 529.182 239.422C529.182 237.961 528.194 237.293 526.204 237.293H524.061V235.08H526.162C527.846 235.08 528.723 234.44 528.723 233.16C528.723 232.033 527.916 231.24 526.204 231.24C524.59 231.24 523.504 231.935 523.31 233.076H520.429C520.735 230.474 522.92 228.846 526.19 228.846C529.739 228.846 531.659 230.432 531.659 232.868C531.659 234.357 530.741 235.623 529.321 235.985V236.096C531.186 236.528 532.174 237.738 532.174 239.408C532.174 242.191 529.822 244.028 526.19 244.028ZM539.668 241.621C541.769 241.621 543.412 240.174 543.412 238.267V237.112L539.807 237.335C538.012 237.46 536.996 238.253 536.996 239.506C536.996 240.786 538.054 241.621 539.668 241.621ZM538.833 244C535.966 244 533.963 242.219 533.963 239.589C533.963 237.029 535.925 235.456 539.404 235.261L543.412 235.025V233.897C543.412 232.269 542.312 231.295 540.475 231.295C538.736 231.295 537.65 232.13 537.386 233.438H534.547C534.714 230.794 536.968 228.846 540.587 228.846C544.135 228.846 546.404 230.725 546.404 233.661V243.75H543.523V241.343H543.453C542.604 242.971 540.754 244 538.833 244ZM563.931 247.591H561.162V243.75H549.277V229.11H552.269V241.37H558.657V229.11H561.649V241.37H563.931V247.591ZM568.656 243.75H565.692V229.11H568.656V239.366H568.767L575.53 229.11H578.494V243.75H575.53V233.466H575.419L568.656 243.75ZM584.402 243.75H581.438V229.11H584.402V239.366H584.513L591.277 229.11H594.241V243.75H591.277V233.466H591.165L584.402 243.75ZM612.429 241.37V231.49H607.336L606.933 237.084C606.821 238.81 606.459 240.313 605.792 241.259V241.37H612.429ZM604.108 247.591H601.338V241.37H602.521C603.593 240.702 604.08 238.935 604.219 236.959L604.748 229.11H615.421V241.37H617.69V247.591H614.906V243.75H604.108V247.591ZM624.571 241.621C626.673 241.621 628.315 240.174 628.315 238.267V237.112L624.711 237.335C622.915 237.46 621.9 238.253 621.9 239.506C621.9 240.786 622.957 241.621 624.571 241.621ZM623.736 244C620.87 244 618.866 242.219 618.866 239.589C618.866 237.029 620.828 235.456 624.307 235.261L628.315 235.025V233.897C628.315 232.269 627.215 231.295 625.379 231.295C623.639 231.295 622.554 232.13 622.289 233.438H619.45C619.617 230.794 621.872 228.846 625.49 228.846C629.038 228.846 631.307 230.725 631.307 233.661V243.75H628.426V241.343H628.357C627.508 242.971 625.657 244 623.736 244ZM643.797 243.75V237.376H637.173V243.75H634.181V229.11H637.173V235.011H643.797V229.11H646.789V243.75H643.797ZM659.376 243.75V237.376H652.752V243.75H649.76V229.11H652.752V235.011H659.376V229.11H662.368V243.75H659.376ZM678.379 243.75V229.11H681.357V243.75H678.379ZM670.864 235.985H668.331V241.384H670.864C672.589 241.384 673.703 240.299 673.703 238.685C673.703 237.056 672.576 235.985 670.864 235.985ZM665.339 243.75V229.11H668.331V233.633H671.128C674.51 233.633 676.695 235.595 676.695 238.685C676.695 241.788 674.51 243.75 671.128 243.75H665.339ZM689.811 238.365H689.741L686.499 243.75H683.242L688.071 236.444L683.312 229.11H686.68L689.88 234.412H689.936L693.095 229.11H696.407L691.606 236.347L696.351 243.75H693.039L689.811 238.365Z" fill="black"/>
<defs>
<filter id="filter0_b_35_1691" x="-41.25" y="-36" width="1092" height="291.75" filterUnits="userSpaceOnUse" color-interpolation-filters="sRGB">
<feFlood flood-opacity="0" result="BackgroundImageFix"/>
<feGaussianBlur in="BackgroundImageFix" stdDeviation="37.5"/>
<feComposite in2="SourceAlpha" operator="in" result="effect1_backgroundBlur_35_1691"/>
<feBlend mode="normal" in="SourceGraphic" in2="effect1_backgroundBlur_35_1691" result="shape"/>
</filter>
</defs>
</svg>
