<svg width="341" height="48" viewBox="0 0 341 48" fill="none" xmlns="http://www.w3.org/2000/svg">
<rect width="341" height="48" rx="8" fill="#FFD7F0"/>
<path d="M27.664 29L24.736 25.896L21.808 29H15.92L21.408 23.688L16.08 18.12H22.272L25.04 21.192L27.808 18.12H33.696L28.336 23.464L33.856 29H27.664ZM33.8133 23.688V23.432C33.8133 19.528 36.6933 17.96 42.3253 17.96H42.8373C48.4693 17.96 51.3493 19.528 51.3493 23.432V23.688C51.3493 27.592 48.4693 29.16 42.8373 29.16H42.3253C36.6933 29.16 33.8133 27.592 33.8133 23.688ZM38.7733 23.624C38.7733 25.304 40.0373 25.96 42.2773 25.96H42.8853C45.1253 25.96 46.3893 25.304 46.3893 23.624V23.496C46.3893 21.816 45.1253 21.16 42.8853 21.16H42.2773C40.0373 21.16 38.7733 21.816 38.7733 23.496V23.624ZM51.6514 18.12H56.4514V20.408C56.4514 22.072 57.2354 22.552 59.4274 22.552H59.6514C60.6114 22.552 61.7634 22.472 62.4834 22.392V18.12H67.2834V29H62.4834V25.64C61.7474 25.736 59.8594 25.896 58.4674 25.896H58.1314C53.3634 25.896 51.6514 24.584 51.6514 20.904V18.12ZM67.4775 18.12H73.1095L76.5975 23.496L79.9095 18.12H85.2375L80.2135 25.8C78.5815 28.296 77.5895 29 74.1015 29H72.0855V25.752H73.7975C74.7735 25.752 75.1575 25.544 75.5895 24.92H72.0855L67.4775 18.12ZM104.959 29H100.159V21.64H93.7433V29H88.9433V18.12H104.959V29ZM120.998 22.248C120.998 25.224 119.142 26.216 115.414 26.216H110.47V29H105.67V18.12H115.414C119.142 18.12 120.998 19.112 120.998 22.088V22.248ZM116.198 22.184V22.152C116.198 21.496 115.718 21.32 114.886 21.32H110.47V23.016H114.886C115.718 23.016 116.198 22.84 116.198 22.184ZM133.172 29V22.856L126.1 29H121.46V18.12H126.1V24.264L133.172 18.12H137.812V29H133.172ZM147.379 17.96C152.851 17.96 155.843 19.544 155.843 22.824V22.904H150.643L150.595 22.68C150.403 21.784 149.555 21.16 147.427 21.16H146.819C144.579 21.16 143.315 21.816 143.315 23.496V23.624C143.315 25.304 144.579 25.96 146.819 25.96H147.427C149.555 25.96 150.403 25.336 150.595 24.44L150.643 24.216H155.843V24.296C155.843 27.576 152.851 29.16 147.379 29.16H146.867C141.235 29.16 138.355 27.592 138.355 23.688V23.432C138.355 19.528 141.235 17.96 146.867 17.96H147.379ZM156.222 23.688V23.432C156.222 19.528 159.102 17.96 164.734 17.96H165.246C170.878 17.96 173.758 19.528 173.758 23.432V23.688C173.758 27.592 170.878 29.16 165.246 29.16H164.734C159.102 29.16 156.222 27.592 156.222 23.688ZM161.182 23.624C161.182 25.304 162.446 25.96 164.686 25.96H165.294C167.534 25.96 168.798 25.304 168.798 23.624V23.496C168.798 21.816 167.534 21.16 165.294 21.16H164.686C162.446 21.16 161.182 21.816 161.182 23.496V23.624ZM174.296 29V18.12H188.376V21.32H179.096V22.36H187V24.76H179.096V25.8H188.376V29H174.296ZM205.105 25.48H207.025V31.08H202.545V29H193.073V31.08H188.593V25.48H190.193C191.185 24.632 191.361 23.08 191.393 20.776L191.425 18.12H205.105V25.48ZM195.569 22.2C195.537 23.48 195.249 24.76 194.785 25.48H200.305V21.64H195.585L195.569 22.2ZM219.134 29V22.856L212.062 29H207.422V18.12H212.062V24.264L219.134 18.12H223.774V29H219.134ZM240.701 29H235.901V25.192H229.277V29H224.477V18.12H229.277V21.736H235.901V18.12H240.701V29ZM253.119 29V22.856L246.047 29H241.407V18.12H246.047V24.264L253.119 18.12H257.759V29H253.119ZM258.222 18.12H274.414V21.64H268.718V29H263.918V21.64H258.222V18.12ZM284.62 20.904C288.348 20.904 290.204 21.896 290.204 24.872V25.032C290.204 28.008 288.348 29 284.62 29H274.876V18.12H279.676V20.904H284.62ZM284.092 25.8C284.924 25.8 285.404 25.64 285.404 24.968V24.936C285.404 24.264 284.924 24.104 284.092 24.104H279.676V25.8H284.092ZM299.53 17.96C305.002 17.96 307.994 19.544 307.994 22.824V22.904H302.794L302.746 22.68C302.554 21.784 301.706 21.16 299.578 21.16H298.97C296.73 21.16 295.466 21.816 295.466 23.496V23.624C295.466 25.304 296.73 25.96 298.97 25.96H299.578C301.706 25.96 302.554 25.336 302.746 24.44L302.794 24.216H307.994V24.296C307.994 27.576 305.002 29.16 299.53 29.16H299.018C293.386 29.16 290.506 27.592 290.506 23.688V23.432C290.506 19.528 293.386 17.96 299.018 17.96H299.53ZM313.527 27.272L313.351 29H308.279L308.551 26.616C308.679 25.48 309.047 24.744 310.343 24.44C308.967 24.056 308.295 23.096 308.295 21.72V21.528C308.295 19.32 309.639 18.12 313.799 18.12H324.039V29H319.239V26.04H315.063C313.943 26.04 313.607 26.456 313.527 27.272ZM313.175 22.184C313.175 22.776 313.639 23 314.839 23H319.239V21.32H314.839C313.639 21.32 313.175 21.544 313.175 22.136V22.184Z" fill="#FE6B1B"/>
</svg>
