<svg width="1336" height="552" viewBox="0 0 1336 552" fill="none" xmlns="http://www.w3.org/2000/svg">
<g clip-path="url(#clip0_601_1750)">
<rect width="1336" height="552" rx="40" fill="#016B83"/>
<path d="M1716.22 301.776L697.36 -717.085" stroke="white" stroke-opacity="0.23" stroke-width="0.750462"/>
<path d="M807.716 -796.664L-282.396 293.448" stroke="white" stroke-opacity="0.23" stroke-width="0.750462"/>
<path d="M855.476 -748.905L-234.637 341.207" stroke="white" stroke-opacity="0.23" stroke-width="0.750462"/>
<path d="M1012.17 -586.147L-77.9391 503.965" stroke="white" stroke-opacity="0.23" stroke-width="0.750462"/>
<path d="M1234.9 -369.485L144.783 720.627" stroke="white" stroke-opacity="0.23" stroke-width="0.750462"/>
<path d="M1477.41 -126.975L387.293 963.137" stroke="white" stroke-opacity="0.23" stroke-width="0.750462"/>
<path d="M1632.36 27.9765L542.245 1118.09" stroke="white" stroke-opacity="0.23" stroke-width="0.750462"/>
<path d="M1601.05 -3.33215L510.937 1086.78" stroke="white" stroke-opacity="0.23" stroke-width="0.750462"/>
<path d="M1741.83 143.507L651.714 1233.62" stroke="white" stroke-opacity="0.23" stroke-width="0.750462"/>
<path d="M830.189 1187.81L-188.672 168.947" stroke="white" stroke-opacity="0.23" stroke-width="0.750462"/>
<path d="M871.611 1146.39L-147.25 127.525" stroke="white" stroke-opacity="0.23" stroke-width="0.750462"/>
<path d="M1325.24 692.762L306.374 -326.099" stroke="white" stroke-opacity="0.23" stroke-width="0.750462"/>
<path d="M1228.25 789.751L209.385 -229.11" stroke="white" stroke-opacity="0.23" stroke-width="0.750462"/>
<path d="M1645.5 372.497L626.639 -646.364" stroke="white" stroke-opacity="0.23" stroke-width="0.750462"/>
<path d="M1777.85 240.148L758.988 -778.714" stroke="white" stroke-opacity="0.23" stroke-width="0.750462"/>
<g opacity="0.7" filter="url(#filter0_f_601_1750)">
<path d="M837.164 430.919L795.504 134.446" stroke="white" stroke-width="3.41375" stroke-linecap="round" stroke-linejoin="round" stroke-dasharray="5.46 10.24"/>
<path d="M1206.79 381.549L1165.13 85.0757" stroke="white" stroke-width="3.41375" stroke-linecap="round" stroke-linejoin="round" stroke-dasharray="5.46 10.24"/>
<path d="M955.099 399.388L923.177 172.216" stroke="white" stroke-width="3.41375" stroke-linecap="round" stroke-linejoin="round" stroke-dasharray="5.46 10.24"/>
<path d="M1072.99 331.133L1062.46 256.137" stroke="white" stroke-width="3.41375" stroke-linecap="round" stroke-linejoin="round" stroke-dasharray="5.46 10.24"/>
<rect x="754.949" y="217.04" width="103.778" height="147.474" rx="12.2895" transform="rotate(-7.99887 754.949 217.04)" fill="#FFD7F0"/>
<path d="M760.378 255.573L863.146 241.132L876.542 336.463C877.487 343.184 872.804 349.399 866.082 350.343L787.654 361.364C780.933 362.308 774.718 357.625 773.774 350.904L760.378 255.573Z" fill="#FFB9E5"/>
<rect x="886.365" y="271.571" width="103.778" height="111.971" rx="12.2895" transform="rotate(-7.99887 886.365 271.571)" fill="#FFD7F0"/>
<path d="M893.366 321.36L996.134 306.919L1003.01 355.837C1003.95 362.558 999.269 368.773 992.548 369.717L914.12 380.738C907.398 381.682 901.184 376.999 900.24 370.278L893.366 321.36Z" fill="#FFB9E5"/>
<rect x="1125.07" y="177.24" width="103.778" height="178.88" rx="12.2895" transform="rotate(-7.99887 1125.07 177.24)" fill="#FFD7F0"/>
<path d="M1136.25 256.792L1239.02 242.351L1251.02 327.772C1251.96 334.493 1247.28 340.707 1240.56 341.652L1162.13 352.673C1155.41 353.617 1149.19 348.934 1148.25 342.213L1136.25 256.792Z" fill="#FFB9E5"/>
<rect x="1016.58" y="308.362" width="103.778" height="32.0892" rx="12.2895" transform="rotate(-7.99887 1016.58 308.362)" fill="#FFD7F0"/>
<path d="M1019.62 329.997L1122.38 315.556V315.556C1123.17 321.157 1119.27 326.336 1113.67 327.123L1031.18 338.714C1025.58 339.501 1020.4 335.598 1019.62 329.997V329.997Z" fill="#FFB9E5"/>
<path d="M770.527 135.181L818.531 128.435" stroke="white" stroke-width="3.41375" stroke-linecap="round" stroke-linejoin="round"/>
<path d="M813.611 436.91L861.614 430.164" stroke="white" stroke-width="3.41375" stroke-linecap="round" stroke-linejoin="round"/>
<path d="M899.442 174.981L947.445 168.236" stroke="white" stroke-width="3.41375" stroke-linecap="round" stroke-linejoin="round"/>
<path d="M931.576 403.622L979.58 396.877" stroke="white" stroke-width="3.41375" stroke-linecap="round" stroke-linejoin="round"/>
<path d="M1038.92 258.86L1086.92 252.114" stroke="white" stroke-width="3.41375" stroke-linecap="round" stroke-linejoin="round"/>
<path d="M1049.57 338.743L1097.57 331.997" stroke="white" stroke-width="3.41375" stroke-linecap="round" stroke-linejoin="round"/>
<path d="M1141.39 87.8406L1189.4 81.0951" stroke="white" stroke-width="3.41375" stroke-linecap="round" stroke-linejoin="round"/>
<path d="M1183.01 385.507L1231.02 378.762" stroke="white" stroke-width="3.41375" stroke-linecap="round" stroke-linejoin="round"/>
<circle cx="845.984" cy="485.752" r="5.12062" transform="rotate(-6.13887 845.984 485.752)" fill="#FF6404"/>
<circle cx="1083.53" cy="389.473" r="5.12062" transform="rotate(-6.13887 1083.53 389.473)" fill="#FF6404"/>
<circle cx="1051.02" cy="176.665" r="5.12062" transform="rotate(-6.13887 1051.02 176.665)" fill="#FF6404"/>
<circle cx="1045.18" cy="141.583" r="5.12062" transform="rotate(-6.13887 1045.18 141.583)" fill="#FF6404"/>
</g>
<path d="M832.1 424.783L801.153 127.001" stroke="white" stroke-width="3.41375" stroke-linecap="round" stroke-linejoin="round" stroke-dasharray="5.46 10.24"/>
<path d="M1203.26 388.768L1172.32 90.9862" stroke="white" stroke-width="3.41375" stroke-linecap="round" stroke-linejoin="round" stroke-dasharray="5.46 10.24"/>
<path d="M951.095 397.524L927.381 169.349" stroke="white" stroke-width="3.41375" stroke-linecap="round" stroke-linejoin="round" stroke-dasharray="5.46 10.24"/>
<path d="M1071.37 333.563L1063.54 258.235" stroke="white" stroke-width="3.41375" stroke-linecap="round" stroke-linejoin="round" stroke-dasharray="5.46 10.24"/>
<rect x="757.647" y="208.08" width="103.778" height="147.474" rx="12.2895" transform="rotate(-5.93319 757.647 208.08)" fill="#FFD7F0"/>
<path d="M761.684 246.784L864.906 236.056L874.857 331.808C875.558 338.559 870.654 344.601 863.903 345.302L785.129 353.489C778.378 354.19 772.336 349.287 771.635 342.536L761.684 246.784Z" fill="#FFB9E5"/>
<rect x="887.013" y="267.313" width="103.778" height="111.971" rx="12.2895" transform="rotate(-5.93319 887.013 267.313)" fill="#FFD7F0"/>
<path d="M892.213 317.322L995.435 306.594L1000.54 355.728C1001.24 362.479 996.339 368.52 989.588 369.222L910.814 377.409C904.063 378.11 898.021 373.206 897.32 366.455L892.213 317.322Z" fill="#FFB9E5"/>
<rect x="1128.97" y="181.647" width="103.778" height="178.88" rx="12.2895" transform="rotate(-5.93319 1128.97 181.647)" fill="#FFD7F0"/>
<path d="M1137.26 261.55L1240.49 250.822L1249.4 336.62C1250.1 343.371 1245.2 349.413 1238.45 350.114L1159.67 358.301C1152.92 359.003 1146.88 354.099 1146.18 347.348L1137.26 261.55Z" fill="#FFB9E5"/>
<rect x="1015.82" y="308.773" width="103.778" height="32.0892" rx="12.2895" transform="rotate(-5.93319 1015.82 308.773)" fill="#FFD7F0"/>
<path d="M1018.07 330.503L1121.29 319.776V319.776C1121.88 325.402 1117.79 330.436 1112.16 331.021L1029.32 339.631C1023.69 340.216 1018.65 336.129 1018.07 330.503V330.503Z" fill="#FFB9E5"/>
<path d="M776.166 126.835L824.381 121.825" stroke="white" stroke-width="3.41375" stroke-linecap="round" stroke-linejoin="round"/>
<path d="M808.346 429.921L856.561 424.91" stroke="white" stroke-width="3.41375" stroke-linecap="round" stroke-linejoin="round"/>
<path d="M903.562 171.256L951.777 166.246" stroke="white" stroke-width="3.41375" stroke-linecap="round" stroke-linejoin="round"/>
<path d="M927.434 400.907L975.65 395.897" stroke="white" stroke-width="3.41375" stroke-linecap="round" stroke-linejoin="round"/>
<path d="M1039.92 260.108L1088.14 255.097" stroke="white" stroke-width="3.41375" stroke-linecap="round" stroke-linejoin="round"/>
<path d="M1047.69 340.323L1095.9 335.312" stroke="white" stroke-width="3.41375" stroke-linecap="round" stroke-linejoin="round"/>
<path d="M1148.5 92.8937L1196.71 87.8829" stroke="white" stroke-width="3.41375" stroke-linecap="round" stroke-linejoin="round"/>
<path d="M1179.36 391.867L1227.58 386.856" stroke="white" stroke-width="3.41375" stroke-linecap="round" stroke-linejoin="round"/>
<circle cx="838.937" cy="479.899" r="5.12062" transform="rotate(-4.07319 838.937 479.899)" fill="#FF6404"/>
<circle cx="1079.8" cy="392.244" r="5.12062" transform="rotate(-4.07319 1079.8 392.244)" fill="#FF6404"/>
<circle cx="1054.98" cy="178.403" r="5.12062" transform="rotate(-4.07319 1054.98 178.403)" fill="#FF6404"/>
<circle cx="1050.41" cy="143.134" r="5.12062" transform="rotate(-4.07319 1050.41 143.134)" fill="#FF6404"/>
<rect x="40" y="440" width="178" height="32" rx="8" fill="#FE6B1B"/>
<path d="M54.1606 462.188C52.6033 462.188 51.3664 461.664 50.4497 460.617C49.5382 459.565 49.0825 458.146 49.0825 456.359C49.0825 454.589 49.5434 453.177 50.4653 452.125C51.3872 451.068 52.619 450.539 54.1606 450.539C55.3585 450.539 56.3794 450.867 57.2231 451.523C58.0721 452.174 58.6007 453.042 58.8091 454.125H57.3716C57.1684 453.427 56.7752 452.872 56.1919 452.461C55.6085 452.044 54.9315 451.836 54.1606 451.836C53.0617 451.836 52.1815 452.247 51.52 453.07C50.8585 453.893 50.5278 454.99 50.5278 456.359C50.5278 457.745 50.8559 458.846 51.5122 459.664C52.1684 460.482 53.0539 460.891 54.1684 460.891C54.9653 460.891 55.6424 460.714 56.1997 460.359C56.757 460.005 57.1476 459.505 57.3716 458.859H58.8091C58.533 459.932 57.994 460.755 57.1919 461.328C56.3898 461.901 55.3794 462.188 54.1606 462.188ZM62.1881 458.414C62.1517 458.883 62.0996 459.297 62.0319 459.656C61.9694 460.016 61.8782 460.352 61.7584 460.664C61.6386 460.977 61.4902 461.234 61.3131 461.438C61.1412 461.635 60.9251 461.792 60.6647 461.906C60.4095 462.016 60.1126 462.07 59.7741 462.07C59.5866 462.07 59.4251 462.042 59.2897 461.984V460.758C59.4147 460.799 59.5527 460.82 59.7037 460.82C60.084 460.82 60.3678 460.615 60.5553 460.203C60.7428 459.786 60.8626 459.18 60.9147 458.383L61.2272 453.875H66.5475V462H65.2037V454.992H62.4381L62.1881 458.414ZM68.9891 465.039C68.7443 465.039 68.549 465.023 68.4031 464.992V463.852C68.5281 463.878 68.7052 463.891 68.9344 463.891C69.3146 463.891 69.6193 463.789 69.8484 463.586C70.0776 463.388 70.2703 463.052 70.4266 462.578L70.6141 462.008L67.6141 453.875H69.0672L71.3172 460.641H71.3406L73.5906 453.875H75.0203L71.825 462.57C71.476 463.518 71.0984 464.167 70.6922 464.516C70.2911 464.865 69.7234 465.039 68.9891 465.039ZM82.2666 462H80.9228V458.492H80.8056C80.316 458.914 79.6598 459.125 78.8369 459.125C77.8837 459.125 77.1494 458.862 76.6337 458.336C76.1233 457.81 75.8681 457.102 75.8681 456.211V453.875H77.2119V456.195C77.2119 456.737 77.3551 457.164 77.6416 457.477C77.928 457.784 78.3395 457.938 78.8759 457.938C79.7666 457.938 80.4489 457.672 80.9228 457.141V453.875H82.2666V462ZM86.7081 460.984C87.3487 460.984 87.8852 460.786 88.3175 460.391C88.755 459.99 88.9737 459.497 88.9737 458.914V458.25L86.8019 458.383C86.255 458.419 85.8305 458.552 85.5284 458.781C85.2316 459.01 85.0831 459.318 85.0831 459.703C85.0831 460.089 85.2316 460.398 85.5284 460.633C85.8253 460.867 86.2185 460.984 86.7081 460.984ZM86.4034 462.141C85.5961 462.141 84.9425 461.917 84.4425 461.469C83.9477 461.021 83.7003 460.432 83.7003 459.703C83.7003 459.005 83.9555 458.448 84.4659 458.031C84.9816 457.615 85.7081 457.38 86.6456 457.328L88.9737 457.195V456.516C88.9737 456.021 88.8175 455.633 88.505 455.352C88.1925 455.07 87.755 454.93 87.1925 454.93C86.6769 454.93 86.2576 455.044 85.9347 455.273C85.6118 455.497 85.406 455.812 85.3175 456.219H84.005C84.0519 455.495 84.3644 454.901 84.9425 454.438C85.5258 453.969 86.2862 453.734 87.2237 453.734C88.1769 453.734 88.9321 453.974 89.4894 454.453C90.0519 454.932 90.3331 455.576 90.3331 456.383V462H89.0441V460.602H89.0128C88.768 461.065 88.4086 461.438 87.9347 461.719C87.4607 462 86.9503 462.141 86.4034 462.141ZM93.3919 462H92.0481V453.875H93.3919V459.922H93.4544L97.5169 453.875H98.8606V462H97.5169V455.953H97.4544L93.3919 462ZM93.0872 450.359H94.0872C94.0872 450.823 94.2252 451.208 94.5012 451.516C94.7825 451.823 95.1497 451.977 95.6028 451.977C96.0559 451.977 96.4205 451.823 96.6966 451.516C96.9778 451.208 97.1184 450.823 97.1184 450.359H98.1184C98.1184 451.078 97.8841 451.661 97.4153 452.109C96.9518 452.557 96.3476 452.781 95.6028 452.781C94.858 452.781 94.2512 452.557 93.7825 452.109C93.319 451.661 93.0872 451.078 93.0872 450.359ZM105.958 462V458.344H101.951V462H100.607V453.875H101.951V457.227H105.958V453.875H107.302V462H105.958ZM116.009 462V453.875H117.353V462H116.009ZM111.916 457.586H110.4V460.883H111.916C112.442 460.883 112.861 460.732 113.173 460.43C113.491 460.128 113.65 459.729 113.65 459.234C113.65 458.734 113.491 458.336 113.173 458.039C112.861 457.737 112.442 457.586 111.916 457.586ZM109.056 462V453.875H110.4V456.469H111.939C112.871 456.469 113.614 456.719 114.166 457.219C114.718 457.719 114.994 458.391 114.994 459.234C114.994 460.078 114.718 460.75 114.166 461.25C113.614 461.75 112.871 462 111.939 462H109.056ZM122.365 454.914C121.735 454.914 121.211 455.133 120.795 455.57C120.383 456.003 120.157 456.56 120.115 457.242H124.529C124.513 456.555 124.308 455.995 123.912 455.562C123.516 455.13 123 454.914 122.365 454.914ZM124.498 459.672H125.834C125.714 460.391 125.339 460.982 124.709 461.445C124.084 461.909 123.331 462.141 122.451 462.141C121.289 462.141 120.375 461.766 119.709 461.016C119.042 460.266 118.709 459.25 118.709 457.969C118.709 456.698 119.042 455.674 119.709 454.898C120.381 454.122 121.274 453.734 122.388 453.734C123.482 453.734 124.347 454.102 124.982 454.836C125.618 455.57 125.935 456.555 125.935 457.789V458.305H120.107V458.383C120.107 459.164 120.321 459.789 120.748 460.258C121.175 460.727 121.753 460.961 122.482 460.961C122.993 460.961 123.427 460.844 123.787 460.609C124.146 460.375 124.383 460.062 124.498 459.672ZM131.248 459.523C131.378 459.977 131.618 460.328 131.967 460.578C132.321 460.823 132.764 460.945 133.295 460.945C133.956 460.945 134.501 460.716 134.928 460.258C135.36 459.794 135.597 459.154 135.639 458.336H131.959V457.227H135.6C135.516 456.508 135.266 455.945 134.85 455.539C134.433 455.133 133.92 454.93 133.311 454.93C132.764 454.93 132.313 455.065 131.959 455.336C131.61 455.607 131.378 455.953 131.264 456.375H129.92C130.04 455.635 130.402 455.01 131.006 454.5C131.61 453.99 132.381 453.734 133.318 453.734C134.438 453.734 135.337 454.12 136.014 454.891C136.696 455.656 137.037 456.672 137.037 457.938C137.037 459.224 136.699 460.247 136.022 461.008C135.344 461.763 134.438 462.141 133.303 462.141C132.402 462.141 131.644 461.901 131.029 461.422C130.42 460.938 130.045 460.305 129.904 459.523H131.248ZM143.752 462V458.344H139.744V462H138.401V453.875H139.744V457.227H143.752V453.875H145.096V462H143.752ZM152.795 453.875V454.992H150.17V462H148.827V454.992H146.202V453.875H152.795ZM154.573 465.039C154.328 465.039 154.133 465.023 153.987 464.992V463.852C154.112 463.878 154.289 463.891 154.518 463.891C154.898 463.891 155.203 463.789 155.432 463.586C155.661 463.388 155.854 463.052 156.01 462.578L156.198 462.008L153.198 453.875H154.651L156.901 460.641H156.924L159.174 453.875H160.604L157.409 462.57C157.06 463.518 156.682 464.167 156.276 464.516C155.875 464.865 155.307 465.039 154.573 465.039ZM164.366 462.141C163.47 462.141 162.728 461.938 162.139 461.531C161.551 461.12 161.223 460.573 161.155 459.891H162.53C162.608 460.245 162.806 460.521 163.124 460.719C163.447 460.917 163.861 461.016 164.366 461.016C164.944 461.016 165.395 460.893 165.717 460.648C166.04 460.398 166.202 460.07 166.202 459.664C166.202 459.211 166.051 458.878 165.749 458.664C165.447 458.445 164.986 458.336 164.366 458.336H163.147V457.227H164.366C165.408 457.227 165.928 456.831 165.928 456.039C165.928 455.685 165.798 455.401 165.538 455.188C165.283 454.974 164.902 454.867 164.397 454.867C163.918 454.867 163.522 454.964 163.21 455.156C162.897 455.349 162.712 455.607 162.655 455.93H161.335C161.423 455.258 161.741 454.724 162.288 454.328C162.835 453.932 163.538 453.734 164.397 453.734C165.303 453.734 166.007 453.935 166.507 454.336C167.007 454.732 167.257 455.263 167.257 455.93C167.257 456.346 167.132 456.719 166.882 457.047C166.637 457.375 166.314 457.586 165.913 457.68V457.742C166.439 457.857 166.84 458.078 167.116 458.406C167.397 458.729 167.538 459.128 167.538 459.602C167.538 460.362 167.246 460.977 166.663 461.445C166.085 461.909 165.319 462.141 164.366 462.141ZM170.276 462H168.932V453.875H170.276V459.922H170.339L174.401 453.875H175.745V462H174.401V455.953H174.339L170.276 462ZM180.179 460.984C180.819 460.984 181.356 460.786 181.788 460.391C182.226 459.99 182.444 459.497 182.444 458.914V458.25L180.272 458.383C179.726 458.419 179.301 458.552 178.999 458.781C178.702 459.01 178.554 459.318 178.554 459.703C178.554 460.089 178.702 460.398 178.999 460.633C179.296 460.867 179.689 460.984 180.179 460.984ZM179.874 462.141C179.067 462.141 178.413 461.917 177.913 461.469C177.418 461.021 177.171 460.432 177.171 459.703C177.171 459.005 177.426 458.448 177.937 458.031C178.452 457.615 179.179 457.38 180.116 457.328L182.444 457.195V456.516C182.444 456.021 182.288 455.633 181.976 455.352C181.663 455.07 181.226 454.93 180.663 454.93C180.147 454.93 179.728 455.044 179.405 455.273C179.082 455.497 178.877 455.812 178.788 456.219H177.476C177.522 455.495 177.835 454.901 178.413 454.438C178.996 453.969 179.757 453.734 180.694 453.734C181.647 453.734 182.403 453.974 182.96 454.453C183.522 454.932 183.804 455.576 183.804 456.383V462H182.515V460.602H182.483C182.239 461.065 181.879 461.438 181.405 461.719C180.931 462 180.421 462.141 179.874 462.141ZM192.245 456.375H190.902C190.777 455.953 190.54 455.607 190.191 455.336C189.842 455.065 189.396 454.93 188.855 454.93C188.146 454.93 187.579 455.206 187.152 455.758C186.724 456.305 186.511 457.031 186.511 457.938C186.511 458.859 186.724 459.591 187.152 460.133C187.584 460.674 188.157 460.945 188.87 460.945C189.402 460.945 189.842 460.82 190.191 460.57C190.545 460.32 190.787 459.969 190.917 459.516H192.261C192.126 460.297 191.751 460.93 191.136 461.414C190.521 461.898 189.764 462.141 188.862 462.141C187.727 462.141 186.821 461.763 186.144 461.008C185.467 460.247 185.128 459.224 185.128 457.938C185.128 456.672 185.467 455.656 186.144 454.891C186.821 454.12 187.722 453.734 188.847 453.734C189.779 453.734 190.545 453.99 191.144 454.5C191.748 455.01 192.115 455.635 192.245 456.375ZM199.304 453.875V454.992H196.679V462H195.335V454.992H192.71V453.875H199.304ZM207.355 462V453.875H208.699V462H207.355ZM203.261 457.586H201.746V460.883H203.261C203.787 460.883 204.207 460.732 204.519 460.43C204.837 460.128 204.996 459.729 204.996 459.234C204.996 458.734 204.837 458.336 204.519 458.039C204.207 457.737 203.787 457.586 203.261 457.586ZM200.402 462V453.875H201.746V456.469H203.285C204.217 456.469 204.959 456.719 205.511 457.219C206.063 457.719 206.339 458.391 206.339 459.234C206.339 460.078 206.063 460.75 205.511 461.25C204.959 461.75 204.217 462 203.285 462H200.402Z" fill="white"/>
<rect x="222" y="440" width="300" height="32" rx="8" fill="#FE6B1B"/>
<path d="M235.845 462.188C232.736 462.188 230.767 459.93 230.767 456.359C230.767 452.82 232.759 450.539 235.845 450.539C238.243 450.539 240.079 451.961 240.493 454.125H239.056C238.65 452.734 237.392 451.836 235.845 451.836C233.642 451.836 232.212 453.617 232.212 456.359C232.212 459.125 233.626 460.891 235.853 460.891C237.454 460.891 238.611 460.148 239.056 458.859H240.493C239.939 461 238.283 462.188 235.845 462.188ZM247.88 453.875V454.992H245.255V462H243.912V454.992H241.287V453.875H247.88ZM251.353 460.984C252.634 460.984 253.619 460.086 253.619 458.914V458.25L251.447 458.383C250.353 458.453 249.728 458.938 249.728 459.703C249.728 460.477 250.377 460.984 251.353 460.984ZM251.048 462.141C249.431 462.141 248.345 461.164 248.345 459.703C248.345 458.312 249.416 457.438 251.291 457.328L253.619 457.195V456.516C253.619 455.523 252.963 454.93 251.838 454.93C250.791 454.93 250.134 455.422 249.963 456.219H248.65C248.744 454.812 249.947 453.734 251.869 453.734C253.775 453.734 254.978 454.766 254.978 456.383V462H253.689V460.602H253.658C253.173 461.531 252.142 462.141 251.048 462.141ZM263.732 457.719L267.404 462H265.662L262.381 458.094H262.318V462H260.974V458.094H260.92L257.638 462H255.92L259.568 457.742L256.006 453.875H257.678L260.92 457.469H260.974V453.875H262.318V457.469H262.381L265.623 453.875H267.279L263.732 457.719ZM271.424 454.914C270.15 454.914 269.26 455.891 269.174 457.242H273.588C273.557 455.883 272.705 454.914 271.424 454.914ZM273.557 459.672H274.893C274.658 461.094 273.283 462.141 271.51 462.141C269.182 462.141 267.768 460.523 267.768 457.969C267.768 455.445 269.205 453.734 271.447 453.734C273.643 453.734 274.994 455.328 274.994 457.789V458.305H269.166V458.383C269.166 459.938 270.08 460.961 271.541 460.961C272.572 460.961 273.33 460.438 273.557 459.672ZM269.994 452.602C269.525 452.602 269.135 452.219 269.135 451.742C269.135 451.266 269.525 450.883 269.994 450.883C270.463 450.883 270.853 451.266 270.853 451.742C270.853 452.219 270.463 452.602 269.994 452.602ZM272.9 452.602C272.432 452.602 272.041 452.219 272.041 451.742C272.041 451.266 272.432 450.883 272.9 450.883C273.369 450.883 273.76 451.266 273.76 451.742C273.76 452.219 273.369 452.602 272.9 452.602ZM280.295 453.734C282.365 453.734 283.772 455.391 283.772 457.938C283.772 460.484 282.373 462.141 280.326 462.141C279.162 462.141 278.225 461.57 277.74 460.68H277.709V464.711H276.35V453.875H277.639V455.25H277.67C278.17 454.336 279.115 453.734 280.295 453.734ZM280.029 460.945C281.475 460.945 282.381 459.781 282.381 457.938C282.381 456.102 281.475 454.93 280.029 454.93C278.639 454.93 277.701 456.133 277.701 457.938C277.701 459.75 278.639 460.945 280.029 460.945ZM292.073 462V453.875H293.416V462H292.073ZM287.979 457.586H286.463V460.883H287.979C289.033 460.883 289.713 460.227 289.713 459.234C289.713 458.234 289.026 457.586 287.979 457.586ZM285.119 462V453.875H286.463V456.469H288.002C289.862 456.469 291.057 457.539 291.057 459.234C291.057 460.93 289.862 462 288.002 462H285.119ZM299.628 462H298.284V453.875H299.628V459.922H299.69L303.753 453.875H305.096V462H303.753V455.953H303.69L299.628 462ZM315.315 462V458.344H311.308V462H309.964V453.875H311.308V457.227H315.315V453.875H316.659V462H315.315ZM321.101 460.984C322.382 460.984 323.366 460.086 323.366 458.914V458.25L321.194 458.383C320.101 458.453 319.476 458.938 319.476 459.703C319.476 460.477 320.124 460.984 321.101 460.984ZM320.796 462.141C319.179 462.141 318.093 461.164 318.093 459.703C318.093 458.312 319.163 457.438 321.038 457.328L323.366 457.195V456.516C323.366 455.523 322.71 454.93 321.585 454.93C320.538 454.93 319.882 455.422 319.71 456.219H318.397C318.491 454.812 319.694 453.734 321.616 453.734C323.522 453.734 324.726 454.766 324.726 456.383V462H323.437V460.602H323.405C322.921 461.531 321.89 462.141 320.796 462.141ZM332.636 462H331.292V458.492H331.175C330.738 458.867 330.089 459.125 329.206 459.125C327.261 459.125 326.238 457.945 326.238 456.211V453.875H327.581V456.195C327.581 457.258 328.152 457.938 329.245 457.938C330.253 457.938 330.917 457.562 331.292 457.141V453.875H332.636V462ZM335.734 462H334.39V453.875H335.734V459.922H335.796L339.859 453.875H341.202V462H339.859V455.953H339.796L335.734 462ZM348.3 462V458.344H344.293V462H342.949V453.875H344.293V457.227H348.3V453.875H349.644V462H348.3ZM354.086 460.984C355.367 460.984 356.351 460.086 356.351 458.914V458.25L354.179 458.383C353.086 458.453 352.461 458.938 352.461 459.703C352.461 460.477 353.109 460.984 354.086 460.984ZM353.781 462.141C352.164 462.141 351.078 461.164 351.078 459.703C351.078 458.312 352.148 457.438 354.023 457.328L356.351 457.195V456.516C356.351 455.523 355.695 454.93 354.57 454.93C353.523 454.93 352.867 455.422 352.695 456.219H351.382C351.476 454.812 352.679 453.734 354.601 453.734C356.507 453.734 357.711 454.766 357.711 456.383V462H356.422V460.602H356.39C355.906 461.531 354.875 462.141 353.781 462.141ZM365.91 462.141C363.754 462.141 362.379 460.711 362.23 458.344H360.769V462H359.426V453.875H360.769V457.227H362.262C362.504 455.039 363.848 453.734 365.91 453.734C368.191 453.734 369.598 455.32 369.598 457.938C369.598 460.547 368.191 462.141 365.91 462.141ZM365.91 460.938C367.379 460.938 368.207 459.844 368.207 457.938C368.207 456.023 367.379 454.938 365.91 454.938C364.441 454.938 363.613 456.023 363.613 457.938C363.613 459.844 364.441 460.938 365.91 460.938ZM382.273 464.148H381.008V462H370.953V453.875H372.297V460.883H375.297V453.875H376.641V460.883H379.641V453.875H380.984V460.883H382.273V464.148ZM384.668 462H383.324V453.875H384.668V459.922H384.731L388.793 453.875H390.137V462H388.793V455.953H388.731L384.668 462ZM395.149 454.914C393.875 454.914 392.985 455.891 392.899 457.242H397.313C397.282 455.883 396.43 454.914 395.149 454.914ZM397.282 459.672H398.618C398.383 461.094 397.008 462.141 395.235 462.141C392.907 462.141 391.493 460.523 391.493 457.969C391.493 455.445 392.93 453.734 395.172 453.734C397.368 453.734 398.719 455.328 398.719 457.789V458.305H392.891V458.383C392.891 459.938 393.805 460.961 395.266 460.961C396.297 460.961 397.055 460.438 397.282 459.672ZM408.579 460.883V454.992H405.532L405.282 458.414C405.212 459.422 405.001 460.305 404.618 460.82V460.883H408.579ZM403.649 464.148H402.383V460.883H403.063C403.657 460.492 403.946 459.477 404.024 458.383L404.337 453.875H409.93V460.883H411.219V464.148H409.954V462H403.649V464.148ZM414.966 460.984C416.247 460.984 417.231 460.086 417.231 458.914V458.25L415.059 458.383C413.966 458.453 413.341 458.938 413.341 459.703C413.341 460.477 413.989 460.984 414.966 460.984ZM414.661 462.141C413.044 462.141 411.958 461.164 411.958 459.703C411.958 458.312 413.028 457.438 414.903 457.328L417.231 457.195V456.516C417.231 455.523 416.575 454.93 415.45 454.93C414.403 454.93 413.747 455.422 413.575 456.219H412.262C412.356 454.812 413.559 453.734 415.481 453.734C417.387 453.734 418.591 454.766 418.591 456.383V462H417.302V460.602H417.27C416.786 461.531 415.755 462.141 414.661 462.141ZM426.095 453.875V454.992H423.47V462H422.126V454.992H419.501V453.875H426.095ZM429.568 460.984C430.849 460.984 431.833 460.086 431.833 458.914V458.25L429.661 458.383C428.568 458.453 427.943 458.938 427.943 459.703C427.943 460.477 428.591 460.984 429.568 460.984ZM429.263 462.141C427.646 462.141 426.56 461.164 426.56 459.703C426.56 458.312 427.63 457.438 429.505 457.328L431.833 457.195V456.516C431.833 455.523 431.177 454.93 430.052 454.93C429.005 454.93 428.349 455.422 428.177 456.219H426.864C426.958 454.812 428.161 453.734 430.083 453.734C431.989 453.734 433.193 454.766 433.193 456.383V462H431.903V460.602H431.872C431.388 461.531 430.357 462.141 429.263 462.141ZM439.947 458.062H434.822V456.797H439.947V458.062ZM444.294 460.984C445.576 460.984 446.56 460.086 446.56 458.914V458.25L444.388 458.383C443.294 458.453 442.669 458.938 442.669 459.703C442.669 460.477 443.318 460.984 444.294 460.984ZM443.99 462.141C442.372 462.141 441.287 461.164 441.287 459.703C441.287 458.312 442.357 457.438 444.232 457.328L446.56 457.195V456.516C446.56 455.523 445.904 454.93 444.779 454.93C443.732 454.93 443.076 455.422 442.904 456.219H441.591C441.685 454.812 442.888 453.734 444.81 453.734C446.716 453.734 447.919 454.766 447.919 456.383V462H446.63V460.602H446.599C446.115 461.531 445.083 462.141 443.99 462.141ZM454.986 462V458.344H450.978V462H449.634V453.875H450.978V457.227H454.986V453.875H456.33V462H454.986ZM460.771 460.984C462.053 460.984 463.037 460.086 463.037 458.914V458.25L460.865 458.383C459.771 458.453 459.146 458.938 459.146 459.703C459.146 460.477 459.795 460.984 460.771 460.984ZM460.467 462.141C458.849 462.141 457.763 461.164 457.763 459.703C457.763 458.312 458.834 457.438 460.709 457.328L463.037 457.195V456.516C463.037 455.523 462.381 454.93 461.256 454.93C460.209 454.93 459.553 455.422 459.381 456.219H458.068C458.162 454.812 459.365 453.734 461.287 453.734C463.193 453.734 464.396 454.766 464.396 456.383V462H463.107V460.602H463.076C462.592 461.531 461.56 462.141 460.467 462.141ZM468.283 458.414C468.119 460.656 467.58 462.07 465.869 462.07C465.635 462.07 465.478 462.023 465.385 461.984V460.758C465.455 460.781 465.603 460.82 465.799 460.82C466.603 460.82 466.908 459.875 467.01 458.383L467.322 453.875H472.643V462H471.299V454.992H468.533L468.283 458.414ZM475.748 462H474.404V453.875H475.748V459.922H475.811L479.873 453.875H481.217V462H479.873V455.953H479.811L475.748 462ZM488.908 453.875V454.992H486.283V462H484.94V454.992H482.315V453.875H488.908ZM491.35 462H490.006V453.875H491.35V459.922H491.413L495.475 453.875H496.819V462H495.475V455.953H495.413L491.35 462ZM501.323 457.719L505.229 462H503.479L499.971 458.094H499.909V462H498.565V453.875H499.909V457.469H499.971L503.44 453.875H505.12L501.323 457.719ZM507.546 462H506.202V453.875H507.546V459.922H507.608L511.671 453.875H513.014V462H511.671V455.953H511.608L507.546 462Z" fill="white"/>
<rect x="40" y="480" width="196" height="32" rx="8" fill="#C3FF34"/>
<path d="M54.0159 502.188C50.9066 502.188 48.9378 499.93 48.9378 496.359C48.9378 492.82 50.93 490.539 54.0159 490.539C56.4144 490.539 58.2503 491.961 58.6644 494.125H57.2269C56.8206 492.734 55.5628 491.836 54.0159 491.836C51.8128 491.836 50.3831 493.617 50.3831 496.359C50.3831 499.125 51.7972 500.891 54.0238 500.891C55.6253 500.891 56.7816 500.148 57.2269 498.859H58.6644C58.1097 501 56.4534 502.188 54.0159 502.188ZM66.0513 493.875V494.992H63.4263V502H62.0825V494.992H59.4575V493.875H66.0513ZM67.8288 505.039C67.6647 505.039 67.3913 505.023 67.2428 504.992V503.852C67.3913 503.883 67.6022 503.891 67.7741 503.891C68.5319 503.891 68.9538 503.523 69.2663 502.578L69.4538 502.008L66.4538 493.875H67.9069L70.1569 500.641H70.1803L72.4303 493.875H73.86L70.6647 502.57C69.9694 504.469 69.2975 505.039 67.8288 505.039ZM79.9891 500.883V494.992H76.9422L76.6922 498.414C76.6219 499.422 76.4109 500.305 76.0281 500.82V500.883H79.9891ZM75.0594 504.148H73.7938V500.883H74.4734C75.0672 500.492 75.3563 499.477 75.4344 498.383L75.7469 493.875H81.3406V500.883H82.6297V504.148H81.3641V502H75.0594V504.148ZM86.9541 494.914C85.6806 494.914 84.79 495.891 84.7041 497.242H89.1181C89.0869 495.883 88.2353 494.914 86.9541 494.914ZM89.0869 499.672H90.4228C90.1884 501.094 88.8134 502.141 87.04 502.141C84.7119 502.141 83.2978 500.523 83.2978 497.969C83.2978 495.445 84.7353 493.734 86.9775 493.734C89.1728 493.734 90.5244 495.328 90.5244 497.789V498.305H84.6963V498.383C84.6963 499.938 85.6103 500.961 87.0713 500.961C88.1025 500.961 88.8603 500.438 89.0869 499.672ZM97.2238 502V498.344H93.2159V502H91.8722V493.875H93.2159V497.227H97.2238V493.875H98.5675V502H97.2238ZM106.267 493.875V494.992H103.642V502H102.298V494.992H99.6731V493.875H106.267ZM114.318 502V493.875H115.662V502H114.318ZM110.224 497.586H108.708V500.883H110.224C111.279 500.883 111.958 500.227 111.958 499.234C111.958 498.234 111.271 497.586 110.224 497.586ZM107.365 502V493.875H108.708V496.469H110.248C112.107 496.469 113.302 497.539 113.302 499.234C113.302 500.93 112.107 502 110.248 502H107.365ZM125.224 499.719V492.93C123.021 493.016 121.662 494.312 121.662 496.32C121.662 498.352 123.021 499.648 125.224 499.719ZM130.17 496.328C130.17 494.305 128.81 493 126.615 492.93V499.719C128.81 499.633 130.17 498.336 130.17 496.328ZM125.224 500.977C122.17 500.906 120.24 499.102 120.24 496.32C120.24 493.555 122.162 491.758 125.224 491.672V490.57H126.615V491.672C129.67 491.742 131.592 493.547 131.592 496.328C131.592 499.094 129.67 500.891 126.615 500.977V502.156H125.224V500.977ZM136.228 496.117L141.877 502H139.947L134.744 496.523H134.682V502H133.275V490.727H134.682V495.922H134.744L139.588 490.727H141.353L136.228 496.117ZM152.068 502H150.662V496.867H144.475V502H143.068V490.727H144.475V495.602H150.662V490.727H152.068V502ZM158.498 502H157.155V493.875H158.498V499.922H158.561L162.623 493.875H163.967V502H162.623V495.953H162.561L158.498 502ZM169.678 499.523C169.936 500.422 170.655 500.945 171.725 500.945C173.022 500.945 173.983 500.008 174.069 498.336H170.389V497.227H174.03C173.858 495.773 172.944 494.93 171.741 494.93C170.592 494.93 169.905 495.578 169.694 496.375H168.35C168.577 494.984 169.788 493.734 171.749 493.734C173.991 493.734 175.467 495.406 175.467 497.938C175.467 500.523 173.991 502.141 171.733 502.141C169.905 502.141 168.608 501.062 168.335 499.523H169.678ZM179.589 497.719L183.495 502H181.745L178.237 498.094H178.175V502H176.831V493.875H178.175V497.469H178.237L181.706 493.875H183.386L179.589 497.719ZM187.687 502.141C185.437 502.141 183.921 500.523 183.921 497.938C183.921 495.344 185.437 493.734 187.687 493.734C189.929 493.734 191.444 495.344 191.444 497.938C191.444 500.523 189.929 502.141 187.687 502.141ZM187.687 500.945C189.124 500.945 190.062 499.852 190.062 497.938C190.062 496.023 189.124 494.93 187.687 494.93C186.249 494.93 185.304 496.023 185.304 497.938C185.304 499.852 186.249 500.945 187.687 500.945ZM198.144 502V498.344H194.136V502H192.792V493.875H194.136V497.227H198.144V493.875H199.487V502H198.144ZM204.617 502.141C202.367 502.141 200.851 500.523 200.851 497.938C200.851 495.344 202.367 493.734 204.617 493.734C206.859 493.734 208.374 495.344 208.374 497.938C208.374 500.523 206.859 502.141 204.617 502.141ZM204.617 500.945C206.054 500.945 206.992 499.852 206.992 497.938C206.992 496.023 206.054 494.93 204.617 494.93C203.179 494.93 202.234 496.023 202.234 497.938C202.234 499.852 203.179 500.945 204.617 500.945ZM211.066 502H209.722V493.875H211.371L214.261 500.203H214.324L217.23 493.875H218.816V502H217.464V496.234H217.41L214.785 501.766H213.746L211.121 496.234H211.066V502ZM223.25 500.984C224.531 500.984 225.515 500.086 225.515 498.914V498.25L223.343 498.383C222.25 498.453 221.625 498.938 221.625 499.703C221.625 500.477 222.273 500.984 223.25 500.984ZM222.945 502.141C221.328 502.141 220.242 501.164 220.242 499.703C220.242 498.312 221.312 497.438 223.187 497.328L225.515 497.195V496.516C225.515 495.523 224.859 494.93 223.734 494.93C222.687 494.93 222.031 495.422 221.859 496.219H220.547C220.64 494.812 221.843 493.734 223.765 493.734C225.672 493.734 226.875 494.766 226.875 496.383V502H225.586V500.602H225.554C225.07 501.531 224.039 502.141 222.945 502.141Z" fill="black"/>
<rect x="240" y="480" width="298" height="32" rx="8" fill="#C3FF34"/>
<path d="M254.22 502.188C251.111 502.188 249.142 499.93 249.142 496.359C249.142 492.82 251.134 490.539 254.22 490.539C256.618 490.539 258.454 491.961 258.868 494.125H257.431C257.025 492.734 255.767 491.836 254.22 491.836C252.017 491.836 250.587 493.617 250.587 496.359C250.587 499.125 252.001 500.891 254.228 500.891C255.829 500.891 256.986 500.148 257.431 498.859H258.868C258.314 501 256.658 502.188 254.22 502.188ZM266.255 493.875V494.992H263.63V502H262.287V494.992H259.662V493.875H266.255ZM268.033 505.039C267.869 505.039 267.595 505.023 267.447 504.992V503.852C267.595 503.883 267.806 503.891 267.978 503.891C268.736 503.891 269.158 503.523 269.47 502.578L269.658 502.008L266.658 493.875H268.111L270.361 500.641H270.384L272.634 493.875H274.064L270.869 502.57C270.173 504.469 269.502 505.039 268.033 505.039ZM280.193 500.883V494.992H277.146L276.896 498.414C276.826 499.422 276.615 500.305 276.232 500.82V500.883H280.193ZM275.263 504.148H273.998V500.883H274.678C275.271 500.492 275.56 499.477 275.638 498.383L275.951 493.875H281.545V500.883H282.834V504.148H281.568V502H275.263V504.148ZM287.158 494.914C285.885 494.914 284.994 495.891 284.908 497.242H289.322C289.291 495.883 288.439 494.914 287.158 494.914ZM289.291 499.672H290.627C290.393 501.094 289.018 502.141 287.244 502.141C284.916 502.141 283.502 500.523 283.502 497.969C283.502 495.445 284.939 493.734 287.182 493.734C289.377 493.734 290.728 495.328 290.728 497.789V498.305H284.9V498.383C284.9 499.938 285.814 500.961 287.275 500.961C288.307 500.961 289.064 500.438 289.291 499.672ZM297.428 502V498.344H293.42V502H292.076V493.875H293.42V497.227H297.428V493.875H298.772V502H297.428ZM306.471 493.875V494.992H303.846V502H302.502V494.992H299.877V493.875H306.471ZM314.522 502V493.875H315.866V502H314.522ZM310.428 497.586H308.913V500.883H310.428C311.483 500.883 312.163 500.227 312.163 499.234C312.163 498.234 311.475 497.586 310.428 497.586ZM307.569 502V493.875H308.913V496.469H310.452C312.311 496.469 313.506 497.539 313.506 499.234C313.506 500.93 312.311 502 310.452 502H307.569ZM318.471 504.242H317.338L318.096 500.266H319.542L318.471 504.242ZM327.808 493.734C329.878 493.734 331.284 495.391 331.284 497.938C331.284 500.484 329.886 502.141 327.839 502.141C326.675 502.141 325.737 501.57 325.253 500.68H325.222V504.711H323.862V493.875H325.151V495.25H325.183C325.683 494.336 326.628 493.734 327.808 493.734ZM327.542 500.945C328.987 500.945 329.893 499.781 329.893 497.938C329.893 496.102 328.987 494.93 327.542 494.93C326.151 494.93 325.214 496.133 325.214 497.938C325.214 499.75 326.151 500.945 327.542 500.945ZM335.319 500.984C336.601 500.984 337.585 500.086 337.585 498.914V498.25L335.413 498.383C334.319 498.453 333.694 498.938 333.694 499.703C333.694 500.477 334.343 500.984 335.319 500.984ZM335.015 502.141C333.397 502.141 332.312 501.164 332.312 499.703C332.312 498.312 333.382 497.438 335.257 497.328L337.585 497.195V496.516C337.585 495.523 336.929 494.93 335.804 494.93C334.757 494.93 334.101 495.422 333.929 496.219H332.616C332.71 494.812 333.913 493.734 335.835 493.734C337.741 493.734 338.944 494.766 338.944 496.383V502H337.655V500.602H337.624C337.14 501.531 336.108 502.141 335.015 502.141ZM344.144 502.141C341.652 502.141 340.339 500.469 340.339 497.242C340.339 492.758 341.527 490.891 344.683 490.773L345.284 490.75C346.066 490.711 346.941 490.555 347.402 490.312V491.5C347.144 491.734 346.284 491.938 345.347 491.977L344.745 492C342.488 492.086 341.816 493.078 341.488 495.508H341.55C342.081 494.547 343.097 494.047 344.347 494.047C346.542 494.047 347.941 495.594 347.941 498.016C347.941 500.57 346.495 502.141 344.144 502.141ZM344.144 500.938C345.667 500.938 346.55 499.883 346.55 498.016C346.55 496.242 345.667 495.234 344.144 495.234C342.613 495.234 341.73 496.242 341.73 498.016C341.73 499.883 342.613 500.938 344.144 500.938ZM352.671 502.141C350.421 502.141 348.906 500.523 348.906 497.938C348.906 495.344 350.421 493.734 352.671 493.734C354.913 493.734 356.429 495.344 356.429 497.938C356.429 500.523 354.913 502.141 352.671 502.141ZM352.671 500.945C354.109 500.945 355.046 499.852 355.046 497.938C355.046 496.023 354.109 494.93 352.671 494.93C351.234 494.93 350.288 496.023 350.288 497.938C350.288 499.852 351.234 500.945 352.671 500.945ZM363.41 493.875V494.992H360.785V502H359.441V494.992H356.816V493.875H363.41ZM366.882 500.984C368.164 500.984 369.148 500.086 369.148 498.914V498.25L366.976 498.383C365.882 498.453 365.257 498.938 365.257 499.703C365.257 500.477 365.906 500.984 366.882 500.984ZM366.578 502.141C364.961 502.141 363.875 501.164 363.875 499.703C363.875 498.312 364.945 497.438 366.82 497.328L369.148 497.195V496.516C369.148 495.523 368.492 494.93 367.367 494.93C366.32 494.93 365.664 495.422 365.492 496.219H364.179C364.273 494.812 365.476 493.734 367.398 493.734C369.304 493.734 370.507 494.766 370.507 496.383V502H369.218V500.602H369.187C368.703 501.531 367.672 502.141 366.578 502.141ZM378.707 502.141C376.551 502.141 375.176 500.711 375.027 498.344H373.566V502H372.223V493.875H373.566V497.227H375.058C375.301 495.039 376.644 493.734 378.707 493.734C380.988 493.734 382.394 495.32 382.394 497.938C382.394 500.547 380.988 502.141 378.707 502.141ZM378.707 500.938C380.176 500.938 381.004 499.844 381.004 497.938C381.004 496.023 380.176 494.938 378.707 494.938C377.238 494.938 376.41 496.023 376.41 497.938C376.41 499.844 377.238 500.938 378.707 500.938ZM395.07 504.148H393.805V502H383.75V493.875H385.094V500.883H388.094V493.875H389.438V500.883H392.438V493.875H393.781V500.883H395.07V504.148ZM397.465 502H396.121V493.875H397.465V499.922H397.527L401.59 493.875H402.934V502H401.59V495.953H401.527L397.465 502ZM407.946 494.914C406.672 494.914 405.782 495.891 405.696 497.242H410.11C410.078 495.883 409.227 494.914 407.946 494.914ZM410.078 499.672H411.414C411.18 501.094 409.805 502.141 408.032 502.141C405.703 502.141 404.289 500.523 404.289 497.969C404.289 495.445 405.727 493.734 407.969 493.734C410.164 493.734 411.516 495.328 411.516 497.789V498.305H405.688V498.383C405.688 499.938 406.602 500.961 408.063 500.961C409.094 500.961 409.852 500.438 410.078 499.672ZM422.712 496.375H421.368C421.133 495.594 420.469 494.93 419.321 494.93C417.907 494.93 416.977 496.125 416.977 497.938C416.977 499.797 417.923 500.945 419.337 500.945C420.415 500.945 421.126 500.414 421.383 499.516H422.727C422.462 501.055 421.157 502.141 419.329 502.141C417.071 502.141 415.594 500.523 415.594 497.938C415.594 495.406 417.063 493.734 419.313 493.734C421.274 493.734 422.469 494.992 422.712 496.375ZM428.446 502H427.103V493.875H428.446V499.922H428.509L432.571 493.875H433.915V502H432.571V495.953H432.509L428.446 502ZM441.013 502V498.344H437.005V502H435.661V493.875H437.005V497.227H441.013V493.875H442.357V502H441.013ZM447.923 500.945V494.93C446.189 494.969 445.087 496.102 445.087 497.938C445.087 499.766 446.189 500.898 447.923 500.945ZM452.064 497.938C452.064 496.109 450.962 494.977 449.236 494.93V500.945C450.962 500.906 452.064 499.773 452.064 497.938ZM447.923 502.102C445.392 502.055 443.72 500.445 443.72 497.938C443.72 495.43 445.392 493.812 447.923 493.773V491.203H449.236V493.773C451.751 493.82 453.431 495.43 453.431 497.938C453.431 500.445 451.751 502.062 449.236 502.102V504.711H447.923V502.102ZM458.169 502.141C455.919 502.141 454.404 500.523 454.404 497.938C454.404 495.344 455.919 493.734 458.169 493.734C460.412 493.734 461.927 495.344 461.927 497.938C461.927 500.523 460.412 502.141 458.169 502.141ZM458.169 500.945C459.607 500.945 460.544 499.852 460.544 497.938C460.544 496.023 459.607 494.93 458.169 494.93C456.732 494.93 455.787 496.023 455.787 497.938C455.787 499.852 456.732 500.945 458.169 500.945ZM468.502 494.992H464.619V502H463.275V493.875H468.502V494.992ZM473.771 493.734C475.842 493.734 477.248 495.391 477.248 497.938C477.248 500.484 475.849 502.141 473.803 502.141C472.638 502.141 471.701 501.57 471.217 500.68H471.185V504.711H469.826V493.875H471.115V495.25H471.146C471.646 494.336 472.592 493.734 473.771 493.734ZM473.506 500.945C474.951 500.945 475.857 499.781 475.857 497.938C475.857 496.102 474.951 494.93 473.506 494.93C472.115 494.93 471.178 496.133 471.178 497.938C471.178 499.75 472.115 500.945 473.506 500.945ZM481.283 500.984C482.564 500.984 483.549 500.086 483.549 498.914V498.25L481.377 498.383C480.283 498.453 479.658 498.938 479.658 499.703C479.658 500.477 480.307 500.984 481.283 500.984ZM480.978 502.141C479.361 502.141 478.275 501.164 478.275 499.703C478.275 498.312 479.346 497.438 481.221 497.328L483.549 497.195V496.516C483.549 495.523 482.893 494.93 481.768 494.93C480.721 494.93 480.064 495.422 479.893 496.219H478.58C478.674 494.812 479.877 493.734 481.799 493.734C483.705 493.734 484.908 494.766 484.908 496.383V502H483.619V500.602H483.588C483.103 501.531 482.072 502.141 480.978 502.141ZM490.436 500.945V494.93C488.701 494.969 487.6 496.102 487.6 497.938C487.6 499.766 488.701 500.898 490.436 500.945ZM494.576 497.938C494.576 496.109 493.475 494.977 491.748 494.93V500.945C493.475 500.906 494.576 499.773 494.576 497.938ZM490.436 502.102C487.904 502.055 486.232 500.445 486.232 497.938C486.232 495.43 487.904 493.812 490.436 493.773V491.203H491.748V493.773C494.264 493.82 495.943 495.43 495.943 497.938C495.943 500.445 494.264 502.062 491.748 502.102V504.711H490.436V502.102ZM498.651 502H497.307V493.875H498.651V499.922H498.713L502.776 493.875H504.119V502H502.776V495.953H502.713L498.651 502ZM508.623 497.719L512.53 502H510.78L507.272 498.094H507.209V502H505.866V493.875H507.209V497.469H507.272L510.741 493.875H512.42L508.623 497.719ZM516.721 502.141C514.471 502.141 512.956 500.523 512.956 497.938C512.956 495.344 514.471 493.734 516.721 493.734C518.963 493.734 520.479 495.344 520.479 497.938C520.479 500.523 518.963 502.141 516.721 502.141ZM516.721 500.945C518.159 500.945 519.096 499.852 519.096 497.938C519.096 496.023 518.159 494.93 516.721 494.93C515.284 494.93 514.338 496.023 514.338 497.938C514.338 499.852 515.284 500.945 516.721 500.945ZM523.171 502H521.827V493.875H523.171V499.922H523.233L527.296 493.875H528.639V502H527.296V495.953H527.233L523.171 502ZM522.866 490.359H523.866C523.866 491.266 524.452 491.977 525.382 491.977C526.311 491.977 526.897 491.266 526.897 490.359H527.897C527.897 491.797 526.874 492.781 525.382 492.781C523.889 492.781 522.866 491.797 522.866 490.359Z" fill="black"/>
<rect x="542" y="480" width="96" height="32" rx="8" fill="#C3FF34"/>
<path d="M551.609 502V490.727H553.015V500.734H557.093V490.727H558.499V500.734H562.577V490.727H563.984V502H551.609ZM568.707 497.719L572.613 502H570.863L567.355 498.094H567.292V502H565.949V493.875H567.292V497.469H567.355L570.824 493.875H572.503L568.707 497.719ZM576.804 502.141C574.554 502.141 573.039 500.523 573.039 497.938C573.039 495.344 574.554 493.734 576.804 493.734C579.047 493.734 580.562 495.344 580.562 497.938C580.562 500.523 579.047 502.141 576.804 502.141ZM576.804 500.945C578.242 500.945 579.179 499.852 579.179 497.938C579.179 496.023 578.242 494.93 576.804 494.93C575.367 494.93 574.422 496.023 574.422 497.938C574.422 499.852 575.367 500.945 576.804 500.945ZM583.769 498.414C583.605 500.656 583.066 502.07 581.355 502.07C581.121 502.07 580.965 502.023 580.871 501.984V500.758C580.941 500.781 581.09 500.82 581.285 500.82C582.09 500.82 582.394 499.875 582.496 498.383L582.808 493.875H588.129V502H586.785V494.992H584.019L583.769 498.414ZM592.75 497.586H591.234V500.883H592.75C593.805 500.883 594.484 500.227 594.484 499.234C594.484 498.234 593.797 497.586 592.75 497.586ZM589.891 502V493.875H591.234V496.469H592.773C594.633 496.469 595.828 497.539 595.828 499.234C595.828 500.93 594.633 502 592.773 502H589.891ZM602.504 502V498.344H598.496V502H597.153V493.875H598.496V497.227H602.504V493.875H603.848V502H602.504ZM606.946 502H605.602V493.875H606.946V499.922H607.008L611.071 493.875H612.414V502H611.071V495.953H611.008L606.946 502ZM616.918 497.719L620.825 502H619.075L615.567 498.094H615.504V502H614.161V493.875H615.504V497.469H615.567L619.036 493.875H620.715L616.918 497.719ZM623.141 502H621.798V493.875H623.141V499.922H623.204L627.266 493.875H628.61V502H627.266V495.953H627.204L623.141 502Z" fill="black"/>
</g>
<defs>
<filter id="filter0_f_601_1750" x="606.538" y="-70.612" width="794.607" height="711.485" filterUnits="userSpaceOnUse" color-interpolation-filters="sRGB">
<feFlood flood-opacity="0" result="BackgroundImageFix"/>
<feBlend mode="normal" in="SourceGraphic" in2="BackgroundImageFix" result="shape"/>
<feGaussianBlur stdDeviation="75" result="effect1_foregroundBlur_601_1750"/>
</filter>
<clipPath id="clip0_601_1750">
<rect width="1336" height="552" rx="40" fill="white"/>
</clipPath>
</defs>
</svg>
