<svg width="20" height="18" viewBox="0 0 20 18" fill="none" xmlns="http://www.w3.org/2000/svg">
<path d="M10.125 12.3333V16.5M10.125 12.3333C12.9569 12.3333 14.2184 10.8959 14.7418 9M10.125 12.3333C7.22448 12.3333 5.97134 10.9092 5.4714 9M10.125 16.5H6.675M10.125 16.5H13.1437M14.975 3.58333C14.9615 3.38367 14.9479 3.18827 14.9353 2.99822C14.8801 2.17163 14.1972 1.5 13.3688 1.5H6.88126C6.05283 1.5 5.37369 2.17173 5.32248 2.99857C5.31063 3.18988 5.29781 3.38509 5.28482 3.58333M14.975 3.58333C15.0908 5.29766 15.2036 7.32729 14.7418 9M14.975 3.58333H16.8625H17.25C18.0784 3.58333 18.7768 4.25679 18.6968 5.08134C18.5251 6.84916 17.8003 9 14.7418 9M5.28482 3.58333H3C2.17157 3.58333 1.48065 4.2579 1.5897 5.07912C1.82451 6.84736 2.65075 9 5.4714 9M5.28482 3.58333C5.16916 5.34835 5.04048 7.35437 5.4714 9" stroke="black" stroke-width="1.5" stroke-linecap="round" stroke-linejoin="round"/>
</svg>
