<svg width="103" height="54" viewBox="0 0 103 54" fill="none" xmlns="http://www.w3.org/2000/svg">
<g filter="url(#filter0_b_739_1127)">
<path fill-rule="evenodd" clip-rule="evenodd" d="M18.0313 0C8.44127 0 0.666992 7.77427 0.666992 17.3643V35.969C0.666992 45.5591 8.44129 53.3333 18.0314 53.3333H84.7576C94.3476 53.3333 102.122 45.5591 102.122 35.969V17.3643C102.122 7.77428 94.3476 0 84.7576 0H18.0313ZM16.902 42.2164H19.9609C17.649 37.9406 15.7994 33.1348 15.7994 26.5974C15.7994 20.2014 17.649 15.3956 19.9609 11.1198H16.902C14.2344 14.6889 11.958 20.2014 11.958 26.5974C11.958 33.2055 14.2344 38.6474 16.902 42.2164ZM86.0584 42.2164H82.9995C85.3115 37.9406 87.1611 33.1348 87.1611 26.5974C87.1611 20.2014 85.3115 15.3956 82.9995 11.1198H86.0584C88.7261 14.6889 91.0025 20.2014 91.0025 26.5974C91.0025 33.2055 88.7261 38.6474 86.0584 42.2164ZM20.3709 36.3858H24.4257L29.2275 29.4951H29.2986L34.2071 36.3858H38.2975L31.3971 27.1628L37.6217 18.3639H33.638L29.3697 24.7953H29.2986L24.9592 18.3639H20.9755L27.2 27.1628L20.3709 36.3858ZM42.7188 36.3858H39.2331V11.1198H42.7188V36.3858ZM43.6795 36.3858H47.7343L52.5361 29.4951H52.6072L57.5157 36.3858H61.6061L54.7057 27.1628L60.9303 18.3639H56.9466L52.6783 24.7953H52.6072L48.2678 18.3639H44.2841L50.5086 27.1628L43.6795 36.3858ZM69.1005 36.8805C63.5874 36.8805 60.8486 34.0536 60.7419 30.3785H64.2632C64.4054 32.4634 65.6859 34.0889 69.0649 34.0889C72.1238 34.0889 72.9419 32.7461 72.9419 31.4386C72.9419 29.3914 70.96 28.9947 68.843 28.5709C68.6214 28.5265 68.3982 28.4819 68.1757 28.435C65.0101 27.6929 61.3821 26.7741 61.3821 23.0284C61.3821 19.9187 63.9075 17.8339 68.2824 17.8339C73.262 17.8339 75.6451 20.4841 75.8941 23.5938H72.3728C72.1238 22.2156 71.3769 20.6255 68.3536 20.6255C66.006 20.6255 65.0101 21.5442 65.0101 22.8871C65.0101 24.5429 66.5949 24.8729 68.7321 25.3179L68.7322 25.3179L68.7323 25.3179L68.7324 25.3179C69.0124 25.3762 69.3018 25.4365 69.5985 25.502C72.9419 26.2794 76.5699 27.2335 76.5699 31.2619C76.5699 34.7603 73.8667 36.8805 69.1005 36.8805ZM79.2609 23.3292H83.1379V19.4775H79.2609V23.3292ZM79.2609 34.1424H83.1379V30.2906H79.2609V34.1424Z" fill="black"/>
</g>
<defs>
<filter id="filter0_b_739_1127" x="-221.466" y="-222.133" width="545.722" height="497.6" filterUnits="userSpaceOnUse" color-interpolation-filters="sRGB">
<feFlood flood-opacity="0" result="BackgroundImageFix"/>
<feGaussianBlur in="BackgroundImageFix" stdDeviation="111.067"/>
<feComposite in2="SourceAlpha" operator="in" result="effect1_backgroundBlur_739_1127"/>
<feBlend mode="normal" in="SourceGraphic" in2="effect1_backgroundBlur_739_1127" result="shape"/>
</filter>
</defs>
</svg>
