<svg width="364" height="51" viewBox="0 0 364 51" fill="none" xmlns="http://www.w3.org/2000/svg">
<rect width="364" height="51" rx="11.25" fill="#FFD7F0"/>
<path d="M83.094 31.5H77.694V23.22H70.476V31.5H65.076V19.26H83.094V31.5ZM101.498 23.904C101.498 27.252 99.4097 28.368 95.2157 28.368H89.6537V31.5H84.2537V19.26H95.2157C99.4097 19.26 101.498 20.376 101.498 23.724V23.904ZM96.0977 23.832V23.796C96.0977 23.058 95.5577 22.86 94.6217 22.86H89.6537V24.768H94.6217C95.5577 24.768 96.0977 24.57 96.0977 23.832ZM102.197 25.524V25.236C102.197 20.844 105.437 19.08 111.773 19.08H112.349C118.685 19.08 121.925 20.844 121.925 25.236V25.524C121.925 29.916 118.685 31.68 112.349 31.68H111.773C105.437 31.68 102.197 29.916 102.197 25.524ZM107.777 25.452C107.777 27.342 109.199 28.08 111.719 28.08H112.403C114.923 28.08 116.345 27.342 116.345 25.452V25.308C116.345 23.418 114.923 22.68 112.403 22.68H111.719C109.199 22.68 107.777 23.418 107.777 25.308V25.452ZM122.89 31.5V19.26H130.504L134.068 26.586L137.578 19.26H145.192V31.5H139.882V24.282L136.336 31.5H131.656L128.11 24.282V31.5H122.89ZM146.16 25.524V25.236C146.16 20.844 149.4 19.08 155.736 19.08H156.312C162.648 19.08 165.888 20.844 165.888 25.236V25.524C165.888 29.916 162.648 31.68 156.312 31.68H155.736C149.4 31.68 146.16 29.916 146.16 25.524ZM151.74 25.452C151.74 27.342 153.162 28.08 155.682 28.08H156.366C158.886 28.08 160.308 27.342 160.308 25.452V25.308C160.308 23.418 158.886 22.68 156.366 22.68H155.682C153.162 22.68 151.74 23.418 151.74 25.308V25.452ZM189.371 31.5H183.971V23.22H176.753V31.5H171.353V19.26H189.371V31.5ZM207.775 23.904C207.775 27.252 205.687 28.368 201.493 28.368H195.931V31.5H190.531V19.26H201.493C205.687 19.26 207.775 20.376 207.775 23.724V23.904ZM202.375 23.832V23.796C202.375 23.058 201.835 22.86 200.899 22.86H195.931V24.768H200.899C201.835 24.768 202.375 24.57 202.375 23.832ZM208.474 25.524V25.236C208.474 20.844 211.714 19.08 218.05 19.08H218.626C224.962 19.08 228.202 20.844 228.202 25.236V25.524C228.202 29.916 224.962 31.68 218.626 31.68H218.05C211.714 31.68 208.474 29.916 208.474 25.524ZM214.054 25.452C214.054 27.342 215.476 28.08 217.996 28.08H218.68C221.2 28.08 222.622 27.342 222.622 25.452V25.308C222.622 23.418 221.2 22.68 218.68 22.68H217.996C215.476 22.68 214.054 23.418 214.054 25.308V25.452ZM229.168 31.5V19.26H245.008V22.86H234.568V24.03H243.46V26.73H234.568V27.9H245.008V31.5H229.168ZM256.43 31.5L251.408 25.542V31.5H246.008V19.26H251.408V24.606L256.592 19.26H263.342L257.042 25.002L263.306 31.5H256.43ZM263.439 19.26H281.655V23.22H275.247V31.5H269.847V23.22H263.439V19.26ZM293.314 31.5L292.234 29.466H285.484L284.404 31.5H278.896L285.898 19.26H292.108L299.11 31.5H293.314ZM288.868 23.094L287.212 26.226H290.524L288.868 23.094Z" fill="#FE6B1B"/>
</svg>
