<svg width="48" height="48" viewBox="0 0 48 48" fill="none" xmlns="http://www.w3.org/2000/svg">
<path fill-rule="evenodd" clip-rule="evenodd" d="M22.5444 15C18.3778 15 15 18.3777 15 22.5444C15 26.7111 18.3778 30.0888 22.5444 30.0888C24.1885 30.0888 25.7098 29.5629 26.9492 28.6701L32.2791 34L34 32.2791L28.6701 26.9493C29.5629 25.7099 30.0889 24.1885 30.0889 22.5444C30.0889 18.3777 26.7111 15 22.5444 15ZM17.4337 22.5444C17.4337 19.7218 19.7218 17.4337 22.5444 17.4337C25.367 17.4337 27.6552 19.7218 27.6552 22.5444C27.6552 25.367 25.367 27.6551 22.5444 27.6551C19.7218 27.6551 17.4337 25.367 17.4337 22.5444Z" fill="white"/>
</svg>
