<svg width="1338" height="100" viewBox="0 0 1338 100" fill="none" xmlns="http://www.w3.org/2000/svg">
<rect width="1338" height="100" rx="24" fill="white"/>
<path opacity="0.5" d="M40.448 41.96H40.896C46.544 41.96 49.024 43.496 49.024 47.464V47.656C49.024 51.624 46.544 53.16 40.896 53.16H40.448C34.8 53.16 32.32 51.624 32.32 47.656V47.464C32.32 43.496 34.8 41.96 40.448 41.96ZM40.544 45.16C38.448 45.16 37.28 45.816 37.28 47.512V47.608C37.28 49.288 38.448 49.96 40.544 49.96H40.8C42.896 49.96 44.064 49.288 44.064 47.608V47.512C44.064 45.816 42.896 45.16 40.8 45.16H40.544ZM64.9118 49.64V53H49.5038V50.952C49.5038 48.136 51.2318 47.064 54.9278 46.712L58.8638 46.344C59.6318 46.28 60.0158 46.136 60.0158 45.768V45.736C60.0158 45.352 59.6158 45.16 57.7918 45.16H57.5518C55.7758 45.16 54.8318 45.4 54.6718 46.056L54.6558 46.12H49.6158L49.6318 45.928C49.8718 43.096 51.9998 41.96 57.1198 41.96H57.8078C63.0878 41.96 65.0078 43.08 65.0078 45.112V45.224C65.0078 47.352 63.8078 48.184 59.5198 48.6L55.6958 48.968C54.5438 49.08 53.9838 49.192 53.9358 49.64H64.9118Z" fill="black"/>
<path d="M97.7344 61H94.2344V38.4531H97.7344V48.1406H98.6094L107.016 38.4531H111.188L101.547 49.1875L112.125 61H107.594L98.6094 50.8906H97.7344V61ZM118.227 61.2969C114.946 61.2969 112.743 59.2812 112.743 56.3281V56.2969C112.743 53.4375 114.961 51.6875 118.852 51.4531L123.336 51.1875V49.9531C123.336 48.1406 122.149 47.0469 120.055 47.0469C118.102 47.0469 116.899 47.9688 116.618 49.2812L116.586 49.4219H113.399L113.414 49.25C113.649 46.4219 116.102 44.25 120.149 44.25C124.164 44.25 126.711 46.375 126.711 49.6719V61H123.336V58.4062H123.258C122.305 60.1719 120.414 61.2969 118.227 61.2969ZM116.149 56.25C116.149 57.6875 117.336 58.5938 119.149 58.5938C121.524 58.5938 123.336 56.9844 123.336 54.8438V53.5625L119.305 53.8125C117.274 53.9375 116.149 54.8281 116.149 56.2188V56.25ZM133.923 53.6719H133.329V61H129.954V44.5625H133.329V51.3438H133.923L139.876 44.5625H143.86L136.938 52.2812L144.141 61H139.969L133.923 53.6719ZM152.189 66.4688V44.5625H155.564V47.3906H155.642C156.626 45.4375 158.439 44.25 160.783 44.25C164.97 44.25 167.658 47.5312 167.658 52.7812V52.7969C167.658 58.0312 164.954 61.3281 160.829 61.3281C158.501 61.3281 156.611 60.1406 155.642 58.2344H155.564V66.4688H152.189ZM159.908 58.4219C162.564 58.4219 164.22 56.2656 164.22 52.7969V52.7812C164.22 49.2812 162.564 47.1406 159.908 47.1406C157.345 47.1406 155.548 49.3594 155.548 52.7812V52.7969C155.548 56.2031 157.361 58.4219 159.908 58.4219ZM175.072 61.2969C171.791 61.2969 169.588 59.2812 169.588 56.3281V56.2969C169.588 53.4375 171.806 51.6875 175.697 51.4531L180.181 51.1875V49.9531C180.181 48.1406 178.994 47.0469 176.9 47.0469C174.947 47.0469 173.744 47.9688 173.463 49.2812L173.431 49.4219H170.244L170.259 49.25C170.494 46.4219 172.947 44.25 176.994 44.25C181.009 44.25 183.556 46.375 183.556 49.6719V61H180.181V58.4062H180.103C179.15 60.1719 177.259 61.2969 175.072 61.2969ZM172.994 56.25C172.994 57.6875 174.181 58.5938 175.994 58.5938C178.369 58.5938 180.181 56.9844 180.181 54.8438V53.5625L176.15 53.8125C174.119 53.9375 172.994 54.8281 172.994 56.2188V56.25ZM192.721 61.3281C188.877 61.3281 186.236 59.4844 185.908 56.5781L185.893 56.4375H189.205L189.252 56.5938C189.627 57.9219 190.846 58.6406 192.705 58.6406C194.783 58.6406 196.064 57.7188 196.064 56.2188V56.1875C196.064 54.6094 194.971 53.8594 192.689 53.8594H190.314V51.4062H192.674C194.658 51.4062 195.674 50.6562 195.674 49.1875V49.1562C195.674 47.75 194.611 46.9219 192.83 46.9219C191.064 46.9219 189.83 47.6875 189.58 48.9375L189.564 49.0469H186.346L186.361 48.9219C186.752 46 189.174 44.25 192.877 44.25C196.658 44.25 198.971 45.9844 198.971 48.7969V48.8281C198.971 50.5938 197.83 51.9844 196.064 52.3906V52.5156C198.236 52.9531 199.424 54.2656 199.424 56.1875V56.2188C199.424 59.2812 196.752 61.3281 192.721 61.3281ZM209.135 61.3281C204.416 61.3281 201.338 58.0625 201.338 52.7812V52.75C201.338 47.5 204.463 44.25 209.135 44.25C213.807 44.25 216.932 47.4844 216.932 52.75V52.7812C216.932 58.0781 213.838 61.3281 209.135 61.3281ZM209.151 58.5C211.791 58.5 213.494 56.4062 213.494 52.7812V52.75C213.494 49.1562 211.76 47.0781 209.135 47.0781C206.526 47.0781 204.791 49.1562 204.791 52.75V52.7812C204.791 56.4219 206.51 58.5 209.151 58.5ZM226.815 61.3281C221.674 61.3281 218.909 57.9688 218.909 51.5V51.4688C218.909 42.375 221.565 38.7031 227.799 38.4688L229.268 38.4219C230.956 38.3594 232.643 38.0625 233.565 37.6094V40.4062C233.018 40.8438 231.346 41.2031 229.456 41.2656L228.018 41.3281C223.706 41.4844 222.299 43.3906 221.659 47.875L221.628 48.0938H221.706C222.768 46.1406 224.768 45.0938 227.362 45.0938C231.799 45.0938 234.643 48.1719 234.643 52.9688V53C234.643 58.1562 231.659 61.3281 226.815 61.3281ZM226.784 58.5C229.565 58.5 231.19 56.5312 231.19 53.0469V53.0156C231.19 49.7188 229.565 47.8594 226.784 47.8594C223.987 47.8594 222.362 49.7188 222.362 53.0156V53.0469C222.362 56.5312 223.971 58.5 226.784 58.5ZM237.245 66.4688V44.5625H240.62V47.3906H240.698C241.682 45.4375 243.495 44.25 245.839 44.25C250.026 44.25 252.714 47.5312 252.714 52.7812V52.7969C252.714 58.0312 250.011 61.3281 245.886 61.3281C243.557 61.3281 241.667 60.1406 240.698 58.2344H240.62V66.4688H237.245ZM244.964 58.4219C247.62 58.4219 249.276 56.2656 249.276 52.7969V52.7812C249.276 49.2812 247.62 47.1406 244.964 47.1406C242.401 47.1406 240.604 49.3594 240.604 52.7812V52.7969C240.604 56.2031 242.417 58.4219 244.964 58.4219ZM260.128 61.2969C256.847 61.2969 254.644 59.2812 254.644 56.3281V56.2969C254.644 53.4375 256.863 51.6875 260.753 51.4531L265.238 51.1875V49.9531C265.238 48.1406 264.05 47.0469 261.956 47.0469C260.003 47.0469 258.8 47.9688 258.519 49.2812L258.488 49.4219H255.3L255.316 49.25C255.55 46.4219 258.003 44.25 262.05 44.25C266.066 44.25 268.613 46.375 268.613 49.6719V61H265.238V58.4062H265.159C264.206 60.1719 262.316 61.2969 260.128 61.2969ZM258.05 56.25C258.05 57.6875 259.238 58.5938 261.05 58.5938C263.425 58.5938 265.238 56.9844 265.238 54.8438V53.5625L261.206 53.8125C259.175 53.9375 258.05 54.8281 258.05 56.2188V56.25ZM284.105 44.5625V47.25H278.964V61H275.574V47.25H270.433V44.5625H284.105ZM286.254 61V44.5625H289.629V49.6406H292.754C296.551 49.6406 299.004 51.8438 299.004 55.2969V55.3281C299.004 58.7969 296.551 61 292.754 61H286.254ZM292.426 52.3125H289.629V58.3281H292.426C294.348 58.3281 295.551 57.1406 295.551 55.3281V55.2969C295.551 53.4844 294.332 52.3125 292.426 52.3125ZM308.559 61.3281C303.762 61.3281 300.762 58.0312 300.762 52.7656V52.75C300.762 47.5469 303.824 44.25 308.527 44.25C312.746 44.25 315.309 46.9688 315.59 50.0625L315.606 50.1719H312.387L312.356 50.0469C311.996 48.4375 310.746 47.0781 308.543 47.0781C305.918 47.0781 304.215 49.2656 304.215 52.7812V52.7969C304.215 56.3906 305.949 58.5 308.574 58.5C310.652 58.5 311.965 57.2969 312.371 55.5156L312.402 55.3906H315.637L315.621 55.5C315.262 58.7969 312.512 61.3281 308.559 61.3281ZM327.27 61V55.3594H324.629L320.661 61H316.817L321.301 54.7812C319.02 54.1094 317.614 52.4062 317.614 50.125V50.0938C317.614 46.6875 320.114 44.5625 323.958 44.5625H330.629V61H327.27ZM324.129 52.75H327.27V47.2344H324.129C322.208 47.2344 321.036 48.2969 321.036 50.0781V50.1094C321.036 51.6562 322.223 52.75 324.129 52.75ZM347.161 61.3281C342.364 61.3281 339.364 58.0312 339.364 52.7656V52.75C339.364 47.5469 342.427 44.25 347.13 44.25C351.349 44.25 353.911 46.9688 354.193 50.0625L354.208 50.1719H350.989L350.958 50.0469C350.599 48.4375 349.349 47.0781 347.146 47.0781C344.521 47.0781 342.818 49.2656 342.818 52.7812V52.7969C342.818 56.3906 344.552 58.5 347.177 58.5C349.255 58.5 350.568 57.2969 350.974 55.5156L351.005 55.3906H354.239L354.224 55.5C353.864 58.7969 351.114 61.3281 347.161 61.3281ZM363.654 61.3281C358.935 61.3281 355.857 58.0625 355.857 52.7812V52.75C355.857 47.5 358.982 44.25 363.654 44.25C368.326 44.25 371.451 47.4844 371.451 52.75V52.7812C371.451 58.0781 368.357 61.3281 363.654 61.3281ZM363.669 58.5C366.31 58.5 368.013 56.4062 368.013 52.7812V52.75C368.013 49.1562 366.279 47.0781 363.654 47.0781C361.044 47.0781 359.31 49.1562 359.31 52.75V52.7812C359.31 56.4219 361.029 58.5 363.669 58.5ZM380.201 61V44.5625H387.67C390.873 44.5625 392.811 46.1719 392.811 48.7812V48.8125C392.811 50.5156 391.592 52.0625 390.014 52.3594V52.4844C392.139 52.7656 393.545 54.2344 393.545 56.25V56.2812C393.545 59.1562 391.326 61 387.764 61H380.201ZM383.545 51.3438H386.623C388.529 51.3438 389.467 50.6406 389.467 49.1875V49.1562C389.467 47.7969 388.592 47.0625 386.967 47.0625H383.545V51.3438ZM383.545 58.5H387.139C389.045 58.5 390.076 57.7031 390.076 56.1406V56.1094C390.076 54.5312 388.967 53.7969 386.748 53.7969H383.545V58.5ZM403.288 61.3281C398.491 61.3281 395.491 58.0312 395.491 52.7656V52.75C395.491 47.5469 398.553 44.25 403.256 44.25C407.475 44.25 410.038 46.9688 410.319 50.0625L410.334 50.1719H407.116L407.084 50.0469C406.725 48.4375 405.475 47.0781 403.272 47.0781C400.647 47.0781 398.944 49.2656 398.944 52.7812V52.7969C398.944 56.3906 400.678 58.5 403.303 58.5C405.381 58.5 406.694 57.2969 407.1 55.5156L407.131 55.3906H410.366L410.35 55.5C409.991 58.7969 407.241 61.3281 403.288 61.3281ZM419.733 61.3281C414.905 61.3281 411.983 58.0312 411.983 52.8438V52.8281C411.983 47.6875 414.952 44.25 419.561 44.25C424.171 44.25 426.999 47.5625 426.999 52.5V53.6406H415.358C415.421 56.75 417.124 58.5625 419.811 58.5625C421.811 58.5625 423.139 57.5312 423.561 56.2969L423.608 56.1719H426.827L426.78 56.3438C426.264 58.9531 423.717 61.3281 419.733 61.3281ZM419.577 47.0156C417.389 47.0156 415.717 48.5 415.405 51.25H423.655C423.389 48.4062 421.78 47.0156 419.577 47.0156ZM432.866 61H429.585V44.5625H433.851L439.085 56.6094H439.21L444.491 44.5625H448.647V61H445.351V49.5938H445.241L440.335 60.3594H437.866L432.976 49.5938H432.866V61ZM451.953 61V44.5625H455.296V56.0625H455.453L462.999 44.5625H466.328V61H462.968V49.4531H462.828L455.281 61H451.953ZM475.812 61V44.5625H483.281C486.484 44.5625 488.422 46.1719 488.422 48.7812V48.8125C488.422 50.5156 487.203 52.0625 485.625 52.3594V52.4844C487.75 52.7656 489.156 54.2344 489.156 56.25V56.2812C489.156 59.1562 486.938 61 483.375 61H475.812ZM479.156 51.3438H482.234C484.141 51.3438 485.078 50.6406 485.078 49.1875V49.1562C485.078 47.7969 484.203 47.0625 482.578 47.0625H479.156V51.3438ZM479.156 58.5H482.75C484.656 58.5 485.688 57.7031 485.688 56.1406V56.1094C485.688 54.5312 484.578 53.7969 482.359 53.7969H479.156V58.5ZM491.836 61V44.5625H495.18V56.0625H495.336L502.883 44.5625H506.211V61H502.852V49.4531H502.711L495.164 61H491.836ZM511.126 65.4531H508.001V58.2969H509.329C510.532 57.5469 511.079 55.5938 511.235 53.375L511.829 44.5625H523.813V58.2969H526.36V65.4531H523.251V61H511.126V65.4531ZM520.422 58.2969V47.2656H514.735L514.282 53.5156C514.157 55.4844 513.751 57.1406 512.954 58.2188V58.2969H520.422ZM533.181 61.2969C529.899 61.2969 527.696 59.2812 527.696 56.3281V56.2969C527.696 53.4375 529.915 51.6875 533.806 51.4531L538.29 51.1875V49.9531C538.29 48.1406 537.103 47.0469 535.009 47.0469C533.056 47.0469 531.853 47.9688 531.571 49.2812L531.54 49.4219H528.353L528.368 49.25C528.603 46.4219 531.056 44.25 535.103 44.25C539.118 44.25 541.665 46.375 541.665 49.6719V61H538.29V58.4062H538.212C537.259 60.1719 535.368 61.2969 533.181 61.2969ZM531.103 56.25C531.103 57.6875 532.29 58.5938 534.103 58.5938C536.478 58.5938 538.29 56.9844 538.29 54.8438V53.5625L534.259 53.8125C532.228 53.9375 531.103 54.8281 531.103 56.2188V56.25ZM548.189 61H544.908V44.5625H549.173L554.408 56.6094H554.533L559.814 44.5625H563.97V61H560.673V49.5938H560.564L555.658 60.3594H553.189L548.298 49.5938H548.189V61ZM567.275 61V44.5625H570.619V56.0625H570.775L578.322 44.5625H581.65V61H578.291V49.4531H578.15L570.603 61H567.275ZM592.744 65.4531H589.619V58.2969H590.948C592.151 57.5469 592.698 55.5938 592.854 53.375L593.448 44.5625H605.432V58.2969H607.979V65.4531H604.869V61H592.744V65.4531ZM602.041 58.2969V47.2656H596.354L595.901 53.5156C595.776 55.4844 595.369 57.1406 594.573 58.2188V58.2969H602.041ZM609.971 61V44.5625H613.315V56.0625H613.471L621.018 44.5625H624.346V61H620.987V49.4531H620.846L613.299 61H609.971ZM632.479 61.2969C629.198 61.2969 626.995 59.2812 626.995 56.3281V56.2969C626.995 53.4375 629.214 51.6875 633.104 51.4531L637.589 51.1875V49.9531C637.589 48.1406 636.401 47.0469 634.307 47.0469C632.354 47.0469 631.151 47.9688 630.87 49.2812L630.839 49.4219H627.651L627.667 49.25C627.901 46.4219 630.354 44.25 634.401 44.25C638.417 44.25 640.964 46.375 640.964 49.6719V61H637.589V58.4062H637.511C636.557 60.1719 634.667 61.2969 632.479 61.2969ZM630.401 56.25C630.401 57.6875 631.589 58.5938 633.401 58.5938C635.776 58.5938 637.589 56.9844 637.589 54.8438V53.5625L633.557 53.8125C631.526 53.9375 630.401 54.8281 630.401 56.2188V56.25ZM655.097 47.25H647.581V61H644.206V44.5625H655.097V47.25ZM657.605 66.4688V44.5625H660.98V47.3906H661.058C662.042 45.4375 663.855 44.25 666.199 44.25C670.386 44.25 673.074 47.5312 673.074 52.7812V52.7969C673.074 58.0312 670.371 61.3281 666.246 61.3281C663.917 61.3281 662.027 60.1406 661.058 58.2344H660.98V66.4688H657.605ZM665.324 58.4219C667.98 58.4219 669.636 56.2656 669.636 52.7969V52.7812C669.636 49.2812 667.98 47.1406 665.324 47.1406C662.761 47.1406 660.964 49.3594 660.964 52.7812V52.7969C660.964 56.2031 662.777 58.4219 665.324 58.4219ZM680.488 61.2969C677.207 61.2969 675.004 59.2812 675.004 56.3281V56.2969C675.004 53.4375 677.222 51.6875 681.113 51.4531L685.597 51.1875V49.9531C685.597 48.1406 684.41 47.0469 682.316 47.0469C680.363 47.0469 679.16 47.9688 678.879 49.2812L678.847 49.4219H675.66L675.676 49.25C675.91 46.4219 678.363 44.25 682.41 44.25C686.426 44.25 688.972 46.375 688.972 49.6719V61H685.597V58.4062H685.519C684.566 60.1719 682.676 61.2969 680.488 61.2969ZM678.41 56.25C678.41 57.6875 679.597 58.5938 681.41 58.5938C683.785 58.5938 685.597 56.9844 685.597 54.8438V53.5625L681.566 53.8125C679.535 53.9375 678.41 54.8281 678.41 56.2188V56.25ZM695.496 61H692.215V44.5625H696.481L701.715 56.6094H701.84L707.121 44.5625H711.278V61H707.981V49.5938H707.871L702.965 60.3594H700.496L695.606 49.5938H695.496V61ZM717.864 61H714.583V44.5625H718.848L724.083 56.6094H724.208L729.489 44.5625H733.645V61H730.348V49.5938H730.239L725.333 60.3594H722.864L717.973 49.5938H717.864V61ZM740.888 53.9219L740.872 52.6719C740.825 50.5469 741.747 49.1406 743.888 47.8594C745.778 46.7188 746.45 45.8125 746.45 44.2188V44.2031C746.45 42.4219 745.044 41.1406 742.919 41.1406C740.763 41.1406 739.419 42.4531 739.247 44.3594L739.231 44.5H735.997L736.013 44.3125C736.216 40.9531 738.559 38.2656 743.091 38.2656C747.2 38.2656 749.997 40.7031 749.997 44.0625V44.0781C749.997 46.4844 748.778 48.1875 746.716 49.4219C744.7 50.6094 744.122 51.4531 744.122 53.0312V53.9219H740.888ZM742.528 61.1719C741.388 61.1719 740.481 60.2812 740.481 59.1406C740.481 58 741.388 57.125 742.528 57.125C743.7 57.125 744.591 58 744.591 59.1406C744.591 60.2812 743.7 61.1719 742.528 61.1719Z" fill="black"/>
</svg>
