<svg width="108" height="57" viewBox="0 0 108 57" fill="none" xmlns="http://www.w3.org/2000/svg">
<path fill-rule="evenodd" clip-rule="evenodd" d="M17.5266 0C7.84694 0 0 7.84695 0 17.5266V39.2474C0 48.927 7.84694 56.774 17.5266 56.774H90.4734C100.153 56.774 108 48.927 108 39.2473V17.5266C108 7.84694 100.153 0 90.4734 0H17.5266ZM17.2824 44.9398H20.5387C18.0776 40.3882 16.1087 35.2723 16.1087 28.3132C16.1087 21.5046 18.0776 16.3887 20.5387 11.8371H17.2824C14.4427 15.6364 12.0194 21.5046 12.0194 28.3132C12.0194 35.3476 14.4427 41.1406 17.2824 44.9398ZM90.9003 44.9398H87.644C90.1051 40.3882 92.074 35.2723 92.074 28.3132C92.074 21.5046 90.1051 16.3887 87.644 11.8371H90.9003C93.74 15.6364 96.1633 21.5046 96.1633 28.3132C96.1633 35.3476 93.74 41.1406 90.9003 44.9398ZM20.975 38.7331H25.2915L30.403 31.3978H30.4787L35.7039 38.7331H40.0582L32.7127 28.9151L39.3387 19.5485H35.0981L30.5545 26.3948H30.4787L25.8594 19.5485H21.6187L28.2448 28.9151L20.975 38.7331ZM44.7647 38.7331H41.0541V11.8371H44.7647V38.7331ZM45.7873 38.7331H50.1038L55.2153 31.3978H55.291L60.5162 38.7331H64.8704L57.525 28.9151L64.151 19.5485H59.9103L55.3668 26.3948H55.291L50.6717 19.5485H46.431L53.0571 28.9151L45.7873 38.7331ZM72.8484 39.2597C66.9795 39.2597 64.0641 36.2504 63.9505 32.3382H67.6989C67.8504 34.5576 69.2135 36.288 72.8105 36.288C76.0667 36.288 76.9376 34.8586 76.9376 33.4667C76.9376 31.2875 74.8278 30.8651 72.5743 30.414C72.3383 30.3668 72.1008 30.3192 71.8639 30.2693C68.4941 29.4794 64.632 28.5013 64.632 24.514C64.632 21.2037 67.3203 18.9843 71.9775 18.9843C77.2784 18.9843 79.8152 21.8055 80.0802 25.1158H76.3318C76.0667 23.6488 75.2716 21.956 72.0532 21.956C69.5542 21.956 68.4941 22.9341 68.4941 24.3635C68.4941 26.1262 70.1811 26.4774 72.4561 26.9511C72.7543 27.0132 73.0626 27.0774 73.3784 27.1471C76.9376 27.9747 80.7997 28.9903 80.7997 33.2787C80.7997 37.0027 77.922 39.2597 72.8484 39.2597ZM83.6643 24.8342H87.7914V20.734H83.6643V24.8342ZM83.6643 36.3449H87.7914V32.2447H83.6643V36.3449Z" fill="#161616"/>
</svg>
