<svg width="62" height="32" viewBox="0 0 62 32" fill="none" xmlns="http://www.w3.org/2000/svg">
<path fill-rule="evenodd" clip-rule="evenodd" d="M10.4422 0C4.98631 0 0.563477 4.42284 0.563477 9.87868V22.1213C0.563477 27.5772 4.98631 32 10.4422 32H51.5577C57.0136 32 61.4364 27.5772 61.4364 22.1213V9.87868C61.4364 4.42284 57.0136 0 51.5577 0H10.4422ZM10.3046 25.3292H12.1399C10.7527 22.7637 9.643 19.8802 9.643 15.9578C9.643 12.1202 10.7527 9.23666 12.1399 6.67119H10.3046C8.70398 8.81262 7.33815 12.1202 7.33815 15.9578C7.33815 19.9226 8.70398 23.1877 10.3046 25.3292ZM51.7984 25.3292H49.9631C51.3503 22.7637 52.46 19.8802 52.46 15.9578C52.46 12.1202 51.3503 9.23666 49.9631 6.67119H51.7984C53.399 8.81262 54.7649 12.1202 54.7649 15.9578C54.7649 19.9226 53.399 23.1877 51.7984 25.3292ZM12.3859 21.8308H14.8188L17.6998 17.6964H17.7425L20.6876 21.8308H23.1418L19.0017 16.297L22.7364 11.0176H20.3462L17.7852 14.8765H17.7425L15.1389 11.0176H12.7487L16.4834 16.297L12.3859 21.8308ZM25.7947 21.8308H23.7032V6.67119H25.7947V21.8308ZM26.371 21.8308H28.8039L31.685 17.6964H31.7277L34.6728 21.8308H37.127L32.9868 16.297L36.7215 11.0176H34.3313L31.7704 14.8765H31.7277L29.1241 11.0176H26.7338L30.4686 16.297L26.371 21.8308ZM41.6237 22.1276C38.3158 22.1276 36.6725 20.4314 36.6085 18.2264H38.7213C38.8066 19.4773 39.5749 20.4526 41.6023 20.4526C43.4377 20.4526 43.9285 19.647 43.9285 18.8625C43.9285 17.6342 42.7394 17.3961 41.4692 17.1418C41.3362 17.1152 41.2023 17.0884 41.0688 17.0603C39.1694 16.615 36.9926 16.0638 36.9926 13.8163C36.9926 11.9505 38.5079 10.6996 41.1328 10.6996C44.1206 10.6996 45.5504 12.2898 45.6998 14.1556H43.5871C43.4377 13.3287 42.9895 12.3746 41.1755 12.3746C39.767 12.3746 39.1694 12.9259 39.1694 13.7315C39.1694 14.725 40.1203 14.923 41.4026 15.19L41.4027 15.19L41.4035 15.1902L41.4037 15.1903C41.5714 15.2252 41.7448 15.2613 41.9224 15.3005C43.9285 15.767 46.1053 16.3394 46.1053 18.7565C46.1053 20.8555 44.4834 22.1276 41.6237 22.1276ZM47.7199 13.9968H50.0461V11.6858H47.7199V13.9968ZM47.7199 20.4847H50.0461V18.1737H47.7199V20.4847Z" fill="#161616"/>
</svg>
