<svg width="429" height="168" viewBox="0 0 429 168" fill="none" xmlns="http://www.w3.org/2000/svg">
<path d="M0 24C0 10.7452 10.7452 0 24 0H404.667C417.921 0 428.667 10.7452 428.667 24V144C428.667 157.255 417.921 168 404.667 168H24C10.7452 168 0 157.255 0 144V24Z" fill="#C3FF34"/>
<path d="M146.303 88H83.423V55.36H97.823V77.44H107.663V55.36H122.063V77.44H131.903V55.36H146.303V88ZM196.944 88H182.544V65.92H163.296V88H148.896V55.36H196.944V88ZM199.077 72.064V71.296C199.077 59.584 207.717 54.88 224.613 54.88H226.149C243.045 54.88 251.685 59.584 251.685 71.296V72.064C251.685 83.776 243.045 88.48 226.149 88.48H224.613C207.717 88.48 199.077 83.776 199.077 72.064ZM213.957 71.872C213.957 76.912 217.749 78.88 224.469 78.88H226.293C233.013 78.88 236.805 76.912 236.805 71.872V71.488C236.805 66.448 233.013 64.48 226.293 64.48H224.469C217.749 64.48 213.957 66.448 213.957 71.488V71.872ZM299.764 67.744C299.764 76.672 294.196 79.648 283.012 79.648H268.18V88H253.78V55.36H283.012C294.196 55.36 299.764 58.336 299.764 67.264V67.744ZM285.364 67.552V67.456C285.364 65.488 283.924 64.96 281.428 64.96H268.18V70.048H281.428C283.924 70.048 285.364 69.52 285.364 67.552ZM331.826 88L328.946 82.576H310.946L308.066 88H293.378L312.05 55.36H328.61L347.282 88H331.826ZM319.97 65.584L315.554 73.936H324.386L319.97 65.584Z" fill="#01576A"/>
<path d="M95.7764 122V110.727H100.448C102.503 110.727 103.831 111.836 103.831 113.547V113.562C103.831 114.773 102.909 115.859 101.698 116.023V116.062C103.292 116.203 104.37 117.312 104.37 118.797V118.812C104.37 120.781 102.901 122 100.495 122H95.7764ZM99.9482 112.297H97.7842V115.492H99.6045C101.05 115.492 101.839 114.898 101.839 113.836V113.82C101.839 112.844 101.144 112.297 99.9482 112.297ZM99.9248 116.953H97.7842V120.43H100.034C101.511 120.43 102.308 119.828 102.308 118.695V118.68C102.308 117.547 101.495 116.953 99.9248 116.953ZM109.241 122.164C106.78 122.164 105.241 120.508 105.241 117.852V117.844C105.241 115.203 106.804 113.547 109.226 113.547C111.405 113.547 112.757 114.93 112.874 116.586L112.882 116.648H111.046L111.038 116.578C110.874 115.773 110.28 115.125 109.241 115.125C108.015 115.125 107.226 116.164 107.226 117.859V117.867C107.226 119.594 108.023 120.594 109.257 120.594C110.241 120.594 110.859 120.008 111.038 119.141L111.054 119.07H112.89V119.125C112.741 120.852 111.335 122.164 109.241 122.164ZM116.019 112.523C115.456 112.523 115.019 112.078 115.019 111.539C115.019 111 115.456 110.562 116.019 110.562C116.581 110.562 117.019 111 117.019 111.539C117.019 112.078 116.581 112.523 116.019 112.523ZM119.222 112.523C118.667 112.523 118.23 112.078 118.23 111.539C118.23 111 118.667 110.562 119.222 110.562C119.792 110.562 120.23 111 120.23 111.539C120.23 112.078 119.792 112.523 119.222 112.523ZM117.66 122.164C115.175 122.164 113.675 120.516 113.675 117.883V117.875C113.675 115.266 115.199 113.547 117.566 113.547C119.941 113.547 121.41 115.211 121.41 117.711V118.336H115.613C115.636 119.789 116.433 120.648 117.699 120.648C118.675 120.648 119.3 120.133 119.488 119.578L119.503 119.523H121.324L121.308 119.609C121.042 120.883 119.824 122.164 117.66 122.164ZM117.589 115.07C116.566 115.07 115.785 115.766 115.636 117.039H119.511C119.37 115.727 118.62 115.07 117.589 115.07ZM131.105 122V118.492H127.621V122H125.675V113.719H127.621V116.984H131.105V113.719H133.05V122H131.105ZM138.258 122.164C135.773 122.164 134.273 120.516 134.273 117.883V117.875C134.273 115.266 135.797 113.547 138.164 113.547C140.539 113.547 142.008 115.211 142.008 117.711V118.336H136.211C136.234 119.789 137.031 120.648 138.297 120.648C139.273 120.648 139.898 120.133 140.086 119.578L140.101 119.523H141.922L141.906 119.609C141.64 120.883 140.422 122.164 138.258 122.164ZM138.187 115.07C137.164 115.07 136.383 115.766 136.234 117.039H140.109C139.969 115.727 139.219 115.07 138.187 115.07ZM146.887 122.164C144.449 122.164 142.879 120.539 142.879 117.859V117.844C142.879 115.188 144.473 113.547 146.887 113.547C149.293 113.547 150.895 115.172 150.895 117.844V117.859C150.895 120.547 149.316 122.164 146.887 122.164ZM146.895 120.594C148.129 120.594 148.918 119.594 148.918 117.859V117.844C148.918 116.117 148.113 115.125 146.887 115.125C145.668 115.125 144.863 116.125 144.863 117.844V117.859C144.863 119.602 145.66 120.594 146.895 120.594ZM155.922 122.164C153.297 122.164 151.852 120.484 151.852 117.25V117.234C151.852 112.633 153.289 110.812 156.375 110.703L157.219 110.672C158.11 110.648 158.922 110.516 159.391 110.297V111.852C159.102 112.062 158.289 112.227 157.336 112.258L156.531 112.281C154.422 112.359 153.703 113.305 153.399 115.469L153.383 115.578H153.422C153.945 114.594 154.922 114.039 156.258 114.039C158.485 114.039 159.93 115.57 159.93 117.977V117.992C159.93 120.578 158.399 122.164 155.922 122.164ZM155.891 120.594C157.188 120.594 157.945 119.664 157.945 118.023V118.008C157.945 116.453 157.188 115.57 155.891 115.57C154.594 115.57 153.836 116.453 153.836 118.008V118.023C153.836 119.664 154.594 120.594 155.891 120.594ZM160.387 122L163.059 117.867L160.418 113.719H162.598L164.27 116.625H164.309L165.957 113.719H168.09L165.426 117.812L168.059 122H165.934L164.215 119.031H164.176L162.457 122H160.387ZM172.516 122.164C170.079 122.164 168.508 120.539 168.508 117.859V117.844C168.508 115.188 170.102 113.547 172.516 113.547C174.922 113.547 176.524 115.172 176.524 117.844V117.859C176.524 120.547 174.946 122.164 172.516 122.164ZM172.524 120.594C173.758 120.594 174.547 119.594 174.547 117.859V117.844C174.547 116.117 173.743 115.125 172.516 115.125C171.297 115.125 170.493 116.125 170.493 117.844V117.859C170.493 119.602 171.289 120.594 172.524 120.594ZM178.684 124.227H176.903V120.477H177.559C178.169 120.117 178.419 119.156 178.497 118.039L178.786 113.719H185.083V120.477H186.348V124.227H184.567V122H178.684V124.227ZM183.137 120.477V115.242H180.442L180.231 118.141C180.169 119.086 179.981 119.883 179.583 120.438V120.477H183.137ZM187.274 122V113.719H189.196V119.242H189.274L192.844 113.719H194.751V122H192.829V116.438H192.751L189.18 122H187.274ZM198.192 122H196.333V113.719H198.825L201.255 119.5H201.317L203.755 113.719H206.2V122H204.341V116.336H204.278L201.95 121.617H200.575L198.247 116.336H198.192V122ZM211.439 122.164C209.001 122.164 207.431 120.539 207.431 117.859V117.844C207.431 115.188 209.024 113.547 211.439 113.547C213.845 113.547 215.446 115.172 215.446 117.844V117.859C215.446 120.547 213.868 122.164 211.439 122.164ZM211.446 120.594C212.681 120.594 213.47 119.594 213.47 117.859V117.844C213.47 116.117 212.665 115.125 211.439 115.125C210.22 115.125 209.415 116.125 209.415 117.844V117.859C209.415 119.602 210.212 120.594 211.446 120.594ZM220.318 122.164C217.833 122.164 216.333 120.516 216.333 117.883V117.875C216.333 115.266 217.857 113.547 220.224 113.547C222.599 113.547 224.068 115.211 224.068 117.711V118.336H218.271C218.294 119.789 219.091 120.648 220.357 120.648C221.333 120.648 221.958 120.133 222.146 119.578L222.161 119.523H223.982L223.966 119.609C223.7 120.883 222.482 122.164 220.318 122.164ZM220.247 115.07C219.224 115.07 218.443 115.766 218.294 117.039H222.169C222.029 115.727 221.279 115.07 220.247 115.07ZM228.334 122V113.719H232.263C233.935 113.719 234.935 114.516 234.935 115.828V115.844C234.935 116.711 234.302 117.492 233.482 117.633V117.695C234.568 117.828 235.302 118.578 235.302 119.602V119.617C235.302 121.07 234.162 122 232.326 122H228.334ZM230.255 117.094H231.654C232.56 117.094 233.021 116.758 233.021 116.078V116.062C233.021 115.406 232.584 115.055 231.802 115.055H230.255V117.094ZM230.255 120.656H231.873C232.794 120.656 233.302 120.273 233.302 119.516V119.5C233.302 118.75 232.763 118.398 231.716 118.398H230.255V120.656ZM243.279 122.164C240.842 122.164 239.271 120.539 239.271 117.859V117.844C239.271 115.188 240.865 113.547 243.279 113.547C245.685 113.547 247.287 115.172 247.287 117.844V117.859C247.287 120.547 245.709 122.164 243.279 122.164ZM243.287 120.594C244.521 120.594 245.31 119.594 245.31 117.859V117.844C245.31 116.117 244.506 115.125 243.279 115.125C242.06 115.125 241.256 116.125 241.256 117.844V117.859C241.256 119.602 242.053 120.594 243.287 120.594ZM249.447 124.227H247.666V120.477H248.322C248.932 120.117 249.182 119.156 249.26 118.039L249.549 113.719H255.846V120.477H257.111V124.227H255.33V122H249.447V124.227ZM253.9 120.477V115.242H251.205L250.994 118.141C250.932 119.086 250.744 119.883 250.346 120.438V120.477H253.9ZM263.467 122V118.492H259.983V122H258.037V113.719H259.983V116.984H263.467V113.719H265.412V122H263.467ZM270.643 122.164C268.205 122.164 266.635 120.539 266.635 117.859V117.844C266.635 115.188 268.229 113.547 270.643 113.547C273.049 113.547 274.651 115.172 274.651 117.844V117.859C274.651 120.547 273.073 122.164 270.643 122.164ZM270.651 120.594C271.885 120.594 272.674 119.594 272.674 117.859V117.844C272.674 116.117 271.87 115.125 270.643 115.125C269.424 115.125 268.62 116.125 268.62 117.844V117.859C268.62 119.602 269.416 120.594 270.651 120.594ZM277.749 122H275.889V113.719H278.381L280.811 119.5H280.874L283.311 113.719H285.756V122H283.897V116.336H283.835L281.506 121.617H280.131L277.803 116.336H277.749V122ZM292.241 122H290.382V113.719H292.874L295.304 119.5H295.366L297.804 113.719H300.249V122H298.389V116.336H298.327L295.999 121.617H294.624L292.296 116.336H292.241V122ZM305.464 122.164C302.979 122.164 301.479 120.516 301.479 117.883V117.875C301.479 115.266 303.003 113.547 305.37 113.547C307.745 113.547 309.214 115.211 309.214 117.711V118.336H303.417C303.44 119.789 304.237 120.648 305.503 120.648C306.479 120.648 307.104 120.133 307.292 119.578L307.308 119.523H309.128L309.112 119.609C308.847 120.883 307.628 122.164 305.464 122.164ZM305.394 115.07C304.37 115.07 303.589 115.766 303.44 117.039H307.315C307.175 115.727 306.425 115.07 305.394 115.07ZM314.085 122.164C311.624 122.164 310.085 120.508 310.085 117.852V117.844C310.085 115.203 311.648 113.547 314.069 113.547C316.249 113.547 317.601 114.93 317.718 116.586L317.726 116.648H315.89L315.882 116.578C315.718 115.773 315.124 115.125 314.085 115.125C312.859 115.125 312.069 116.164 312.069 117.859V117.867C312.069 119.594 312.866 120.594 314.101 120.594C315.085 120.594 315.702 120.008 315.882 119.141L315.898 119.07H317.734V119.125C317.585 120.852 316.179 122.164 314.085 122.164ZM325.167 113.719V115.227H322.628V122H320.683V115.227H318.144V113.719H325.167ZM329.687 122.164C327.203 122.164 325.703 120.516 325.703 117.883V117.875C325.703 115.266 327.226 113.547 329.593 113.547C331.968 113.547 333.437 115.211 333.437 117.711V118.336H327.64C327.664 119.789 328.46 120.648 329.726 120.648C330.703 120.648 331.328 120.133 331.515 119.578L331.531 119.523H333.351L333.335 119.609C333.07 120.883 331.851 122.164 329.687 122.164ZM329.617 115.07C328.593 115.07 327.812 115.766 327.664 117.039H331.539C331.398 115.727 330.648 115.07 329.617 115.07Z" fill="#01576A"/>
</svg>
