<svg width="359" height="458" viewBox="0 0 359 458" fill="none" xmlns="http://www.w3.org/2000/svg">
<path d="M0 54C0 24.1766 24.1766 0 54 0H305C334.823 0 359 24.1766 359 54V404C359 433.823 334.823 458 305 458H54C24.1766 458 0 433.823 0 404V54Z" fill="#F2F2F7"/>
<path d="M24.6562 164.102L30.0781 170H27.7891L22.9297 164.711H22.8672V170H21.1172V158.727H22.8672V163.773H22.9297L27.5234 158.727H29.6172L24.6562 164.102ZM35.0022 161.648C37.0881 161.648 38.4631 163.289 38.4631 165.891C38.4631 168.492 37.0959 170.141 35.0334 170.141C33.8538 170.141 32.9163 169.562 32.4475 168.648H32.4084V172.719H30.7209V161.781H32.3538V163.195H32.385C32.8694 162.25 33.8147 161.648 35.0022 161.648ZM34.5569 168.711C35.8928 168.711 36.7288 167.617 36.7288 165.891C36.7288 164.172 35.8928 163.07 34.5569 163.07C33.2678 163.07 32.4006 164.195 32.4006 165.891C32.4006 167.602 33.26 168.711 34.5569 168.711ZM40.2778 173.062C40.145 173.062 39.7153 173.047 39.5903 173.023V171.656C39.7153 171.688 39.9966 171.688 40.1372 171.688C40.9263 171.688 41.3403 171.359 41.5981 170.516C41.5981 170.5 41.7466 170.016 41.7466 170.008L38.7778 161.781H40.6059L42.6919 168.469H42.7153L44.8013 161.781H46.5825L43.4966 170.43C42.7934 172.422 41.9888 173.062 40.2778 173.062ZM52.9128 163.117H49.1472V170H47.4675V161.781H52.9128V163.117ZM57.3603 170.156C55.0088 170.156 53.4619 168.539 53.4619 165.891C53.4619 163.25 55.0166 161.633 57.3603 161.633C59.7041 161.633 61.2588 163.25 61.2588 165.891C61.2588 168.539 59.7119 170.156 57.3603 170.156ZM57.3603 168.766C58.6884 168.766 59.54 167.719 59.54 165.891C59.54 164.07 58.6806 163.023 57.3603 163.023C56.04 163.023 55.1806 164.07 55.1806 165.891C55.1806 167.719 56.04 168.766 57.3603 168.766ZM65.8625 163.008H64.1359V165.164H65.6984C66.6516 165.164 67.1281 164.797 67.1281 164.07C67.1281 163.391 66.6828 163.008 65.8625 163.008ZM65.8078 166.344H64.1359V168.773H65.9953C66.9484 168.773 67.4641 168.352 67.4641 167.562C67.4641 166.75 66.9172 166.344 65.8078 166.344ZM62.4719 170V161.781H66.2062C67.8078 161.781 68.7766 162.578 68.7766 163.875C68.7766 164.727 68.1672 165.5 67.3781 165.648V165.711C68.4406 165.852 69.1437 166.602 69.1437 167.633C69.1437 169.078 68.0344 170 66.2531 170H62.4719ZM73.2866 168.805C74.4663 168.805 75.3881 167.992 75.3881 166.922V166.273L73.3647 166.398C72.3569 166.469 71.7866 166.914 71.7866 167.617C71.7866 168.336 72.3803 168.805 73.2866 168.805ZM72.8178 170.141C71.2084 170.141 70.0834 169.141 70.0834 167.664C70.0834 166.227 71.185 165.344 73.1381 165.234L75.3881 165.102V164.469C75.3881 163.555 74.7709 163.008 73.7397 163.008C72.7631 163.008 72.1538 163.477 72.0053 164.211H70.4116C70.5053 162.727 71.7709 161.633 73.8022 161.633C75.7944 161.633 77.0678 162.688 77.0678 164.336V170H75.4506V168.648H75.4116C74.935 169.562 73.8959 170.141 72.8178 170.141ZM81.7184 165.883H83.2106V163.109H81.7184C80.7575 163.109 80.1403 163.656 80.1403 164.547C80.1403 165.328 80.7653 165.883 81.7184 165.883ZM83.2106 170V167.18H81.9606L79.9684 170H78.0622L80.3044 166.891C79.1637 166.555 78.4606 165.703 78.4606 164.555C78.4606 162.844 79.7106 161.781 81.6325 161.781H84.8669V170H83.2106ZM94.9181 168.664V163.117H92.0587L91.8322 166.258C91.7697 167.227 91.5666 168.07 91.1916 168.602V168.664H94.9181ZM90.2462 172.156H88.6916V168.664H89.3556C89.9572 168.289 90.2306 167.297 90.3087 166.188L90.6056 161.781H96.5978V168.664H97.8712V172.156H96.3087V170H90.2462V172.156ZM100.436 170H98.7719V161.781H100.436V167.539H100.498L104.295 161.781H105.959V170H104.295V164.227H104.233L100.436 170ZM110.415 168.805C111.594 168.805 112.516 167.992 112.516 166.922V166.273L110.493 166.398C109.485 166.469 108.915 166.914 108.915 167.617C108.915 168.336 109.508 168.805 110.415 168.805ZM109.946 170.141C108.337 170.141 107.212 169.141 107.212 167.664C107.212 166.227 108.313 165.344 110.266 165.234L112.516 165.102V164.469C112.516 163.555 111.899 163.008 110.868 163.008C109.891 163.008 109.282 163.477 109.133 164.211H107.54C107.633 162.727 108.899 161.633 110.93 161.633C112.923 161.633 114.196 162.688 114.196 164.336V170H112.579V168.648H112.54C112.063 169.562 111.024 170.141 109.946 170.141ZM121.175 163.117H117.409V170H115.729V161.781H121.175V163.117ZM126.638 161.648C128.724 161.648 130.099 163.289 130.099 165.891C130.099 168.492 128.732 170.141 126.669 170.141C125.489 170.141 124.552 169.562 124.083 168.648H124.044V172.719H122.357V161.781H123.989V163.195H124.021C124.505 162.25 125.45 161.648 126.638 161.648ZM126.192 168.711C127.528 168.711 128.364 167.617 128.364 165.891C128.364 164.172 127.528 163.07 126.192 163.07C124.903 163.07 124.036 164.195 124.036 165.891C124.036 167.602 124.896 168.711 126.192 168.711ZM134.195 168.805C135.374 168.805 136.296 167.992 136.296 166.922V166.273L134.273 166.398C133.265 166.469 132.695 166.914 132.695 167.617C132.695 168.336 133.288 168.805 134.195 168.805ZM133.726 170.141C132.117 170.141 130.992 169.141 130.992 167.664C130.992 166.227 132.093 165.344 134.046 165.234L136.296 165.102V164.469C136.296 163.555 135.679 163.008 134.648 163.008C133.671 163.008 133.062 163.477 132.913 164.211H131.32C131.413 162.727 132.679 161.633 134.71 161.633C136.702 161.633 137.976 162.688 137.976 164.336V170H136.359V168.648H136.32C135.843 169.562 134.804 170.141 133.726 170.141ZM141.134 170H139.509V161.781H141.627L144.259 167.805H144.322L146.97 161.781H149.041V170H147.4V164.297H147.345L144.884 169.68H143.65L141.189 164.297H141.134V170ZM152.238 170H150.613V161.781H152.73L155.363 167.805H155.426L158.074 161.781H160.144V170H158.504V164.297H158.449L155.988 169.68H154.754L152.293 164.297H152.238V170ZM164.6 168.805C165.779 168.805 166.701 167.992 166.701 166.922V166.273L164.678 166.398C163.67 166.469 163.1 166.914 163.1 167.617C163.1 168.336 163.693 168.805 164.6 168.805ZM164.131 170.141C162.522 170.141 161.397 169.141 161.397 167.664C161.397 166.227 162.498 165.344 164.451 165.234L166.701 165.102V164.469C166.701 163.555 166.084 163.008 165.053 163.008C164.076 163.008 163.467 163.477 163.318 164.211H161.725C161.818 162.727 163.084 161.633 165.115 161.633C167.107 161.633 168.381 162.688 168.381 164.336V170H166.764V168.648H166.725C166.248 169.562 165.209 170.141 164.131 170.141ZM188.018 166.203H172.018V164.656H188.018V166.203ZM192.858 167.391C193.093 168.242 193.765 168.742 194.765 168.742C195.937 168.742 196.812 167.898 196.905 166.375H193.468V165.133H196.866C196.702 163.805 195.866 163.039 194.773 163.039C193.718 163.039 193.077 163.641 192.874 164.414H191.249C191.468 162.891 192.757 161.633 194.788 161.633C197.116 161.633 198.632 163.312 198.632 165.891C198.632 168.523 197.124 170.156 194.78 170.156C192.835 170.156 191.483 169.039 191.233 167.391H192.858ZM205.814 161.781V163.117H203.236V170H201.556V163.117H198.978V161.781H205.814ZM210.191 170.156C207.839 170.156 206.292 168.539 206.292 165.891C206.292 163.25 207.847 161.633 210.191 161.633C212.535 161.633 214.089 163.25 214.089 165.891C214.089 168.539 212.542 170.156 210.191 170.156ZM210.191 168.766C211.519 168.766 212.371 167.719 212.371 165.891C212.371 164.07 211.511 163.023 210.191 163.023C208.871 163.023 208.011 164.07 208.011 165.891C208.011 167.719 208.871 168.766 210.191 168.766ZM225.328 164.414H223.703C223.484 163.656 222.859 163.039 221.812 163.039C220.508 163.039 219.656 164.156 219.656 165.891C219.656 167.672 220.516 168.742 221.828 168.742C222.828 168.742 223.484 168.242 223.719 167.383H225.344C225.102 169.031 223.75 170.156 221.812 170.156C219.461 170.156 217.945 168.523 217.945 165.891C217.945 163.312 219.461 161.633 221.797 161.633C223.828 161.633 225.094 162.898 225.328 164.414ZM231.783 170V163.117H228.143V170H226.463V161.781H233.471V170H231.783ZM238.59 170.156C236.239 170.156 234.692 168.539 234.692 165.891C234.692 163.25 236.247 161.633 238.59 161.633C240.934 161.633 242.489 163.25 242.489 165.891C242.489 168.539 240.942 170.156 238.59 170.156ZM238.59 168.766C239.918 168.766 240.77 167.719 240.77 165.891C240.77 164.07 239.911 163.023 238.59 163.023C237.27 163.023 236.411 164.07 236.411 165.891C236.411 167.719 237.27 168.766 238.59 168.766ZM250.717 164.414H249.092C248.874 163.656 248.249 163.039 247.202 163.039C245.897 163.039 245.046 164.156 245.046 165.891C245.046 167.672 245.905 168.742 247.217 168.742C248.217 168.742 248.874 168.242 249.108 167.383H250.733C250.491 169.031 249.139 170.156 247.202 170.156C244.85 170.156 243.335 168.523 243.335 165.891C243.335 163.312 244.85 161.633 247.186 161.633C249.217 161.633 250.483 162.898 250.717 164.414ZM255.392 170.156C253.04 170.156 251.493 168.539 251.493 165.891C251.493 163.25 253.048 161.633 255.392 161.633C257.735 161.633 259.29 163.25 259.29 165.891C259.29 168.539 257.743 170.156 255.392 170.156ZM255.392 168.766C256.72 168.766 257.571 167.719 257.571 165.891C257.571 164.07 256.712 163.023 255.392 163.023C254.071 163.023 253.212 164.07 253.212 165.891C253.212 167.719 254.071 168.766 255.392 168.766ZM264.167 170.156C261.597 170.156 260.206 168.477 260.206 165.227C260.206 160.664 261.534 158.812 264.659 158.703L265.394 158.68C266.277 158.641 267.167 158.477 267.542 158.273V159.672C267.331 159.867 266.495 160.07 265.488 160.109L264.769 160.133C262.573 160.211 261.878 161.195 261.573 163.516H261.636C262.159 162.547 263.152 162.016 264.441 162.016C266.659 162.016 268.081 163.562 268.081 165.984C268.081 168.57 266.589 170.156 264.167 170.156ZM264.152 168.742C265.542 168.742 266.355 167.758 266.355 166.008C266.355 164.344 265.542 163.391 264.152 163.391C262.753 163.391 261.933 164.344 261.933 166.008C261.933 167.758 262.745 168.742 264.152 168.742ZM26.2266 186V179.117H22.5859V186H20.9062V177.781H27.9141V186H26.2266ZM33.7834 177.648C35.8694 177.648 37.2444 179.289 37.2444 181.891C37.2444 184.492 35.8772 186.141 33.8147 186.141C32.635 186.141 31.6975 185.562 31.2288 184.648H31.1897V188.719H29.5022V177.781H31.135V179.195H31.1663C31.6506 178.25 32.5959 177.648 33.7834 177.648ZM33.3381 184.711C34.6741 184.711 35.51 183.617 35.51 181.891C35.51 180.172 34.6741 179.07 33.3381 179.07C32.0491 179.07 31.1819 180.195 31.1819 181.891C31.1819 183.602 32.0413 184.711 33.3381 184.711ZM41.9028 178.992C40.7231 178.992 39.895 179.891 39.8091 181.133H43.9184C43.8794 179.875 43.0825 178.992 41.9028 178.992ZM43.9106 183.586H45.5122C45.2778 185.086 43.8559 186.156 41.9731 186.156C39.5591 186.156 38.0981 184.523 38.0981 181.93C38.0981 179.352 39.5825 177.633 41.9028 177.633C44.1841 177.633 45.6059 179.242 45.6059 181.734V182.312H39.8013V182.414C39.8013 183.844 40.6606 184.789 42.0122 184.789C42.9731 184.789 43.6841 184.305 43.9106 183.586ZM52.1394 184.664V179.117H49.28L49.0534 182.258C48.9909 183.227 48.7878 184.07 48.4128 184.602V184.664H52.1394ZM47.4675 188.156H45.9128V184.664H46.5769C47.1784 184.289 47.4519 183.297 47.53 182.188L47.8269 177.781H53.8191V184.664H55.0925V188.156H53.53V186H47.4675V188.156ZM63.0088 180.414H61.3838C61.165 179.656 60.54 179.039 59.4931 179.039C58.1884 179.039 57.3369 180.156 57.3369 181.891C57.3369 183.672 58.1963 184.742 59.5088 184.742C60.5088 184.742 61.165 184.242 61.3994 183.383H63.0244C62.7822 185.031 61.4306 186.156 59.4931 186.156C57.1416 186.156 55.6259 184.523 55.6259 181.891C55.6259 179.312 57.1416 177.633 59.4775 177.633C61.5088 177.633 62.7744 178.898 63.0088 180.414ZM70.2219 177.781V179.117H67.6437V186H65.9641V179.117H63.3859V177.781H70.2219ZM73.8334 184.805C75.0131 184.805 75.935 183.992 75.935 182.922V182.273L73.9116 182.398C72.9038 182.469 72.3334 182.914 72.3334 183.617C72.3334 184.336 72.9272 184.805 73.8334 184.805ZM73.3647 186.141C71.7553 186.141 70.6303 185.141 70.6303 183.664C70.6303 182.227 71.7319 181.344 73.685 181.234L75.935 181.102V180.469C75.935 179.555 75.3178 179.008 74.2866 179.008C73.31 179.008 72.7006 179.477 72.5522 180.211H70.9584C71.0522 178.727 72.3178 177.633 74.3491 177.633C76.3413 177.633 77.6147 178.688 77.6147 180.336V186H75.9975V184.648H75.9584C75.4819 185.562 74.4428 186.141 73.3647 186.141ZM82.5387 179.008H80.8122V181.164H82.3747C83.3278 181.164 83.8044 180.797 83.8044 180.07C83.8044 179.391 83.3591 179.008 82.5387 179.008ZM82.4841 182.344H80.8122V184.773H82.6716C83.6247 184.773 84.1403 184.352 84.1403 183.562C84.1403 182.75 83.5934 182.344 82.4841 182.344ZM79.1481 186V177.781H82.8825C84.4841 177.781 85.4528 178.578 85.4528 179.875C85.4528 180.727 84.8434 181.5 84.0544 181.648V181.711C85.1169 181.852 85.82 182.602 85.82 183.633C85.82 185.078 84.7106 186 82.9294 186H79.1481ZM89.3925 182.258C89.2363 184.586 88.6503 186.078 86.8066 186.078C86.5331 186.078 86.3378 186.031 86.2363 185.992V184.508C86.3144 184.531 86.4706 184.57 86.6816 184.57C87.4784 184.57 87.7597 183.617 87.8534 182.188L88.1347 177.781H93.83V186H92.1503V179.117H89.6191L89.3925 182.258ZM98.8478 178.992C97.6681 178.992 96.84 179.891 96.7541 181.133H100.863C100.824 179.875 100.027 178.992 98.8478 178.992ZM100.856 183.586H102.457C102.223 185.086 100.801 186.156 98.9181 186.156C96.5041 186.156 95.0431 184.523 95.0431 181.93C95.0431 179.352 96.5275 177.633 98.8478 177.633C101.129 177.633 102.551 179.242 102.551 181.734V182.312H96.7462V182.414C96.7462 183.844 97.6056 184.789 98.9572 184.789C99.9181 184.789 100.629 184.305 100.856 183.586ZM109.155 186V182.422H105.436V186H103.756V177.781H105.436V181.094H109.155V177.781H110.834V186H109.155ZM114.087 186H112.423V177.781H114.087V183.539H114.149L117.946 177.781H119.61V186H117.946V180.227H117.883L114.087 186ZM124.3 181.883H125.792V179.109H124.3C123.339 179.109 122.722 179.656 122.722 180.547C122.722 181.328 123.347 181.883 124.3 181.883ZM125.792 186V183.18H124.542L122.55 186H120.643L122.886 182.891C121.745 182.555 121.042 181.703 121.042 180.555C121.042 178.844 122.292 177.781 124.214 177.781H127.448V186H125.792ZM137.499 184.664V179.117H134.64L134.413 182.258C134.351 183.227 134.148 184.07 133.773 184.602V184.664H137.499ZM132.827 188.156H131.273V184.664H131.937C132.538 184.289 132.812 183.297 132.89 182.188L133.187 177.781H139.179V184.664H140.452V188.156H138.89V186H132.827V188.156ZM144.236 184.805C145.416 184.805 146.338 183.992 146.338 182.922V182.273L144.314 182.398C143.306 182.469 142.736 182.914 142.736 183.617C142.736 184.336 143.33 184.805 144.236 184.805ZM143.767 186.141C142.158 186.141 141.033 185.141 141.033 183.664C141.033 182.227 142.134 181.344 144.088 181.234L146.338 181.102V180.469C146.338 179.555 145.72 179.008 144.689 179.008C143.713 179.008 143.103 179.477 142.955 180.211H141.361C141.455 178.727 142.72 177.633 144.752 177.633C146.744 177.633 148.017 178.688 148.017 180.336V186H146.4V184.648H146.361C145.884 185.562 144.845 186.141 143.767 186.141ZM154.949 186V182.422H151.23V186H149.551V177.781H151.23V181.094H154.949V177.781H156.629V186H154.949ZM163.615 186V182.422H159.897V186H158.217V177.781H159.897V181.094H163.615V177.781H165.295V186H163.615ZM174.203 186V177.781H175.875V186H174.203ZM169.985 181.641H168.563V184.672H169.985C170.953 184.672 171.578 184.062 171.578 183.156C171.578 182.242 170.946 181.641 169.985 181.641ZM166.883 186V177.781H168.563V180.32H170.133C172.032 180.32 173.258 181.422 173.258 183.156C173.258 184.898 172.032 186 170.133 186H166.883ZM180.542 182.977H180.503L178.682 186H176.854L179.565 181.898L176.893 177.781H178.784L180.581 180.758H180.612L182.385 177.781H184.245L181.549 181.844L184.213 186H182.354L180.542 182.977ZM191.616 179.008H189.89V181.164H191.452C192.405 181.164 192.882 180.797 192.882 180.07C192.882 179.391 192.437 179.008 191.616 179.008ZM191.562 182.344H189.89V184.773H191.749C192.702 184.773 193.218 184.352 193.218 183.562C193.218 182.75 192.671 182.344 191.562 182.344ZM188.226 186V177.781H191.96C193.562 177.781 194.53 178.578 194.53 179.875C194.53 180.727 193.921 181.5 193.132 181.648V181.711C194.194 181.852 194.898 182.602 194.898 183.633C194.898 185.078 193.788 186 192.007 186H188.226ZM202.558 179.008H200.832V181.164H202.394C203.347 181.164 203.824 180.797 203.824 180.07C203.824 179.391 203.378 179.008 202.558 179.008ZM202.503 182.344H200.832V184.773H202.691C203.644 184.773 204.16 184.352 204.16 183.562C204.16 182.75 203.613 182.344 202.503 182.344ZM199.167 186V177.781H202.902C204.503 177.781 205.472 178.578 205.472 179.875C205.472 180.727 204.863 181.5 204.074 181.648V181.711C205.136 181.852 205.839 182.602 205.839 183.633C205.839 185.078 204.73 186 202.949 186H199.167ZM208.763 186H207.099V177.781H208.763V183.539H208.826L212.623 177.781H214.287V186H212.623V180.227H212.56L208.763 186ZM221.328 184.664V179.117H218.469L218.242 182.258C218.18 183.227 217.977 184.07 217.602 184.602V184.664H221.328ZM216.656 188.156H215.102V184.664H215.766C216.367 184.289 216.641 183.297 216.719 182.188L217.016 177.781H223.008V184.664H224.281V188.156H222.719V186H216.656V188.156ZM228.627 178.992C227.447 178.992 226.619 179.891 226.533 181.133H230.643C230.604 179.875 229.807 178.992 228.627 178.992ZM230.635 183.586H232.237C232.002 185.086 230.58 186.156 228.697 186.156C226.283 186.156 224.822 184.523 224.822 181.93C224.822 179.352 226.307 177.633 228.627 177.633C230.908 177.633 232.33 179.242 232.33 181.734V182.312H226.526V182.414C226.526 183.844 227.385 184.789 228.737 184.789C229.697 184.789 230.408 184.305 230.635 183.586ZM239.882 181.641L243.663 186H241.546L238.288 182.211H238.225V186H236.546V177.781H238.225V181.297H238.288L241.507 177.781H243.522L239.882 181.641ZM248.767 177.648C250.852 177.648 252.227 179.289 252.227 181.891C252.227 184.492 250.86 186.141 248.798 186.141C247.618 186.141 246.681 185.562 246.212 184.648H246.173V188.719H244.485V177.781H246.118V179.195H246.149C246.634 178.25 247.579 177.648 248.767 177.648ZM248.321 184.711C249.657 184.711 250.493 183.617 250.493 181.891C250.493 180.172 249.657 179.07 248.321 179.07C247.032 179.07 246.165 180.195 246.165 181.891C246.165 183.602 247.024 184.711 248.321 184.711ZM254.042 189.062C253.909 189.062 253.48 189.047 253.355 189.023V187.656C253.48 187.688 253.761 187.688 253.902 187.688C254.691 187.688 255.105 187.359 255.363 186.516C255.363 186.5 255.511 186.016 255.511 186.008L252.542 177.781H254.37L256.456 184.469H256.48L258.566 177.781H260.347L257.261 186.43C256.558 188.422 255.753 189.062 254.042 189.062ZM266.677 179.117H262.912V186H261.232V177.781H266.677V179.117ZM270.406 184.805C271.586 184.805 272.508 183.992 272.508 182.922V182.273L270.484 182.398C269.476 182.469 268.906 182.914 268.906 183.617C268.906 184.336 269.5 184.805 270.406 184.805ZM269.937 186.141C268.328 186.141 267.203 185.141 267.203 183.664C267.203 182.227 268.304 181.344 270.258 181.234L272.508 181.102V180.469C272.508 179.555 271.89 179.008 270.859 179.008C269.883 179.008 269.273 179.477 269.125 180.211H267.531C267.625 178.727 268.89 177.633 270.922 177.633C272.914 177.633 274.187 178.688 274.187 180.336V186H272.57V184.648H272.531C272.054 185.562 271.015 186.141 269.937 186.141ZM276.846 188.32H275.502L276.205 184.195H277.908L276.846 188.32ZM25.1953 193.648C27.2812 193.648 28.6562 195.289 28.6562 197.891C28.6562 200.492 27.2891 202.141 25.2266 202.141C24.0469 202.141 23.1094 201.562 22.6406 200.648H22.6016V204.719H20.9141V193.781H22.5469V195.195H22.5781C23.0625 194.25 24.0078 193.648 25.1953 193.648ZM24.75 200.711C26.0859 200.711 26.9219 199.617 26.9219 197.891C26.9219 196.172 26.0859 195.07 24.75 195.07C23.4609 195.07 22.5938 196.195 22.5938 197.891C22.5938 199.602 23.4531 200.711 24.75 200.711ZM32.7522 200.805C33.9319 200.805 34.8538 199.992 34.8538 198.922V198.273L32.8303 198.398C31.8225 198.469 31.2522 198.914 31.2522 199.617C31.2522 200.336 31.8459 200.805 32.7522 200.805ZM32.2834 202.141C30.6741 202.141 29.5491 201.141 29.5491 199.664C29.5491 198.227 30.6506 197.344 32.6038 197.234L34.8538 197.102V196.469C34.8538 195.555 34.2366 195.008 33.2053 195.008C32.2288 195.008 31.6194 195.477 31.4709 196.211H29.8772C29.9709 194.727 31.2366 193.633 33.2678 193.633C35.26 193.633 36.5334 194.688 36.5334 196.336V202H34.9163V200.648H34.8772C34.4006 201.562 33.3616 202.141 32.2834 202.141ZM41.02 202.156C39.0981 202.156 37.7622 201.211 37.6138 199.695H39.2778C39.4497 200.406 40.0747 200.797 41.02 200.797C42.0981 200.797 42.6997 200.297 42.6997 199.57C42.6997 198.75 42.145 198.375 41.0278 198.375H39.8247V197.133H41.0044C41.9497 197.133 42.4419 196.773 42.4419 196.055C42.4419 195.422 41.9888 194.977 41.0278 194.977C40.1216 194.977 39.5122 195.367 39.4028 196.008H37.7856C37.9575 194.547 39.1841 193.633 41.02 193.633C43.0122 193.633 44.0903 194.523 44.0903 195.891C44.0903 196.727 43.5747 197.438 42.7778 197.641V197.703C43.8247 197.945 44.3794 198.625 44.3794 199.562C44.3794 201.125 43.0591 202.156 41.02 202.156ZM51.0925 200.664V195.117H48.2331L48.0066 198.258C47.9441 199.227 47.7409 200.07 47.3659 200.602V200.664H51.0925ZM46.4206 204.156H44.8659V200.664H45.53C46.1316 200.289 46.405 199.297 46.4831 198.188L46.78 193.781H52.7722V200.664H54.0456V204.156H52.4831V202H46.4206V204.156ZM58.3916 194.992C57.2119 194.992 56.3838 195.891 56.2978 197.133H60.4072C60.3681 195.875 59.5713 194.992 58.3916 194.992ZM60.3994 199.586H62.0009C61.7666 201.086 60.3447 202.156 58.4619 202.156C56.0478 202.156 54.5869 200.523 54.5869 197.93C54.5869 195.352 56.0713 193.633 58.3916 193.633C60.6728 193.633 62.0947 195.242 62.0947 197.734V198.312H56.29V198.414C56.29 199.844 57.1494 200.789 58.5009 200.789C59.4619 200.789 60.1728 200.305 60.3994 199.586ZM65.4875 198.258C65.3312 200.586 64.7453 202.078 62.9016 202.078C62.6281 202.078 62.4328 202.031 62.3312 201.992V200.508C62.4094 200.531 62.5656 200.57 62.7766 200.57C63.5734 200.57 63.8547 199.617 63.9484 198.188L64.2297 193.781H69.925V202H68.2453V195.117H65.7141L65.4875 198.258ZM74.9428 194.992C73.7631 194.992 72.935 195.891 72.8491 197.133H76.9584C76.9194 195.875 76.1225 194.992 74.9428 194.992ZM76.9506 199.586H78.5522C78.3178 201.086 76.8959 202.156 75.0131 202.156C72.5991 202.156 71.1381 200.523 71.1381 197.93C71.1381 195.352 72.6225 193.633 74.9428 193.633C77.2241 193.633 78.6459 195.242 78.6459 197.734V198.312H72.8413V198.414C72.8413 199.844 73.7006 200.789 75.0522 200.789C76.0131 200.789 76.7241 200.305 76.9506 199.586ZM85.2497 202V198.422H81.5309V202H79.8512V193.781H81.5309V197.094H85.2497V193.781H86.9294V202H85.2497ZM93.9159 202V198.422H90.1972V202H88.5175V193.781H90.1972V197.094H93.9159V193.781H95.5956V202H93.9159ZM100.723 202.156C98.3712 202.156 96.8244 200.539 96.8244 197.891C96.8244 195.25 98.3791 193.633 100.723 193.633C103.067 193.633 104.621 195.25 104.621 197.891C104.621 200.539 103.074 202.156 100.723 202.156ZM100.723 200.766C102.051 200.766 102.902 199.719 102.902 197.891C102.902 196.07 102.043 195.023 100.723 195.023C99.4025 195.023 98.5431 196.07 98.5431 197.891C98.5431 199.719 99.4025 200.766 100.723 200.766ZM111.28 195.117H107.514V202H105.834V193.781H111.28V195.117ZM115.727 202.156C113.376 202.156 111.829 200.539 111.829 197.891C111.829 195.25 113.383 193.633 115.727 193.633C118.071 193.633 119.626 195.25 119.626 197.891C119.626 200.539 118.079 202.156 115.727 202.156ZM115.727 200.766C117.055 200.766 117.907 199.719 117.907 197.891C117.907 196.07 117.048 195.023 115.727 195.023C114.407 195.023 113.548 196.07 113.548 197.891C113.548 199.719 114.407 200.766 115.727 200.766ZM129.247 202V198.422H125.528V202H123.849V193.781H125.528V197.094H129.247V193.781H130.927V202H129.247ZM135.398 200.805C136.577 200.805 137.499 199.992 137.499 198.922V198.273L135.476 198.398C134.468 198.469 133.898 198.914 133.898 199.617C133.898 200.336 134.492 200.805 135.398 200.805ZM134.929 202.141C133.32 202.141 132.195 201.141 132.195 199.664C132.195 198.227 133.296 197.344 135.249 197.234L137.499 197.102V196.469C137.499 195.555 136.882 195.008 135.851 195.008C134.874 195.008 134.265 195.477 134.117 196.211H132.523C132.617 194.727 133.882 193.633 135.913 193.633C137.906 193.633 139.179 194.688 139.179 196.336V202H137.562V200.648H137.523C137.046 201.562 136.007 202.141 134.929 202.141ZM150.738 196.414H149.113C148.894 195.656 148.269 195.039 147.223 195.039C145.918 195.039 145.066 196.156 145.066 197.891C145.066 199.672 145.926 200.742 147.238 200.742C148.238 200.742 148.894 200.242 149.129 199.383H150.754C150.512 201.031 149.16 202.156 147.223 202.156C144.871 202.156 143.355 200.523 143.355 197.891C143.355 195.312 144.871 193.633 147.207 193.633C149.238 193.633 150.504 194.898 150.738 196.414ZM155.318 194.992C154.139 194.992 153.311 195.891 153.225 197.133H157.334C157.295 195.875 156.498 194.992 155.318 194.992ZM157.326 199.586H158.928C158.693 201.086 157.272 202.156 155.389 202.156C152.975 202.156 151.514 200.523 151.514 197.93C151.514 195.352 152.998 193.633 155.318 193.633C157.6 193.633 159.022 195.242 159.022 197.734V198.312H153.217V198.414C153.217 199.844 154.076 200.789 155.428 200.789C156.389 200.789 157.1 200.305 157.326 199.586ZM163.563 197.641L167.344 202H165.227L161.969 198.211H161.907V202H160.227V193.781H161.907V197.297H161.969L165.188 193.781H167.203L163.563 197.641ZM174.221 193.781V195.117H171.643V202H169.963V195.117H167.385V193.781H174.221ZM178.598 202.156C176.247 202.156 174.7 200.539 174.7 197.891C174.7 195.25 176.255 193.633 178.598 193.633C180.942 193.633 182.497 195.25 182.497 197.891C182.497 200.539 180.95 202.156 178.598 202.156ZM178.598 200.766C179.927 200.766 180.778 199.719 180.778 197.891C180.778 196.07 179.919 195.023 178.598 195.023C177.278 195.023 176.419 196.07 176.419 197.891C176.419 199.719 177.278 200.766 178.598 200.766ZM187.999 193.648C190.085 193.648 191.46 195.289 191.46 197.891C191.46 200.492 190.093 202.141 188.03 202.141C186.851 202.141 185.913 201.562 185.444 200.648H185.405V204.719H183.718V193.781H185.351V195.195H185.382C185.866 194.25 186.812 193.648 187.999 193.648ZM187.554 200.711C188.89 200.711 189.726 199.617 189.726 197.891C189.726 196.172 188.89 195.07 187.554 195.07C186.265 195.07 185.398 196.195 185.398 197.891C185.398 199.602 186.257 200.711 187.554 200.711ZM195.556 200.805C196.736 200.805 197.658 199.992 197.658 198.922V198.273L195.634 198.398C194.626 198.469 194.056 198.914 194.056 199.617C194.056 200.336 194.65 200.805 195.556 200.805ZM195.087 202.141C193.478 202.141 192.353 201.141 192.353 199.664C192.353 198.227 193.454 197.344 195.408 197.234L197.658 197.102V196.469C197.658 195.555 197.04 195.008 196.009 195.008C195.033 195.008 194.423 195.477 194.275 196.211H192.681C192.775 194.727 194.04 193.633 196.072 193.633C198.064 193.633 199.337 194.688 199.337 196.336V202H197.72V200.648H197.681C197.204 201.562 196.165 202.141 195.087 202.141ZM202.066 202.086C201.496 202.086 201.042 201.633 201.042 201.062C201.042 200.492 201.496 200.039 202.066 200.039C202.636 200.039 203.089 200.492 203.089 201.062C203.089 201.633 202.636 202.086 202.066 202.086ZM24.6562 228.102L30.0781 234H27.7891L22.9297 228.711H22.8672V234H21.1172V222.727H22.8672V227.773H22.9297L27.5234 222.727H29.6172L24.6562 228.102ZM33.5178 232.805C34.6975 232.805 35.6194 231.992 35.6194 230.922V230.273L33.5959 230.398C32.5881 230.469 32.0178 230.914 32.0178 231.617C32.0178 232.336 32.6116 232.805 33.5178 232.805ZM33.0491 234.141C31.4397 234.141 30.3147 233.141 30.3147 231.664C30.3147 230.227 31.4163 229.344 33.3694 229.234L35.6194 229.102V228.469C35.6194 227.555 35.0022 227.008 33.9709 227.008C32.9944 227.008 32.385 227.477 32.2366 228.211H30.6428C30.7366 226.727 32.0022 225.633 34.0334 225.633C36.0256 225.633 37.2991 226.688 37.2991 228.336V234H35.6819V232.648H35.6428C35.1663 233.562 34.1272 234.141 33.0491 234.141ZM46.5513 229.641L50.0591 234H47.9653L44.9419 230.211H44.8794V234H43.2153V230.211H43.1606L40.1372 234H38.0747L41.5591 229.672L38.1684 225.781H40.1763L43.1606 229.297H43.2153V225.781H44.8794V229.297H44.9419L47.9263 225.781H49.9184L46.5513 229.641ZM56.3425 232.664V227.117H53.4831L53.2566 230.258C53.1941 231.227 52.9909 232.07 52.6159 232.602V232.664H56.3425ZM51.6706 236.156H50.1159V232.664H50.78C51.3816 232.289 51.655 231.297 51.7331 230.188L52.03 225.781H58.0222V232.664H59.2956V236.156H57.7331V234H51.6706V236.156ZM67.5166 234V225.781H69.1884V234H67.5166ZM63.2978 229.641H61.8759V232.672H63.2978C64.2666 232.672 64.8916 232.062 64.8916 231.156C64.8916 230.242 64.2588 229.641 63.2978 229.641ZM60.1963 234V225.781H61.8759V228.32H63.4463C65.3447 228.32 66.5713 229.422 66.5713 231.156C66.5713 232.898 65.3447 234 63.4463 234H60.1963ZM72.4328 234H70.7687V225.781H72.4328V231.539H72.4953L76.2922 225.781H77.9562V234H76.2922V228.227H76.2297L72.4328 234ZM71.8859 222.172H73.0266C73.0344 223.055 73.5969 223.727 74.4797 223.727C75.3703 223.727 75.9328 223.055 75.9406 222.172H77.0812C77.0812 223.648 76.0344 224.648 74.4797 224.648C72.9328 224.648 71.8859 223.648 71.8859 222.172ZM89.5544 228.414H87.9294C87.7106 227.656 87.0856 227.039 86.0387 227.039C84.7341 227.039 83.8825 228.156 83.8825 229.891C83.8825 231.672 84.7419 232.742 86.0544 232.742C87.0544 232.742 87.7106 232.242 87.945 231.383H89.57C89.3278 233.031 87.9762 234.156 86.0387 234.156C83.6872 234.156 82.1716 232.523 82.1716 229.891C82.1716 227.312 83.6872 225.633 86.0231 225.633C88.0544 225.633 89.32 226.898 89.5544 228.414ZM94.1347 226.992C92.955 226.992 92.1269 227.891 92.0409 229.133H96.1503C96.1113 227.875 95.3144 226.992 94.1347 226.992ZM96.1425 231.586H97.7441C97.5097 233.086 96.0878 234.156 94.205 234.156C91.7909 234.156 90.33 232.523 90.33 229.93C90.33 227.352 91.8144 225.633 94.1347 225.633C96.4159 225.633 97.8378 227.242 97.8378 229.734V230.312H92.0331V230.414C92.0331 231.844 92.8925 232.789 94.2441 232.789C95.205 232.789 95.9159 232.305 96.1425 231.586ZM102.379 229.641L106.16 234H104.043L100.785 230.211H100.723V234H99.0431V225.781H100.723V229.297H100.785L104.004 225.781H106.02L102.379 229.641ZM113.037 225.781V227.117H110.459V234H108.78V227.117H106.202V225.781H113.037ZM117.415 234.156C115.063 234.156 113.516 232.539 113.516 229.891C113.516 227.25 115.071 225.633 117.415 225.633C119.758 225.633 121.313 227.25 121.313 229.891C121.313 232.539 119.766 234.156 117.415 234.156ZM117.415 232.766C118.743 232.766 119.594 231.719 119.594 229.891C119.594 228.07 118.735 227.023 117.415 227.023C116.094 227.023 115.235 228.07 115.235 229.891C115.235 231.719 116.094 232.766 117.415 232.766ZM126.815 225.648C128.901 225.648 130.276 227.289 130.276 229.891C130.276 232.492 128.909 234.141 126.847 234.141C125.667 234.141 124.729 233.562 124.261 232.648H124.222V236.719H122.534V225.781H124.167V227.195H124.198C124.683 226.25 125.628 225.648 126.815 225.648ZM126.37 232.711C127.706 232.711 128.542 231.617 128.542 229.891C128.542 228.172 127.706 227.07 126.37 227.07C125.081 227.07 124.214 228.195 124.214 229.891C124.214 231.602 125.073 232.711 126.37 232.711ZM149.593 230.203H133.593V228.656H149.593V230.203ZM154.433 231.391C154.668 232.242 155.34 232.742 156.34 232.742C157.512 232.742 158.387 231.898 158.48 230.375H155.043V229.133H158.441C158.277 227.805 157.441 227.039 156.348 227.039C155.293 227.039 154.652 227.641 154.449 228.414H152.824C153.043 226.891 154.332 225.633 156.363 225.633C158.691 225.633 160.207 227.312 160.207 229.891C160.207 232.523 158.699 234.156 156.355 234.156C154.41 234.156 153.058 233.039 152.808 231.391H154.433ZM167.389 225.781V227.117H164.811V234H163.131V227.117H160.553V225.781H167.389ZM171.766 234.156C169.414 234.156 167.867 232.539 167.867 229.891C167.867 227.25 169.422 225.633 171.766 225.633C174.11 225.633 175.664 227.25 175.664 229.891C175.664 232.539 174.117 234.156 171.766 234.156ZM171.766 232.766C173.094 232.766 173.946 231.719 173.946 229.891C173.946 228.07 173.086 227.023 171.766 227.023C170.446 227.023 169.586 228.07 169.586 229.891C169.586 231.719 170.446 232.766 171.766 232.766ZM183.223 229.641L187.005 234H184.887L181.63 230.211H181.567V234H179.887V225.781H181.567V229.297H181.63L184.848 225.781H186.864L183.223 229.641ZM190.499 232.805C191.679 232.805 192.601 231.992 192.601 230.922V230.273L190.577 230.398C189.569 230.469 188.999 230.914 188.999 231.617C188.999 232.336 189.593 232.805 190.499 232.805ZM190.03 234.141C188.421 234.141 187.296 233.141 187.296 231.664C187.296 230.227 188.398 229.344 190.351 229.234L192.601 229.102V228.469C192.601 227.555 191.983 227.008 190.952 227.008C189.976 227.008 189.366 227.477 189.218 228.211H187.624C187.718 226.727 188.983 225.633 191.015 225.633C193.007 225.633 194.28 226.688 194.28 228.336V234H192.663V232.648H192.624C192.148 233.562 191.108 234.141 190.03 234.141ZM201.939 225.781V227.117H199.361V234H197.681V227.117H195.103V225.781H201.939ZM206.222 226.992C205.042 226.992 204.214 227.891 204.128 229.133H208.238C208.199 227.875 207.402 226.992 206.222 226.992ZM208.23 231.586H209.832C209.597 233.086 208.175 234.156 206.292 234.156C203.878 234.156 202.417 232.523 202.417 229.93C202.417 227.352 203.902 225.633 206.222 225.633C208.503 225.633 209.925 227.242 209.925 229.734V230.312H204.121V230.414C204.121 231.844 204.98 232.789 206.332 232.789C207.292 232.789 208.003 232.305 208.23 231.586ZM216.576 227.117H212.81V234H211.131V225.781H216.576V227.117ZM221.023 234.156C218.672 234.156 217.125 232.539 217.125 229.891C217.125 227.25 218.68 225.633 221.023 225.633C223.367 225.633 224.922 227.25 224.922 229.891C224.922 232.539 223.375 234.156 221.023 234.156ZM221.023 232.766C222.352 232.766 223.203 231.719 223.203 229.891C223.203 228.07 222.344 227.023 221.023 227.023C219.703 227.023 218.844 228.07 218.844 229.891C218.844 231.719 219.703 232.766 221.023 232.766ZM230.424 225.648C232.51 225.648 233.885 227.289 233.885 229.891C233.885 232.492 232.518 234.141 230.455 234.141C229.276 234.141 228.338 233.562 227.869 232.648H227.83V236.719H226.143V225.781H227.776V227.195H227.807C228.291 226.25 229.237 225.648 230.424 225.648ZM229.979 232.711C231.315 232.711 232.151 231.617 232.151 229.891C232.151 228.172 231.315 227.07 229.979 227.07C228.69 227.07 227.822 228.195 227.822 229.891C227.822 231.602 228.682 232.711 229.979 232.711ZM236.762 234H235.098V225.781H236.762V231.539H236.825L240.622 225.781H242.286V234H240.622V228.227H240.559L236.762 234ZM246.975 229.883H248.467V227.109H246.975C246.014 227.109 245.397 227.656 245.397 228.547C245.397 229.328 246.022 229.883 246.975 229.883ZM248.467 234V231.18H247.217L245.225 234H243.319L245.561 230.891C244.421 230.555 243.717 229.703 243.717 228.555C243.717 226.844 244.967 225.781 246.889 225.781H250.124V234H248.467ZM260.175 232.664V227.117H257.316L257.089 230.258C257.027 231.227 256.823 232.07 256.448 232.602V232.664H260.175ZM255.503 236.156H253.948V232.664H254.613C255.214 232.289 255.488 231.297 255.566 230.188L255.863 225.781H261.855V232.664H263.128V236.156H261.566V234H255.503V236.156ZM266.912 232.805C268.091 232.805 269.013 231.992 269.013 230.922V230.273L266.99 230.398C265.982 230.469 265.412 230.914 265.412 231.617C265.412 232.336 266.005 232.805 266.912 232.805ZM266.443 234.141C264.833 234.141 263.708 233.141 263.708 231.664C263.708 230.227 264.81 229.344 266.763 229.234L269.013 229.102V228.469C269.013 227.555 268.396 227.008 267.365 227.008C266.388 227.008 265.779 227.477 265.63 228.211H264.037C264.13 226.727 265.396 225.633 267.427 225.633C269.419 225.633 270.693 226.688 270.693 228.336V234H269.076V232.648H269.037C268.56 233.562 267.521 234.141 266.443 234.141ZM277.625 234V230.422H273.906V234H272.226V225.781H273.906V229.094H277.625V225.781H279.304V234H277.625ZM286.291 234V230.422H282.572V234H280.892V225.781H282.572V229.094H286.291V225.781H287.971V234H286.291ZM296.879 234V225.781H298.551V234H296.879ZM292.66 229.641H291.238V232.672H292.66C293.629 232.672 294.254 232.062 294.254 231.156C294.254 230.242 293.621 229.641 292.66 229.641ZM289.559 234V225.781H291.238V228.32H292.809C294.707 228.32 295.934 229.422 295.934 231.156C295.934 232.898 294.707 234 292.809 234H289.559ZM303.217 230.977H303.178L301.358 234H299.53L302.241 229.898L299.569 225.781H301.459L303.256 228.758H303.288L305.061 225.781H306.92L304.225 229.844L306.889 234H305.03L303.217 230.977ZM309.016 236.32H307.672L308.376 232.195H310.079L309.016 236.32ZM24.2422 245.641L28.0234 250H25.9062L22.6484 246.211H22.5859V250H20.9062V241.781H22.5859V245.297H22.6484L25.8672 241.781H27.8828L24.2422 245.641ZM32.1741 250.156C29.8225 250.156 28.2756 248.539 28.2756 245.891C28.2756 243.25 29.8303 241.633 32.1741 241.633C34.5178 241.633 36.0725 243.25 36.0725 245.891C36.0725 248.539 34.5256 250.156 32.1741 250.156ZM32.1741 248.766C33.5022 248.766 34.3538 247.719 34.3538 245.891C34.3538 244.07 33.4944 243.023 32.1741 243.023C30.8538 243.023 29.9944 244.07 29.9944 245.891C29.9944 247.719 30.8538 248.766 32.1741 248.766ZM43.2544 241.781V243.117H40.6763V250H38.9966V243.117H36.4184V241.781H43.2544ZM47.6316 250.156C45.28 250.156 43.7331 248.539 43.7331 245.891C43.7331 243.25 45.2878 241.633 47.6316 241.633C49.9753 241.633 51.53 243.25 51.53 245.891C51.53 248.539 49.9831 250.156 47.6316 250.156ZM47.6316 248.766C48.9597 248.766 49.8113 247.719 49.8113 245.891C49.8113 244.07 48.9519 243.023 47.6316 243.023C46.3113 243.023 45.4519 244.07 45.4519 245.891C45.4519 247.719 46.3113 248.766 47.6316 248.766ZM57.0322 241.648C59.1181 241.648 60.4931 243.289 60.4931 245.891C60.4931 248.492 59.1259 250.141 57.0634 250.141C55.8838 250.141 54.9463 249.562 54.4775 248.648H54.4384V252.719H52.7509V241.781H54.3838V243.195H54.415C54.8994 242.25 55.8447 241.648 57.0322 241.648ZM56.5869 248.711C57.9228 248.711 58.7588 247.617 58.7588 245.891C58.7588 244.172 57.9228 243.07 56.5869 243.07C55.2978 243.07 54.4306 244.195 54.4306 245.891C54.4306 247.602 55.29 248.711 56.5869 248.711ZM64.5891 248.805C65.7687 248.805 66.6906 247.992 66.6906 246.922V246.273L64.6672 246.398C63.6594 246.469 63.0891 246.914 63.0891 247.617C63.0891 248.336 63.6828 248.805 64.5891 248.805ZM64.1203 250.141C62.5109 250.141 61.3859 249.141 61.3859 247.664C61.3859 246.227 62.4875 245.344 64.4406 245.234L66.6906 245.102V244.469C66.6906 243.555 66.0734 243.008 65.0422 243.008C64.0656 243.008 63.4562 243.477 63.3078 244.211H61.7141C61.8078 242.727 63.0734 241.633 65.1047 241.633C67.0969 241.633 68.3703 242.688 68.3703 244.336V250H66.7531V248.648H66.7141C66.2375 249.562 65.1984 250.141 64.1203 250.141ZM73.0209 245.883H74.5131V243.109H73.0209C72.06 243.109 71.4428 243.656 71.4428 244.547C71.4428 245.328 72.0678 245.883 73.0209 245.883ZM74.5131 250V247.18H73.2631L71.2709 250H69.3647L71.6069 246.891C70.4663 246.555 69.7631 245.703 69.7631 244.555C69.7631 242.844 71.0131 241.781 72.935 241.781H76.1694V250H74.5131ZM87.7675 244.414H86.1425C85.9238 243.656 85.2988 243.039 84.2519 243.039C82.9472 243.039 82.0956 244.156 82.0956 245.891C82.0956 247.672 82.955 248.742 84.2675 248.742C85.2675 248.742 85.9238 248.242 86.1581 247.383H87.7831C87.5409 249.031 86.1894 250.156 84.2519 250.156C81.9003 250.156 80.3847 248.523 80.3847 245.891C80.3847 243.312 81.9003 241.633 84.2363 241.633C86.2675 241.633 87.5331 242.898 87.7675 244.414ZM92.4416 250.156C90.09 250.156 88.5431 248.539 88.5431 245.891C88.5431 243.25 90.0978 241.633 92.4416 241.633C94.7853 241.633 96.34 243.25 96.34 245.891C96.34 248.539 94.7931 250.156 92.4416 250.156ZM92.4416 248.766C93.7697 248.766 94.6212 247.719 94.6212 245.891C94.6212 244.07 93.7619 243.023 92.4416 243.023C91.1212 243.023 90.2619 244.07 90.2619 245.891C90.2619 247.719 91.1212 248.766 92.4416 248.766ZM104.569 244.414H102.944C102.725 243.656 102.1 243.039 101.053 243.039C99.7484 243.039 98.8969 244.156 98.8969 245.891C98.8969 247.672 99.7562 248.742 101.069 248.742C102.069 248.742 102.725 248.242 102.959 247.383H104.584C104.342 249.031 102.991 250.156 101.053 250.156C98.7016 250.156 97.1859 248.523 97.1859 245.891C97.1859 243.312 98.7016 241.633 101.037 241.633C103.069 241.633 104.334 242.898 104.569 244.414ZM111.782 241.781V243.117H109.204V250H107.524V243.117H104.946V241.781H111.782ZM115.393 248.805C116.573 248.805 117.495 247.992 117.495 246.922V246.273L115.472 246.398C114.464 246.469 113.893 246.914 113.893 247.617C113.893 248.336 114.487 248.805 115.393 248.805ZM114.925 250.141C113.315 250.141 112.19 249.141 112.19 247.664C112.19 246.227 113.292 245.344 115.245 245.234L117.495 245.102V244.469C117.495 243.555 116.878 243.008 115.847 243.008C114.87 243.008 114.261 243.477 114.112 244.211H112.518C112.612 242.727 113.878 241.633 115.909 241.633C117.901 241.633 119.175 242.688 119.175 244.336V250H117.558V248.648H117.518C117.042 249.562 116.003 250.141 114.925 250.141ZM124.099 243.008H122.372V245.164H123.935C124.888 245.164 125.364 244.797 125.364 244.07C125.364 243.391 124.919 243.008 124.099 243.008ZM124.044 246.344H122.372V248.773H124.232C125.185 248.773 125.7 248.352 125.7 247.562C125.7 246.75 125.153 246.344 124.044 246.344ZM120.708 250V241.781H124.442C126.044 241.781 127.013 242.578 127.013 243.875C127.013 244.727 126.403 245.5 125.614 245.648V245.711C126.677 245.852 127.38 246.602 127.38 247.633C127.38 249.078 126.271 250 124.489 250H120.708ZM130.952 246.258C130.796 248.586 130.21 250.078 128.367 250.078C128.093 250.078 127.898 250.031 127.796 249.992V248.508C127.874 248.531 128.031 248.57 128.242 248.57C129.038 248.57 129.32 247.617 129.413 246.188L129.695 241.781H135.39V250H133.71V243.117H131.179L130.952 246.258ZM140.08 245.883H141.572V243.109H140.08C139.119 243.109 138.502 243.656 138.502 244.547C138.502 245.328 139.127 245.883 140.08 245.883ZM141.572 250V247.18H140.322L138.33 250H136.423L138.666 246.891C137.525 246.555 136.822 245.703 136.822 244.555C136.822 242.844 138.072 241.781 139.994 241.781H143.228V250H141.572ZM148.246 242.992C147.066 242.992 146.238 243.891 146.152 245.133H150.262C150.223 243.875 149.426 242.992 148.246 242.992ZM150.254 247.586H151.855C151.621 249.086 150.199 250.156 148.316 250.156C145.902 250.156 144.441 248.523 144.441 245.93C144.441 243.352 145.926 241.633 148.246 241.633C150.527 241.633 151.949 243.242 151.949 245.734V246.312H146.144V246.414C146.144 247.844 147.004 248.789 148.355 248.789C149.316 248.789 150.027 248.305 150.254 247.586ZM159.107 241.781V243.117H156.529V250H154.85V243.117H152.272V241.781H159.107ZM168.581 248.664V243.117H165.721L165.495 246.258C165.432 247.227 165.229 248.07 164.854 248.602V248.664H168.581ZM163.909 252.156H162.354V248.664H163.018C163.62 248.289 163.893 247.297 163.971 246.188L164.268 241.781H170.26V248.664H171.534V252.156H169.971V250H163.909V252.156ZM175.973 250.156C173.622 250.156 172.075 248.539 172.075 245.891C172.075 243.25 173.63 241.633 175.973 241.633C178.317 241.633 179.872 243.25 179.872 245.891C179.872 248.539 178.325 250.156 175.973 250.156ZM175.973 248.766C177.302 248.766 178.153 247.719 178.153 245.891C178.153 244.07 177.294 243.023 175.973 243.023C174.653 243.023 173.794 244.07 173.794 245.891C173.794 247.719 174.653 248.766 175.973 248.766ZM183.273 246.258C183.116 248.586 182.53 250.078 180.687 250.078C180.413 250.078 180.218 250.031 180.116 249.992V248.508C180.194 248.531 180.351 248.57 180.562 248.57C181.358 248.57 181.64 247.617 181.733 246.188L182.015 241.781H187.71V250H186.03V243.117H183.499L183.273 246.258ZM196.142 250.156C193.939 250.156 192.517 248.766 192.329 246.422H190.962V250H189.283V241.781H190.962V245.094H192.361C192.634 242.922 194.033 241.633 196.142 241.633C198.517 241.633 199.986 243.234 199.986 245.891C199.986 248.555 198.525 250.156 196.142 250.156ZM196.142 248.742C197.486 248.742 198.259 247.703 198.259 245.891C198.259 244.078 197.486 243.047 196.142 243.047C194.798 243.047 194.033 244.078 194.033 245.891C194.033 247.703 194.798 248.742 196.142 248.742ZM207.748 250.156C205.396 250.156 203.849 248.539 203.849 245.891C203.849 243.25 205.404 241.633 207.748 241.633C210.092 241.633 211.646 243.25 211.646 245.891C211.646 248.539 210.099 250.156 207.748 250.156ZM207.748 248.766C209.076 248.766 209.928 247.719 209.928 245.891C209.928 244.07 209.068 243.023 207.748 243.023C206.428 243.023 205.568 244.07 205.568 245.891C205.568 247.719 206.428 248.766 207.748 248.766ZM218.828 241.781V243.117H216.25V250H214.57V243.117H211.992V241.781H218.828ZM226.372 250.156C224.02 250.156 222.473 248.539 222.473 245.891C222.473 243.25 224.028 241.633 226.372 241.633C228.715 241.633 230.27 243.25 230.27 245.891C230.27 248.539 228.723 250.156 226.372 250.156ZM226.372 248.766C227.7 248.766 228.551 247.719 228.551 245.891C228.551 244.07 227.692 243.023 226.372 243.023C225.051 243.023 224.192 244.07 224.192 245.891C224.192 247.719 225.051 248.766 226.372 248.766ZM235.147 250.156C232.577 250.156 231.186 248.477 231.186 245.227C231.186 240.664 232.514 238.812 235.639 238.703L236.374 238.68C237.257 238.641 238.147 238.477 238.522 238.273V239.672C238.311 239.867 237.475 240.07 236.467 240.109L235.749 240.133C233.553 240.211 232.858 241.195 232.553 243.516H232.616C233.139 242.547 234.132 242.016 235.421 242.016C237.639 242.016 239.061 243.562 239.061 245.984C239.061 248.57 237.569 250.156 235.147 250.156ZM235.132 248.742C236.522 248.742 237.335 247.758 237.335 246.008C237.335 244.344 236.522 243.391 235.132 243.391C233.733 243.391 232.913 244.344 232.913 246.008C232.913 247.758 233.725 248.742 235.132 248.742ZM252.087 252.156H250.532V250H240.274V241.781H241.954V248.664H244.712V241.781H246.392V248.664H249.149V241.781H250.829V248.664H252.087V252.156ZM256.448 242.992C255.269 242.992 254.441 243.891 254.355 245.133H258.464C258.425 243.875 257.628 242.992 256.448 242.992ZM258.456 247.586H260.058C259.823 249.086 258.402 250.156 256.519 250.156C254.105 250.156 252.644 248.523 252.644 245.93C252.644 243.352 254.128 241.633 256.448 241.633C258.73 241.633 260.152 243.242 260.152 245.734V246.312H254.347V246.414C254.347 247.844 255.206 248.789 256.558 248.789C257.519 248.789 258.23 248.305 258.456 247.586ZM263.021 250H261.357V241.781H263.021V247.539H263.083L266.88 241.781H268.544V250H266.88V244.227H266.818L263.021 250ZM262.474 238.172H263.615C263.622 239.055 264.185 239.727 265.068 239.727C265.958 239.727 266.521 239.055 266.529 238.172H267.669C267.669 239.648 266.622 240.648 265.068 240.648C263.521 240.648 262.474 239.648 262.474 238.172ZM280.143 244.414H278.518C278.299 243.656 277.674 243.039 276.627 243.039C275.322 243.039 274.471 244.156 274.471 245.891C274.471 247.672 275.33 248.742 276.643 248.742C277.643 248.742 278.299 248.242 278.533 247.383H280.158C279.916 249.031 278.564 250.156 276.627 250.156C274.275 250.156 272.76 248.523 272.76 245.891C272.76 243.312 274.275 241.633 276.611 241.633C278.643 241.633 279.908 242.898 280.143 244.414ZM282.004 253.062C281.871 253.062 281.442 253.047 281.317 253.023V251.656C281.442 251.688 281.723 251.688 281.863 251.688C282.652 251.688 283.067 251.359 283.324 250.516C283.324 250.5 283.473 250.016 283.473 250.008L280.504 241.781H282.332L284.418 248.469H284.442L286.527 241.781H288.309L285.223 250.43C284.52 252.422 283.715 253.062 282.004 253.062ZM290.819 250H289.194V241.781H291.311L293.944 247.805H294.006L296.655 241.781H298.725V250H297.084V244.297H297.03L294.569 249.68H293.334L290.873 244.297H290.819V250ZM301.922 250H300.297V241.781H302.415L305.047 247.805H305.11L307.758 241.781H309.829V250H308.188V244.297H308.133L305.672 249.68H304.438L301.977 244.297H301.922V250ZM318.722 250V241.781H320.393V250H318.722ZM314.503 245.641H313.081V248.672H314.503C315.472 248.672 316.097 248.062 316.097 247.156C316.097 246.242 315.464 245.641 314.503 245.641ZM311.401 250V241.781H313.081V244.32H314.651C316.55 244.32 317.776 245.422 317.776 247.156C317.776 248.898 316.55 250 314.651 250H311.401ZM323.169 250.086C322.599 250.086 322.146 249.633 322.146 249.062C322.146 248.492 322.599 248.039 323.169 248.039C323.739 248.039 324.193 248.492 324.193 249.062C324.193 249.633 323.739 250.086 323.169 250.086ZM25.6406 282H21.1172V270.727H25.6172C27.6172 270.727 28.9297 271.836 28.9297 273.539C28.9297 274.734 28.0469 275.805 26.9219 275.992V276.055C28.4531 276.227 29.4844 277.312 29.4844 278.812C29.4844 280.797 28.0391 282 25.6406 282ZM22.8672 272.156V275.523H24.8281C26.3438 275.523 27.1797 274.898 27.1797 273.781C27.1797 272.734 26.4609 272.156 25.1953 272.156H22.8672ZM22.8672 280.57H25.2812C26.8594 280.57 27.6953 279.922 27.6953 278.703C27.6953 277.484 26.8359 276.859 25.1797 276.859H22.8672V280.57ZM35.3325 282H33.7075V273.781H35.8247L38.4575 279.805H38.52L41.1684 273.781H43.2388V282H41.5981V276.297H41.5434L39.0825 281.68H37.8481L35.3872 276.297H35.3325V282ZM47.6941 280.805C48.8738 280.805 49.7956 279.992 49.7956 278.922V278.273L47.7722 278.398C46.7644 278.469 46.1941 278.914 46.1941 279.617C46.1941 280.336 46.7878 280.805 47.6941 280.805ZM47.2253 282.141C45.6159 282.141 44.4909 281.141 44.4909 279.664C44.4909 278.227 45.5925 277.344 47.5456 277.234L49.7956 277.102V276.469C49.7956 275.555 49.1784 275.008 48.1472 275.008C47.1706 275.008 46.5613 275.477 46.4128 276.211H44.8191C44.9128 274.727 46.1784 273.633 48.2097 273.633C50.2019 273.633 51.4753 274.688 51.4753 276.336V282H49.8581V280.648H49.8191C49.3425 281.562 48.3034 282.141 47.2253 282.141ZM59.1338 273.781V275.117H56.5556V282H54.8759V275.117H52.2978V273.781H59.1338ZM63.4172 274.992C62.2375 274.992 61.4094 275.891 61.3234 277.133H65.4328C65.3937 275.875 64.5969 274.992 63.4172 274.992ZM65.425 279.586H67.0266C66.7922 281.086 65.3703 282.156 63.4875 282.156C61.0734 282.156 59.6125 280.523 59.6125 277.93C59.6125 275.352 61.0969 273.633 63.4172 273.633C65.6984 273.633 67.1203 275.242 67.1203 277.734V278.312H61.3156V278.414C61.3156 279.844 62.175 280.789 63.5266 280.789C64.4875 280.789 65.1984 280.305 65.425 279.586ZM72.6147 273.648C74.7006 273.648 76.0756 275.289 76.0756 277.891C76.0756 280.492 74.7084 282.141 72.6459 282.141C71.4663 282.141 70.5288 281.562 70.06 280.648H70.0209V284.719H68.3334V273.781H69.9663V275.195H69.9975C70.4819 274.25 71.4272 273.648 72.6147 273.648ZM72.1694 280.711C73.5053 280.711 74.3413 279.617 74.3413 277.891C74.3413 276.172 73.5053 275.07 72.1694 275.07C70.8803 275.07 70.0131 276.195 70.0131 277.891C70.0131 279.602 70.8725 280.711 72.1694 280.711ZM78.9528 282H77.2887V273.781H78.9528V279.539H79.0153L82.8122 273.781H84.4762V282H82.8122V276.227H82.7497L78.9528 282ZM88.9316 280.805C90.1113 280.805 91.0331 279.992 91.0331 278.922V278.273L89.0097 278.398C88.0019 278.469 87.4316 278.914 87.4316 279.617C87.4316 280.336 88.0253 280.805 88.9316 280.805ZM88.4628 282.141C86.8534 282.141 85.7284 281.141 85.7284 279.664C85.7284 278.227 86.83 277.344 88.7831 277.234L91.0331 277.102V276.469C91.0331 275.555 90.4159 275.008 89.3847 275.008C88.4081 275.008 87.7988 275.477 87.6503 276.211H86.0566C86.1503 274.727 87.4159 273.633 89.4472 273.633C91.4394 273.633 92.7128 274.688 92.7128 276.336V282H91.0956V280.648H91.0566C90.58 281.562 89.5409 282.141 88.4628 282.141ZM96.7306 278.258C96.5744 280.586 95.9884 282.078 94.1447 282.078C93.8712 282.078 93.6759 282.031 93.5744 281.992V280.508C93.6525 280.531 93.8087 280.57 94.0197 280.57C94.8166 280.57 95.0978 279.617 95.1916 278.188L95.4728 273.781H101.168V282H99.4884V275.117H96.9572L96.7306 278.258ZM105.623 280.805C106.803 280.805 107.725 279.992 107.725 278.922V278.273L105.702 278.398C104.694 278.469 104.123 278.914 104.123 279.617C104.123 280.336 104.717 280.805 105.623 280.805ZM105.155 282.141C103.545 282.141 102.42 281.141 102.42 279.664C102.42 278.227 103.522 277.344 105.475 277.234L107.725 277.102V276.469C107.725 275.555 107.108 275.008 106.077 275.008C105.1 275.008 104.491 275.477 104.342 276.211H102.748C102.842 274.727 104.108 273.633 106.139 273.633C108.131 273.633 109.405 274.688 109.405 276.336V282H107.787V280.648H107.748C107.272 281.562 106.233 282.141 105.155 282.141ZM114.024 278.977H113.985L112.165 282H110.337L113.048 277.898L110.376 273.781H112.266L114.063 276.758H114.094L115.868 273.781H117.727L115.032 277.844L117.696 282H115.837L114.024 278.977ZM127.107 282V278.422H123.388V282H121.708V273.781H123.388V277.094H127.107V273.781H128.786V282H127.107ZM133.257 280.805C134.437 280.805 135.359 279.992 135.359 278.922V278.273L133.335 278.398C132.327 278.469 131.757 278.914 131.757 279.617C131.757 280.336 132.351 280.805 133.257 280.805ZM132.788 282.141C131.179 282.141 130.054 281.141 130.054 279.664C130.054 278.227 131.156 277.344 133.109 277.234L135.359 277.102V276.469C135.359 275.555 134.742 275.008 133.71 275.008C132.734 275.008 132.124 275.477 131.976 276.211H130.382C130.476 274.727 131.742 273.633 133.773 273.633C135.765 273.633 137.038 274.688 137.038 276.336V282H135.421V280.648H135.382C134.906 281.562 133.867 282.141 132.788 282.141ZM144.465 280.805C145.644 280.805 146.566 279.992 146.566 278.922V278.273L144.543 278.398C143.535 278.469 142.965 278.914 142.965 279.617C142.965 280.336 143.558 280.805 144.465 280.805ZM143.996 282.141C142.387 282.141 141.262 281.141 141.262 279.664C141.262 278.227 142.363 277.344 144.316 277.234L146.566 277.102V276.469C146.566 275.555 145.949 275.008 144.918 275.008C143.941 275.008 143.332 275.477 143.183 276.211H141.59C141.683 274.727 142.949 273.633 144.98 273.633C146.973 273.633 148.246 274.688 148.246 276.336V282H146.629V280.648H146.59C146.113 281.562 145.074 282.141 143.996 282.141ZM155.178 282V278.422H151.459V282H149.779V273.781H151.459V277.094H155.178V273.781H156.857V282H155.178ZM163.891 275.117H160.125V282H158.446V273.781H163.891V275.117ZM166.784 278.258C166.628 280.586 166.042 282.078 164.198 282.078C163.924 282.078 163.729 282.031 163.628 281.992V280.508C163.706 280.531 163.862 280.57 164.073 280.57C164.87 280.57 165.151 279.617 165.245 278.188L165.526 273.781H171.221V282H169.542V275.117H167.01L166.784 278.258ZM174.458 282H172.794V273.781H174.458V279.539H174.52L178.317 273.781H179.981V282H178.317V276.227H178.255L174.458 282ZM183.218 282H181.554V273.781H183.218V279.539H183.28L187.077 273.781H188.741V282H187.077V276.227H187.015L183.218 282ZM182.671 270.172H183.812C183.819 271.055 184.382 271.727 185.265 271.727C186.155 271.727 186.718 271.055 186.726 270.172H187.866C187.866 271.648 186.819 272.648 185.265 272.648C183.718 272.648 182.671 271.648 182.671 270.172ZM197.329 276.414H195.704C195.486 275.656 194.861 275.039 193.814 275.039C192.509 275.039 191.658 276.156 191.658 277.891C191.658 279.672 192.517 280.742 193.829 280.742C194.829 280.742 195.486 280.242 195.72 279.383H197.345C197.103 281.031 195.751 282.156 193.814 282.156C191.462 282.156 189.947 280.523 189.947 277.891C189.947 275.312 191.462 273.633 193.798 273.633C195.829 273.633 197.095 274.898 197.329 276.414ZM201.8 277.641L205.582 282H203.464L200.207 278.211H200.144V282H198.464V273.781H200.144V277.297H200.207L203.425 273.781H205.441L201.8 277.641ZM209.732 282.156C207.381 282.156 205.834 280.539 205.834 277.891C205.834 275.25 207.388 273.633 209.732 273.633C212.076 273.633 213.631 275.25 213.631 277.891C213.631 280.539 212.084 282.156 209.732 282.156ZM209.732 280.766C211.06 280.766 211.912 279.719 211.912 277.891C211.912 276.07 211.053 275.023 209.732 275.023C208.412 275.023 207.553 276.07 207.553 277.891C207.553 279.719 208.412 280.766 209.732 280.766ZM216.469 282H214.844V273.781H216.961L219.594 279.805H219.656L222.305 273.781H224.375V282H222.734V276.297H222.68L220.219 281.68H218.984L216.523 276.297H216.469V282ZM232.075 277.883H233.567V275.109H232.075C231.114 275.109 230.497 275.656 230.497 276.547C230.497 277.328 231.122 277.883 232.075 277.883ZM233.567 282V279.18H232.317L230.325 282H228.418L230.661 278.891C229.52 278.555 228.817 277.703 228.817 276.555C228.817 274.844 230.067 273.781 231.989 273.781H235.223V282H233.567ZM239.749 282.156C237.827 282.156 236.491 281.211 236.342 279.695H238.007C238.178 280.406 238.803 280.797 239.749 280.797C240.827 280.797 241.428 280.297 241.428 279.57C241.428 278.75 240.874 278.375 239.757 278.375H238.553V277.133H239.733C240.678 277.133 241.171 276.773 241.171 276.055C241.171 275.422 240.717 274.977 239.757 274.977C238.85 274.977 238.241 275.367 238.132 276.008H236.514C236.686 274.547 237.913 273.633 239.749 273.633C241.741 273.633 242.819 274.523 242.819 275.891C242.819 276.727 242.303 277.438 241.507 277.641V277.703C242.553 277.945 243.108 278.625 243.108 279.562C243.108 281.125 241.788 282.156 239.749 282.156ZM251.673 282V273.781H253.345V282H251.673ZM247.454 277.641H246.032V280.672H247.454C248.423 280.672 249.048 280.062 249.048 279.156C249.048 278.242 248.415 277.641 247.454 277.641ZM244.352 282V273.781H246.032V276.32H247.602C249.501 276.32 250.727 277.422 250.727 279.156C250.727 280.898 249.501 282 247.602 282H244.352ZM258.261 277.641L262.042 282H259.925L256.667 278.211H256.605V282H254.925V273.781H256.605V277.297H256.667L259.886 273.781H261.902L258.261 277.641ZM266.099 274.992C264.919 274.992 264.091 275.891 264.005 277.133H268.115C268.076 275.875 267.279 274.992 266.099 274.992ZM268.107 279.586H269.708C269.474 281.086 268.052 282.156 266.169 282.156C263.755 282.156 262.294 280.523 262.294 277.93C262.294 275.352 263.779 273.633 266.099 273.633C268.38 273.633 269.802 275.242 269.802 277.734V278.312H263.997V278.414C263.997 279.844 264.857 280.789 266.208 280.789C267.169 280.789 267.88 280.305 268.107 279.586ZM27.1562 289.781V291.117H24.5781V298H22.8984V291.117H20.3203V289.781H27.1562ZM30.7678 296.805C31.9475 296.805 32.8694 295.992 32.8694 294.922V294.273L30.8459 294.398C29.8381 294.469 29.2678 294.914 29.2678 295.617C29.2678 296.336 29.8616 296.805 30.7678 296.805ZM30.2991 298.141C28.6897 298.141 27.5647 297.141 27.5647 295.664C27.5647 294.227 28.6663 293.344 30.6194 293.234L32.8694 293.102V292.469C32.8694 291.555 32.2522 291.008 31.2209 291.008C30.2444 291.008 29.635 291.477 29.4866 292.211H27.8928C27.9866 290.727 29.2522 289.633 31.2834 289.633C33.2756 289.633 34.5491 290.688 34.5491 292.336V298H32.9319V296.648H32.8928C32.4163 297.562 31.3772 298.141 30.2991 298.141ZM39.4184 293.641L43.1997 298H41.0825L37.8247 294.211H37.7622V298H36.0825V289.781H37.7622V293.297H37.8247L41.0434 289.781H43.0591L39.4184 293.641ZM46.6941 296.805C47.8738 296.805 48.7956 295.992 48.7956 294.922V294.273L46.7722 294.398C45.7644 294.469 45.1941 294.914 45.1941 295.617C45.1941 296.336 45.7878 296.805 46.6941 296.805ZM46.2253 298.141C44.6159 298.141 43.4909 297.141 43.4909 295.664C43.4909 294.227 44.5925 293.344 46.5456 293.234L48.7956 293.102V292.469C48.7956 291.555 48.1784 291.008 47.1472 291.008C46.1706 291.008 45.5613 291.477 45.4128 292.211H43.8191C43.9128 290.727 45.1784 289.633 47.2097 289.633C49.2019 289.633 50.4753 290.688 50.4753 292.336V298H48.8581V296.648H48.8191C48.3425 297.562 47.3034 298.141 46.2253 298.141ZM55.1259 293.883H56.6181V291.109H55.1259C54.165 291.109 53.5478 291.656 53.5478 292.547C53.5478 293.328 54.1728 293.883 55.1259 293.883ZM56.6181 298V295.18H55.3681L53.3759 298H51.4697L53.7119 294.891C52.5713 294.555 51.8681 293.703 51.8681 292.555C51.8681 290.844 53.1181 289.781 55.04 289.781H58.2744V298H56.6181ZM68.3256 296.664V291.117H65.4663L65.2397 294.258C65.1772 295.227 64.9741 296.07 64.5991 296.602V296.664H68.3256ZM63.6538 300.156H62.0991V296.664H62.7631C63.3647 296.289 63.6381 295.297 63.7163 294.188L64.0131 289.781H70.0053V296.664H71.2788V300.156H69.7163V298H63.6538V300.156ZM73.8434 298H72.1794V289.781H73.8434V295.539H73.9059L77.7028 289.781H79.3669V298H77.7028V292.227H77.6403L73.8434 298ZM83.8222 296.805C85.0019 296.805 85.9238 295.992 85.9238 294.922V294.273L83.9003 294.398C82.8925 294.469 82.3222 294.914 82.3222 295.617C82.3222 296.336 82.9159 296.805 83.8222 296.805ZM83.3534 298.141C81.7441 298.141 80.6191 297.141 80.6191 295.664C80.6191 294.227 81.7206 293.344 83.6738 293.234L85.9238 293.102V292.469C85.9238 291.555 85.3066 291.008 84.2753 291.008C83.2988 291.008 82.6894 291.477 82.5409 292.211H80.9472C81.0409 290.727 82.3066 289.633 84.3378 289.633C86.33 289.633 87.6034 290.688 87.6034 292.336V298H85.9863V296.648H85.9472C85.4706 297.562 84.4316 298.141 83.3534 298.141ZM94.5822 291.117H90.8166V298H89.1369V289.781H94.5822V291.117ZM100.045 289.648C102.131 289.648 103.506 291.289 103.506 293.891C103.506 296.492 102.139 298.141 100.077 298.141C98.8969 298.141 97.9594 297.562 97.4906 296.648H97.4516V300.719H95.7641V289.781H97.3969V291.195H97.4281C97.9125 290.25 98.8578 289.648 100.045 289.648ZM99.6 296.711C100.936 296.711 101.772 295.617 101.772 293.891C101.772 292.172 100.936 291.07 99.6 291.07C98.3109 291.07 97.4437 292.195 97.4437 293.891C97.4437 295.602 98.3031 296.711 99.6 296.711ZM107.602 296.805C108.782 296.805 109.704 295.992 109.704 294.922V294.273L107.68 294.398C106.673 294.469 106.102 294.914 106.102 295.617C106.102 296.336 106.696 296.805 107.602 296.805ZM107.133 298.141C105.524 298.141 104.399 297.141 104.399 295.664C104.399 294.227 105.501 293.344 107.454 293.234L109.704 293.102V292.469C109.704 291.555 109.087 291.008 108.055 291.008C107.079 291.008 106.469 291.477 106.321 292.211H104.727C104.821 290.727 106.087 289.633 108.118 289.633C110.11 289.633 111.383 290.688 111.383 292.336V298H109.766V296.648H109.727C109.251 297.562 108.212 298.141 107.133 298.141ZM114.542 298H112.917V289.781H115.034L117.667 295.805H117.729L120.378 289.781H122.448V298H120.808V292.297H120.753L118.292 297.68H117.058L114.597 292.297H114.542V298ZM125.646 298H124.021V289.781H126.138L128.771 295.805H128.833L131.482 289.781H133.552V298H131.911V292.297H131.857L129.396 297.68H128.161L125.7 292.297H125.646V298ZM138.007 296.805C139.187 296.805 140.109 295.992 140.109 294.922V294.273L138.085 294.398C137.077 294.469 136.507 294.914 136.507 295.617C136.507 296.336 137.101 296.805 138.007 296.805ZM137.538 298.141C135.929 298.141 134.804 297.141 134.804 295.664C134.804 294.227 135.906 293.344 137.859 293.234L140.109 293.102V292.469C140.109 291.555 139.492 291.008 138.46 291.008C137.484 291.008 136.874 291.477 136.726 292.211H135.132C135.226 290.727 136.492 289.633 138.523 289.633C140.515 289.633 141.788 290.688 141.788 292.336V298H140.171V296.648H140.132C139.656 297.562 138.617 298.141 137.538 298.141ZM151.73 298V294.422H148.012V298H146.332V289.781H148.012V293.094H151.73V289.781H153.41V298H151.73ZM157.881 296.805C159.061 296.805 159.982 295.992 159.982 294.922V294.273L157.959 294.398C156.951 294.469 156.381 294.914 156.381 295.617C156.381 296.336 156.975 296.805 157.881 296.805ZM157.412 298.141C155.803 298.141 154.678 297.141 154.678 295.664C154.678 294.227 155.779 293.344 157.732 293.234L159.982 293.102V292.469C159.982 291.555 159.365 291.008 158.334 291.008C157.357 291.008 156.748 291.477 156.6 292.211H155.006C155.1 290.727 156.365 289.633 158.397 289.633C160.389 289.633 161.662 290.688 161.662 292.336V298H160.045V296.648H160.006C159.529 297.562 158.49 298.141 157.412 298.141ZM166.149 298.156C164.227 298.156 162.891 297.211 162.742 295.695H164.407C164.578 296.406 165.203 296.797 166.149 296.797C167.227 296.797 167.828 296.297 167.828 295.57C167.828 294.75 167.274 294.375 166.157 294.375H164.953V293.133H166.133C167.078 293.133 167.571 292.773 167.571 292.055C167.571 291.422 167.117 290.977 166.157 290.977C165.25 290.977 164.641 291.367 164.532 292.008H162.914C163.086 290.547 164.313 289.633 166.149 289.633C168.141 289.633 169.219 290.523 169.219 291.891C169.219 292.727 168.703 293.438 167.907 293.641V293.703C168.953 293.945 169.508 294.625 169.508 295.562C169.508 297.125 168.188 298.156 166.149 298.156ZM178.073 298V289.781H179.745V298H178.073ZM173.854 293.641H172.432V296.672H173.854C174.823 296.672 175.448 296.062 175.448 295.156C175.448 294.242 174.815 293.641 173.854 293.641ZM170.753 298V289.781H172.432V292.32H174.003C175.901 292.32 177.128 293.422 177.128 295.156C177.128 296.898 175.901 298 174.003 298H170.753ZM184.716 291.008H182.989V293.164H184.552C185.505 293.164 185.981 292.797 185.981 292.07C185.981 291.391 185.536 291.008 184.716 291.008ZM184.661 294.344H182.989V296.773H184.848C185.802 296.773 186.317 296.352 186.317 295.562C186.317 294.75 185.77 294.344 184.661 294.344ZM181.325 298V289.781H185.059C186.661 289.781 187.63 290.578 187.63 291.875C187.63 292.727 187.02 293.5 186.231 293.648V293.711C187.294 293.852 187.997 294.602 187.997 295.633C187.997 297.078 186.887 298 185.106 298H181.325ZM192.14 296.805C193.319 296.805 194.241 295.992 194.241 294.922V294.273L192.218 294.398C191.21 294.469 190.64 294.914 190.64 295.617C190.64 296.336 191.233 296.805 192.14 296.805ZM191.671 298.141C190.062 298.141 188.937 297.141 188.937 295.664C188.937 294.227 190.038 293.344 191.991 293.234L194.241 293.102V292.469C194.241 291.555 193.624 291.008 192.593 291.008C191.616 291.008 191.007 291.477 190.858 292.211H189.265C189.358 290.727 190.624 289.633 192.655 289.633C194.648 289.633 195.921 290.688 195.921 292.336V298H194.304V296.648H194.265C193.788 297.562 192.749 298.141 191.671 298.141ZM200.9 290.992C199.72 290.992 198.892 291.891 198.806 293.133H202.915C202.876 291.875 202.079 290.992 200.9 290.992ZM202.908 295.586H204.509C204.275 297.086 202.853 298.156 200.97 298.156C198.556 298.156 197.095 296.523 197.095 293.93C197.095 291.352 198.579 289.633 200.9 289.633C203.181 289.633 204.603 291.242 204.603 293.734V294.312H198.798V294.414C198.798 295.844 199.658 296.789 201.009 296.789C201.97 296.789 202.681 296.305 202.908 295.586ZM211.761 289.781V291.117H209.183V298H207.503V291.117H204.925V289.781H211.761ZM219.615 292.414H217.99C217.771 291.656 217.146 291.039 216.099 291.039C214.795 291.039 213.943 292.156 213.943 293.891C213.943 295.672 214.803 296.742 216.115 296.742C217.115 296.742 217.771 296.242 218.006 295.383H219.631C219.388 297.031 218.037 298.156 216.099 298.156C213.748 298.156 212.232 296.523 212.232 293.891C212.232 291.312 213.748 289.633 216.084 289.633C218.115 289.633 219.381 290.898 219.615 292.414ZM223.82 293.883H225.312V291.109H223.82C222.859 291.109 222.242 291.656 222.242 292.547C222.242 293.328 222.867 293.883 223.82 293.883ZM225.312 298V295.18H224.062L222.07 298H220.164L222.406 294.891C221.266 294.555 220.562 293.703 220.562 292.555C220.562 290.844 221.812 289.781 223.734 289.781H226.969V298H225.312ZM235.762 289.648C237.848 289.648 239.223 291.289 239.223 293.891C239.223 296.492 237.856 298.141 235.793 298.141C234.614 298.141 233.676 297.562 233.208 296.648H233.168V300.719H231.481V289.781H233.114V291.195H233.145C233.629 290.25 234.575 289.648 235.762 289.648ZM235.317 296.711C236.653 296.711 237.489 295.617 237.489 293.891C237.489 292.172 236.653 291.07 235.317 291.07C234.028 291.07 233.161 292.195 233.161 293.891C233.161 295.602 234.02 296.711 235.317 296.711ZM240.342 298V289.781H242.03V298H240.342ZM241.186 288.578C240.647 288.578 240.21 288.148 240.21 287.617C240.21 287.078 240.647 286.648 241.186 286.648C241.733 286.648 242.171 287.078 242.171 287.617C242.171 288.148 241.733 288.578 241.186 288.578ZM246.954 290.992C245.774 290.992 244.946 291.891 244.86 293.133H248.97C248.931 291.875 248.134 290.992 246.954 290.992ZM248.962 295.586H250.563C250.329 297.086 248.907 298.156 247.024 298.156C244.61 298.156 243.149 296.523 243.149 293.93C243.149 291.352 244.634 289.633 246.954 289.633C249.235 289.633 250.657 291.242 250.657 293.734V294.312H244.852V294.414C244.852 295.844 245.712 296.789 247.063 296.789C248.024 296.789 248.735 296.305 248.962 295.586ZM261.794 292.609H260.185C260.013 291.734 259.357 291.039 258.255 291.039C256.951 291.039 256.091 292.125 256.091 293.891C256.091 295.695 256.958 296.742 258.271 296.742C259.31 296.742 259.99 296.172 260.185 295.219H261.81C261.63 296.969 260.232 298.156 258.255 298.156C255.904 298.156 254.372 296.547 254.372 293.891C254.372 291.281 255.904 289.633 258.24 289.633C260.357 289.633 261.646 290.992 261.794 292.609ZM262.828 298V286.727H264.5V291.156H264.539C264.992 290.195 265.89 289.641 267.14 289.641C268.945 289.641 270.023 290.844 270.023 292.703V298H268.328V293.031C268.328 291.82 267.718 291.094 266.531 291.094C265.281 291.094 264.515 291.953 264.515 293.25V298H262.828ZM274.291 296.805C275.471 296.805 276.393 295.992 276.393 294.922V294.273L274.369 294.398C273.361 294.469 272.791 294.914 272.791 295.617C272.791 296.336 273.385 296.805 274.291 296.805ZM273.822 298.141C272.213 298.141 271.088 297.141 271.088 295.664C271.088 294.227 272.189 293.344 274.143 293.234L276.393 293.102V292.469C276.393 291.555 275.775 291.008 274.744 291.008C273.768 291.008 273.158 291.477 273.01 292.211H271.416C271.51 290.727 272.775 289.633 274.807 289.633C276.799 289.633 278.072 290.688 278.072 292.336V298H276.455V296.648H276.416C275.939 297.562 274.9 298.141 273.822 298.141ZM279.473 298V289.781H281.082V291.18H281.121C281.395 290.219 282.129 289.648 283.098 289.648C283.34 289.648 283.551 289.688 283.676 289.711V291.281C283.543 291.227 283.246 291.188 282.918 291.188C281.832 291.188 281.16 291.914 281.16 293.078V298H279.473ZM284.975 287.836H286.67V289.781H288.233V291.117H286.67V295.648C286.67 296.359 286.983 296.68 287.67 296.68C287.842 296.68 288.116 296.664 288.225 296.641V297.977C288.038 298.023 287.663 298.055 287.288 298.055C285.623 298.055 284.975 297.422 284.975 295.836V291.117H283.78V289.781H284.975V287.836ZM290.579 300.32H289.235L289.938 296.195H291.641L290.579 300.32ZM26.2266 314V307.117H22.5859V314H20.9062V305.781H27.9141V314H26.2266ZM32.9397 306.992C31.76 306.992 30.9319 307.891 30.8459 309.133H34.9553C34.9163 307.875 34.1194 306.992 32.9397 306.992ZM34.9475 311.586H36.5491C36.3147 313.086 34.8928 314.156 33.01 314.156C30.5959 314.156 29.135 312.523 29.135 309.93C29.135 307.352 30.6194 305.633 32.9397 305.633C35.2209 305.633 36.6428 307.242 36.6428 309.734V310.312H30.8381V310.414C30.8381 311.844 31.6975 312.789 33.0491 312.789C34.01 312.789 34.7209 312.305 34.9475 311.586ZM42.1372 305.648C44.2231 305.648 45.5981 307.289 45.5981 309.891C45.5981 312.492 44.2309 314.141 42.1684 314.141C40.9888 314.141 40.0513 313.562 39.5825 312.648H39.5434V316.719H37.8559V305.781H39.4888V307.195H39.52C40.0044 306.25 40.9497 305.648 42.1372 305.648ZM41.6919 312.711C43.0278 312.711 43.8638 311.617 43.8638 309.891C43.8638 308.172 43.0278 307.07 41.6919 307.07C40.4028 307.07 39.5356 308.195 39.5356 309.891C39.5356 311.602 40.395 312.711 41.6919 312.711ZM50.2566 306.992C49.0769 306.992 48.2488 307.891 48.1628 309.133H52.2722C52.2331 307.875 51.4363 306.992 50.2566 306.992ZM52.2644 311.586H53.8659C53.6316 313.086 52.2097 314.156 50.3269 314.156C47.9128 314.156 46.4519 312.523 46.4519 309.93C46.4519 307.352 47.9363 305.633 50.2566 305.633C52.5378 305.633 53.9597 307.242 53.9597 309.734V310.312H48.155V310.414C48.155 311.844 49.0144 312.789 50.3659 312.789C51.3269 312.789 52.0378 312.305 52.2644 311.586ZM58.5556 307.008H56.8291V309.164H58.3916C59.3447 309.164 59.8213 308.797 59.8213 308.07C59.8213 307.391 59.3759 307.008 58.5556 307.008ZM58.5009 310.344H56.8291V312.773H58.6884C59.6416 312.773 60.1572 312.352 60.1572 311.562C60.1572 310.75 59.6103 310.344 58.5009 310.344ZM55.165 314V305.781H58.8994C60.5009 305.781 61.4697 306.578 61.4697 307.875C61.4697 308.727 60.8603 309.5 60.0713 309.648V309.711C61.1338 309.852 61.8369 310.602 61.8369 311.633C61.8369 313.078 60.7275 314 58.9463 314H55.165ZM66.6359 314.156C64.2844 314.156 62.7375 312.539 62.7375 309.891C62.7375 307.25 64.2922 305.633 66.6359 305.633C68.9797 305.633 70.5344 307.25 70.5344 309.891C70.5344 312.539 68.9875 314.156 66.6359 314.156ZM66.6359 312.766C67.9641 312.766 68.8156 311.719 68.8156 309.891C68.8156 308.07 67.9562 307.023 66.6359 307.023C65.3156 307.023 64.4562 308.07 64.4562 309.891C64.4562 311.719 65.3156 312.766 66.6359 312.766ZM77.0756 312.664V307.117H74.2163L73.9897 310.258C73.9272 311.227 73.7241 312.07 73.3491 312.602V312.664H77.0756ZM72.4038 316.156H70.8491V312.664H71.5131C72.1147 312.289 72.3881 311.297 72.4663 310.188L72.7631 305.781H78.7553V312.664H80.0288V316.156H78.4663V314H72.4038V316.156ZM82.5934 314H80.9294V305.781H82.5934V311.539H82.6559L86.4528 305.781H88.1169V314H86.4528V308.227H86.3903L82.5934 314ZM95.9394 305.781V307.117H93.3613V314H91.6816V307.117H89.1034V305.781H95.9394ZM103.793 308.414H102.168C101.949 307.656 101.324 307.039 100.277 307.039C98.9728 307.039 98.1212 308.156 98.1212 309.891C98.1212 311.672 98.9806 312.742 100.293 312.742C101.293 312.742 101.949 312.242 102.184 311.383H103.809C103.567 313.031 102.215 314.156 100.277 314.156C97.9259 314.156 96.4103 312.523 96.4103 309.891C96.4103 307.312 97.9259 305.633 100.262 305.633C102.293 305.633 103.559 306.898 103.793 308.414ZM107.998 309.883H109.491V307.109H107.998C107.037 307.109 106.42 307.656 106.42 308.547C106.42 309.328 107.045 309.883 107.998 309.883ZM109.491 314V311.18H108.241L106.248 314H104.342L106.584 310.891C105.444 310.555 104.741 309.703 104.741 308.555C104.741 306.844 105.991 305.781 107.912 305.781H111.147V314H109.491ZM119.065 309.641L122.847 314H120.729L117.472 310.211H117.409V314H115.729V305.781H117.409V309.297H117.472L120.69 305.781H122.706L119.065 309.641ZM126.341 312.805C127.521 312.805 128.442 311.992 128.442 310.922V310.273L126.419 310.398C125.411 310.469 124.841 310.914 124.841 311.617C124.841 312.336 125.435 312.805 126.341 312.805ZM125.872 314.141C124.263 314.141 123.138 313.141 123.138 311.664C123.138 310.227 124.239 309.344 126.192 309.234L128.442 309.102V308.469C128.442 307.555 127.825 307.008 126.794 307.008C125.817 307.008 125.208 307.477 125.06 308.211H123.466C123.56 306.727 124.825 305.633 126.857 305.633C128.849 305.633 130.122 306.688 130.122 308.336V314H128.505V312.648H128.466C127.989 313.562 126.95 314.141 125.872 314.141ZM134.992 309.641L138.773 314H136.656L133.398 310.211H133.335V314H131.656V305.781H133.335V309.297H133.398L136.617 305.781H138.632L134.992 309.641ZM144.465 309.531V309.633L147.191 312.852H145.402L142.683 309.617V309.555L145.41 306.312H147.191L144.465 309.531ZM148.293 309.531V309.633L151.019 312.852H149.23L146.512 309.617V309.555L149.238 306.312H151.019L148.293 309.531ZM158.154 312.664V307.117H155.295L155.068 310.258C155.006 311.227 154.803 312.07 154.428 312.602V312.664H158.154ZM153.482 316.156H151.928V312.664H152.592C153.193 312.289 153.467 311.297 153.545 310.188L153.842 305.781H159.834V312.664H161.107V316.156H159.545V314H153.482V316.156ZM163.672 314H162.008V305.781H163.672V311.539H163.735L167.532 305.781H169.196V314H167.532V308.227H167.469L163.672 314ZM173.651 312.805C174.831 312.805 175.753 311.992 175.753 310.922V310.273L173.729 310.398C172.721 310.469 172.151 310.914 172.151 311.617C172.151 312.336 172.745 312.805 173.651 312.805ZM173.182 314.141C171.573 314.141 170.448 313.141 170.448 311.664C170.448 310.227 171.549 309.344 173.503 309.234L175.753 309.102V308.469C175.753 307.555 175.135 307.008 174.104 307.008C173.128 307.008 172.518 307.477 172.37 308.211H170.776C170.87 306.727 172.135 305.633 174.167 305.633C176.159 305.633 177.432 306.688 177.432 308.336V314H175.815V312.648H175.776C175.299 313.562 174.26 314.141 173.182 314.141ZM184.411 307.117H180.645V314H178.966V305.781H184.411V307.117ZM189.874 305.648C191.96 305.648 193.335 307.289 193.335 309.891C193.335 312.492 191.968 314.141 189.905 314.141C188.726 314.141 187.788 313.562 187.319 312.648H187.28V316.719H185.593V305.781H187.226V307.195H187.257C187.741 306.25 188.687 305.648 189.874 305.648ZM189.429 312.711C190.765 312.711 191.601 311.617 191.601 309.891C191.601 308.172 190.765 307.07 189.429 307.07C188.14 307.07 187.273 308.195 187.273 309.891C187.273 311.602 188.132 312.711 189.429 312.711ZM197.431 312.805C198.611 312.805 199.533 311.992 199.533 310.922V310.273L197.509 310.398C196.501 310.469 195.931 310.914 195.931 311.617C195.931 312.336 196.525 312.805 197.431 312.805ZM196.962 314.141C195.353 314.141 194.228 313.141 194.228 311.664C194.228 310.227 195.329 309.344 197.283 309.234L199.533 309.102V308.469C199.533 307.555 198.915 307.008 197.884 307.008C196.908 307.008 196.298 307.477 196.15 308.211H194.556C194.65 306.727 195.915 305.633 197.947 305.633C199.939 305.633 201.212 306.688 201.212 308.336V314H199.595V312.648H199.556C199.079 313.562 198.04 314.141 196.962 314.141ZM204.371 314H202.746V305.781H204.863L207.496 311.805H207.558L210.207 305.781H212.277V314H210.636V308.297H210.582L208.121 313.68H206.886L204.425 308.297H204.371V314ZM215.474 314H213.849V305.781H215.967L218.599 311.805H218.662L221.31 305.781H223.381V314H221.74V308.297H221.685L219.224 313.68H217.99L215.529 308.297H215.474V314ZM227.836 312.805C229.016 312.805 229.938 311.992 229.938 310.922V310.273L227.914 310.398C226.906 310.469 226.336 310.914 226.336 311.617C226.336 312.336 226.93 312.805 227.836 312.805ZM227.367 314.141C225.758 314.141 224.633 313.141 224.633 311.664C224.633 310.227 225.734 309.344 227.688 309.234L229.938 309.102V308.469C229.938 307.555 229.32 307.008 228.289 307.008C227.312 307.008 226.703 307.477 226.555 308.211H224.961C225.055 306.727 226.32 305.633 228.352 305.633C230.344 305.633 231.617 306.688 231.617 308.336V314H230V312.648H229.961C229.484 313.562 228.445 314.141 227.367 314.141ZM239.551 307.008H237.825V309.164H239.387C240.34 309.164 240.817 308.797 240.817 308.07C240.817 307.391 240.372 307.008 239.551 307.008ZM239.497 310.344H237.825V312.773H239.684C240.637 312.773 241.153 312.352 241.153 311.562C241.153 310.75 240.606 310.344 239.497 310.344ZM236.161 314V305.781H239.895C241.497 305.781 242.465 306.578 242.465 307.875C242.465 308.727 241.856 309.5 241.067 309.648V309.711C242.129 309.852 242.833 310.602 242.833 311.633C242.833 313.078 241.723 314 239.942 314H236.161ZM250.493 307.008H248.767V309.164H250.329C251.282 309.164 251.759 308.797 251.759 308.07C251.759 307.391 251.313 307.008 250.493 307.008ZM250.438 310.344H248.767V312.773H250.626C251.579 312.773 252.095 312.352 252.095 311.562C252.095 310.75 251.548 310.344 250.438 310.344ZM247.102 314V305.781H250.837C252.438 305.781 253.407 306.578 253.407 307.875C253.407 308.727 252.798 309.5 252.009 309.648V309.711C253.071 309.852 253.774 310.602 253.774 311.633C253.774 313.078 252.665 314 250.884 314H247.102ZM256.698 314H255.034V305.781H256.698V311.539H256.761L260.558 305.781H262.222V314H260.558V308.227H260.495L256.698 314ZM269.263 312.664V307.117H266.404L266.177 310.258C266.115 311.227 265.912 312.07 265.537 312.602V312.664H269.263ZM264.591 316.156H263.037V312.664H263.701C264.302 312.289 264.576 311.297 264.654 310.188L264.951 305.781H270.943V312.664H272.216V316.156H270.654V314H264.591V316.156ZM276.562 306.992C275.383 306.992 274.554 307.891 274.468 309.133H278.578C278.539 307.875 277.742 306.992 276.562 306.992ZM278.57 311.586H280.172C279.937 313.086 278.515 314.156 276.633 314.156C274.218 314.156 272.758 312.523 272.758 309.93C272.758 307.352 274.242 305.633 276.562 305.633C278.843 305.633 280.265 307.242 280.265 309.734V310.312H274.461V310.414C274.461 311.844 275.32 312.789 276.672 312.789C277.633 312.789 278.343 312.305 278.57 311.586ZM289.801 314V307.117H286.16V314H284.481V305.781H291.488V314H289.801ZM294.733 314H293.069V305.781H294.733V311.539H294.795L298.592 305.781H300.256V314H298.592V308.227H298.53L294.733 314ZM306.118 305.648C308.204 305.648 309.579 307.289 309.579 309.891C309.579 312.492 308.212 314.141 306.149 314.141C304.969 314.141 304.032 313.562 303.563 312.648H303.524V316.719H301.837V305.781H303.469V307.195H303.501C303.985 306.25 304.93 305.648 306.118 305.648ZM305.672 312.711C307.008 312.711 307.844 311.617 307.844 309.891C307.844 308.172 307.008 307.07 305.672 307.07C304.383 307.07 303.516 308.195 303.516 309.891C303.516 311.602 304.376 312.711 305.672 312.711ZM314.331 314.156C311.979 314.156 310.432 312.539 310.432 309.891C310.432 307.25 311.987 305.633 314.331 305.633C316.675 305.633 318.229 307.25 318.229 309.891C318.229 312.539 316.682 314.156 314.331 314.156ZM314.331 312.766C315.659 312.766 316.511 311.719 316.511 309.891C316.511 308.07 315.651 307.023 314.331 307.023C313.011 307.023 312.151 308.07 312.151 309.891C312.151 311.719 313.011 312.766 314.331 312.766ZM324.888 307.117H321.122V314H319.443V305.781H324.888V307.117ZM328.617 312.805C329.796 312.805 330.718 311.992 330.718 310.922V310.273L328.695 310.398C327.687 310.469 327.117 310.914 327.117 311.617C327.117 312.336 327.71 312.805 328.617 312.805ZM328.148 314.141C326.538 314.141 325.413 313.141 325.413 311.664C325.413 310.227 326.515 309.344 328.468 309.234L330.718 309.102V308.469C330.718 307.555 330.101 307.008 329.07 307.008C328.093 307.008 327.484 307.477 327.335 308.211H325.742C325.835 306.727 327.101 305.633 329.132 305.633C331.124 305.633 332.398 306.688 332.398 308.336V314H330.781V312.648H330.742C330.265 313.562 329.226 314.141 328.148 314.141ZM336.744 309.531L334.017 306.312H335.798L338.525 309.555V309.617L335.814 312.852H334.017L336.744 309.633V309.531ZM340.572 309.531L337.845 306.312H339.627L342.353 309.555V309.617L339.642 312.852H337.845L340.572 309.633V309.531ZM345.215 314.086C344.644 314.086 344.191 313.633 344.191 313.062C344.191 312.492 344.644 312.039 345.215 312.039C345.785 312.039 346.238 312.492 346.238 313.062C346.238 313.633 345.785 314.086 345.215 314.086ZM28.6797 330V321.516H28.5625L22.8203 330H21.1172V318.727H22.8516V327.234H22.9688L28.7109 318.727H30.4141V330H28.6797ZM33.3225 332.32H31.9788L32.6819 328.195H34.385L33.3225 332.32ZM43.7956 328.664V323.117H40.9363L40.7097 326.258C40.6472 327.227 40.4441 328.07 40.0691 328.602V328.664H43.7956ZM39.1238 332.156H37.5691V328.664H38.2331C38.8347 328.289 39.1081 327.297 39.1863 326.188L39.4831 321.781H45.4753V328.664H46.7488V332.156H45.1863V330H39.1238V332.156ZM51.0947 322.992C49.915 322.992 49.0869 323.891 49.0009 325.133H53.1103C53.0713 323.875 52.2744 322.992 51.0947 322.992ZM53.1025 327.586H54.7041C54.4697 329.086 53.0478 330.156 51.165 330.156C48.7509 330.156 47.29 328.523 47.29 325.93C47.29 323.352 48.7744 321.633 51.0947 321.633C53.3759 321.633 54.7978 323.242 54.7978 325.734V326.312H48.9931V326.414C48.9931 327.844 49.8525 328.789 51.2041 328.789C52.165 328.789 52.8759 328.305 53.1025 327.586ZM57.6672 330H56.0031V321.781H57.6672V327.539H57.7297L61.5266 321.781H63.1906V330H61.5266V324.227H61.4641L57.6672 330ZM57.1203 318.172H58.2609C58.2687 319.055 58.8312 319.727 59.7141 319.727C60.6047 319.727 61.1672 319.055 61.175 318.172H62.3156C62.3156 319.648 61.2687 320.648 59.7141 320.648C58.1672 320.648 57.1203 319.648 57.1203 318.172ZM71.7788 324.414H70.1538C69.935 323.656 69.31 323.039 68.2631 323.039C66.9584 323.039 66.1069 324.156 66.1069 325.891C66.1069 327.672 66.9663 328.742 68.2788 328.742C69.2788 328.742 69.935 328.242 70.1694 327.383H71.7944C71.5522 329.031 70.2006 330.156 68.2631 330.156C65.9116 330.156 64.3959 328.523 64.3959 325.891C64.3959 323.312 65.9116 321.633 68.2475 321.633C70.2788 321.633 71.5444 322.898 71.7788 324.414ZM78.9919 321.781V323.117H76.4137V330H74.7341V323.117H72.1559V321.781H78.9919ZM83.3769 323.008H81.6503V325.164H83.2128C84.1659 325.164 84.6425 324.797 84.6425 324.07C84.6425 323.391 84.1972 323.008 83.3769 323.008ZM83.3222 326.344H81.6503V328.773H83.5097C84.4628 328.773 84.9784 328.352 84.9784 327.562C84.9784 326.75 84.4316 326.344 83.3222 326.344ZM79.9863 330V321.781H83.7206C85.3222 321.781 86.2909 322.578 86.2909 323.875C86.2909 324.727 85.6816 325.5 84.8925 325.648V325.711C85.955 325.852 86.6581 326.602 86.6581 327.633C86.6581 329.078 85.5488 330 83.7675 330H79.9863ZM89.5822 330H87.9181V321.781H89.5822V327.539H89.6447L93.4416 321.781H95.1056V330H93.4416V324.227H93.3791L89.5822 330ZM102.928 321.781V323.117H100.35V330H98.6703V323.117H96.0922V321.781H102.928ZM107.212 322.992C106.032 322.992 105.204 323.891 105.118 325.133H109.227C109.188 323.875 108.391 322.992 107.212 322.992ZM109.219 327.586H110.821C110.587 329.086 109.165 330.156 107.282 330.156C104.868 330.156 103.407 328.523 103.407 325.93C103.407 323.352 104.891 321.633 107.212 321.633C109.493 321.633 110.915 323.242 110.915 325.734V326.312H105.11V326.414C105.11 327.844 105.969 328.789 107.321 328.789C108.282 328.789 108.993 328.305 109.219 327.586ZM114.308 326.258C114.151 328.586 113.565 330.078 111.722 330.078C111.448 330.078 111.253 330.031 111.151 329.992V328.508C111.229 328.531 111.386 328.57 111.597 328.57C112.393 328.57 112.675 327.617 112.768 326.188L113.05 321.781H118.745V330H117.065V323.117H114.534L114.308 326.258ZM123.419 325.641H121.997V328.672H123.419C124.388 328.672 125.013 328.062 125.013 327.156C125.013 326.242 124.38 325.641 123.419 325.641ZM120.317 330V321.781H121.997V324.32H123.567C125.466 324.32 126.692 325.422 126.692 327.156C126.692 328.898 125.466 330 123.567 330H120.317ZM133.257 330V326.422H129.538V330H127.859V321.781H129.538V325.094H133.257V321.781H134.937V330H133.257ZM140.064 330.156C137.713 330.156 136.166 328.539 136.166 325.891C136.166 323.25 137.72 321.633 140.064 321.633C142.408 321.633 143.963 323.25 143.963 325.891C143.963 328.539 142.416 330.156 140.064 330.156ZM140.064 328.766C141.392 328.766 142.244 327.719 142.244 325.891C142.244 324.07 141.384 323.023 140.064 323.023C138.744 323.023 137.884 324.07 137.884 325.891C137.884 327.719 138.744 328.766 140.064 328.766ZM145.91 332.32H144.566L145.269 328.195H146.973L145.91 332.32ZM157.93 324.414H156.305C156.086 323.656 155.461 323.039 154.414 323.039C153.11 323.039 152.258 324.156 152.258 325.891C152.258 327.672 153.117 328.742 154.43 328.742C155.43 328.742 156.086 328.242 156.321 327.383H157.946C157.703 329.031 156.352 330.156 154.414 330.156C152.063 330.156 150.547 328.523 150.547 325.891C150.547 323.312 152.063 321.633 154.399 321.633C156.43 321.633 157.696 322.898 157.93 324.414ZM162.51 322.992C161.331 322.992 160.503 323.891 160.417 325.133H164.526C164.487 323.875 163.69 322.992 162.51 322.992ZM164.518 327.586H166.12C165.885 329.086 164.463 330.156 162.581 330.156C160.167 330.156 158.706 328.523 158.706 325.93C158.706 323.352 160.19 321.633 162.51 321.633C164.792 321.633 166.213 323.242 166.213 325.734V326.312H160.409V326.414C160.409 327.844 161.268 328.789 162.62 328.789C163.581 328.789 164.292 328.305 164.518 327.586ZM170.755 325.641L174.536 330H172.419L169.161 326.211H169.098V330H167.419V321.781H169.098V325.297H169.161L172.38 321.781H174.395L170.755 325.641ZM181.413 321.781V323.117H178.835V330H177.155V323.117H174.577V321.781H181.413ZM185.79 330.156C183.439 330.156 181.892 328.539 181.892 325.891C181.892 323.25 183.447 321.633 185.79 321.633C188.134 321.633 189.689 323.25 189.689 325.891C189.689 328.539 188.142 330.156 185.79 330.156ZM185.79 328.766C187.118 328.766 187.97 327.719 187.97 325.891C187.97 324.07 187.111 323.023 185.79 323.023C184.47 323.023 183.611 324.07 183.611 325.891C183.611 327.719 184.47 328.766 185.79 328.766ZM195.191 321.648C197.277 321.648 198.652 323.289 198.652 325.891C198.652 328.492 197.285 330.141 195.222 330.141C194.042 330.141 193.105 329.562 192.636 328.648H192.597V332.719H190.91V321.781H192.542V323.195H192.574C193.058 322.25 194.003 321.648 195.191 321.648ZM194.746 328.711C196.082 328.711 196.917 327.617 196.917 325.891C196.917 324.172 196.082 323.07 194.746 323.07C193.457 323.07 192.589 324.195 192.589 325.891C192.589 327.602 193.449 328.711 194.746 328.711ZM206.211 325.641L209.992 330H207.875L204.617 326.211H204.555V330H202.875V321.781H204.555V325.297H204.617L207.836 321.781H209.852L206.211 325.641ZM215.096 321.648C217.182 321.648 218.557 323.289 218.557 325.891C218.557 328.492 217.19 330.141 215.127 330.141C213.947 330.141 213.01 329.562 212.541 328.648H212.502V332.719H210.815V321.781H212.447V323.195H212.479C212.963 322.25 213.908 321.648 215.096 321.648ZM214.651 328.711C215.987 328.711 216.822 327.617 216.822 325.891C216.822 324.172 215.987 323.07 214.651 323.07C213.362 323.07 212.494 324.195 212.494 325.891C212.494 327.602 213.354 328.711 214.651 328.711ZM220.372 333.062C220.239 333.062 219.809 333.047 219.684 333.023V331.656C219.809 331.688 220.09 331.688 220.231 331.688C221.02 331.688 221.434 331.359 221.692 330.516C221.692 330.5 221.84 330.016 221.84 330.008L218.872 321.781H220.7L222.786 328.469H222.809L224.895 321.781H226.676L223.59 330.43C222.887 332.422 222.083 333.062 220.372 333.062ZM233.007 323.117H229.241V330H227.561V321.781H233.007V323.117ZM236.735 328.805C237.915 328.805 238.837 327.992 238.837 326.922V326.273L236.813 326.398C235.806 326.469 235.235 326.914 235.235 327.617C235.235 328.336 235.829 328.805 236.735 328.805ZM236.267 330.141C234.657 330.141 233.532 329.141 233.532 327.664C233.532 326.227 234.634 325.344 236.587 325.234L238.837 325.102V324.469C238.837 323.555 238.22 323.008 237.188 323.008C236.212 323.008 235.602 323.477 235.454 324.211H233.86C233.954 322.727 235.22 321.633 237.251 321.633C239.243 321.633 240.517 322.688 240.517 324.336V330H238.899V328.648H238.86C238.384 329.562 237.345 330.141 236.267 330.141ZM250.458 330V326.422H246.74V330H245.06V321.781H246.74V325.094H250.458V321.781H252.138V330H250.458ZM256.609 328.805C257.789 328.805 258.711 327.992 258.711 326.922V326.273L256.687 326.398C255.679 326.469 255.109 326.914 255.109 327.617C255.109 328.336 255.703 328.805 256.609 328.805ZM256.14 330.141C254.531 330.141 253.406 329.141 253.406 327.664C253.406 326.227 254.508 325.344 256.461 325.234L258.711 325.102V324.469C258.711 323.555 258.093 323.008 257.062 323.008C256.086 323.008 255.476 323.477 255.328 324.211H253.734C253.828 322.727 255.093 321.633 257.125 321.633C259.117 321.633 260.39 322.688 260.39 324.336V330H258.773V328.648H258.734C258.258 329.562 257.218 330.141 256.14 330.141ZM267.244 330V323.117H263.603V330H261.924V321.781H268.932V330H267.244ZM274.051 330.156C271.699 330.156 270.152 328.539 270.152 325.891C270.152 323.25 271.707 321.633 274.051 321.633C276.395 321.633 277.949 323.25 277.949 325.891C277.949 328.539 276.402 330.156 274.051 330.156ZM274.051 328.766C275.379 328.766 276.231 327.719 276.231 325.891C276.231 324.07 275.371 323.023 274.051 323.023C272.731 323.023 271.871 324.07 271.871 325.891C271.871 327.719 272.731 328.766 274.051 328.766ZM280.788 330H279.163V321.781H281.28L283.913 327.805H283.975L286.623 321.781H288.694V330H287.053V324.297H286.998L284.538 329.68H283.303L280.842 324.297H280.788V330ZM291.93 330H290.266V321.781H291.93V327.539H291.993L295.79 321.781H297.454V330H295.79V324.227H295.727L291.93 330ZM304.425 330V326.422H300.706V330H299.026V321.781H300.706V325.094H304.425V321.781H306.104V330H304.425ZM310.575 328.805C311.755 328.805 312.677 327.992 312.677 326.922V326.273L310.653 326.398C309.646 326.469 309.075 326.914 309.075 327.617C309.075 328.336 309.669 328.805 310.575 328.805ZM310.107 330.141C308.497 330.141 307.372 329.141 307.372 327.664C307.372 326.227 308.474 325.344 310.427 325.234L312.677 325.102V324.469C312.677 323.555 312.06 323.008 311.028 323.008C310.052 323.008 309.443 323.477 309.294 324.211H307.7C307.794 322.727 309.06 321.633 311.091 321.633C313.083 321.633 314.357 322.688 314.357 324.336V330H312.739V328.648H312.7C312.224 329.562 311.185 330.141 310.107 330.141ZM319.335 322.992C318.156 322.992 317.328 323.891 317.242 325.133H321.351C321.312 323.875 320.515 322.992 319.335 322.992ZM321.343 327.586H322.945C322.71 329.086 321.288 330.156 319.406 330.156C316.992 330.156 315.531 328.523 315.531 325.93C315.531 323.352 317.015 321.633 319.335 321.633C321.617 321.633 323.038 323.242 323.038 325.734V326.312H317.234V326.414C317.234 327.844 318.093 328.789 319.445 328.789C320.406 328.789 321.117 328.305 321.343 327.586ZM330.197 321.781V323.117H327.619V330H325.939V323.117H323.361V321.781H330.197ZM24.2422 341.641L28.0234 346H25.9062L22.6484 342.211H22.5859V346H20.9062V337.781H22.5859V341.297H22.6484L25.8672 337.781H27.8828L24.2422 341.641ZM29.5022 349.062C29.3694 349.062 28.9397 349.047 28.8147 349.023V347.656C28.9397 347.688 29.2209 347.688 29.3616 347.688C30.1506 347.688 30.5647 347.359 30.8225 346.516C30.8225 346.5 30.9709 346.016 30.9709 346.008L28.0022 337.781H29.8303L31.9163 344.469H31.9397L34.0256 337.781H35.8069L32.7209 346.43C32.0178 348.422 31.2131 349.062 29.5022 349.062ZM43.4731 340.414H41.8481C41.6294 339.656 41.0044 339.039 39.9575 339.039C38.6528 339.039 37.8013 340.156 37.8013 341.891C37.8013 343.672 38.6606 344.742 39.9731 344.742C40.9731 344.742 41.6294 344.242 41.8638 343.383H43.4888C43.2466 345.031 41.895 346.156 39.9575 346.156C37.6059 346.156 36.0903 344.523 36.0903 341.891C36.0903 339.312 37.6059 337.633 39.9419 337.633C41.9731 337.633 43.2388 338.898 43.4731 340.414ZM48.1472 346.156C45.7956 346.156 44.2488 344.539 44.2488 341.891C44.2488 339.25 45.8034 337.633 48.1472 337.633C50.4909 337.633 52.0456 339.25 52.0456 341.891C52.0456 344.539 50.4988 346.156 48.1472 346.156ZM48.1472 344.766C49.4753 344.766 50.3269 343.719 50.3269 341.891C50.3269 340.07 49.4675 339.023 48.1472 339.023C46.8269 339.023 45.9675 340.07 45.9675 341.891C45.9675 343.719 46.8269 344.766 48.1472 344.766ZM56.5947 341.641L60.3759 346H58.2588L55.0009 342.211H54.9384V346H53.2588V337.781H54.9384V341.297H55.0009L58.2197 337.781H60.2353L56.5947 341.641ZM69.5209 346V339.117H65.8803V346H64.2006V337.781H71.2084V346H69.5209ZM74.4528 346H72.7887V337.781H74.4528V343.539H74.5153L78.3122 337.781H79.9762V346H78.3122V340.227H78.2497L74.4528 346ZM85.8378 337.648C87.9238 337.648 89.2988 339.289 89.2988 341.891C89.2988 344.492 87.9316 346.141 85.8691 346.141C84.6894 346.141 83.7519 345.562 83.2831 344.648H83.2441V348.719H81.5566V337.781H83.1894V339.195H83.2206C83.705 338.25 84.6503 337.648 85.8378 337.648ZM85.3925 344.711C86.7284 344.711 87.5644 343.617 87.5644 341.891C87.5644 340.172 86.7284 339.07 85.3925 339.07C84.1034 339.07 83.2363 340.195 83.2363 341.891C83.2363 343.602 84.0956 344.711 85.3925 344.711ZM94.0509 346.156C91.6994 346.156 90.1525 344.539 90.1525 341.891C90.1525 339.25 91.7072 337.633 94.0509 337.633C96.3947 337.633 97.9494 339.25 97.9494 341.891C97.9494 344.539 96.4025 346.156 94.0509 346.156ZM94.0509 344.766C95.3791 344.766 96.2306 343.719 96.2306 341.891C96.2306 340.07 95.3712 339.023 94.0509 339.023C92.7306 339.023 91.8712 340.07 91.8712 341.891C91.8712 343.719 92.7306 344.766 94.0509 344.766ZM104.608 339.117H100.842V346H99.1625V337.781H104.608V339.117ZM108.337 344.805C109.516 344.805 110.438 343.992 110.438 342.922V342.273L108.415 342.398C107.407 342.469 106.837 342.914 106.837 343.617C106.837 344.336 107.43 344.805 108.337 344.805ZM107.868 346.141C106.258 346.141 105.133 345.141 105.133 343.664C105.133 342.227 106.235 341.344 108.188 341.234L110.438 341.102V340.469C110.438 339.555 109.821 339.008 108.79 339.008C107.813 339.008 107.204 339.477 107.055 340.211H105.462C105.555 338.727 106.821 337.633 108.852 337.633C110.844 337.633 112.118 338.688 112.118 340.336V346H110.501V344.648H110.462C109.985 345.562 108.946 346.141 107.868 346.141Z" fill="black"/>
</svg>
