<svg width="786" height="356" viewBox="0 0 786 356" fill="none" xmlns="http://www.w3.org/2000/svg">
<rect width="241.333" height="168" rx="16" fill="white"/>
<rect x="272.333" width="241.333" height="168" rx="16" fill="#F2F2F7"/>
<rect x="544.667" width="241.333" height="168" rx="16" fill="#161616"/>
<rect x="545.167" y="0.5" width="240.333" height="167" rx="15.5" stroke="white" stroke-opacity="0.3"/>
<rect y="188" width="293" height="168" rx="16" fill="#007AFF"/>
<rect x="313" y="188" width="144.333" height="168" rx="16" fill="#01B9AE"/>
<rect x="477.333" y="188" width="144.333" height="168" rx="16" fill="#FF90E9"/>
<rect x="641.667" y="188" width="144.333" height="168" rx="16" fill="#FF773D"/>
<path d="M19.5117 312H17.0508V292.271H28.7539V294.486H19.5117V312ZM34.6328 312.273C30.6816 312.273 28.043 309.416 28.043 304.891V304.863C28.043 300.338 30.6953 297.508 34.6191 297.508C38.543 297.508 41.209 300.324 41.209 304.863V304.891C41.209 309.43 38.5566 312.273 34.6328 312.273ZM34.6465 310.168C37.1484 310.168 38.7754 308.227 38.7754 304.891V304.863C38.7754 301.527 37.1348 299.613 34.6191 299.613C32.1445 299.613 30.4766 301.541 30.4766 304.863V304.891C30.4766 308.24 32.1309 310.168 34.6465 310.168ZM47.2793 305.738C46.9785 309.662 46.0625 312.137 43.041 312.137C42.5898 312.137 42.2344 312.068 42.043 312V309.854C42.166 309.895 42.4258 309.949 42.7949 309.949C44.3125 309.949 44.832 308.295 45.0234 305.684L45.584 297.781H55.5781V312H53.1992V299.75H47.7305L47.2793 305.738ZM60.3223 316.785C59.8574 316.785 59.3516 316.73 59.0508 316.676V314.734C59.2559 314.775 59.5293 314.816 59.8164 314.816C61.3203 314.816 62.1543 314.434 62.7285 312.82L63.0156 312.014L57.7383 297.781H60.2812L64.2051 309.621H64.2598L68.1973 297.781H70.6992L65.1484 312.889C64.1367 315.609 62.8926 316.785 60.3223 316.785ZM78.5195 312.273C74.1582 312.273 71.8613 309.334 71.8613 303.688V303.66C71.8613 295.826 73.9395 292.572 79.4629 292.354L80.5156 292.312C81.8828 292.258 83.4141 291.971 84.2207 291.547V293.625C83.7695 294.035 82.2656 294.391 80.625 294.459L79.5723 294.5C75.6758 294.65 74.4863 296.332 73.8984 300.447L73.8711 300.639H73.9258C74.8691 298.957 76.6602 298.082 78.875 298.082C82.7168 298.082 85.1641 300.789 85.1641 305.014V305.041C85.1641 309.512 82.6348 312.273 78.5195 312.273ZM78.5195 310.168C81.1855 310.168 82.7305 308.309 82.7305 305.041V305.014C82.7305 301.924 81.1855 300.188 78.5195 300.188C75.8398 300.188 74.2949 301.924 74.2949 305.014V305.041C74.2949 308.309 75.8398 310.168 78.5195 310.168ZM93.7227 312.273C89.7715 312.273 87.1328 309.416 87.1328 304.891V304.863C87.1328 300.338 89.7852 297.508 93.709 297.508C97.6328 297.508 100.299 300.324 100.299 304.863V304.891C100.299 309.43 97.6465 312.273 93.7227 312.273ZM93.7363 310.168C96.2383 310.168 97.8652 308.227 97.8652 304.891V304.863C97.8652 301.527 96.2246 299.613 93.709 299.613C91.2344 299.613 89.5664 301.541 89.5664 304.863V304.891C89.5664 308.24 91.2207 310.168 93.7363 310.168ZM108.83 312.273C104.742 312.273 102.281 309.416 102.281 304.945V304.932C102.281 300.529 104.797 297.508 108.68 297.508C112.562 297.508 114.928 300.393 114.928 304.658V305.533H104.688C104.742 308.459 106.355 310.168 108.885 310.168C110.689 310.168 111.961 309.266 112.371 308.049L112.412 307.926H114.75L114.723 308.062C114.258 310.414 111.934 312.273 108.83 312.273ZM108.666 299.613C106.602 299.613 104.988 301.021 104.729 303.674H112.508C112.275 300.912 110.744 299.613 108.666 299.613ZM132.674 312V305.615H125.715V312H123.336V297.781H125.715V303.646H132.674V297.781H135.053V312H132.674ZM144.268 312.273C140.18 312.273 137.719 309.416 137.719 304.945V304.932C137.719 300.529 140.234 297.508 144.117 297.508C148 297.508 150.365 300.393 150.365 304.658V305.533H140.125C140.18 308.459 141.793 310.168 144.322 310.168C146.127 310.168 147.398 309.266 147.809 308.049L147.85 307.926H150.188L150.16 308.062C149.695 310.414 147.371 312.273 144.268 312.273ZM144.104 299.613C142.039 299.613 140.426 301.021 140.166 303.674H147.945C147.713 300.912 146.182 299.613 144.104 299.613ZM159.129 312.273C154.768 312.273 152.471 309.334 152.471 303.688V303.66C152.471 295.826 154.549 292.572 160.072 292.354L161.125 292.312C162.492 292.258 164.023 291.971 164.83 291.547V293.625C164.379 294.035 162.875 294.391 161.234 294.459L160.182 294.5C156.285 294.65 155.096 296.332 154.508 300.447L154.48 300.639H154.535C155.479 298.957 157.27 298.082 159.484 298.082C163.326 298.082 165.773 300.789 165.773 305.014V305.041C165.773 309.512 163.244 312.273 159.129 312.273ZM159.129 310.168C161.795 310.168 163.34 308.309 163.34 305.041V305.014C163.34 301.924 161.795 300.188 159.129 300.188C156.449 300.188 154.904 301.924 154.904 305.014V305.041C154.904 308.309 156.449 310.168 159.129 310.168ZM174.332 312.273C170.381 312.273 167.742 309.416 167.742 304.891V304.863C167.742 300.338 170.395 297.508 174.318 297.508C178.242 297.508 180.908 300.324 180.908 304.863V304.891C180.908 309.43 178.256 312.273 174.332 312.273ZM174.346 310.168C176.848 310.168 178.475 308.227 178.475 304.891V304.863C178.475 301.527 176.834 299.613 174.318 299.613C171.844 299.613 170.176 301.541 170.176 304.863V304.891C170.176 308.24 171.83 310.168 174.346 310.168Z" fill="white"/>
<path opacity="0.5" d="M18.6094 339H16.8984L17.7539 334.418H15L15.3398 332.707H18.0703L18.9141 328.219H16.0664L16.4062 326.508H19.2305L20.0625 322.09H21.7734L20.9414 326.508H24.8672L25.7109 322.09H27.4219L26.5898 326.508H29.5078L29.168 328.219H26.2734L25.4297 332.707H28.4297L28.0898 334.418H25.1133L24.2578 339H22.5469L23.3789 334.418H19.4531L18.6094 339ZM19.7227 332.754H23.7422L24.6094 328.172H20.5898L19.7227 332.754ZM36.7734 339.281C32.8828 339.281 30.5742 335.918 30.5742 330.551V330.527C30.5742 325.16 32.8828 321.809 36.7734 321.809C40.6641 321.809 42.9961 325.16 42.9961 330.527V330.551C42.9961 335.918 40.6641 339.281 36.7734 339.281ZM36.7734 337.441C39.3516 337.441 40.875 334.793 40.875 330.551V330.527C40.875 326.285 39.3516 323.66 36.7734 323.66C34.1953 323.66 32.6953 326.285 32.6953 330.527V330.551C32.6953 334.793 34.1953 337.441 36.7734 337.441ZM51.3281 339.281C47.4375 339.281 45.1289 335.918 45.1289 330.551V330.527C45.1289 325.16 47.4375 321.809 51.3281 321.809C55.2188 321.809 57.5508 325.16 57.5508 330.527V330.551C57.5508 335.918 55.2188 339.281 51.3281 339.281ZM51.3281 337.441C53.9062 337.441 55.4297 334.793 55.4297 330.551V330.527C55.4297 326.285 53.9062 323.66 51.3281 323.66C48.75 323.66 47.25 326.285 47.25 330.527V330.551C47.25 334.793 48.75 337.441 51.3281 337.441ZM60.4922 339L68.1445 324.012V323.965H59.0391V322.09H70.2305V324.047L62.707 339H60.4922ZM69.9258 339L76.2188 322.09H78.3047L84.5859 339H82.3711L80.6602 334.16H73.8516L72.1406 339H69.9258ZM77.2383 324.621L74.4961 332.367H80.0273L77.2852 324.621H77.2383ZM86.5312 339V322.09H96.7969V323.988H88.6406V329.801H96.1289V331.676H88.6406V339H86.5312ZM99.2109 339V322.09H109.477V323.988H101.32V329.801H108.809V331.676H101.32V339H99.2109Z" fill="white"/>
<path d="M328.041 312V294.486H321.82V292.271H336.723V294.486H330.502V312H328.041ZM337.311 316.785V297.781H339.689V300.188H339.744C340.633 298.533 342.219 297.508 344.256 297.508C347.893 297.508 350.299 300.406 350.299 304.891V304.904C350.299 309.389 347.865 312.273 344.297 312.273C342.287 312.273 340.633 311.262 339.744 309.621H339.689V316.785H337.311ZM343.791 310.168C346.307 310.168 347.865 308.145 347.865 304.904V304.891C347.865 301.623 346.307 299.613 343.791 299.613C341.385 299.613 339.676 301.705 339.676 304.891V304.904C339.676 308.076 341.398 310.168 343.791 310.168ZM357.135 312.273C354.305 312.273 352.404 310.564 352.404 307.98V307.953C352.404 305.533 354.291 304.016 357.559 303.824L361.633 303.592V302.402C361.633 300.666 360.498 299.613 358.516 299.613C356.684 299.613 355.535 300.488 355.262 301.76L355.234 301.883H352.938L352.951 301.732C353.156 299.395 355.193 297.508 358.543 297.508C361.906 297.508 364.012 299.326 364.012 302.17V312H361.633V309.689H361.578C360.744 311.248 359.035 312.273 357.135 312.273ZM354.838 307.98C354.838 309.348 355.959 310.209 357.668 310.209C359.91 310.209 361.633 308.664 361.633 306.6V305.438L357.832 305.67C355.932 305.779 354.838 306.627 354.838 307.953V307.98ZM367.293 312V297.781H373.377C376.043 297.781 377.67 299.189 377.67 301.445V301.473C377.67 302.936 376.645 304.275 375.332 304.549V304.658C377.123 304.904 378.299 306.162 378.299 307.898V307.926C378.299 310.428 376.439 312 373.418 312H367.293ZM369.672 303.729H372.666C374.457 303.729 375.305 303.086 375.305 301.719V301.691C375.305 300.42 374.512 299.75 373.021 299.75H369.672V303.729ZM369.672 310.031H373.213C374.936 310.031 375.865 309.293 375.865 307.871V307.844C375.865 306.381 374.867 305.697 372.789 305.697H369.672V310.031ZM385.189 312.273C382.359 312.273 380.459 310.564 380.459 307.98V307.953C380.459 305.533 382.346 304.016 385.613 303.824L389.688 303.592V302.402C389.688 300.666 388.553 299.613 386.57 299.613C384.738 299.613 383.59 300.488 383.316 301.76L383.289 301.883H380.992L381.006 301.732C381.211 299.395 383.248 297.508 386.598 297.508C389.961 297.508 392.066 299.326 392.066 302.17V312H389.688V309.689H389.633C388.799 311.248 387.09 312.273 385.189 312.273ZM382.893 307.98C382.893 309.348 384.014 310.209 385.723 310.209C387.965 310.209 389.688 308.664 389.688 306.6V305.438L385.887 305.67C383.986 305.779 382.893 306.627 382.893 307.953V307.98Z" fill="white"/>
<path opacity="0.5" d="M324.609 339H322.898L323.754 334.418H321L321.34 332.707H324.07L324.914 328.219H322.066L322.406 326.508H325.23L326.062 322.09H327.773L326.941 326.508H330.867L331.711 322.09H333.422L332.59 326.508H335.508L335.168 328.219H332.273L331.43 332.707H334.43L334.09 334.418H331.113L330.258 339H328.547L329.379 334.418H325.453L324.609 339ZM325.723 332.754H329.742L330.609 328.172H326.59L325.723 332.754ZM342.773 339.281C338.883 339.281 336.574 335.918 336.574 330.551V330.527C336.574 325.16 338.883 321.809 342.773 321.809C346.664 321.809 348.996 325.16 348.996 330.527V330.551C348.996 335.918 346.664 339.281 342.773 339.281ZM342.773 337.441C345.352 337.441 346.875 334.793 346.875 330.551V330.527C346.875 326.285 345.352 323.66 342.773 323.66C340.195 323.66 338.695 326.285 338.695 330.527V330.551C338.695 334.793 340.195 337.441 342.773 337.441ZM355.512 339V324.328H355.465L350.988 327.445V325.324L355.488 322.09H357.551V339H355.512ZM362.109 339V322.09H368.52C371.414 322.09 373.371 323.777 373.371 326.309V326.332C373.371 328.078 372.059 329.777 370.312 330.023V330.07C372.75 330.352 374.227 331.992 374.227 334.23V334.254C374.227 337.23 372.094 339 368.496 339H362.109ZM368.039 323.953H364.219V329.379H367.383C369.879 329.379 371.238 328.383 371.238 326.555V326.531C371.238 324.867 370.078 323.953 368.039 323.953ZM367.98 331.195H364.219V337.137H368.18C370.711 337.137 372.059 336.117 372.059 334.172V334.148C372.059 332.191 370.676 331.195 367.98 331.195ZM382.301 321.809C385.418 321.809 388.723 323.965 388.723 330.234V330.258C388.723 335.953 386.297 339.281 382.16 339.281C379.289 339.281 377.145 337.641 376.582 335.18L376.547 335.027H378.691L378.738 335.156C379.242 336.551 380.449 337.418 382.184 337.418C385.336 337.418 386.578 334.359 386.672 330.809C386.684 330.691 386.684 330.574 386.684 330.445H386.637C385.957 331.945 384.223 333.164 381.926 333.164C378.703 333.164 376.312 330.785 376.312 327.574V327.551C376.312 324.223 378.844 321.809 382.301 321.809ZM382.289 331.312C384.504 331.312 386.18 329.742 386.18 327.586V327.574C386.18 325.406 384.492 323.684 382.324 323.684C380.168 323.684 378.457 325.371 378.457 327.504V327.527C378.457 329.73 380.062 331.312 382.289 331.312ZM390.082 339L396.375 322.09H398.461L404.742 339H402.527L400.816 334.16H394.008L392.297 339H390.082ZM397.395 324.621L394.652 332.367H400.184L397.441 324.621H397.395ZM406.688 339V322.09H417.164V323.988H408.797V329.414H416.73V331.289H408.797V337.102H417.164V339H406.688Z" fill="white"/>
<path d="M491.512 312H489.051V292.271H500.754V294.486H491.512V312ZM504.268 305.738C503.967 309.662 503.051 312.137 500.029 312.137C499.578 312.137 499.223 312.068 499.031 312V309.854C499.154 309.895 499.414 309.949 499.783 309.949C501.301 309.949 501.82 308.295 502.012 305.684L502.572 297.781H512.566V312H510.188V299.75H504.719L504.268 305.738ZM520.1 312.273C517.27 312.273 515.369 310.564 515.369 307.98V307.953C515.369 305.533 517.256 304.016 520.523 303.824L524.598 303.592V302.402C524.598 300.666 523.463 299.613 521.48 299.613C519.648 299.613 518.5 300.488 518.227 301.76L518.199 301.883H515.902L515.916 301.732C516.121 299.395 518.158 297.508 521.508 297.508C524.871 297.508 526.977 299.326 526.977 302.17V312H524.598V309.689H524.543C523.709 311.248 522 312.273 520.1 312.273ZM517.803 307.98C517.803 309.348 518.924 310.209 520.633 310.209C522.875 310.209 524.598 308.664 524.598 306.6V305.438L520.797 305.67C518.896 305.779 517.803 306.627 517.803 307.953V307.98ZM532.637 312H530.258V297.781H533.17L538.201 308.855H538.311L543.383 297.781H546.172V312H543.793V301.91H543.697L539.117 311.59H537.299L532.732 301.91H532.637V312ZM550.889 316.785C550.424 316.785 549.918 316.73 549.617 316.676V314.734C549.822 314.775 550.096 314.816 550.383 314.816C551.887 314.816 552.721 314.434 553.295 312.82L553.582 312.014L548.305 297.781H550.848L554.771 309.621H554.826L558.764 297.781H561.266L555.715 312.889C554.703 315.609 553.459 316.785 550.889 316.785ZM563.412 316.785V297.781H565.791V300.188H565.846C566.734 298.533 568.32 297.508 570.357 297.508C573.994 297.508 576.4 300.406 576.4 304.891V304.904C576.4 309.389 573.967 312.273 570.398 312.273C568.389 312.273 566.734 311.262 565.846 309.621H565.791V316.785H563.412ZM569.893 310.168C572.408 310.168 573.967 308.145 573.967 304.904V304.891C573.967 301.623 572.408 299.613 569.893 299.613C567.486 299.613 565.777 301.705 565.777 304.891V304.904C565.777 308.076 567.5 310.168 569.893 310.168Z" fill="white"/>
<path opacity="0.5" d="M490.609 339H488.898L489.754 334.418H487L487.34 332.707H490.07L490.914 328.219H488.066L488.406 326.508H491.23L492.062 322.09H493.773L492.941 326.508H496.867L497.711 322.09H499.422L498.59 326.508H501.508L501.168 328.219H498.273L497.43 332.707H500.43L500.09 334.418H497.113L496.258 339H494.547L495.379 334.418H491.453L490.609 339ZM491.723 332.754H495.742L496.609 328.172H492.59L491.723 332.754ZM503.148 339V322.09H513.414V323.988H505.258V329.801H512.746V331.676H505.258V339H503.148ZM515.828 339V322.09H526.094V323.988H517.938V329.801H525.426V331.676H517.938V339H515.828ZM534.191 321.809C537.309 321.809 540.613 323.965 540.613 330.234V330.258C540.613 335.953 538.188 339.281 534.051 339.281C531.18 339.281 529.035 337.641 528.473 335.18L528.438 335.027H530.582L530.629 335.156C531.133 336.551 532.34 337.418 534.074 337.418C537.227 337.418 538.469 334.359 538.562 330.809C538.574 330.691 538.574 330.574 538.574 330.445H538.527C537.848 331.945 536.113 333.164 533.816 333.164C530.594 333.164 528.203 330.785 528.203 327.574V327.551C528.203 324.223 530.734 321.809 534.191 321.809ZM534.18 331.312C536.395 331.312 538.07 329.742 538.07 327.586V327.574C538.07 325.406 536.383 323.684 534.215 323.684C532.059 323.684 530.348 325.371 530.348 327.504V327.527C530.348 329.73 531.953 331.312 534.18 331.312ZM548.945 339.281C545.055 339.281 542.746 335.918 542.746 330.551V330.527C542.746 325.16 545.055 321.809 548.945 321.809C552.836 321.809 555.168 325.16 555.168 330.527V330.551C555.168 335.918 552.836 339.281 548.945 339.281ZM548.945 337.441C551.523 337.441 553.047 334.793 553.047 330.551V330.527C553.047 326.285 551.523 323.66 548.945 323.66C546.367 323.66 544.867 326.285 544.867 330.527V330.551C544.867 334.793 546.367 337.441 548.945 337.441ZM557.875 339V322.09H568.352V323.988H559.984V329.414H567.918V331.289H559.984V337.102H568.352V339H557.875ZM576.824 321.809C579.941 321.809 583.246 323.965 583.246 330.234V330.258C583.246 335.953 580.82 339.281 576.684 339.281C573.812 339.281 571.668 337.641 571.105 335.18L571.07 335.027H573.215L573.262 335.156C573.766 336.551 574.973 337.418 576.707 337.418C579.859 337.418 581.102 334.359 581.195 330.809C581.207 330.691 581.207 330.574 581.207 330.445H581.16C580.48 331.945 578.746 333.164 576.449 333.164C573.227 333.164 570.836 330.785 570.836 327.574V327.551C570.836 324.223 573.367 321.809 576.824 321.809ZM576.812 331.312C579.027 331.312 580.703 329.742 580.703 327.586V327.574C580.703 325.406 579.016 323.684 576.848 323.684C574.691 323.684 572.98 325.371 572.98 327.504V327.527C572.98 329.73 574.586 331.312 576.812 331.312Z" fill="white"/>
<path d="M663.391 312.328C657.785 312.328 654.285 308.404 654.285 302.143V302.115C654.285 295.867 657.799 291.943 663.391 291.943C668.969 291.943 672.469 295.867 672.469 302.115V302.143C672.469 308.404 668.982 312.328 663.391 312.328ZM663.391 310.059C667.451 310.059 669.953 306.955 669.953 302.143V302.115C669.953 297.275 667.41 294.213 663.391 294.213C659.357 294.213 656.801 297.262 656.801 302.115V302.143C656.801 306.996 659.344 310.059 663.391 310.059ZM684.568 299.75H677.801V312H675.422V297.781H684.568V299.75ZM692.512 312.273C688.561 312.273 685.922 309.416 685.922 304.891V304.863C685.922 300.338 688.574 297.508 692.498 297.508C696.422 297.508 699.088 300.324 699.088 304.863V304.891C699.088 309.43 696.436 312.273 692.512 312.273ZM692.525 310.168C695.027 310.168 696.654 308.227 696.654 304.891V304.863C696.654 301.527 695.014 299.613 692.498 299.613C690.023 299.613 688.355 301.541 688.355 304.863V304.891C688.355 308.24 690.01 310.168 692.525 310.168ZM711.092 312V305.615H704.133V312H701.754V297.781H704.133V303.646H711.092V297.781H713.471V312H711.092ZM716.82 312V297.781H719.199V302.32H721.865C725.119 302.32 727.211 304.193 727.211 307.146V307.174C727.211 310.127 725.119 312 721.865 312H716.82ZM721.824 304.289H719.199V310.031H721.824C723.643 310.031 724.777 308.896 724.777 307.174V307.146C724.777 305.41 723.629 304.289 721.824 304.289Z" fill="white"/>
<path opacity="0.5" d="M656.609 339H654.898L655.754 334.418H653L653.34 332.707H656.07L656.914 328.219H654.066L654.406 326.508H657.23L658.062 322.09H659.773L658.941 326.508H662.867L663.711 322.09H665.422L664.59 326.508H667.508L667.168 328.219H664.273L663.43 332.707H666.43L666.09 334.418H663.113L662.258 339H660.547L661.379 334.418H657.453L656.609 339ZM657.723 332.754H661.742L662.609 328.172H658.59L657.723 332.754ZM669.148 339V322.09H679.414V323.988H671.258V329.801H678.746V331.676H671.258V339H669.148ZM681.828 339V322.09H692.094V323.988H683.938V329.801H691.426V331.676H683.938V339H681.828ZM695.211 339L702.863 324.012V323.965H693.758V322.09H704.949V324.047L697.426 339H695.211ZM708.336 339L715.988 324.012V323.965H706.883V322.09H718.074V324.047L710.551 339H708.336ZM726.184 339.281C722.691 339.281 720.43 337.336 720.207 334.664L720.195 334.523H722.223L722.234 334.641C722.41 336.305 723.934 337.453 726.184 337.453C728.398 337.453 729.91 336.211 729.91 334.418V334.395C729.91 332.32 728.422 331.16 726.055 331.16H723.934V329.379H725.961C727.977 329.379 729.383 328.137 729.383 326.449V326.426C729.383 324.656 728.223 323.637 726.16 323.637C724.168 323.637 722.75 324.691 722.574 326.402L722.562 326.52H720.535L720.547 326.402C720.816 323.648 722.996 321.809 726.16 321.809C729.383 321.809 731.504 323.602 731.504 326.168V326.191C731.504 328.277 730.027 329.707 727.918 330.152V330.199C730.379 330.41 732.055 331.945 732.055 334.348V334.371C732.055 337.195 729.57 339.281 726.184 339.281ZM734.961 339V322.09H740.645C745.648 322.09 748.625 325.207 748.625 330.516V330.539C748.625 335.871 745.672 339 740.645 339H734.961ZM737.07 337.102H740.504C744.336 337.102 746.469 334.758 746.469 330.562V330.539C746.469 326.32 744.336 323.988 740.504 323.988H737.07V337.102Z" fill="white"/>
<path d="M17.0508 124V104.271H28.5762V106.486H19.5117V112.133H24.2012C27.9062 112.133 30.5449 114.58 30.5449 118.066V118.094C30.5449 121.566 27.9336 124 24.2285 124H17.0508ZM19.5117 121.785H23.5859C26.416 121.785 28.0293 120.459 28.0293 118.094V118.066C28.0293 115.688 26.4023 114.348 23.5859 114.348H19.5117V121.785ZM39.7324 124.273C35.6445 124.273 33.1836 121.416 33.1836 116.945V116.932C33.1836 112.529 35.6992 109.508 39.582 109.508C43.4648 109.508 45.8301 112.393 45.8301 116.658V117.533H35.5898C35.6445 120.459 37.2578 122.168 39.7871 122.168C41.5918 122.168 42.8633 121.266 43.2734 120.049L43.3145 119.926H45.6523L45.625 120.062C45.1602 122.414 42.8359 124.273 39.7324 124.273ZM39.5684 111.613C37.5039 111.613 35.8906 113.021 35.6309 115.674H43.4102C43.1777 112.912 41.6465 111.613 39.5684 111.613ZM51.9004 117.738C51.5996 121.662 50.6836 124.137 47.6621 124.137C47.2109 124.137 46.8555 124.068 46.6641 124V121.854C46.7871 121.895 47.0469 121.949 47.416 121.949C48.9336 121.949 49.4531 120.295 49.6445 117.684L50.2051 109.781H60.1992V124H57.8203V111.75H52.3516L51.9004 117.738ZM71.5742 124V118.941H68.9082L65.2988 124H62.5508L66.5156 118.504C64.5059 117.93 63.2891 116.453 63.2891 114.512V114.484C63.2891 111.572 65.3945 109.781 68.6621 109.781H73.9531V124H71.5742ZM68.6758 116.973H71.5742V111.75H68.6758C66.8301 111.75 65.7227 112.748 65.7227 114.443V114.471C65.7227 115.934 66.8438 116.973 68.6758 116.973ZM77.2891 124V109.781H79.668V122.031H84.877V109.781H87.2559V122.031H92.4648V109.781H94.8438V124H77.2891ZM98.1797 124V109.781H100.559V120.35H100.668L107.75 109.781H110.102V124H107.723V113.432H107.613L100.531 124H98.1797ZM116.363 117.438H115.816V124H113.438V109.781H115.816V115.797H116.363L121.969 109.781H124.854L118.51 116.508L125.045 124H122.037L116.363 117.438Z" fill="#161616"/>
<path opacity="0.5" d="M18.6094 151H16.8984L17.7539 146.418H15L15.3398 144.707H18.0703L18.9141 140.219H16.0664L16.4062 138.508H19.2305L20.0625 134.09H21.7734L20.9414 138.508H24.8672L25.7109 134.09H27.4219L26.5898 138.508H29.5078L29.168 140.219H26.2734L25.4297 144.707H28.4297L28.0898 146.418H25.1133L24.2578 151H22.5469L23.3789 146.418H19.4531L18.6094 151ZM19.7227 144.754H23.7422L24.6094 140.172H20.5898L19.7227 144.754ZM31.1484 151V134.09H41.4141V135.988H33.2578V141.801H40.7461V143.676H33.2578V151H31.1484ZM43.8281 151V134.09H54.0938V135.988H45.9375V141.801H53.4258V143.676H45.9375V151H43.8281ZM56.5078 151V134.09H66.7734V135.988H58.6172V141.801H66.1055V143.676H58.6172V151H56.5078ZM69.1875 151V134.09H79.4531V135.988H71.2969V141.801H78.7852V143.676H71.2969V151H69.1875ZM81.8672 151V134.09H92.1328V135.988H83.9766V141.801H91.4648V143.676H83.9766V151H81.8672ZM94.5469 151V134.09H104.812V135.988H96.6562V141.801H104.145V143.676H96.6562V151H94.5469Z" fill="black"/>
<path d="M303.885 124.137V122.209C298.539 122.059 295.176 118.9 295.176 114.088V114.061C295.176 109.193 298.539 106.049 303.885 105.926V104.135H306.318V105.926C311.664 106.049 315.027 109.193 315.027 114.061V114.088C315.027 118.9 311.664 122.059 306.318 122.209V124.137H303.885ZM297.691 114.088C297.691 117.588 300.043 119.857 303.885 120.008V108.127C300.043 108.25 297.691 110.533 297.691 114.061V114.088ZM306.318 108.127V120.008C310.16 119.857 312.512 117.588 312.512 114.088V114.061C312.512 110.533 310.16 108.25 306.318 108.127ZM323.777 124.273C319.826 124.273 317.188 121.416 317.188 116.891V116.863C317.188 112.338 319.84 109.508 323.764 109.508C327.688 109.508 330.354 112.324 330.354 116.863V116.891C330.354 121.43 327.701 124.273 323.777 124.273ZM323.791 122.168C326.293 122.168 327.92 120.227 327.92 116.891V116.863C327.92 113.527 326.279 111.613 323.764 111.613C321.289 111.613 319.621 113.541 319.621 116.863V116.891C319.621 120.24 321.275 122.168 323.791 122.168ZM342.357 124V117.615H335.398V124H333.02V109.781H335.398V115.646H342.357V109.781H344.736V124H342.357ZM358.928 124H356.549V117.779H356.494C355.605 118.572 354.266 118.969 352.912 118.969C349.494 118.969 347.73 117.027 347.73 114.006V109.781H350.109V113.842C350.109 115.865 351.189 116.863 353.363 116.863C354.621 116.863 355.893 116.426 356.549 115.77V109.781H358.928V124ZM362.277 124V109.781H364.656V120.35H364.766L371.848 109.781H374.199V124H371.82V113.432H371.711L364.629 124H362.277ZM380.461 117.438H379.914V124H377.535V109.781H379.914V115.797H380.461L386.066 109.781H388.951L382.607 116.508L389.143 124H386.135L380.461 117.438Z" fill="#161616"/>
<path opacity="0.5" d="M297.609 151H295.898L296.754 146.418H294L294.34 144.707H297.07L297.914 140.219H295.066L295.406 138.508H298.23L299.062 134.09H300.773L299.941 138.508H303.867L304.711 134.09H306.422L305.59 138.508H308.508L308.168 140.219H305.273L304.43 144.707H307.43L307.09 146.418H304.113L303.258 151H301.547L302.379 146.418H298.453L297.609 151ZM298.723 144.754H302.742L303.609 140.172H299.59L298.723 144.754ZM310.148 151V134.09H320.414V135.988H312.258V141.801H319.746V143.676H312.258V151H310.148ZM322.559 151V149.547L328.512 143.336C330.797 140.957 331.324 140.043 331.324 138.637V138.613C331.312 136.891 330.012 135.648 328.172 135.648C326.062 135.648 324.492 137.102 324.492 138.918V138.977H322.453V138.906C322.453 135.977 324.984 133.809 328.137 133.809C331.195 133.809 333.434 135.859 333.434 138.508V138.531C333.434 140.383 332.578 141.777 329.473 144.953L325.453 149.078V149.125H333.715V151H322.559ZM336.422 151V134.09H346.688V135.988H338.531V141.801H346.02V143.676H338.531V151H336.422ZM348.832 151V149.547L354.785 143.336C357.07 140.957 357.598 140.043 357.598 138.637V138.613C357.586 136.891 356.285 135.648 354.445 135.648C352.336 135.648 350.766 137.102 350.766 138.918V138.977H348.727V138.906C348.727 135.977 351.258 133.809 354.41 133.809C357.469 133.809 359.707 135.859 359.707 138.508V138.531C359.707 140.383 358.852 141.777 355.746 144.953L351.727 149.078V149.125H359.988V151H348.832ZM362.695 151V134.09H372.961V135.988H364.805V141.801H372.293V143.676H364.805V151H362.695ZM376.078 151L383.73 136.012V135.965H374.625V134.09H385.816V136.047L378.293 151H376.078Z" fill="black"/>
<path d="M572.178 124V115.305H572.123C570.975 116.07 569.361 116.672 567.256 116.672C562.266 116.672 559.709 113.459 559.709 109.426V104.271H562.17V109.439C562.17 112.488 563.961 114.402 567.242 114.402C569.32 114.402 571.152 113.773 572.178 112.816V104.271H574.639V124H572.178ZM584.236 124.273C580.148 124.273 577.688 121.416 577.688 116.945V116.932C577.688 112.529 580.203 109.508 584.086 109.508C587.969 109.508 590.334 112.393 590.334 116.658V117.533H580.094C580.148 120.459 581.762 122.168 584.291 122.168C586.096 122.168 587.367 121.266 587.777 120.049L587.818 119.926H590.156L590.129 120.062C589.664 122.414 587.34 124.273 584.236 124.273ZM584.072 111.613C582.008 111.613 580.395 113.021 580.135 115.674H587.914C587.682 112.912 586.15 111.613 584.072 111.613ZM593.014 128.785V109.781H595.393V112.188H595.447C596.336 110.533 597.922 109.508 599.959 109.508C603.596 109.508 606.002 112.406 606.002 116.891V116.904C606.002 121.389 603.568 124.273 600 124.273C597.99 124.273 596.336 123.262 595.447 121.621H595.393V128.785H593.014ZM599.494 122.168C602.01 122.168 603.568 120.145 603.568 116.904V116.891C603.568 113.623 602.01 111.613 599.494 111.613C597.088 111.613 595.379 113.705 595.379 116.891V116.904C595.379 120.076 597.102 122.168 599.494 122.168ZM618.006 124V117.615H611.047V124H608.668V109.781H611.047V115.646H618.006V109.781H620.385V124H618.006ZM623.734 124V109.781H626.113V114.32H628.779C632.033 114.32 634.125 116.193 634.125 119.146V119.174C634.125 122.127 632.033 124 628.779 124H623.734ZM635.93 124V109.781H638.309V124H635.93ZM628.738 116.289H626.113V122.031H628.738C630.557 122.031 631.691 120.896 631.691 119.174V119.146C631.691 117.41 630.543 116.289 628.738 116.289ZM641.645 124V109.781H644.023V122.031H649.232V109.781H651.611V122.031H656.82V109.781H659.199V124H641.645Z" fill="white"/>
<path opacity="0.5" d="M561.609 151H559.898L560.754 146.418H558L558.34 144.707H561.07L561.914 140.219H559.066L559.406 138.508H562.23L563.062 134.09H564.773L563.941 138.508H567.867L568.711 134.09H570.422L569.59 138.508H572.508L572.168 140.219H569.273L568.43 144.707H571.43L571.09 146.418H568.113L567.258 151H565.547L566.379 146.418H562.453L561.609 151ZM562.723 144.754H566.742L567.609 140.172H563.59L562.723 144.754ZM578.191 151V136.328H578.145L573.668 139.445V137.324L578.168 134.09H580.23V151H578.191ZM590.637 151.281C587.52 151.281 584.215 149.125 584.215 142.855V142.832C584.215 137.137 586.641 133.809 590.777 133.809C593.648 133.809 595.793 135.449 596.355 137.91L596.391 138.062H594.246L594.199 137.934C593.695 136.539 592.488 135.672 590.754 135.672C587.602 135.672 586.359 138.73 586.266 142.281C586.254 142.398 586.254 142.516 586.254 142.645H586.301C586.98 141.145 588.715 139.926 591.012 139.926C594.234 139.926 596.625 142.305 596.625 145.516V145.539C596.625 148.867 594.094 151.281 590.637 151.281ZM586.758 145.516C586.758 147.684 588.445 149.406 590.613 149.406C592.77 149.406 594.48 147.719 594.48 145.586V145.562C594.48 143.359 592.875 141.777 590.648 141.777C588.434 141.777 586.758 143.348 586.758 145.504V145.516ZM603.645 151V136.328H603.598L599.121 139.445V137.324L603.621 134.09H605.684V151H603.645ZM616.09 151.281C612.973 151.281 609.668 149.125 609.668 142.855V142.832C609.668 137.137 612.094 133.809 616.23 133.809C619.102 133.809 621.246 135.449 621.809 137.91L621.844 138.062H619.699L619.652 137.934C619.148 136.539 617.941 135.672 616.207 135.672C613.055 135.672 611.812 138.73 611.719 142.281C611.707 142.398 611.707 142.516 611.707 142.645H611.754C612.434 141.145 614.168 139.926 616.465 139.926C619.688 139.926 622.078 142.305 622.078 145.516V145.539C622.078 148.867 619.547 151.281 616.09 151.281ZM612.211 145.516C612.211 147.684 613.898 149.406 616.066 149.406C618.223 149.406 619.934 147.719 619.934 145.586V145.562C619.934 143.359 618.328 141.777 616.102 141.777C613.887 141.777 612.211 143.348 612.211 145.504V145.516ZM629.098 151V136.328H629.051L624.574 139.445V137.324L629.074 134.09H631.137V151H629.098ZM641.543 151.281C638.426 151.281 635.121 149.125 635.121 142.855V142.832C635.121 137.137 637.547 133.809 641.684 133.809C644.555 133.809 646.699 135.449 647.262 137.91L647.297 138.062H645.152L645.105 137.934C644.602 136.539 643.395 135.672 641.66 135.672C638.508 135.672 637.266 138.73 637.172 142.281C637.16 142.398 637.16 142.516 637.16 142.645H637.207C637.887 141.145 639.621 139.926 641.918 139.926C645.141 139.926 647.531 142.305 647.531 145.516V145.539C647.531 148.867 645 151.281 641.543 151.281ZM637.664 145.516C637.664 147.684 639.352 149.406 641.52 149.406C643.676 149.406 645.387 147.719 645.387 145.586V145.562C645.387 143.359 643.781 141.777 641.555 141.777C639.34 141.777 637.664 143.348 637.664 145.504V145.516Z" fill="white"/>
</svg>
