<svg width="590" height="267" viewBox="0 0 590 267" fill="none" xmlns="http://www.w3.org/2000/svg">
<rect width="181" height="126" rx="12" fill="white"/>
<rect x="204.25" width="181" height="126" rx="12" fill="#F2F2F7"/>
<rect x="408.5" width="181" height="126" rx="12" fill="#161616"/>
<rect x="408.875" y="0.375" width="180.25" height="125.25" rx="11.625" stroke="white" stroke-opacity="0.3" stroke-width="0.75"/>
<rect y="141" width="219.75" height="126" rx="12" fill="#007AFF"/>
<rect x="234.75" y="141" width="108.25" height="126" rx="12" fill="#01B9AE"/>
<rect x="358" y="141" width="108.25" height="126" rx="12" fill="#FF90E9"/>
<rect x="481.25" y="141" width="108.25" height="126" rx="12" fill="#FF773D"/>
<path d="M14.644 234H12.7881V219.204H21.5654V220.885H14.644V234ZM25.9746 234.185C23.0215 234.185 21.0322 232.062 21.0322 228.668C21.0322 225.264 23.0215 223.151 25.9746 223.151C28.9175 223.151 30.9067 225.264 30.9067 228.668C30.9067 232.062 28.9175 234.185 25.9746 234.185ZM25.9746 232.616C27.8613 232.616 29.0918 231.18 29.0918 228.668C29.0918 226.156 27.8613 224.72 25.9746 224.72C24.0879 224.72 22.8472 226.156 22.8472 228.668C22.8472 231.18 24.0879 232.616 25.9746 232.616ZM35.3262 229.293C35.1108 232.236 34.4033 234.092 32.1577 234.092C31.8501 234.092 31.645 234.031 31.522 233.979V232.37C31.6143 232.4 31.8091 232.452 32.0654 232.452C33.1216 232.452 33.5215 231.211 33.6548 229.252L34.0649 223.336H41.0479V234H39.2842V224.802H35.6543L35.3262 229.293ZM44.4624 237.989C44.2471 237.989 43.8882 237.968 43.6934 237.927V236.43C43.8882 236.471 44.165 236.481 44.3906 236.481C45.3853 236.481 45.939 236 46.3491 234.759L46.5952 234.01L42.6577 223.336H44.5649L47.5181 232.216H47.5488L50.502 223.336H52.3784L48.1846 234.749C47.272 237.24 46.3901 237.989 44.4624 237.989ZM58.2334 234.185C54.9624 234.185 53.2397 231.99 53.2397 227.755C53.2397 221.87 54.7983 219.419 58.9409 219.265L59.7305 219.234C60.7559 219.183 61.9043 218.978 62.5093 218.66V220.219C62.1709 220.526 61.043 220.793 59.8125 220.844L59.0229 220.875C56.0596 220.988 55.1777 222.29 54.7471 225.479H54.8291C55.5264 224.218 56.8594 223.562 58.5 223.562C61.3813 223.562 63.2168 225.592 63.2168 228.771C63.2168 232.124 61.3198 234.185 58.2334 234.185ZM58.2334 232.605C60.2329 232.605 61.3916 231.221 61.3916 228.771C61.3916 226.443 60.2329 225.12 58.2334 225.12C56.2236 225.12 55.0649 226.443 55.0649 228.771C55.0649 231.221 56.2236 232.605 58.2334 232.605ZM69.6357 234.185C66.6826 234.185 64.6934 232.062 64.6934 228.668C64.6934 225.264 66.6826 223.151 69.6357 223.151C72.5786 223.151 74.5679 225.264 74.5679 228.668C74.5679 232.062 72.5786 234.185 69.6357 234.185ZM69.6357 232.616C71.5225 232.616 72.7529 231.18 72.7529 228.668C72.7529 226.156 71.5225 224.72 69.6357 224.72C67.749 224.72 66.5083 226.156 66.5083 228.668C66.5083 231.18 67.749 232.616 69.6357 232.616ZM80.833 224.7C79.1616 224.7 77.9927 225.981 77.8799 227.755H83.6733C83.6323 225.971 82.5146 224.7 80.833 224.7ZM83.6323 230.944H85.3857C85.0781 232.811 83.2734 234.185 80.9458 234.185C77.8901 234.185 76.0342 232.062 76.0342 228.709C76.0342 225.397 77.9209 223.151 80.8638 223.151C83.7451 223.151 85.519 225.243 85.519 228.473V229.15H77.8696V229.252C77.8696 231.293 79.0693 232.636 80.9868 232.636C82.3403 232.636 83.335 231.949 83.6323 230.944ZM98.8286 234V229.201H93.5684V234H91.8047V223.336H93.5684V227.735H98.8286V223.336H100.592V234H98.8286ZM107.391 224.7C105.719 224.7 104.55 225.981 104.438 227.755H110.231C110.19 225.971 109.072 224.7 107.391 224.7ZM110.19 230.944H111.943C111.636 232.811 109.831 234.185 107.503 234.185C104.448 234.185 102.592 232.062 102.592 228.709C102.592 225.397 104.479 223.151 107.421 223.151C110.303 223.151 112.077 225.243 112.077 228.473V229.15H104.427V229.252C104.427 231.293 105.627 232.636 107.544 232.636C108.898 232.636 109.893 231.949 110.19 230.944ZM118.629 234.185C115.358 234.185 113.635 231.99 113.635 227.755C113.635 221.87 115.194 219.419 119.336 219.265L120.126 219.234C121.151 219.183 122.3 218.978 122.905 218.66V220.219C122.566 220.526 121.438 220.793 120.208 220.844L119.418 220.875C116.455 220.988 115.573 222.29 115.143 225.479H115.225C115.922 224.218 117.255 223.562 118.896 223.562C121.777 223.562 123.612 225.592 123.612 228.771C123.612 232.124 121.715 234.185 118.629 234.185ZM118.629 232.605C120.628 232.605 121.787 231.221 121.787 228.771C121.787 226.443 120.628 225.12 118.629 225.12C116.619 225.12 115.46 226.443 115.46 228.771C115.46 231.221 116.619 232.605 118.629 232.605ZM130.031 234.185C127.078 234.185 125.089 232.062 125.089 228.668C125.089 225.264 127.078 223.151 130.031 223.151C132.974 223.151 134.963 225.264 134.963 228.668C134.963 232.062 132.974 234.185 130.031 234.185ZM130.031 232.616C131.918 232.616 133.148 231.18 133.148 228.668C133.148 226.156 131.918 224.72 130.031 224.72C128.145 224.72 126.904 226.156 126.904 228.668C126.904 231.18 128.145 232.616 130.031 232.616Z" fill="white"/>
<path opacity="0.5" d="M16.7256 253.5L17.4463 249.958H14.5635L13.8428 253.5H12.5947L13.3066 249.958H11.25L11.4961 248.692H13.5791L14.2207 245.493H12.0498L12.3047 244.236H14.4756L15.1875 240.817H16.4355L15.75 244.236H18.6152L19.3271 240.817H20.584L19.8809 244.236H22.0693L21.8232 245.493H19.6172L18.958 248.692H21.252L21.0059 249.958H18.7031L17.9824 253.5H16.7256ZM14.8096 248.719H17.71L18.3691 245.476H15.4688L14.8096 248.719ZM27.5449 253.711C24.583 253.711 22.8691 251.162 22.8691 247.154C22.8691 243.182 24.6006 240.606 27.5449 240.606C30.4893 240.606 32.2031 243.164 32.2031 247.146C32.2031 251.153 30.498 253.711 27.5449 253.711ZM27.5449 252.331C29.5225 252.331 30.6123 250.318 30.6123 247.154C30.6123 244.034 29.5049 241.995 27.5449 241.995C25.585 241.995 24.46 244.052 24.46 247.146C24.46 250.31 25.5586 252.331 27.5449 252.331ZM38.4609 253.711C35.499 253.711 33.7852 251.162 33.7852 247.154C33.7852 243.182 35.5166 240.606 38.4609 240.606C41.4053 240.606 43.1191 243.164 43.1191 247.146C43.1191 251.153 41.4141 253.711 38.4609 253.711ZM38.4609 252.331C40.4385 252.331 41.5283 250.318 41.5283 247.154C41.5283 244.034 40.4209 241.995 38.4609 241.995C36.501 241.995 35.376 244.052 35.376 247.146C35.376 250.31 36.4746 252.331 38.4609 252.331ZM45.3164 253.5L51.0557 242.259V242.224H44.2266V240.817H52.6201V242.285L46.9775 253.5H45.3164ZM61.6465 253.5L60.3721 249.87H55.3271L54.0527 253.5H52.3916L57.0674 240.817H58.6318L63.3076 253.5H61.6465ZM57.8232 242.742L55.793 248.525H59.9062L57.876 242.742H57.8232ZM66.3398 253.5H64.7578V240.817H72.457V242.241H66.3398V246.601H71.9561V248.007H66.3398V253.5ZM75.8496 253.5H74.2676V240.817H81.9668V242.241H75.8496V246.601H81.4658V248.007H75.8496V253.5Z" fill="white"/>
<path d="M247.626 234H245.781V220.865H241.115V219.204H252.292V220.865H247.626V234ZM257.911 223.151C260.628 223.151 262.474 225.325 262.474 228.668C262.474 232.011 260.639 234.185 257.952 234.185C256.424 234.185 255.194 233.436 254.558 232.267H254.517V237.558H252.733V223.336H254.425V225.141H254.466C255.122 223.941 256.363 223.151 257.911 223.151ZM257.562 232.616C259.459 232.616 260.649 231.088 260.649 228.668C260.649 226.258 259.459 224.72 257.562 224.72C255.737 224.72 254.507 226.299 254.507 228.668C254.507 231.047 255.737 232.616 257.562 232.616ZM267.98 232.667C269.662 232.667 270.954 231.488 270.954 229.95V229.078L268.104 229.252C266.668 229.345 265.848 229.98 265.848 230.985C265.848 232 266.699 232.667 267.98 232.667ZM267.581 234.185C265.458 234.185 264.033 232.903 264.033 230.985C264.033 229.16 265.438 228.012 267.898 227.868L270.954 227.694V226.802C270.954 225.5 270.093 224.72 268.616 224.72C267.242 224.72 266.381 225.366 266.155 226.412H264.433C264.556 224.566 266.135 223.151 268.657 223.151C271.159 223.151 272.738 224.505 272.738 226.627V234H271.046V232.165H271.005C270.37 233.385 269.016 234.185 267.581 234.185ZM279.516 224.782H276.963V227.766H279.25C280.593 227.766 281.239 227.273 281.239 226.248C281.239 225.305 280.634 224.782 279.516 224.782ZM279.393 229.201H276.963V232.554H279.711C281.003 232.554 281.7 231.97 281.7 230.893C281.7 229.755 280.952 229.201 279.393 229.201ZM275.199 234V223.336H279.762C281.762 223.336 282.982 224.372 282.982 226.063C282.982 227.15 282.213 228.155 281.229 228.36V228.442C282.572 228.627 283.454 229.601 283.454 230.934C283.454 232.821 282.059 234 279.793 234H275.199ZM289.021 232.667C290.703 232.667 291.995 231.488 291.995 229.95V229.078L289.145 229.252C287.709 229.345 286.889 229.98 286.889 230.985C286.889 232 287.74 232.667 289.021 232.667ZM288.622 234.185C286.499 234.185 285.074 232.903 285.074 230.985C285.074 229.16 286.479 228.012 288.939 227.868L291.995 227.694V226.802C291.995 225.5 291.134 224.72 289.657 224.72C288.283 224.72 287.422 225.366 287.196 226.412H285.474C285.597 224.566 287.176 223.151 289.698 223.151C292.2 223.151 293.779 224.505 293.779 226.627V234H292.087V232.165H292.046C291.411 233.385 290.057 234.185 288.622 234.185Z" fill="white"/>
<path opacity="0.5" d="M245.976 253.5L246.696 249.958H243.813L243.093 253.5H241.845L242.557 249.958H240.5L240.746 248.692H242.829L243.471 245.493H241.3L241.555 244.236H243.726L244.438 240.817H245.686L245 244.236H247.865L248.577 240.817H249.834L249.131 244.236H251.319L251.073 245.493H248.867L248.208 248.692H250.502L250.256 249.958H247.953L247.232 253.5H245.976ZM244.06 248.719H246.96L247.619 245.476H244.719L244.06 248.719ZM256.795 253.711C253.833 253.711 252.119 251.162 252.119 247.154C252.119 243.182 253.851 240.606 256.795 240.606C259.739 240.606 261.453 243.164 261.453 247.146C261.453 251.153 259.748 253.711 256.795 253.711ZM256.795 252.331C258.772 252.331 259.862 250.318 259.862 247.154C259.862 244.034 258.755 241.995 256.795 241.995C254.835 241.995 253.71 244.052 253.71 247.146C253.71 250.31 254.809 252.331 256.795 252.331ZM266.331 253.5V242.496H266.296L262.938 244.913V243.243L266.313 240.817H267.86V253.5H266.331ZM276.069 253.5H271.279V240.817H276.087C278.258 240.817 279.726 242.083 279.726 243.981C279.726 245.3 278.759 246.53 277.537 246.75V246.82C279.26 247.04 280.367 248.253 280.367 249.94C280.367 252.173 278.768 253.5 276.069 253.5ZM272.861 242.215V246.284H275.234C277.106 246.284 278.126 245.537 278.126 244.166C278.126 242.909 277.265 242.215 275.727 242.215H272.861ZM272.861 252.103H275.832C277.739 252.103 278.741 251.329 278.741 249.861C278.741 248.394 277.704 247.646 275.683 247.646H272.861V252.103ZM285.992 253.711C283.83 253.711 282.169 252.41 281.782 250.424H283.391C283.725 251.575 284.753 252.331 286.01 252.331C288.119 252.331 289.332 250.415 289.376 247.049H289.367C289.358 247.049 289.358 247.049 289.35 247.049C288.813 248.306 287.425 249.123 285.808 249.123C283.391 249.123 281.598 247.339 281.598 244.931C281.598 242.426 283.487 240.598 286.089 240.598C287.996 240.598 289.508 241.626 290.281 243.445C290.703 244.421 290.905 245.563 290.905 246.943C290.905 251.215 289.095 253.711 285.992 253.711ZM286.08 247.734C287.759 247.734 289.007 246.539 289.007 244.922C289.007 243.296 287.741 242.021 286.106 242.021C284.48 242.021 283.197 243.287 283.197 244.878C283.197 246.53 284.419 247.734 286.08 247.734ZM301.18 253.5L299.905 249.87H294.86L293.586 253.5H291.925L296.601 240.817H298.165L302.841 253.5H301.18ZM297.356 242.742L295.326 248.525H299.439L297.409 242.742H297.356ZM312.148 252.076V253.5H304.291V240.817H312.148V242.241H305.873V246.311H311.823V247.717H305.873V252.076H312.148Z" fill="white"/>
<path d="M367.894 234H366.038V219.204H374.815V220.885H367.894V234ZM377.338 229.293C377.123 232.236 376.415 234.092 374.169 234.092C373.862 234.092 373.657 234.031 373.534 233.979V232.37C373.626 232.4 373.821 232.452 374.077 232.452C375.133 232.452 375.533 231.211 375.667 229.252L376.077 223.336H383.06V234H381.296V224.802H377.666L377.338 229.293ZM389.109 232.667C390.791 232.667 392.083 231.488 392.083 229.95V229.078L389.232 229.252C387.797 229.345 386.977 229.98 386.977 230.985C386.977 232 387.828 232.667 389.109 232.667ZM388.709 234.185C386.587 234.185 385.162 232.903 385.162 230.985C385.162 229.16 386.566 228.012 389.027 227.868L392.083 227.694V226.802C392.083 225.5 391.222 224.72 389.745 224.72C388.371 224.72 387.51 225.366 387.284 226.412H385.562C385.685 224.566 387.264 223.151 389.786 223.151C392.288 223.151 393.867 224.505 393.867 226.627V234H392.175V232.165H392.134C391.499 233.385 390.145 234.185 388.709 234.185ZM398.092 234H396.328V223.336H398.492L402.286 231.642H402.368L406.182 223.336H408.264V234H406.49V226.433H406.418L402.973 233.692H401.609L398.164 226.433H398.092V234ZM411.658 237.989C411.442 237.989 411.083 237.968 410.889 237.927V236.43C411.083 236.471 411.36 236.481 411.586 236.481C412.581 236.481 413.134 236 413.544 234.759L413.791 234.01L409.853 223.336H411.76L414.713 232.216H414.744L417.697 223.336H419.574L415.38 234.749C414.467 237.24 413.585 237.989 411.658 237.989ZM426.352 223.151C429.069 223.151 430.915 225.325 430.915 228.668C430.915 232.011 429.079 234.185 426.393 234.185C424.865 234.185 423.634 233.436 422.999 232.267H422.958V237.558H421.173V223.336H422.865V225.141H422.906C423.562 223.941 424.803 223.151 426.352 223.151ZM426.003 232.616C427.9 232.616 429.089 231.088 429.089 228.668C429.089 226.258 427.9 224.72 426.003 224.72C424.178 224.72 422.947 226.299 422.947 228.668C422.947 231.047 424.178 232.616 426.003 232.616Z" fill="white"/>
<path opacity="0.5" d="M369.976 253.5L370.696 249.958H367.813L367.093 253.5H365.845L366.557 249.958H364.5L364.746 248.692H366.829L367.471 245.493H365.3L365.555 244.236H367.726L368.438 240.817H369.686L369 244.236H371.865L372.577 240.817H373.834L373.131 244.236H375.319L375.073 245.493H372.867L372.208 248.692H374.502L374.256 249.958H371.953L371.232 253.5H369.976ZM368.06 248.719H370.96L371.619 245.476H368.719L368.06 248.719ZM378.141 253.5H376.559V240.817H384.258V242.241H378.141V246.601H383.757V248.007H378.141V253.5ZM387.65 253.5H386.068V240.817H393.768V242.241H387.65V246.601H393.267V248.007H387.65V253.5ZM399.41 253.711C397.248 253.711 395.587 252.41 395.2 250.424H396.809C397.143 251.575 398.171 252.331 399.428 252.331C401.537 252.331 402.75 250.415 402.794 247.049H402.785C402.776 247.049 402.776 247.049 402.768 247.049C402.231 248.306 400.843 249.123 399.226 249.123C396.809 249.123 395.016 247.339 395.016 244.931C395.016 242.426 396.905 240.598 399.507 240.598C401.414 240.598 402.926 241.626 403.699 243.445C404.121 244.421 404.323 245.563 404.323 246.943C404.323 251.215 402.513 253.711 399.41 253.711ZM399.498 247.734C401.177 247.734 402.425 246.539 402.425 244.922C402.425 243.296 401.159 242.021 399.524 242.021C397.898 242.021 396.615 243.287 396.615 244.878C396.615 246.53 397.837 247.734 399.498 247.734ZM410.59 253.711C407.628 253.711 405.914 251.162 405.914 247.154C405.914 243.182 407.646 240.606 410.59 240.606C413.534 240.606 415.248 243.164 415.248 247.146C415.248 251.153 413.543 253.711 410.59 253.711ZM410.59 252.331C412.567 252.331 413.657 250.318 413.657 247.154C413.657 244.034 412.55 241.995 410.59 241.995C408.63 241.995 407.505 244.052 407.505 247.146C407.505 250.31 408.604 252.331 410.59 252.331ZM425.127 252.076V253.5H417.27V240.817H425.127V242.241H418.852V246.311H424.802V247.717H418.852V252.076H425.127ZM431.051 253.711C428.889 253.711 427.228 252.41 426.841 250.424H428.449C428.783 251.575 429.812 252.331 431.068 252.331C433.178 252.331 434.391 250.415 434.435 247.049H434.426C434.417 247.049 434.417 247.049 434.408 247.049C433.872 248.306 432.483 249.123 430.866 249.123C428.449 249.123 426.656 247.339 426.656 244.931C426.656 242.426 428.546 240.598 431.147 240.598C433.055 240.598 434.566 241.626 435.34 243.445C435.762 244.421 435.964 245.563 435.964 246.943C435.964 251.215 434.153 253.711 431.051 253.711ZM431.139 247.734C432.817 247.734 434.065 246.539 434.065 244.922C434.065 243.296 432.8 242.021 431.165 242.021C429.539 242.021 428.256 243.287 428.256 244.878C428.256 246.53 429.478 247.734 431.139 247.734Z" fill="white"/>
<path d="M496.283 218.958C500.477 218.958 503.102 221.911 503.102 226.607C503.102 231.303 500.477 234.246 496.283 234.246C492.089 234.246 489.464 231.303 489.464 226.607C489.464 221.911 492.089 218.958 496.283 218.958ZM496.283 220.66C493.258 220.66 491.361 222.957 491.361 226.607C491.361 230.247 493.258 232.544 496.283 232.544C499.308 232.544 501.205 230.247 501.205 226.607C501.205 222.957 499.308 220.66 496.283 220.66ZM512.176 224.802H507.08V234H505.316V223.336H512.176V224.802ZM518.134 234.185C515.181 234.185 513.191 232.062 513.191 228.668C513.191 225.264 515.181 223.151 518.134 223.151C521.077 223.151 523.066 225.264 523.066 228.668C523.066 232.062 521.077 234.185 518.134 234.185ZM518.134 232.616C520.021 232.616 521.251 231.18 521.251 228.668C521.251 226.156 520.021 224.72 518.134 224.72C516.247 224.72 515.006 226.156 515.006 228.668C515.006 231.18 516.247 232.616 518.134 232.616ZM532.069 234V229.201H526.809V234H525.045V223.336H526.809V227.735H532.069V223.336H533.833V234H532.069ZM540.098 228.207H538.108V232.534H540.098C541.482 232.534 542.374 231.672 542.374 230.37C542.374 229.058 541.472 228.207 540.098 228.207ZM536.345 234V223.336H538.108V226.74H540.128C542.569 226.74 544.138 228.145 544.138 230.37C544.138 232.595 542.569 234 540.128 234H536.345Z" fill="white"/>
<path opacity="0.5" d="M493.976 253.5L494.696 249.958H491.813L491.093 253.5H489.845L490.557 249.958H488.5L488.746 248.692H490.829L491.471 245.493H489.3L489.555 244.236H491.726L492.438 240.817H493.686L493 244.236H495.865L496.577 240.817H497.834L497.131 244.236H499.319L499.073 245.493H496.867L496.208 248.692H498.502L498.256 249.958H495.953L495.232 253.5H493.976ZM492.06 248.719H494.96L495.619 245.476H492.719L492.06 248.719ZM502.141 253.5H500.559V240.817H508.258V242.241H502.141V246.601H507.757V248.007H502.141V253.5ZM511.65 253.5H510.068V240.817H517.768V242.241H511.65V246.601H517.267V248.007H511.65V253.5ZM520.105 253.5L525.845 242.259V242.224H519.016V240.817H527.409V242.285L521.767 253.5H520.105ZM529.949 253.5L535.688 242.259V242.224H528.859V240.817H537.253V242.285L531.61 253.5H529.949ZM541.647 247.646V246.311H543.168C544.627 246.311 545.646 245.37 545.646 244.087C545.646 242.83 544.794 241.978 543.186 241.978C541.727 241.978 540.76 242.812 540.619 244.14H539.099C539.274 241.986 540.874 240.606 543.256 240.606C545.523 240.606 547.237 241.969 547.237 243.876C547.237 245.467 546.218 246.609 544.636 246.891V246.926C546.552 247.04 547.782 248.227 547.782 250.011C547.782 252.19 545.796 253.711 543.309 253.711C540.654 253.711 538.958 252.243 538.844 250.143H540.364C540.505 251.443 541.586 252.34 543.291 252.34C544.97 252.34 546.174 251.391 546.174 250.063C546.174 248.569 545.049 247.646 543.238 247.646H541.647ZM549.918 240.817H554.181C557.942 240.817 560.166 243.164 560.166 247.154C560.166 251.153 557.951 253.5 554.181 253.5H549.918V240.817ZM551.5 242.241V252.076H554.075C556.949 252.076 558.549 250.318 558.549 247.172C558.549 243.999 556.958 242.241 554.075 242.241H551.5Z" fill="white"/>
<path d="M22.9087 88.5601C22.9087 91.1748 20.9502 93 18.1714 93H12.7881V78.2036H21.4321V79.8647H14.6338V84.0996H18.1509C20.9297 84.0996 22.9087 85.9351 22.9087 88.5601ZM14.6338 91.3389H17.6895C19.812 91.3389 21.0117 90.3442 21.0117 88.5601C21.0117 86.7656 19.8018 85.7607 17.6895 85.7607H14.6338V91.3389ZM29.6865 83.6997C28.0151 83.6997 26.8462 84.9814 26.7334 86.7554H32.5269C32.4858 84.9712 31.3682 83.6997 29.6865 83.6997ZM32.4858 89.9443H34.2393C33.9316 91.8105 32.127 93.1846 29.7993 93.1846C26.7437 93.1846 24.8877 91.062 24.8877 87.709C24.8877 84.397 26.7744 82.1514 29.7173 82.1514C32.5986 82.1514 34.3726 84.2432 34.3726 87.4731V88.1499H26.7231V88.2524C26.7231 90.293 27.9229 91.6362 29.8403 91.6362C31.1938 91.6362 32.1885 90.9492 32.4858 89.9443ZM38.792 88.2935C38.5767 91.2363 37.8691 93.0923 35.6235 93.0923C35.3159 93.0923 35.1108 93.0308 34.9878 92.9795V91.3696C35.0801 91.4004 35.2749 91.4517 35.5312 91.4517C36.5874 91.4517 36.9873 90.2109 37.1206 88.2524L37.5308 82.3359H44.5137V93H42.75V83.8022H39.1201L38.792 88.2935ZM50.8711 87.7397H52.9116V83.8022H50.8711C49.4868 83.8022 48.605 84.561 48.605 85.8428C48.605 86.9502 49.4971 87.7397 50.8711 87.7397ZM52.9116 93V89.2061H51.0249L48.3179 93H46.2773L49.251 88.8779C47.7437 88.4473 46.8311 87.3398 46.8311 85.8735C46.8311 83.6792 48.4102 82.3359 50.8608 82.3359H54.6753V93H52.9116ZM57.1875 93V82.3359H58.9512V91.5337H62.8887V82.3359H64.6523V91.5337H68.5898V82.3359H70.3535V93H57.1875ZM74.6191 93H72.8555V82.3359H74.6191V90.2725H74.7012L80.0332 82.3359H81.7969V93H80.0332V85.0635H79.9512L74.6191 93ZM87.9185 87.3809L93.0454 93H90.7485L86.1445 87.873H86.0625V93H84.2988V82.3359H86.0625V87.0527H86.1445L90.6973 82.3359H92.9019L87.9185 87.3809Z" fill="#161616"/>
<path opacity="0.5" d="M16.7256 112.5L17.4463 108.958H14.5635L13.8428 112.5H12.5947L13.3066 108.958H11.25L11.4961 107.692H13.5791L14.2207 104.493H12.0498L12.3047 103.236H14.4756L15.1875 99.8174H16.4355L15.75 103.236H18.6152L19.3271 99.8174H20.584L19.8809 103.236H22.0693L21.8232 104.493H19.6172L18.958 107.692H21.252L21.0059 108.958H18.7031L17.9824 112.5H16.7256ZM14.8096 107.719H17.71L18.3691 104.476H15.4688L14.8096 107.719ZM24.8906 112.5H23.3086V99.8174H31.0078V101.241H24.8906V105.601H30.5068V107.007H24.8906V112.5ZM34.4004 112.5H32.8184V99.8174H40.5176V101.241H34.4004V105.601H40.0166V107.007H34.4004V112.5ZM43.9102 112.5H42.3281V99.8174H50.0273V101.241H43.9102V105.601H49.5264V107.007H43.9102V112.5ZM53.4199 112.5H51.8379V99.8174H59.5371V101.241H53.4199V105.601H59.0361V107.007H53.4199V112.5ZM62.9297 112.5H61.3477V99.8174H69.0469V101.241H62.9297V105.601H68.5459V107.007H62.9297V112.5ZM72.4395 112.5H70.8574V99.8174H78.5566V101.241H72.4395V105.601H78.0557V107.007H72.4395V112.5Z" fill="black"/>
<path d="M227.664 90.0059V81.0952C224.772 81.208 222.988 82.9102 222.988 85.5454C222.988 88.2114 224.772 89.9136 227.664 90.0059ZM234.154 85.5557C234.154 82.8999 232.37 81.1875 229.489 81.0952V90.0059C232.37 89.8931 234.154 88.1909 234.154 85.5557ZM227.664 91.6567C223.654 91.5645 221.122 89.1958 221.122 85.5454C221.122 81.9155 223.644 79.5571 227.664 79.4443V77.9985H229.489V79.4443C233.498 79.5366 236.021 81.9053 236.021 85.5557C236.021 89.1855 233.498 91.5439 229.489 91.6567V93.2051H227.664V91.6567ZM242.583 93.1846C239.63 93.1846 237.641 91.062 237.641 87.668C237.641 84.2637 239.63 82.1514 242.583 82.1514C245.526 82.1514 247.515 84.2637 247.515 87.668C247.515 91.062 245.526 93.1846 242.583 93.1846ZM242.583 91.6157C244.47 91.6157 245.7 90.1802 245.7 87.668C245.7 85.1558 244.47 83.7202 242.583 83.7202C240.696 83.7202 239.456 85.1558 239.456 87.668C239.456 90.1802 240.696 91.6157 242.583 91.6157ZM256.518 93V88.2012H251.258V93H249.494V82.3359H251.258V86.7349H256.518V82.3359H258.282V93H256.518ZM268.925 93H267.162V88.396H267.008C266.434 88.8882 265.583 89.2266 264.424 89.2266C261.871 89.2266 260.527 87.6782 260.527 85.4019V82.3359H262.291V85.3813C262.291 86.7759 263.04 87.668 264.475 87.668C265.798 87.668 266.669 87.1758 267.162 86.6221V82.3359H268.925V93ZM273.201 93H271.438V82.3359H273.201V90.2725H273.283L278.615 82.3359H280.379V93H278.615V85.0635H278.533L273.201 93ZM286.5 87.3809L291.627 93H289.331L284.727 87.873H284.645V93H282.881V82.3359H284.645V87.0527H284.727L289.279 82.3359H291.484L286.5 87.3809Z" fill="#161616"/>
<path opacity="0.5" d="M225.726 112.5L226.446 108.958H223.563L222.843 112.5H221.595L222.307 108.958H220.25L220.496 107.692H222.579L223.221 104.493H221.05L221.305 103.236H223.476L224.188 99.8174H225.436L224.75 103.236H227.615L228.327 99.8174H229.584L228.881 103.236H231.069L230.823 104.493H228.617L227.958 107.692H230.252L230.006 108.958H227.703L226.982 112.5H225.726ZM223.81 107.719H226.71L227.369 104.476H224.469L223.81 107.719ZM233.891 112.5H232.309V99.8174H240.008V101.241H233.891V105.601H239.507V107.007H233.891V112.5ZM241.537 103.474C241.537 101.259 243.33 99.6064 245.721 99.6064C247.988 99.6064 249.772 101.145 249.772 103.087C249.772 104.502 249.131 105.557 247.013 107.745L243.805 111.059V111.094H249.983V112.5H241.616V111.41L246.081 106.708C247.786 104.915 248.19 104.238 248.19 103.184C248.19 101.962 247.074 100.986 245.677 100.986C244.191 100.986 243.066 102.059 243.066 103.474V103.482H241.537V103.474ZM253.596 112.5H252.014V99.8174H259.713V101.241H253.596V105.601H259.212V107.007H253.596V112.5ZM261.242 103.474C261.242 101.259 263.035 99.6064 265.426 99.6064C267.693 99.6064 269.478 101.145 269.478 103.087C269.478 104.502 268.836 105.557 266.718 107.745L263.51 111.059V111.094H269.688V112.5H261.321V111.41L265.786 106.708C267.491 104.915 267.896 104.238 267.896 103.184C267.896 101.962 266.779 100.986 265.382 100.986C263.896 100.986 262.771 102.059 262.771 103.474V103.482H261.242V103.474ZM273.301 112.5H271.719V99.8174H279.418V101.241H273.301V105.601H278.917V107.007H273.301V112.5ZM281.756 112.5L287.495 101.259V101.224H280.666V99.8174H289.06V101.285L283.417 112.5H281.756Z" fill="black"/>
<path d="M430.729 93H428.883V86.3555H428.719C427.889 87.0117 426.648 87.5039 425.182 87.5039C421.449 87.5039 419.532 85.0942 419.532 82.0693V78.2036H421.377V82.0796C421.377 84.3662 422.721 85.8018 425.182 85.8018C426.781 85.8018 428.094 85.1968 428.883 84.4072V78.2036H430.729V93ZM437.814 83.6997C436.143 83.6997 434.974 84.9814 434.861 86.7554H440.655C440.614 84.9712 439.496 83.6997 437.814 83.6997ZM440.614 89.9443H442.367C442.06 91.8105 440.255 93.1846 437.927 93.1846C434.872 93.1846 433.016 91.062 433.016 87.709C433.016 84.397 434.902 82.1514 437.845 82.1514C440.727 82.1514 442.5 84.2432 442.5 87.4731V88.1499H434.851V88.2524C434.851 90.293 436.051 91.6362 437.968 91.6362C439.322 91.6362 440.316 90.9492 440.614 89.9443ZM449.668 82.1514C452.385 82.1514 454.231 84.3252 454.231 87.668C454.231 91.0107 452.396 93.1846 449.709 93.1846C448.181 93.1846 446.951 92.436 446.315 91.2671H446.274V96.5581H444.49V82.3359H446.182V84.1406H446.223C446.879 82.9409 448.12 82.1514 449.668 82.1514ZM449.319 91.6157C451.216 91.6157 452.406 90.0879 452.406 87.668C452.406 85.2583 451.216 83.7202 449.319 83.7202C447.494 83.7202 446.264 85.2993 446.264 87.668C446.264 90.0469 447.494 91.6157 449.319 91.6157ZM463.234 93V88.2012H457.974V93H456.21V82.3359H457.974V86.7349H463.234V82.3359H464.998V93H463.234ZM476.636 93V82.3359H478.399V93H476.636ZM471.263 87.2065H469.273V91.5337H471.263C472.647 91.5337 473.539 90.6724 473.539 89.3701C473.539 88.0576 472.637 87.2065 471.263 87.2065ZM467.51 93V82.3359H469.273V85.7402H471.293C473.734 85.7402 475.303 87.145 475.303 89.3701C475.303 91.5952 473.734 93 471.293 93H467.51ZM480.901 93V82.3359H482.665V91.5337H486.603V82.3359H488.366V91.5337H492.304V82.3359H494.067V93H480.901Z" fill="white"/>
<path opacity="0.5" d="M423.726 112.5L424.446 108.958H421.563L420.843 112.5H419.595L420.307 108.958H418.25L418.496 107.692H420.579L421.221 104.493H419.05L419.305 103.236H421.476L422.188 99.8174H423.436L422.75 103.236H425.615L426.327 99.8174H427.584L426.881 103.236H429.069L428.823 104.493H426.617L425.958 107.692H428.252L428.006 108.958H425.703L424.982 112.5H423.726ZM421.81 107.719H424.71L425.369 104.476H422.469L421.81 107.719ZM433.341 112.5V101.496H433.306L429.948 103.913V102.243L433.323 99.8174H434.87V112.5H433.341ZM442.675 112.72C440.776 112.72 439.265 111.691 438.482 109.863C438.061 108.888 437.858 107.745 437.858 106.374C437.858 102.103 439.678 99.5977 442.78 99.5977C444.934 99.5977 446.586 100.89 446.99 102.885H445.382C445.039 101.733 444.02 100.995 442.763 100.995C440.645 100.995 439.44 102.876 439.388 106.251H439.414C439.985 105.012 441.383 104.194 442.956 104.194C445.373 104.194 447.166 105.979 447.166 108.387C447.166 110.892 445.276 112.72 442.675 112.72ZM442.657 111.313C444.274 111.313 445.558 110.039 445.558 108.439C445.558 106.778 444.362 105.583 442.684 105.583C441.005 105.583 439.766 106.778 439.766 108.396C439.766 110.021 441.031 111.313 442.657 111.313ZM452.097 112.5V101.496H452.062L448.704 103.913V102.243L452.079 99.8174H453.626V112.5H452.097ZM461.431 112.72C459.532 112.72 458.021 111.691 457.238 109.863C456.816 108.888 456.614 107.745 456.614 106.374C456.614 102.103 458.434 99.5977 461.536 99.5977C463.689 99.5977 465.342 100.89 465.746 102.885H464.138C463.795 101.733 462.775 100.995 461.519 100.995C459.4 100.995 458.196 102.876 458.144 106.251H458.17C458.741 105.012 460.139 104.194 461.712 104.194C464.129 104.194 465.922 105.979 465.922 108.387C465.922 110.892 464.032 112.72 461.431 112.72ZM461.413 111.313C463.03 111.313 464.313 110.039 464.313 108.439C464.313 106.778 463.118 105.583 461.439 105.583C459.761 105.583 458.521 106.778 458.521 108.396C458.521 110.021 459.787 111.313 461.413 111.313ZM470.853 112.5V101.496H470.817L467.46 103.913V102.243L470.835 99.8174H472.382V112.5H470.853ZM480.187 112.72C478.288 112.72 476.776 111.691 475.994 109.863C475.572 108.888 475.37 107.745 475.37 106.374C475.37 102.103 477.189 99.5977 480.292 99.5977C482.445 99.5977 484.098 100.89 484.502 102.885H482.894C482.551 101.733 481.531 100.995 480.274 100.995C478.156 100.995 476.952 102.876 476.899 106.251H476.926C477.497 105.012 478.895 104.194 480.468 104.194C482.885 104.194 484.678 105.979 484.678 108.387C484.678 110.892 482.788 112.72 480.187 112.72ZM480.169 111.313C481.786 111.313 483.069 110.039 483.069 108.439C483.069 106.778 481.874 105.583 480.195 105.583C478.517 105.583 477.277 106.778 477.277 108.396C477.277 110.021 478.543 111.313 480.169 111.313Z" fill="white"/>
</svg>
