<svg width="64" height="64" viewBox="0 0 64 64" fill="none" xmlns="http://www.w3.org/2000/svg">
<rect x="1.05859" y="1.19235" width="61.5" height="61.5" rx="18.75" fill="white" stroke="#F2F2F7" stroke-width="1.5"/>
<path fill-rule="evenodd" clip-rule="evenodd" d="M25.7773 31.0379C28.4309 31.0379 30.582 28.8899 30.582 26.2401C30.582 23.5904 28.4309 21.4424 25.7773 21.4424C23.1238 21.4424 20.9727 23.5904 20.9727 26.2401C20.9727 28.8899 23.1238 31.0379 25.7773 31.0379ZM25.7773 28.4791C27.0157 28.4791 28.0195 27.4767 28.0195 26.2401C28.0195 25.0036 27.0157 24.0012 25.7773 24.0012C24.539 24.0012 23.5352 25.0036 23.5352 26.2401C23.5352 27.4767 24.539 28.4791 25.7773 28.4791Z" fill="black"/>
<path fill-rule="evenodd" clip-rule="evenodd" d="M43.3945 26.2401C43.3945 28.8899 41.2434 31.0379 38.5898 31.0379C35.9362 31.0379 33.7852 28.8899 33.7852 26.2401C33.7852 23.5904 35.9362 21.4424 38.5898 21.4424C41.2434 21.4424 43.3945 23.5904 43.3945 26.2401ZM40.832 26.2401C40.832 27.4767 39.8282 28.4791 38.5898 28.4791C37.3515 28.4791 36.3477 27.4767 36.3477 26.2401C36.3477 25.0036 37.3515 24.0012 38.5898 24.0012C39.8282 24.0012 40.832 25.0036 40.832 26.2401Z" fill="black"/>
<path fill-rule="evenodd" clip-rule="evenodd" d="M36.6151 35.7414C37.2486 35.5939 37.9096 35.5159 38.5898 35.5159C41.129 35.5159 43.4104 36.6056 44.9961 38.3502V40.6335H37.3086C37.3086 41.5657 37.059 42.4397 36.623 43.1924H44.9961C46.4114 43.1924 47.5586 42.0468 47.5586 40.6335V38.2881C47.5586 37.7336 47.3855 37.1878 47.0193 36.7711C44.9646 34.433 41.9498 32.9571 38.5898 32.9571C37.2145 32.9571 35.897 33.2044 34.6795 33.6569C35.1986 34.0962 35.6845 34.5732 36.1328 35.0833C36.3173 35.2933 36.4774 35.5138 36.6151 35.7414Z" fill="black"/>
<path fill-rule="evenodd" clip-rule="evenodd" d="M32.1836 43.1924C33.5989 43.1924 34.7461 42.0468 34.7461 40.6335V38.2881C34.7461 37.7336 34.573 37.1878 34.2068 36.7711C33.6087 36.0906 32.9293 35.483 32.1836 34.9637C30.3677 33.6989 28.1593 32.9571 25.7773 32.9571C22.4174 32.9571 19.4026 34.433 17.3479 36.7711C16.9817 37.1878 16.8086 37.7336 16.8086 38.2881V40.6335C16.8086 42.0468 17.9559 43.1924 19.3711 43.1924H32.1836ZM25.7773 35.5159C28.3166 35.5159 30.5979 36.6056 32.1836 38.3502V40.6335H19.3711V38.3502C20.9567 36.6056 23.2381 35.5159 25.7773 35.5159ZM19.3714 38.2816C19.3714 38.2812 19.3713 38.2817 19.3714 38.2816Z" fill="black"/>
</svg>
