<svg width="84" height="84" viewBox="0 0 84 84" fill="none" xmlns="http://www.w3.org/2000/svg">
<rect width="84" height="84" rx="18" fill="white"/>
<path d="M55.4915 31.7003C55.6951 21.7557 47.5833 14.1868 34.8894 14.085L31.1898 14.0511C27.66 14.0172 25.0465 14.2887 23.5531 14.6959C21.4148 15.239 19.3783 16.5288 19.3783 19.1083C19.3783 20.1605 19.6499 20.9411 19.9893 21.5181C20.1929 21.8575 20.159 22.129 19.8196 22.2648C18.1226 22.9436 16.731 24.5727 16.731 26.711C16.731 27.9668 17.0704 29.0529 17.6813 29.7997C17.9868 30.2069 17.9529 30.5464 17.4437 30.8518C16.2558 31.5646 15.3733 33.0919 15.3733 34.8568C15.3733 36.1466 15.7806 37.5042 16.4934 38.1491C16.9346 38.5225 16.8668 38.794 16.4255 39.2013C15.5431 39.914 15 41.1699 15 42.6972C15 45.3446 17.0365 47.4829 19.7517 47.4829H29.357C31.8007 47.4829 33.396 48.7387 33.396 50.7412C33.396 54.3728 28.8818 61.0932 28.8818 65.9128C28.8818 68.4583 30.477 69.9517 32.6492 69.9517C34.5839 69.9517 35.5342 68.5941 36.5864 66.5237C40.6593 58.6494 46.0559 52.2685 50.1627 46.7701C53.6587 42.1541 55.3557 38.1491 55.4915 31.7003ZM69 31.4967C69 23.4188 63.8749 16.6645 57.1206 16.6645H52.6065C57.3922 20.2623 59.5305 25.6928 59.4286 31.7682C59.3268 38.4886 56.7134 43.4778 54.2697 46.4307H58.1389C64.2143 46.4307 69 39.8801 69 31.4967Z" fill="#252F39"/>
</svg>
