<svg width="333" height="182" viewBox="0 0 333 182" fill="none" xmlns="http://www.w3.org/2000/svg">
<g filter="url(#filter0_b_579_1798)">
<rect x="11" y="12" width="319" height="90" fill="white" fill-opacity="0.2"/>
</g>
<path fill-rule="evenodd" clip-rule="evenodd" d="M319 0C326.732 0 333 6.26801 333 14V107.745C333 115.477 326.732 121.745 319 121.745H298C290.268 121.745 284 128.013 284 135.745V167.935C284 175.667 277.732 181.935 270 181.935H14C6.26802 181.935 0 175.667 0 167.935V121.745V89V14C0 6.26802 6.26801 0 14 0H319ZM16.4163 27.5841V51H25.3546V33.8158H38.9194V51H47.8263V27.5841H16.4163ZM67.997 27.1435H66.5807C51.4107 27.1435 49.4909 34.3508 49.4909 38.757V39.7012C49.4909 44.076 51.4107 51.4406 66.5807 51.4406H67.997C83.1355 51.4406 85.0553 44.076 85.0553 39.7012V38.757C85.0553 34.3508 83.104 27.1435 67.997 27.1435ZM75.8023 38.9773V39.418C75.8023 41.9358 74.1972 45.1146 67.2731 45.1146C60.3491 45.1146 58.7439 41.8099 58.7439 39.355V38.9773C58.7439 36.491 60.2232 33.4381 67.2731 33.4381C74.1972 33.4381 75.8023 36.491 75.8023 38.9773ZM87.4047 44.7684H84.3204V55.0915H92.7237V51H111.639V55.0915H120.042V44.7684H116.265V27.5841H89.0413C89.0413 37.9073 88.7581 42.1876 87.4047 44.7684ZM107.327 44.7684H95.6821C96.6892 42.7856 97.0984 38.5052 97.0984 33.8158H107.327V44.7684ZM130.162 43.6668H140.737C149.297 43.6668 151.847 40.0789 151.847 35.83V35.3265C151.847 31.0147 149.392 27.5841 140.737 27.5841H121.223V51H130.162V43.6668ZM130.162 37.8128V33.4381H139.667C141.775 33.4381 142.625 34.2249 142.625 35.5783V35.6727C142.625 36.9631 141.712 37.8128 139.667 37.8128H130.162ZM170.114 45.6811L181.624 28.2654L193.441 38.2849L180.505 51H192.087L201.844 41.0231V51H210.782V41.0231L220.539 51H232.184L219.186 38.2535L231.743 27.5841H220.633L210.782 36.3021V27.5841H201.844V36.3021L191.993 27.5841H182.074H180.82H172.978L166.747 37.7499L159.854 27.5841H149.499L161.018 43.1947C161.302 43.5409 161.428 43.8871 161.428 44.1704V44.2018C161.428 44.548 161.239 44.7369 160.609 44.7369H156.486V51H161.176C166.369 51 167.439 49.7096 170.114 45.6811ZM256.24 36.3021V51H265.178V27.5841H256.24L241.542 42.3135V27.5841H232.603V51H241.542L256.24 36.3021ZM267.633 27.5841V51H276.351V36.3966L284.534 51H289.097L297.312 36.3966V51H306.156V27.5841H294.385L287.083 40.7398L279.907 27.5841H267.633ZM25.8896 64.9731V82H34.828V64.9731H44.9308V58.5841H15.7868V64.9731H25.8896ZM72.4917 58.5841H46.5895V82H72.7435V76.146H55.4019V72.9358H72.1455V67.2392H55.4019V64.3122H72.4917V58.5841ZM74.5761 58.5841V82H93.7746C103.248 82 105.608 78.6009 105.608 74.415V74.1318C105.608 70.0088 103.248 66.893 93.7746 66.893H83.5144V64.0919H103.374V58.5841H74.5761ZM92.7989 76.3349H83.5144V72.1804H92.7989C95.6 72.1804 96.3553 73.0302 96.3553 74.1632V74.2577C96.3553 75.3592 95.6 76.3349 92.7989 76.3349ZM124.092 74.478H128.215V82H137.154V58.5841H116.57C108.482 58.5841 105.932 62.3294 105.932 66.2635V66.7671C105.932 70.355 108.293 73.219 113.99 73.9744L105.083 82H116.098L124.092 74.478ZM128.215 64.4381V68.8758H118.05C116.004 68.8758 115.186 67.9001 115.186 66.6727V66.6097C115.186 65.4452 115.972 64.4381 118.018 64.4381H128.215ZM164.477 82.4406H165.705C179.805 82.4406 182.008 75.8313 182.008 72.7784V72.2749H172.755L172.75 72.2943C172.612 72.8849 171.858 76.1146 165.044 76.1146C158.749 76.1146 157.176 72.8099 157.176 70.2921V69.9144C157.176 67.3021 158.56 64.4381 165.012 64.4381C171.665 64.4381 172.501 67.2715 172.71 67.9825C172.715 67.9981 172.719 68.0126 172.723 68.026H182.008V67.6169C182.008 64.5955 179.93 58.1435 165.705 58.1435H164.477C149.874 58.1435 147.923 65.2879 147.923 69.757V70.6697C147.923 75.1074 150.094 82.4406 164.477 82.4406ZM208.345 82.4406H209.573C223.672 82.4406 225.876 75.8313 225.876 72.7784V72.2749H216.623L216.618 72.2943C216.48 72.8849 215.726 76.1146 208.912 76.1146C202.617 76.1146 201.043 72.8099 201.043 70.2921V69.9144C201.043 67.3021 202.428 64.4381 208.88 64.4381C215.533 64.4381 216.369 67.2715 216.578 67.9825C216.583 67.9981 216.587 68.0126 216.591 68.026H225.876V67.6169C225.876 64.5955 223.798 58.1435 209.573 58.1435H208.345C193.742 58.1435 191.79 65.2879 191.79 69.757V70.6697C191.79 75.1074 193.962 82.4406 208.345 82.4406ZM250.9 67.3021V82H259.839V58.5841H250.9L236.202 73.3135V58.5841H227.264V82H236.202L250.9 67.3021ZM278.061 82.4406H279.289C293.389 82.4406 295.592 75.8313 295.592 72.7784V72.2749H286.339L286.334 72.2942C286.196 72.8848 285.442 76.1146 278.628 76.1146C272.333 76.1146 270.76 72.8099 270.76 70.2921V69.9144C270.76 67.3021 272.145 64.4381 278.596 64.4381C285.249 64.4381 286.085 67.2715 286.294 67.9825C286.299 67.9981 286.303 68.0126 286.307 68.026H295.592V67.6169C295.592 64.5955 293.515 58.1435 279.289 58.1435H278.061C263.458 58.1435 261.507 65.2879 261.507 69.757V70.6697C261.507 75.1074 263.678 82.4406 278.061 82.4406ZM306.989 69.7256H296.603V75.5795H306.989V69.7256ZM25.8896 96.9731V114H34.828V96.9731H44.9308V90.5841H15.7868V96.9731H25.8896ZM72.4917 90.5841H46.5895V114H72.7435V108.146H55.4019V104.936H72.1455V99.2392H55.4019V96.3122H72.4917V90.5841ZM74.6705 90.5841V114H83.3885V99.3966L91.5715 114H96.135L104.349 99.3966V114H113.193V90.5841H101.422L94.1208 103.74L86.9449 90.5841H74.6705ZM130.99 96.3122L134.924 104.369H127.15L130.99 96.3122ZM137.788 110.223L139.613 114H149.402L137.159 90.5841H125.136L113.554 114H122.618L124.412 110.223H137.788ZM149.735 90.5841V114H158.453V99.3966L166.636 114H171.199L179.414 99.3966V114H188.258V90.5841H176.487L169.185 103.74L162.009 90.5841H149.735ZM214.174 99.3021V114H223.112V90.5841H214.174L199.476 105.313V90.5841H190.538V114H199.476L214.174 99.3021Z" fill="white"/>
<path d="M23.6406 148H19.1172V136.727H23.6172C25.6172 136.727 26.9297 137.836 26.9297 139.539C26.9297 140.734 26.0469 141.805 24.9219 141.992V142.055C26.4531 142.227 27.4844 143.312 27.4844 144.812C27.4844 146.797 26.0391 148 23.6406 148ZM20.8672 138.156V141.523H22.8281C24.3438 141.523 25.1797 140.898 25.1797 139.781C25.1797 138.734 24.4609 138.156 23.1953 138.156H20.8672ZM20.8672 146.57H23.2812C24.8594 146.57 25.6953 145.922 25.6953 144.703C25.6953 143.484 24.8359 142.859 23.1797 142.859H20.8672V146.57ZM37.2659 148V144.422H33.5472V148H31.8675V139.781H33.5472V143.094H37.2659V139.781H38.9456V148H37.2659ZM43.4966 146.805C44.6763 146.805 45.5981 145.992 45.5981 144.922V144.273L43.5747 144.398C42.5669 144.469 41.9966 144.914 41.9966 145.617C41.9966 146.336 42.5903 146.805 43.4966 146.805ZM43.0278 148.141C41.4184 148.141 40.2934 147.141 40.2934 145.664C40.2934 144.227 41.395 143.344 43.3481 143.234L45.5981 143.102V142.469C45.5981 141.555 44.9809 141.008 43.9497 141.008C42.9731 141.008 42.3638 141.477 42.2153 142.211H40.6216C40.7153 140.727 41.9809 139.633 44.0122 139.633C46.0044 139.633 47.2778 140.688 47.2778 142.336V148H45.6606V146.648H45.6216C45.145 147.562 44.1059 148.141 43.0278 148.141ZM48.8913 148V139.781H50.5709V146.664H53.3288V139.781H55.0084V146.664H57.7663V139.781H59.4459V148H48.8913ZM64.5516 140.992C63.3719 140.992 62.5438 141.891 62.4578 143.133H66.5672C66.5281 141.875 65.7313 140.992 64.5516 140.992ZM66.5594 145.586H68.1609C67.9266 147.086 66.5047 148.156 64.6219 148.156C62.2078 148.156 60.7469 146.523 60.7469 143.93C60.7469 141.352 62.2313 139.633 64.5516 139.633C66.8328 139.633 68.2547 141.242 68.2547 143.734V144.312H62.45V144.414C62.45 145.844 63.3094 146.789 64.6609 146.789C65.6219 146.789 66.3328 146.305 66.5594 145.586ZM71.2041 148H69.54V139.781H71.2041V145.539H71.2666L75.0634 139.781H76.7275V148H75.0634V142.227H75.0009L71.2041 148ZM70.6572 136.172H71.7978C71.8056 137.055 72.3681 137.727 73.2509 137.727C74.1416 137.727 74.7041 137.055 74.7119 136.172H75.8525C75.8525 137.648 74.8056 138.648 73.2509 138.648C71.7041 138.648 70.6572 137.648 70.6572 136.172ZM85.0091 148.156C82.6575 148.156 81.1106 146.539 81.1106 143.891C81.1106 141.25 82.6653 139.633 85.0091 139.633C87.3528 139.633 88.9075 141.25 88.9075 143.891C88.9075 146.539 87.3606 148.156 85.0091 148.156ZM85.0091 146.766C86.3372 146.766 87.1888 145.719 87.1888 143.891C87.1888 142.07 86.3294 141.023 85.0091 141.023C83.6888 141.023 82.8294 142.07 82.8294 143.891C82.8294 145.719 83.6888 146.766 85.0091 146.766ZM95.5991 148V144.422H91.8803V148H90.2006V139.781H91.8803V143.094H95.5991V139.781H97.2787V148H95.5991ZM101.431 144.258C101.275 146.586 100.689 148.078 98.8453 148.078C98.5719 148.078 98.3766 148.031 98.275 147.992V146.508C98.3531 146.531 98.5094 146.57 98.7203 146.57C99.5172 146.57 99.7984 145.617 99.8922 144.188L100.173 139.781H105.869V148H104.189V141.117H101.658L101.431 144.258ZM110.404 146.805C111.584 146.805 112.506 145.992 112.506 144.922V144.273L110.482 144.398C109.474 144.469 108.904 144.914 108.904 145.617C108.904 146.336 109.498 146.805 110.404 146.805ZM109.935 148.141C108.326 148.141 107.201 147.141 107.201 145.664C107.201 144.227 108.302 143.344 110.256 143.234L112.506 143.102V142.469C112.506 141.555 111.888 141.008 110.857 141.008C109.881 141.008 109.271 141.477 109.123 142.211H107.529C107.623 140.727 108.888 139.633 110.92 139.633C112.912 139.633 114.185 140.688 114.185 142.336V148H112.568V146.648H112.529C112.052 147.562 111.013 148.141 109.935 148.141ZM117.463 148H115.799V139.781H117.463V145.539H117.525L121.322 139.781H122.986V148H121.322V142.227H121.26L117.463 148ZM116.916 136.172H118.057C118.064 137.055 118.627 137.727 119.51 137.727C120.4 137.727 120.963 137.055 120.971 136.172H122.111C122.111 137.648 121.064 138.648 119.51 138.648C117.963 138.648 116.916 137.648 116.916 136.172ZM130.037 148V144.422H126.318V148H124.639V139.781H126.318V143.094H130.037V139.781H131.717V148H130.037ZM138.51 144.188H133.385V142.664H138.51V144.188ZM143.827 148.156C141.256 148.156 139.866 146.477 139.866 143.227C139.866 138.664 141.194 136.812 144.319 136.703L145.053 136.68C145.936 136.641 146.827 136.477 147.202 136.273V137.672C146.991 137.867 146.155 138.07 145.147 138.109L144.428 138.133C142.233 138.211 141.537 139.195 141.233 141.516H141.295C141.819 140.547 142.811 140.016 144.1 140.016C146.319 140.016 147.741 141.562 147.741 143.984C147.741 146.57 146.248 148.156 143.827 148.156ZM143.811 146.742C145.202 146.742 146.014 145.758 146.014 144.008C146.014 142.344 145.202 141.391 143.811 141.391C142.412 141.391 141.592 142.344 141.592 144.008C141.592 145.758 142.405 146.742 143.811 146.742ZM150.698 148H149.034V139.781H150.698V145.539H150.76L154.557 139.781H156.221V148H154.557V142.227H154.495L150.698 148ZM161.538 148.156C158.967 148.156 157.577 146.477 157.577 143.227C157.577 138.664 158.905 136.812 162.03 136.703L162.764 136.68C163.647 136.641 164.538 136.477 164.913 136.273V137.672C164.702 137.867 163.866 138.07 162.858 138.109L162.139 138.133C159.944 138.211 159.249 139.195 158.944 141.516H159.007C159.53 140.547 160.522 140.016 161.811 140.016C164.03 140.016 165.452 141.562 165.452 143.984C165.452 146.57 163.96 148.156 161.538 148.156ZM161.522 146.742C162.913 146.742 163.725 145.758 163.725 144.008C163.725 142.344 162.913 141.391 161.522 141.391C160.124 141.391 159.303 142.344 159.303 144.008C159.303 145.758 160.116 146.742 161.522 146.742ZM168.932 144.258C168.776 146.586 168.19 148.078 166.347 148.078C166.073 148.078 165.878 148.031 165.776 147.992V146.508C165.854 146.531 166.011 146.57 166.222 146.57C167.018 146.57 167.3 145.617 167.393 144.188L167.675 139.781H173.37V148H171.69V141.117H169.159L168.932 144.258ZM176.687 148H175.023V139.781H176.687V145.539H176.749L180.546 139.781H182.21V148H180.546V142.227H180.483L176.687 148ZM187.402 148.156C185.05 148.156 183.503 146.539 183.503 143.891C183.503 141.25 185.058 139.633 187.402 139.633C189.745 139.633 191.3 141.25 191.3 143.891C191.3 146.539 189.753 148.156 187.402 148.156ZM187.402 146.766C188.73 146.766 189.581 145.719 189.581 143.891C189.581 142.07 188.722 141.023 187.402 141.023C186.081 141.023 185.222 142.07 185.222 143.891C185.222 145.719 186.081 146.766 187.402 146.766ZM198.562 139.781V141.117H195.984V148H194.304V141.117H191.726V139.781H198.562ZM202.925 140.992C201.746 140.992 200.917 141.891 200.832 143.133H204.941C204.902 141.875 204.105 140.992 202.925 140.992ZM204.933 145.586H206.535C206.3 147.086 204.878 148.156 202.996 148.156C200.582 148.156 199.121 146.523 199.121 143.93C199.121 141.352 200.605 139.633 202.925 139.633C205.207 139.633 206.628 141.242 206.628 143.734V144.312H200.824V144.414C200.824 145.844 201.683 146.789 203.035 146.789C203.996 146.789 204.707 146.305 204.933 145.586ZM211.25 143.641L215.031 148H212.914L209.656 144.211H209.593V148H207.914V139.781H209.593V143.297H209.656L212.875 139.781H214.89L211.25 143.641ZM219.168 140.992C217.988 140.992 217.16 141.891 217.074 143.133H221.183C221.144 141.875 220.348 140.992 219.168 140.992ZM221.176 145.586H222.777C222.543 147.086 221.121 148.156 219.238 148.156C216.824 148.156 215.363 146.523 215.363 143.93C215.363 141.352 216.848 139.633 219.168 139.633C221.449 139.633 222.871 141.242 222.871 143.734V144.312H217.066V144.414C217.066 145.844 217.926 146.789 219.277 146.789C220.238 146.789 220.949 146.305 221.176 145.586ZM22.2969 159.008H20.5703V161.164H22.1328C23.0859 161.164 23.5625 160.797 23.5625 160.07C23.5625 159.391 23.1172 159.008 22.2969 159.008ZM22.2422 162.344H20.5703V164.773H22.4297C23.3828 164.773 23.8984 164.352 23.8984 163.562C23.8984 162.75 23.3516 162.344 22.2422 162.344ZM18.9062 166V157.781H22.6406C24.2422 157.781 25.2109 158.578 25.2109 159.875C25.2109 160.727 24.6016 161.5 23.8125 161.648V161.711C24.875 161.852 25.5781 162.602 25.5781 163.633C25.5781 165.078 24.4688 166 22.6875 166H18.9062ZM28.5822 166H26.9181V157.781H28.5822V163.539H28.6447L32.4416 157.781H34.1056V166H32.4416V160.227H32.3791L28.5822 166ZM38.7113 166.156C36.7894 166.156 35.4534 165.211 35.305 163.695H36.9691C37.1409 164.406 37.7659 164.797 38.7113 164.797C39.7894 164.797 40.3909 164.297 40.3909 163.57C40.3909 162.75 39.8363 162.375 38.7191 162.375H37.5159V161.133H38.6956C39.6409 161.133 40.1331 160.773 40.1331 160.055C40.1331 159.422 39.68 158.977 38.7191 158.977C37.8128 158.977 37.2034 159.367 37.0941 160.008H35.4769C35.6488 158.547 36.8753 157.633 38.7113 157.633C40.7034 157.633 41.7816 158.523 41.7816 159.891C41.7816 160.727 41.2659 161.438 40.4691 161.641V161.703C41.5159 161.945 42.0706 162.625 42.0706 163.562C42.0706 165.125 40.7503 166.156 38.7113 166.156ZM44.0903 169.062C43.9575 169.062 43.5278 169.047 43.4028 169.023V167.656C43.5278 167.688 43.8091 167.688 43.9497 167.688C44.7388 167.688 45.1528 167.359 45.4106 166.516C45.4106 166.5 45.5591 166.016 45.5591 166.008L42.5903 157.781H44.4184L46.5044 164.469H46.5278L48.6138 157.781H50.395L47.3091 166.43C46.6059 168.422 45.8013 169.062 44.0903 169.062ZM54.0397 164.805C55.2194 164.805 56.1413 163.992 56.1413 162.922V162.273L54.1178 162.398C53.11 162.469 52.5397 162.914 52.5397 163.617C52.5397 164.336 53.1334 164.805 54.0397 164.805ZM53.5709 166.141C51.9616 166.141 50.8366 165.141 50.8366 163.664C50.8366 162.227 51.9381 161.344 53.8913 161.234L56.1413 161.102V160.469C56.1413 159.555 55.5241 159.008 54.4928 159.008C53.5163 159.008 52.9069 159.477 52.7584 160.211H51.1647C51.2584 158.727 52.5241 157.633 54.5553 157.633C56.5475 157.633 57.8209 158.688 57.8209 160.336V166H56.2038V164.648H56.1647C55.6881 165.562 54.6491 166.141 53.5709 166.141ZM61.9188 162.258C61.7625 164.586 61.1766 166.078 59.3328 166.078C59.0594 166.078 58.8641 166.031 58.7625 165.992V164.508C58.8406 164.531 58.9969 164.57 59.2078 164.57C60.0047 164.57 60.2859 163.617 60.3797 162.188L60.6609 157.781H66.3563V166H64.6766V159.117H62.1453L61.9188 162.258ZM69.6728 166H68.0088V157.781H69.6728V163.539H69.7353L73.5322 157.781H75.1963V166H73.5322V160.227H73.4697L69.6728 166ZM79.8019 166.156C77.88 166.156 76.5441 165.211 76.3956 163.695H78.0597C78.2316 164.406 78.8566 164.797 79.8019 164.797C80.88 164.797 81.4816 164.297 81.4816 163.57C81.4816 162.75 80.9269 162.375 79.8097 162.375H78.6066V161.133H79.7863C80.7316 161.133 81.2238 160.773 81.2238 160.055C81.2238 159.422 80.7706 158.977 79.8097 158.977C78.9034 158.977 78.2941 159.367 78.1847 160.008H76.5675C76.7394 158.547 77.9659 157.633 79.8019 157.633C81.7941 157.633 82.8722 158.523 82.8722 159.891C82.8722 160.727 82.3566 161.438 81.5597 161.641V161.703C82.6066 161.945 83.1613 162.625 83.1613 163.562C83.1613 165.125 81.8409 166.156 79.8019 166.156ZM87.3684 164.805C88.5481 164.805 89.47 163.992 89.47 162.922V162.273L87.4466 162.398C86.4388 162.469 85.8684 162.914 85.8684 163.617C85.8684 164.336 86.4622 164.805 87.3684 164.805ZM86.8997 166.141C85.2903 166.141 84.1653 165.141 84.1653 163.664C84.1653 162.227 85.2669 161.344 87.22 161.234L89.47 161.102V160.469C89.47 159.555 88.8528 159.008 87.8216 159.008C86.845 159.008 86.2356 159.477 86.0872 160.211H84.4934C84.5872 158.727 85.8528 157.633 87.8841 157.633C89.8763 157.633 91.1497 158.688 91.1497 160.336V166H89.5325V164.648H89.4934C89.0169 165.562 87.9778 166.141 86.8997 166.141ZM100.99 168.156H99.435V166H92.7631V157.781H94.4428V164.664H98.0287V157.781H99.7084V164.664H100.99V168.156ZM103.642 166H101.978V157.781H103.642V163.539H103.705L107.502 157.781H109.166V166H107.502V160.227H107.439L103.642 166ZM112.482 166H110.818V157.781H112.482V163.539H112.545L116.342 157.781H118.006V166H116.342V160.227H116.279L112.482 166ZM128.217 164.664V159.117H125.357L125.131 162.258C125.068 163.227 124.865 164.07 124.49 164.602V164.664H128.217ZM123.545 168.156H121.99V164.664H122.654C123.256 164.289 123.529 163.297 123.607 162.188L123.904 157.781H129.897V164.664H131.17V168.156H129.607V166H123.545V168.156ZM135.033 164.805C136.213 164.805 137.135 163.992 137.135 162.922V162.273L135.112 162.398C134.104 162.469 133.533 162.914 133.533 163.617C133.533 164.336 134.127 164.805 135.033 164.805ZM134.565 166.141C132.955 166.141 131.83 165.141 131.83 163.664C131.83 162.227 132.932 161.344 134.885 161.234L137.135 161.102V160.469C137.135 159.555 136.518 159.008 135.487 159.008C134.51 159.008 133.901 159.477 133.752 160.211H132.158C132.252 158.727 133.518 157.633 135.549 157.633C137.541 157.633 138.815 158.688 138.815 160.336V166H137.198V164.648H137.158C136.682 165.562 135.643 166.141 134.565 166.141ZM145.827 166V162.422H142.108V166H140.428V157.781H142.108V161.094H145.827V157.781H147.506V166H145.827ZM154.573 166V162.422H150.854V166H149.174V157.781H150.854V161.094H154.573V157.781H156.253V166H154.573ZM165.241 166V157.781H166.913V166H165.241ZM161.022 161.641H159.6V164.672H161.022C161.991 164.672 162.616 164.062 162.616 163.156C162.616 162.242 161.983 161.641 161.022 161.641ZM157.921 166V157.781H159.6V160.32H161.171C163.069 160.32 164.296 161.422 164.296 163.156C164.296 164.898 163.069 166 161.171 166H157.921ZM171.659 162.977H171.62L169.8 166H167.972L170.682 161.898L168.011 157.781H169.901L171.698 160.758H171.729L173.503 157.781H175.362L172.667 161.844L175.331 166H173.472L171.659 162.977Z" fill="black"/>
<defs>
<filter id="filter0_b_579_1798" x="-7.80207" y="-6.80207" width="356.604" height="127.604" filterUnits="userSpaceOnUse" color-interpolation-filters="sRGB">
<feFlood flood-opacity="0" result="BackgroundImageFix"/>
<feGaussianBlur in="BackgroundImageFix" stdDeviation="9.40104"/>
<feComposite in2="SourceAlpha" operator="in" result="effect1_backgroundBlur_579_1798"/>
<feBlend mode="normal" in="SourceGraphic" in2="effect1_backgroundBlur_579_1798" result="shape"/>
</filter>
</defs>
</svg>
