<svg width="1328" height="574" viewBox="0 0 1328 574" fill="none" xmlns="http://www.w3.org/2000/svg">
<path fill-rule="evenodd" clip-rule="evenodd" d="M1168 53.25C1168 23.8408 1144.16 0 1114.75 0H53.25C23.8408 0 0 23.8408 0 53.25V432.875C0 432.944 0.0559644 433 0.125 433V433C0.194036 433 0.25 433.056 0.25 433.125V520.75C0.25 550.159 24.0909 574 53.5 574H1274.75C1304.16 574 1328 550.159 1328 520.75V173.5C1328 144.091 1304.16 120.25 1274.75 120.25H1221.25C1191.84 120.25 1168 96.4092 1168 67V53.25Z" fill="#F2F2F7"/>
</svg>
