<svg width="19" height="18" viewBox="0 0 19 18" fill="none" xmlns="http://www.w3.org/2000/svg">
<path d="M9.4668 12.3333V16.5M9.4668 12.3333C12.2987 12.3333 13.5602 10.8959 14.0836 9M9.4668 12.3333C6.56627 12.3333 5.31313 10.9092 4.8132 9M9.4668 16.5H6.01679M9.4668 16.5H12.4855M14.3168 3.58333C14.3033 3.38367 14.2897 3.18827 14.2771 2.99822C14.2219 2.17163 13.539 1.5 12.7105 1.5H6.22305C5.39463 1.5 4.71549 2.17173 4.66428 2.99857C4.65243 3.18988 4.6396 3.38509 4.62661 3.58333M14.3168 3.58333C14.4326 5.29766 14.5454 7.32729 14.0836 9M14.3168 3.58333H16.2043H16.5918C17.4202 3.58333 18.1186 4.25679 18.0386 5.08134C17.8669 6.84916 17.1421 9 14.0836 9M4.62661 3.58333H2.3418C1.51337 3.58333 0.822448 4.2579 0.931499 5.07912C1.16631 6.84736 1.99255 9 4.8132 9M4.62661 3.58333C4.51096 5.34835 4.38228 7.35437 4.8132 9" stroke="white" stroke-width="1.5" stroke-linecap="round" stroke-linejoin="round"/>
</svg>
