<svg width="26" height="23" viewBox="0 0 26 23" fill="none" xmlns="http://www.w3.org/2000/svg">
<path d="M12.6221 16.1114V21.667M12.6221 16.1114C16.3979 16.1114 18.08 14.1949 18.7779 11.667M12.6221 16.1114C8.75471 16.1114 7.08385 14.2126 6.41727 11.667M12.6221 21.667H8.02207M12.6221 21.667H16.6471M19.0887 4.44477C19.0707 4.17855 19.0526 3.91802 19.0357 3.66462C18.9623 2.5625 18.0516 1.66699 16.9471 1.66699H8.29708C7.19251 1.66699 6.287 2.56263 6.21871 3.66509C6.20291 3.92017 6.18581 4.18044 6.16849 4.44477M19.0887 4.44477C19.2432 6.73054 19.3936 9.43671 18.7779 11.667M19.0887 4.44477H21.6054H22.1221C23.2266 4.44477 24.1579 5.34271 24.0511 6.44211C23.8222 8.79921 22.8558 11.667 18.7779 11.667M6.16849 4.44477H3.12207C2.0175 4.44477 1.09627 5.34419 1.24167 6.43915C1.55475 8.7968 2.6564 11.667 6.41727 11.667M6.16849 4.44477C6.01429 6.79813 5.84272 9.47282 6.41727 11.667" stroke="black" stroke-width="2" stroke-linecap="round" stroke-linejoin="round"/>
</svg>
