<svg width="1280" height="458" viewBox="0 0 1280 458" fill="none" xmlns="http://www.w3.org/2000/svg">
<path d="M989.569 398.56H958.627C982.013 355.308 1000.72 306.694 1000.72 240.565C1000.72 175.866 982.013 127.252 958.627 84H989.569C1016.55 120.103 1039.58 175.866 1039.58 240.565C1039.58 307.409 1016.55 362.457 989.569 398.56Z" fill="white" fill-opacity="0.2"/>
<path d="M290.012 398.56H320.955C297.568 355.308 278.858 306.694 278.858 240.565C278.858 175.866 297.568 127.252 320.955 84H290.012C263.027 120.103 240 175.866 240 240.565C240 307.409 263.027 362.457 290.012 398.56Z" fill="white" fill-opacity="0.2"/>
<path d="M366.118 339.58H325.101L394.182 246.285L331.218 157.278H371.515L415.411 222.335H416.13L459.306 157.278H499.603L436.639 246.285L506.439 339.58H465.063L415.411 269.877H414.691L366.118 339.58Z" fill="white" fill-opacity="0.2"/>
<path d="M551.164 339.58H515.904V84H551.164V339.58Z" fill="white" fill-opacity="0.2"/>
<path d="M601.898 339.58H560.881L629.962 246.285L566.998 157.278H607.295L651.191 222.335H651.91L695.086 157.278H735.383L672.419 246.285L742.219 339.58H700.843L651.191 269.877H650.471L601.898 339.58Z" fill="white" fill-opacity="0.2"/>
<path d="M818.03 344.585C762.261 344.585 734.557 315.988 733.477 278.813H769.097C770.537 299.903 783.489 316.346 817.67 316.346C848.613 316.346 856.888 302.762 856.888 289.537C856.888 266.66 832.422 264.157 808.675 259.153C776.653 251.646 739.954 242.353 739.954 204.462C739.954 173.006 765.499 151.916 809.755 151.916C860.126 151.916 884.233 178.726 886.751 210.182H851.131C848.613 196.241 841.057 180.155 810.474 180.155C786.727 180.155 776.653 189.449 776.653 203.033C776.653 221.978 797.162 223.765 823.067 229.484C856.888 237.348 893.587 246.999 893.587 287.749C893.587 323.137 866.243 344.585 818.03 344.585Z" fill="white" fill-opacity="0.2"/>
<path d="M960.026 207.505H920.809V168.543H960.026V207.505ZM960.026 316.887H920.809V277.924H960.026V316.887Z" fill="white" fill-opacity="0.2"/>
</svg>
