<svg width="84" height="84" viewBox="0 0 84 84" fill="none" xmlns="http://www.w3.org/2000/svg">
<rect width="84" height="84" rx="18" fill="white"/>
<path d="M28.6442 52.2671C28.6442 62.2457 36.4167 69.9503 49.1106 69.9503H52.8101C56.34 69.9503 58.9874 69.6788 60.4469 69.2715C62.5851 68.7285 64.6216 67.4726 64.6216 64.8592C64.6216 63.841 64.3501 63.0603 64.0106 62.4833C63.807 62.1439 63.841 61.8385 64.1804 61.7027C65.8774 61.0239 67.269 59.4287 67.269 57.2565C67.269 56.0346 66.9295 54.9485 66.3186 54.2017C66.0132 53.7945 66.0471 53.4211 66.5562 53.1156C67.7441 52.4368 68.6266 50.9095 68.6266 49.1106C68.6266 47.8548 68.2193 46.4972 67.5066 45.8523C67.0654 45.445 67.1671 45.1735 67.5745 44.7662C68.4569 44.0874 69 42.8315 69 41.2702C69 38.6568 66.9635 36.4846 64.2482 36.4846H54.643C52.1992 36.4846 50.604 35.2627 50.604 33.2263C50.604 29.5946 55.1521 22.9082 55.1521 18.0886C55.1521 15.5431 53.5229 14.0497 51.3507 14.0497C49.4161 14.0497 48.4657 15.4073 47.4136 17.4438C43.3407 25.318 37.944 31.7329 33.8372 37.1973C30.3413 41.8473 28.6442 45.8523 28.6442 52.2671ZM15 52.4708C15 60.5487 20.0911 67.3369 26.8793 67.3369H31.3935C26.5738 63.7052 24.6392 58.3086 24.6392 52.2332C24.6392 45.4789 27.2866 40.4896 29.6964 37.5367H25.8611C19.7517 37.5367 15 44.0874 15 52.4708Z" fill="#252F39"/>
</svg>
