<svg width="165" height="14" viewBox="0 0 165 14" fill="none" xmlns="http://www.w3.org/2000/svg">
<path d="M14.5152 12.9693V5.7649L6.22259 12.9693H0.781738V0.211481H6.22259V7.41592L14.5152 0.211481H19.956V12.9693H14.5152Z" fill="#016B83"/>
<path d="M33.5195 12.9693L28.285 6.75926V12.9693H22.6565V0.211481H28.285V5.78366L33.6883 0.211481H40.7239L34.1574 6.19642L40.6864 12.9693H33.5195Z" fill="#016B83"/>
<path d="M51.499 0.0238647C57.9155 0.0238647 61.4239 1.88126 61.4239 5.72738V5.82119H55.3264L55.2701 5.55852C55.045 4.50788 54.0506 3.77618 51.5553 3.77618H50.8424C48.2158 3.77618 46.7336 4.5454 46.7336 6.51536V6.66545C46.7336 8.63542 48.2158 9.40464 50.8424 9.40464H51.5553C54.0506 9.40464 55.045 8.67294 55.2701 7.62229L55.3264 7.35963H61.4239V7.45344C61.4239 11.2996 57.9155 13.157 51.499 13.157H50.8987C44.2946 13.157 40.9175 11.3183 40.9175 6.7405V6.44032C40.9175 1.8625 44.2946 0.0238647 50.8987 0.0238647H51.499Z" fill="#016B83"/>
<path d="M63.9327 12.9693V0.211481H80.4428V3.96379H69.5611V5.18329H78.8294V7.99753H69.5611V9.21703H80.4428V12.9693H63.9327Z" fill="#016B83"/>
<path d="M90.2842 4.33902L90.2279 6.81555C90.1153 11.4684 89.0084 13.0631 83.9615 13.0631H82.5732V8.67294H82.9859C84.712 8.67294 85.2561 8.03505 85.2936 6.0088L85.4249 0.211481H101.447V12.9693H95.8188V4.33902H90.2842Z" fill="#016B83"/>
<path d="M117.88 12.9693V5.7649L109.587 12.9693H104.146V0.211481H109.587V7.41592L117.88 0.211481H123.32V12.9693H117.88Z" fill="#016B83"/>
<path d="M136.884 12.9693L131.649 6.75926V12.9693H126.021V0.211481H131.649V5.78366L137.053 0.211481H144.088L137.522 6.19642L144.051 12.9693H136.884Z" fill="#016B83"/>
<path d="M154.863 0.0238647C161.28 0.0238647 164.788 1.88126 164.788 5.72738V5.82119H158.691L158.635 5.55852C158.409 4.50788 157.415 3.77618 154.92 3.77618H154.207C151.58 3.77618 150.098 4.5454 150.098 6.51536V6.66545C150.098 8.63542 151.58 9.40464 154.207 9.40464H154.92C157.415 9.40464 158.409 8.67294 158.635 7.62229L158.691 7.35963H164.788V7.45344C164.788 11.2996 161.28 13.157 154.863 13.157H154.263C147.659 13.157 144.282 11.3183 144.282 6.7405V6.44032C144.282 1.8625 147.659 0.0238647 154.263 0.0238647H154.863Z" fill="#016B83"/>
</svg>
