<svg width="77" height="40" viewBox="0 0 77 40" fill="none" xmlns="http://www.w3.org/2000/svg">
<g filter="url(#filter0_b_1676_4144)">
<path fill-rule="evenodd" clip-rule="evenodd" d="M13.8083 0C6.61575 0 0.785034 5.83071 0.785034 13.0233V26.9767C0.785034 34.1693 6.61573 40 13.8083 40H63.853C71.0455 40 76.8762 34.1693 76.8762 26.9767V13.0233C76.8762 5.83071 71.0455 0 63.853 0H13.8083ZM12.9613 31.6623H15.2555C13.5215 28.4555 12.1343 24.8511 12.1343 19.9481C12.1343 15.1511 13.5215 11.5467 15.2555 8.33987H12.9613C10.9605 11.0167 9.25325 15.1511 9.25325 19.9481C9.25325 24.9041 10.9605 28.9856 12.9613 31.6623ZM64.8286 31.6623H62.5344C64.2684 28.4555 65.6556 24.8511 65.6556 19.9481C65.6556 15.1511 64.2684 11.5467 62.5344 8.33987H64.8286C66.8293 11.0167 68.5366 15.1511 68.5366 19.9481C68.5366 24.9041 66.8293 28.9856 64.8286 31.6623ZM15.5629 27.2894H18.604L22.2054 22.1213H22.2587L25.9401 27.2894H29.0079L23.8326 20.3721L28.501 13.7729H25.5133L22.3121 18.5965H22.2587L19.0042 13.7729H16.0164L20.6848 20.3721L15.5629 27.2894ZM32.3239 27.2894H29.7096V8.33987H32.3239V27.2894ZM33.0444 27.2894H36.0855L39.6868 22.1213H39.7402L43.4215 27.2894H46.4893L41.3141 20.3721L45.9825 13.7729H42.9947L39.7935 18.5965H39.7402L36.4856 13.7729H33.4979L38.1663 20.3721L33.0444 27.2894ZM52.1102 27.6604C47.9753 27.6604 45.9212 25.5402 45.8412 22.7839H48.4822C48.5889 24.3476 49.5492 25.5667 52.0835 25.5667C54.3777 25.5667 54.9912 24.5596 54.9912 23.579C54.9912 22.0436 53.5048 21.746 51.9171 21.4282C51.7508 21.3949 51.5834 21.3614 51.4166 21.3263C49.0424 20.7697 46.3214 20.0806 46.3214 17.2713C46.3214 14.9391 48.2154 13.3754 51.4966 13.3754C55.2313 13.3754 57.0186 15.3631 57.2054 17.6954H54.5644C54.3777 16.6618 53.8175 15.4691 51.5499 15.4691C49.7893 15.4691 49.0424 16.1582 49.0424 17.1653C49.0424 18.4072 50.231 18.6547 51.8338 18.9884C52.0439 19.0322 52.2611 19.0774 52.4836 19.1265C54.9912 19.7096 57.7122 20.4252 57.7122 23.4465C57.7122 26.0703 55.6848 27.6604 52.1102 27.6604ZM59.7305 17.4969H62.6382V14.6081H59.7305V17.4969ZM59.7305 25.6068H62.6382V22.718H59.7305V25.6068Z" fill="white"/>
</g>
<defs>
<filter id="filter0_b_1676_4144" x="-165.815" y="-166.6" width="409.291" height="373.2" filterUnits="userSpaceOnUse" color-interpolation-filters="sRGB">
<feFlood flood-opacity="0" result="BackgroundImageFix"/>
<feGaussianBlur in="BackgroundImageFix" stdDeviation="83.3"/>
<feComposite in2="SourceAlpha" operator="in" result="effect1_backgroundBlur_1676_4144"/>
<feBlend mode="normal" in="SourceGraphic" in2="effect1_backgroundBlur_1676_4144" result="shape"/>
</filter>
</defs>
</svg>
