<svg width="77" height="40" viewBox="0 0 77 40" fill="none" xmlns="http://www.w3.org/2000/svg">
<g filter="url(#filter0_b_39_2054)">
<path fill-rule="evenodd" clip-rule="evenodd" d="M13.0233 0C5.83071 0 0 5.83071 0 13.0233V26.9767C0 34.1693 5.83069 40 13.0232 40H63.0679C70.2605 40 76.0912 34.1693 76.0912 26.9767V13.0233C76.0912 5.83071 70.2605 0 63.068 0H13.0233ZM12.1763 31.6623H14.4705C12.7365 28.4555 11.3493 24.8511 11.3493 19.9481C11.3493 15.1511 12.7365 11.5467 14.4705 8.33986H12.1763C10.1756 11.0166 8.46826 15.1511 8.46826 19.9481C8.46826 24.9041 10.1756 28.9855 12.1763 31.6623ZM64.0436 31.6623H61.7494C63.4834 28.4555 64.8706 24.8511 64.8706 19.9481C64.8706 15.1511 63.4834 11.5467 61.7494 8.33986H64.0436C66.0443 11.0166 67.7516 15.1511 67.7516 19.9481C67.7516 24.9041 66.0443 28.9855 64.0436 31.6623ZM14.7779 27.2894H17.8191L21.4204 22.1213H21.4737L25.1551 27.2894H28.2229L23.0476 20.3721L27.716 13.7729H24.7283L21.5271 18.5964H21.4737L18.2192 13.7729H15.2314L19.8998 20.3721L14.7779 27.2894ZM31.5389 27.2894H28.9246V8.33986H31.5389V27.2894ZM32.2594 27.2894H35.3005L38.9018 22.1213H38.9552L42.6365 27.2894H45.7043L40.5291 20.3721L45.1975 13.7729H42.2097L39.0085 18.5964H38.9552L35.7007 13.7729H32.7129L37.3813 20.3721L32.2594 27.2894ZM51.3252 27.6604C47.1903 27.6604 45.1362 25.5402 45.0562 22.7839H47.6972C47.8039 24.3476 48.7642 25.5667 51.2985 25.5667C53.5927 25.5667 54.2062 24.5596 54.2062 23.579C54.2062 22.0436 52.7198 21.746 51.1321 21.4282C50.9658 21.3949 50.7985 21.3614 50.6316 21.3262C48.2574 20.7697 45.5364 20.0806 45.5364 17.2713C45.5364 14.9391 47.4304 13.3754 50.7116 13.3754C54.4463 13.3754 56.2337 15.3631 56.4204 17.6954H53.7794C53.5927 16.6617 53.0325 15.4691 50.765 15.4691C49.0043 15.4691 48.2574 16.1582 48.2574 17.1653C48.2574 18.4072 49.446 18.6547 51.0488 18.9884L51.0493 18.9885C51.2592 19.0322 51.4763 19.0774 51.6986 19.1265C54.2062 19.7096 56.9272 20.4251 56.9272 23.4465C56.9272 26.0702 54.8998 27.6604 51.3252 27.6604ZM58.9455 17.4969H61.8532V14.6081H58.9455V17.4969ZM58.9455 25.6068H61.8532V22.718H58.9455V25.6068Z" fill="white"/>
</g>
<defs>
<filter id="filter0_b_39_2054" x="-166.6" y="-166.6" width="409.292" height="373.2" filterUnits="userSpaceOnUse" color-interpolation-filters="sRGB">
<feFlood flood-opacity="0" result="BackgroundImageFix"/>
<feGaussianBlur in="BackgroundImageFix" stdDeviation="83.3"/>
<feComposite in2="SourceAlpha" operator="in" result="effect1_backgroundBlur_39_2054"/>
<feBlend mode="normal" in="SourceGraphic" in2="effect1_backgroundBlur_39_2054" result="shape"/>
</filter>
</defs>
</svg>
