<svg width="532" height="364" viewBox="0 0 532 364" fill="none" xmlns="http://www.w3.org/2000/svg">
<rect width="531.75" height="363.75" rx="33.75" fill="#F2F2F7"/>
<g filter="url(#filter0_b_802_7117)">
<path fill-rule="evenodd" clip-rule="evenodd" d="M128.418 92.3772C110.307 92.3772 95.625 107.059 95.625 125.17V238.58C95.625 256.691 110.307 271.373 128.418 271.373H403.332C421.443 271.373 436.125 256.691 436.125 238.58V125.17C436.125 107.059 421.443 92.3772 403.332 92.3772H128.418ZM150.112 234.062H160.379C152.619 219.712 146.412 203.583 146.412 181.642C146.412 160.176 152.619 144.047 160.379 129.696H150.112C141.159 141.675 133.519 160.176 133.519 181.642C133.519 203.82 141.159 222.084 150.112 234.062ZM382.213 234.062H371.947C379.706 219.712 385.914 203.583 385.914 181.642C385.914 160.176 379.706 144.047 371.947 129.696H382.213C391.166 141.675 398.806 160.176 398.806 181.642C398.806 203.82 391.166 222.084 382.213 234.062ZM161.754 214.493H175.363L191.479 191.367H191.717L208.191 214.493H221.919L198.761 183.54L219.651 154.009H206.281L191.956 175.594H191.717L177.154 154.009H163.784L184.674 183.54L161.754 214.493ZM236.758 214.493H225.059V129.696H236.758V214.493ZM239.982 214.493H253.591L269.706 191.367H269.945L286.419 214.493H300.147L276.988 183.54L297.879 154.009H284.509L270.184 175.594H269.945L255.381 154.009H242.011L262.902 183.54L239.982 214.493ZM325.299 216.154C306.796 216.154 297.605 206.666 297.246 194.332H309.065C309.542 201.329 313.839 206.785 325.18 206.785C335.446 206.785 338.192 202.278 338.192 197.89C338.192 191.019 331.54 189.688 324.435 188.265L324.434 188.265L324.433 188.265C323.69 188.116 322.942 187.966 322.196 187.809C311.571 185.319 299.395 182.235 299.395 169.664C299.395 159.227 307.871 152.23 322.554 152.23C339.266 152.23 347.264 161.125 348.1 171.561H336.282C335.446 166.936 332.939 161.599 322.793 161.599C314.914 161.599 311.571 164.683 311.571 169.189C311.571 174.747 316.89 175.854 324.063 177.348C325.003 177.543 325.975 177.746 326.971 177.966C338.192 180.575 350.368 183.777 350.368 197.297C350.368 209.038 341.296 216.154 325.299 216.154ZM359.4 170.673H372.411V157.746H359.4V170.673ZM359.4 206.964H372.411V194.037H359.4V206.964Z" fill="black"/>
</g>
<defs>
<filter id="filter0_b_802_7117" x="-814.934" y="-818.182" width="2161.62" height="2000.11" filterUnits="userSpaceOnUse" color-interpolation-filters="sRGB">
<feFlood flood-opacity="0" result="BackgroundImageFix"/>
<feGaussianBlur in="BackgroundImageFix" stdDeviation="455.28"/>
<feComposite in2="SourceAlpha" operator="in" result="effect1_backgroundBlur_802_7117"/>
<feBlend mode="normal" in="SourceGraphic" in2="effect1_backgroundBlur_802_7117" result="shape"/>
</filter>
</defs>
</svg>
