<svg width="73" height="38" viewBox="0 0 73 38" fill="none" xmlns="http://www.w3.org/2000/svg">
<g filter="url(#filter0_b_702_3437)">
<path fill-rule="evenodd" clip-rule="evenodd" d="M6.9387 0.0634766C3.10656 0.0634766 0 3.17003 0 7.00217V30.9984C0 34.8305 3.10657 37.9371 6.93871 37.9371H65.1075C68.9396 37.9371 72.0462 34.8305 72.0462 30.9984V7.00218C72.0462 3.17004 68.9396 0.0634766 65.1075 0.0634766H6.9387ZM11.529 30.0426H13.7012C12.0594 27.0062 10.746 23.5934 10.746 18.9511C10.746 14.4091 12.0594 10.9963 13.7012 7.95992H11.529C9.63458 10.4944 8.01805 14.4091 8.01805 18.9511C8.01805 23.6436 9.63458 27.5081 11.529 30.0426ZM60.639 30.0426H58.4668C60.1086 27.0062 61.422 23.5934 61.422 18.9511C61.422 14.4091 60.1086 10.9963 58.4668 7.95992H60.639C62.5334 10.4944 64.1499 14.4091 64.1499 18.9511C64.1499 23.6436 62.5334 27.5081 60.639 30.0426ZM13.9923 25.9021H16.8717L20.2816 21.0088H20.3322L23.8178 25.9021H26.7225L21.8224 19.3526L26.2426 13.1042H23.4137L20.3827 17.6713H20.3322L17.2506 13.1042H14.4217L18.8419 19.3526L13.9923 25.9021ZM29.8623 25.9021H27.3869V7.95992H29.8623V25.9021ZM30.5444 25.9021H33.4239L36.8338 21.0088H36.8843L40.37 25.9021H43.2747L38.3745 19.3526L42.7948 13.1042H39.9658L36.9348 17.6713H36.8843L33.8028 13.1042H30.9738L35.3941 19.3526L30.5444 25.9021ZM48.5967 26.2534C44.6816 26.2534 42.7367 24.2459 42.661 21.6361H45.1615C45.2626 23.1166 46.1719 24.271 48.5714 24.271C50.7437 24.271 51.3246 23.3174 51.3246 22.3889C51.3246 20.9351 49.9172 20.6534 48.4139 20.3525C48.2564 20.321 48.098 20.2892 47.94 20.2559C45.692 19.729 43.1156 19.0765 43.1156 16.4166C43.1156 14.2083 44.909 12.7278 48.0157 12.7278C51.5519 12.7278 53.2442 14.6098 53.421 16.8181H50.9205C50.7437 15.8394 50.2132 14.7102 48.0663 14.7102C46.3992 14.7102 45.692 15.3626 45.692 16.3162C45.692 17.4921 46.8174 17.7264 48.3351 18.0424L48.3352 18.0424C48.5341 18.0838 48.7397 18.1266 48.9503 18.1731C51.3246 18.7252 53.901 19.4027 53.901 22.2635C53.901 24.7478 51.9813 26.2534 48.5967 26.2534ZM55.8119 16.6302H58.5651V13.895H55.8119V16.6302ZM55.8119 24.3089H58.5651V21.5737H55.8119V24.3089Z" fill="black"/>
</g>
<defs>
<filter id="filter0_b_702_3437" x="-192.665" y="-192.601" width="457.376" height="423.203" filterUnits="userSpaceOnUse" color-interpolation-filters="sRGB">
<feFlood flood-opacity="0" result="BackgroundImageFix"/>
<feGaussianBlur in="BackgroundImageFix" stdDeviation="96.3323"/>
<feComposite in2="SourceAlpha" operator="in" result="effect1_backgroundBlur_702_3437"/>
<feBlend mode="normal" in="SourceGraphic" in2="effect1_backgroundBlur_702_3437" result="shape"/>
</filter>
</defs>
</svg>
