<svg width="162" height="48" viewBox="0 0 162 48" fill="none" xmlns="http://www.w3.org/2000/svg">
<rect width="162" height="48" rx="8" fill="#252F39"/>
<path d="M28.224 29V22.856L21.152 29H16.512V18.12H21.152V24.264L28.224 18.12H32.864V29H28.224ZM42.831 29L38.367 23.704V29H33.567V18.12H38.367V22.872L42.975 18.12H48.975L43.375 23.224L48.943 29H42.831ZM56.5641 17.96C62.0361 17.96 65.0281 19.544 65.0281 22.824V22.904H59.8281L59.7801 22.68C59.5881 21.784 58.7401 21.16 56.6121 21.16H56.0041C53.7641 21.16 52.5001 21.816 52.5001 23.496V23.624C52.5001 25.304 53.7641 25.96 56.0041 25.96H56.6121C58.7401 25.96 59.5881 25.336 59.7801 24.44L59.8281 24.216H65.0281V24.296C65.0281 27.576 62.0361 29.16 56.5641 29.16H56.0521C50.4201 29.16 47.5401 27.592 47.5401 23.688V23.432C47.5401 19.528 50.4201 17.96 56.0521 17.96H56.5641ZM65.5676 29V18.12H79.6476V21.32H70.3676V22.36H78.2716V24.76H70.3676V25.8H79.6476V29H65.5676ZM86.4404 21.64L86.3924 23.752C86.2964 27.72 85.3524 29.08 81.0484 29.08H79.8644V25.336H80.2164C81.6884 25.336 82.1524 24.792 82.1844 23.064L82.2964 18.12H95.9604V29H91.1604V21.64H86.4404ZM108.374 29V22.856L101.302 29H96.662V18.12H101.302V24.264L108.374 18.12H113.014V29H108.374ZM122.981 29L118.517 23.704V29H113.717V18.12H118.517V22.872L123.125 18.12H129.125L123.525 23.224L129.093 29H122.981ZM136.714 17.96C142.186 17.96 145.178 19.544 145.178 22.824V22.904H139.978L139.93 22.68C139.738 21.784 138.89 21.16 136.762 21.16H136.154C133.914 21.16 132.65 21.816 132.65 23.496V23.624C132.65 25.304 133.914 25.96 136.154 25.96H136.762C138.89 25.96 139.738 25.336 139.93 24.44L139.978 24.216H145.178V24.296C145.178 27.576 142.186 29.16 136.714 29.16H136.202C130.57 29.16 127.69 27.592 127.69 23.688V23.432C127.69 19.528 130.57 17.96 136.202 17.96H136.714Z" fill="white"/>
</svg>
