<svg width="24" height="25" viewBox="0 0 24 25" fill="none" xmlns="http://www.w3.org/2000/svg">
<path fill-rule="evenodd" clip-rule="evenodd" d="M16 9.71967C16 13.3095 13.0899 16.2197 9.5 16.2197C5.91015 16.2197 3 13.3095 3 9.71967C3 6.12981 5.91015 3.21967 9.5 3.21967C13.0899 3.21967 16 6.12981 16 9.71967ZM14.3986 17.8609C12.9683 18.7235 11.2921 19.2197 9.5 19.2197C4.25329 19.2197 0 14.9664 0 9.71967C0 4.47296 4.25329 0.219666 9.5 0.219666C14.7467 0.219666 19 4.47296 19 9.71967C19 12.0885 18.133 14.2548 16.699 15.9187L23 22.2197C23.5858 22.8055 23.5858 23.7552 23 24.341C22.4142 24.9268 21.4645 24.9268 20.8787 24.341L14.3986 17.8609Z" fill="#A9A9B3"/>
</svg>
