<svg width="55" height="55" viewBox="0 0 55 55" fill="none" xmlns="http://www.w3.org/2000/svg">
<mask id="mask0_790_8282" style="mask-type:alpha" maskUnits="userSpaceOnUse" x="0" y="0" width="73" height="73">
<path d="M1.95296 19.0136C3.26301 9.86055 10.1076 3.01594 19.2607 1.70589C23.933 1.03717 29.7766 0.535156 36.7916 0.535156C43.8066 0.535156 49.6502 1.03717 54.3225 1.70589C63.4756 3.01594 70.3202 9.86054 71.6302 19.0136C72.299 23.6859 72.801 29.5295 72.801 36.5445C72.801 43.5595 72.299 49.4031 71.6302 54.0754C70.3202 63.2285 63.4756 70.0731 54.3225 71.3832C49.6502 72.0519 43.8066 72.5539 36.7916 72.5539C29.7766 72.5539 23.933 72.0519 19.2607 71.3832C10.1076 70.0731 3.26301 63.2285 1.95296 54.0754C1.28424 49.4032 0.782227 43.5595 0.782227 36.5445C0.782227 29.5295 1.28424 23.6859 1.95296 19.0136Z" fill="#F3F4F5"/>
</mask>
<g mask="url(#mask0_790_8282)">
<path d="M1.66028 14.394C2.64281 7.5292 7.77627 2.39574 14.6411 1.41321C18.1453 0.911667 22.528 0.535156 27.7893 0.535156C33.0505 0.535156 37.4332 0.911667 40.9374 1.41321C47.8022 2.39574 52.9357 7.5292 53.9182 14.394C54.4198 17.8982 54.7963 22.2809 54.7963 27.5422C54.7963 32.8034 54.4198 37.1862 53.9182 40.6903C52.9357 47.5552 47.8022 52.6886 40.9374 53.6712C37.4332 54.1727 33.0505 54.5492 27.7893 54.5492C22.528 54.5492 18.1453 54.1727 14.6411 53.6712C7.77627 52.6886 2.64281 47.5552 1.66028 40.6904C1.15874 37.1862 0.782227 32.8034 0.782227 27.5422C0.782227 22.2809 1.15874 17.8982 1.66028 14.394Z" fill="#F3F4F5"/>
</g>
<g clip-path="url(#clip0_790_8282)">
<path fill-rule="evenodd" clip-rule="evenodd" d="M39.0947 27.5928C39.0947 33.8076 34.0566 38.8457 27.8418 38.8457C21.627 38.8457 16.5889 33.8076 16.5889 27.5928C16.5889 21.378 21.627 16.3398 27.8418 16.3398C34.0566 16.3398 39.0947 21.378 39.0947 27.5928ZM33.4465 23.7172C33.4854 23.458 33.4884 23.0831 33.3155 22.9101C33.0967 22.6888 32.5688 22.7171 32.2254 22.8629L20.8957 27.6109C20.5834 27.7602 20.398 27.9581 20.406 28.1403C20.4143 28.3274 20.6649 28.5206 20.941 28.6066L22.6203 29.1098C23.481 29.3569 24.4069 29.2079 25.1466 28.7033L29.8501 25.4945C29.9612 25.4187 30.1733 25.4063 30.2595 25.5083C30.3462 25.6109 30.289 25.8043 30.1846 25.9052L26.373 29.5882C26.0291 29.9205 26.0785 30.4852 26.475 30.7528L30.1952 33.2614C30.5851 33.5246 31.1518 33.6656 31.5245 33.4812C31.8624 33.314 32.0578 32.7968 32.1225 32.3753L33.4465 23.7172Z" fill="#86868A"/>
</g>
<defs>
<clipPath id="clip0_790_8282">
<rect width="27.007" height="27.007" fill="white" transform="translate(14.2856 14.0371)"/>
</clipPath>
</defs>
</svg>
