<svg width="55" height="55" viewBox="0 0 55 55" fill="none" xmlns="http://www.w3.org/2000/svg">
<mask id="mask0_790_8322" style="mask-type:alpha" maskUnits="userSpaceOnUse" x="0" y="0" width="73" height="73">
<path d="M1.99056 19.0136C3.30061 9.86055 10.1452 3.01594 19.2983 1.70589C23.9706 1.03717 29.8142 0.535156 36.8292 0.535156C43.8442 0.535156 49.6878 1.03717 54.3601 1.70589C63.5132 3.01594 70.3578 9.86054 71.6678 19.0136C72.3365 23.6859 72.8386 29.5295 72.8386 36.5445C72.8386 43.5595 72.3365 49.4031 71.6678 54.0754C70.3578 63.2285 63.5132 70.0731 54.3601 71.3832C49.6878 72.0519 43.8442 72.5539 36.8292 72.5539C29.8142 72.5539 23.9706 72.0519 19.2983 71.3832C10.1452 70.0731 3.3006 63.2285 1.99056 54.0754C1.32184 49.4032 0.819824 43.5595 0.819824 36.5445C0.819824 29.5295 1.32184 23.6859 1.99056 19.0136Z" fill="#F3F4F5"/>
</mask>
<g mask="url(#mask0_790_8322)">
<path d="M1.69788 14.394C2.68041 7.5292 7.81387 2.39574 14.6787 1.41321C18.1829 0.911667 22.5656 0.535156 27.8268 0.535156C33.0881 0.535156 37.4708 0.911667 40.975 1.41321C47.8398 2.39574 52.9733 7.5292 53.9558 14.394C54.4574 17.8982 54.8339 22.2809 54.8339 27.5422C54.8339 32.8034 54.4574 37.1862 53.9558 40.6903C52.9733 47.5552 47.8398 52.6886 40.975 53.6712C37.4708 54.1727 33.0881 54.5492 27.8268 54.5492C22.5656 54.5492 18.1829 54.1727 14.6787 53.6712C7.81387 52.6886 2.68041 47.5552 1.69788 40.6904C1.19633 37.1862 0.819824 32.8034 0.819824 27.5422C0.819824 22.2809 1.19633 17.8982 1.69788 14.394Z" fill="#F3F4F5"/>
</g>
<g clip-path="url(#clip0_790_8322)">
<path fill-rule="evenodd" clip-rule="evenodd" d="M39.7015 21.2824C39.4096 20.2443 38.5526 19.4285 37.462 19.1506C35.4875 18.6465 27.8528 18.6465 27.8528 18.6465C27.8528 18.6465 20.2181 18.6465 18.2436 19.1506C17.1531 19.4285 16.2961 20.2443 16.0042 21.2824C15.4746 23.1621 15.4746 27.0862 15.4746 27.0862C15.4746 27.0862 15.4746 31.0103 16.0042 32.89C16.2961 33.9281 17.1531 34.7438 18.2436 35.0217C20.2181 35.5259 27.8528 35.5259 27.8528 35.5259C27.8528 35.5259 35.4875 35.5259 37.462 35.0217C38.5526 34.7438 39.4096 33.9281 39.7015 32.89C40.2311 31.0103 40.2311 27.0862 40.2311 27.0862C40.2311 27.0862 40.2289 23.1621 39.7015 21.2824ZM25.6022 31.0247L32.354 27.0862L25.6022 23.1477V31.0247Z" fill="#86868A"/>
</g>
<defs>
<clipPath id="clip0_790_8322">
<rect width="27.007" height="27.007" fill="white" transform="translate(14.3232 14.0371)"/>
</clipPath>
</defs>
</svg>
