<svg width="55" height="55" viewBox="0 0 55 55" fill="none" xmlns="http://www.w3.org/2000/svg">
<mask id="mask0_790_8302" style="mask-type:alpha" maskUnits="userSpaceOnUse" x="0" y="0" width="73" height="73">
<path d="M1.97152 19.0136C3.28156 9.86055 10.1262 3.01594 19.2793 1.70589C23.9515 1.03717 29.7952 0.535156 36.8101 0.535156C43.8251 0.535156 49.6688 1.03717 54.341 1.70589C63.4941 3.01594 70.3387 9.86054 71.6488 19.0136C72.3175 23.6859 72.8195 29.5295 72.8195 36.5445C72.8195 43.5595 72.3175 49.4031 71.6488 54.0754C70.3387 63.2285 63.4941 70.0731 54.341 71.3832C49.6688 72.0519 43.8251 72.5539 36.8101 72.5539C29.7951 72.5539 23.9515 72.0519 19.2793 71.3832C10.1262 70.0731 3.28156 63.2285 1.97152 54.0754C1.3028 49.4032 0.800781 43.5595 0.800781 36.5445C0.800781 29.5295 1.3028 23.6859 1.97152 19.0136Z" fill="#F3F4F5"/>
</mask>
<g mask="url(#mask0_790_8302)">
<path d="M1.67883 14.394C2.66137 7.5292 7.79482 2.39574 14.6596 1.41321C18.1638 0.911667 22.5466 0.535156 27.8078 0.535156C33.0691 0.535156 37.4518 0.911667 40.956 1.41321C47.8208 2.39574 52.9542 7.5292 53.9368 14.394C54.4383 17.8982 54.8148 22.2809 54.8148 27.5422C54.8148 32.8034 54.4383 37.1862 53.9368 40.6903C52.9542 47.5552 47.8208 52.6886 40.956 53.6712C37.4518 54.1727 33.0691 54.5492 27.8078 54.5492C22.5466 54.5492 18.1638 54.1727 14.6596 53.6712C7.79482 52.6886 2.66137 47.5552 1.67883 40.6904C1.17729 37.1862 0.800781 32.8034 0.800781 27.5422C0.800781 22.2809 1.17729 17.8982 1.67883 14.394Z" fill="#F3F4F5"/>
</g>
<g clip-path="url(#clip0_790_8302)">
<path fill-rule="evenodd" clip-rule="evenodd" d="M38.8166 19.817C39.6294 19.8171 39.813 20.2335 39.6294 20.8062C39.343 22.1186 36.9644 25.6 36.2277 26.6783C36.0877 26.8832 36.007 27.0013 36.0112 27.0013C35.7228 27.4698 35.6179 27.6781 36.0112 28.1986C36.1534 28.3911 36.4549 28.6849 36.7994 29.0206C37.1538 29.3658 37.5537 29.7554 37.8728 30.1249C39.0264 31.4264 39.9179 32.5197 40.1538 33.2745C40.3636 34.0293 39.9965 34.4198 39.2099 34.4198H36.5093C35.7937 34.4198 35.4249 34.0118 34.6388 33.1423C34.3016 32.7694 33.8878 32.3117 33.3369 31.7648C31.7375 30.229 31.0296 30.0208 30.6363 30.0208C30.0857 30.0208 29.9284 30.1509 29.9284 30.9319V33.3526C29.9284 34.0034 29.7187 34.3938 27.9882 34.3938C25.1304 34.3938 21.9579 32.6758 19.7293 29.4742C16.3732 24.7888 15.4556 21.2487 15.4556 20.5459C15.4556 20.1554 15.5867 19.791 16.3732 19.791H19.1C19.7817 19.791 20.0439 20.0773 20.3061 20.8322C21.6432 24.6586 23.8719 28.0165 24.7895 28.0165C25.1304 28.0165 25.2877 27.8603 25.2877 27.0013V23.0448C25.2229 21.9201 24.8286 21.4302 24.5362 21.0668C24.3548 20.8415 24.2127 20.6648 24.2127 20.4157C24.2127 20.1034 24.4749 19.791 24.8944 19.791H29.1418C29.7187 19.791 29.9284 20.1034 29.9284 20.7801V26.1163C29.9284 26.6889 30.1644 26.8972 30.3479 26.8972C30.6888 26.8972 30.9772 26.6889 31.6064 26.0642C33.5467 23.9037 34.9363 20.5719 34.9363 20.5719C35.1198 20.1815 35.4345 19.817 36.1161 19.817H38.8166Z" fill="#86868A"/>
</g>
<defs>
<clipPath id="clip0_790_8302">
<rect width="27.007" height="27.007" fill="white" transform="translate(14.3042 14.0371)"/>
</clipPath>
</defs>
</svg>
