<svg width="84" height="84" viewBox="0 0 84 84" fill="none" xmlns="http://www.w3.org/2000/svg">
<rect width="84" height="84" rx="18" fill="#C3FF34"/>
<path d="M15.6065 36.8737C16.4655 37.705 17.6294 37.6219 18.4884 36.8183L20.3449 34.9617L23.2544 31.8582V55.2175C23.2544 59.8728 25.6098 62.2004 30.3204 62.2004H47.2234C48.6643 62.2004 49.4955 61.4799 49.4679 60.2053C49.4402 58.9307 48.6643 58.1825 47.2234 58.1825H30.3758C28.3807 58.1825 27.2447 57.1295 27.2447 55.0236V31.8028L30.1818 34.9617L32.0384 36.8183C32.8974 37.6219 34.0613 37.705 34.9202 36.8737C35.7515 36.0424 35.7238 34.7954 34.8648 33.9919L27.7711 26.9259C26.164 25.3187 24.3628 25.3187 22.728 26.9259L15.662 33.9919C14.803 34.7954 14.7752 36.0424 15.6065 36.8737ZM34.5323 23.8224C34.5323 25.0971 35.3082 25.8175 36.7491 25.8175H53.6243C55.6195 25.8175 56.7555 26.8982 56.7555 28.9764V52.1972L53.8183 49.0383L51.9617 47.2094C51.1028 46.3781 49.9389 46.295 49.0799 47.154C48.2486 47.9576 48.2763 49.2045 49.1354 50.0081L56.2013 57.0741C57.8362 58.6813 59.6373 58.6813 61.2445 57.0741L68.3383 50.0081C69.197 49.2045 69.2248 47.9576 68.3934 47.154C67.5348 46.295 66.3708 46.3781 65.5118 47.2094L63.6276 49.0383L60.7458 52.1694V28.7824C60.7458 24.1272 58.3904 21.7996 53.6798 21.7996H36.7491C35.3082 21.7996 34.5046 22.5201 34.5323 23.8224Z" fill="#016B83"/>
</svg>
