<svg width="191" height="177" viewBox="0 0 191 177" fill="none" xmlns="http://www.w3.org/2000/svg">
<g filter="url(#filter0_d_668_2359)">
<rect x="5" y="5" width="181" height="167" rx="31" fill="white"/>
</g>
<path d="M67.5405 73.0571V71.7803L66.6684 72.7128L62.3293 77.3527L59.5688 80.1199C59.0049 80.6464 58.3647 80.9164 57.7505 80.9375C57.1411 80.9584 56.518 80.7363 55.97 80.206C54.9349 79.1654 54.967 77.6283 56.0437 76.6187L56.0498 76.6129L56.0557 76.607L66.6041 66.0327C66.6046 66.0322 66.6051 66.0317 66.6056 66.0312C67.7615 64.8926 68.9235 64.3734 70.0313 64.3734C71.1386 64.3734 72.2897 64.8923 73.4243 66.0296L73.425 66.0303L84.0178 76.6077L84.0234 76.6133L84.0292 76.6187C85.1058 77.6283 85.1379 79.1654 84.1028 80.206C83.5548 80.7363 82.9318 80.9584 82.3223 80.9375C81.7081 80.9164 81.068 80.6464 80.504 80.1199L77.7443 77.3534L73.3645 72.6314L72.491 71.6897V72.9742V107.734C72.491 109.398 72.9399 110.727 73.8611 111.639C74.7814 112.549 76.0963 112.967 77.6706 112.967H102.828C103.821 112.967 104.511 113.224 104.955 113.632C105.394 114.036 105.658 114.649 105.676 115.502C105.694 116.339 105.435 116.931 104.993 117.322C104.54 117.723 103.827 117.973 102.828 117.973H77.5879C74.1473 117.973 71.6596 117.121 70.0291 115.506C68.3994 113.892 67.5405 111.43 67.5405 108.024V73.0571ZM84.3814 61.028H84.3815L84.3813 61.0173C84.3629 60.1511 84.6179 59.5484 85.0494 59.1556C85.49 58.7544 86.1891 58.504 87.1876 58.504H112.47C115.91 58.504 118.398 59.3559 120.028 60.9713C121.658 62.5857 122.517 65.0475 122.517 68.4529V103.462V104.756L123.392 103.802L127.686 99.1258L130.489 96.3985C130.489 96.3985 130.489 96.3984 130.489 96.3983C131.055 95.8491 131.696 95.5712 132.307 95.5502C132.912 95.5294 133.534 95.7581 134.084 96.3097L134.084 96.3098L134.09 96.3158C135.117 97.3103 135.095 98.8446 134.014 99.8587L134.008 99.864L134.003 99.8696L123.41 110.447L123.409 110.448C122.274 111.585 121.123 112.104 120.016 112.104C118.908 112.104 117.746 111.585 116.59 110.446C116.59 110.446 116.589 110.445 116.589 110.445L106.04 99.8703L106.034 99.8643L106.028 99.8586C104.947 98.8445 104.925 97.3103 105.952 96.3158L105.952 96.3159L105.958 96.3098C106.508 95.7582 107.13 95.5294 107.735 95.5502C108.346 95.5711 108.986 95.8486 109.552 96.397C109.552 96.3975 109.553 96.398 109.553 96.3985L112.314 99.1253L116.693 103.846L117.567 104.788V103.503V68.7432C117.567 67.0988 117.117 65.7707 116.198 64.8552C115.279 63.9401 113.965 63.5106 112.387 63.5106H87.1876C86.19 63.5106 85.5007 63.2606 85.0648 62.864C84.6362 62.4742 84.3814 61.878 84.3814 61.028Z" fill="black" stroke="white" stroke-width="1.00795"/>
<defs>
<filter id="filter0_d_668_2359" x="0.968182" y="0.968182" width="189.064" height="175.064" filterUnits="userSpaceOnUse" color-interpolation-filters="sRGB">
<feFlood flood-opacity="0" result="BackgroundImageFix"/>
<feColorMatrix in="SourceAlpha" type="matrix" values="0 0 0 0 0 0 0 0 0 0 0 0 0 0 0 0 0 0 127 0" result="hardAlpha"/>
<feOffset/>
<feGaussianBlur stdDeviation="2.01591"/>
<feComposite in2="hardAlpha" operator="out"/>
<feColorMatrix type="matrix" values="0 0 0 0 0 0 0 0 0 0 0 0 0 0 0 0 0 0 0.15 0"/>
<feBlend mode="normal" in2="BackgroundImageFix" result="effect1_dropShadow_668_2359"/>
<feBlend mode="normal" in="SourceGraphic" in2="effect1_dropShadow_668_2359" result="shape"/>
</filter>
</defs>
</svg>
