<svg width="64" height="64" viewBox="0 0 64 64" fill="none" xmlns="http://www.w3.org/2000/svg">
<rect x="1.25" y="1" width="61.5" height="61.5" rx="18.75" fill="white" stroke="#F2F2F7" stroke-width="1.5"/>
<path fill-rule="evenodd" clip-rule="evenodd" d="M16.6914 22.9C16.6914 21.2017 18.0681 19.825 19.7664 19.825H38.2164C39.9147 19.825 41.2914 21.2017 41.2914 22.9V27.5125C41.2914 29.2108 39.9147 30.5875 38.2164 30.5875H19.7664C18.0681 30.5875 16.6914 29.2108 16.6914 27.5125V22.9ZM19.7664 22.9H38.2164V27.5125H19.7664V22.9Z" fill="black"/>
<path fill-rule="evenodd" clip-rule="evenodd" d="M22.8414 36.7375C22.8414 35.0392 24.2181 33.6625 25.9164 33.6625H38.2164C39.9147 33.6625 41.2914 35.0392 41.2914 36.7375V41.35C41.2914 43.0483 39.9147 44.425 38.2164 44.425H25.9164C24.2181 44.425 22.8414 43.0483 22.8414 41.35V36.7375ZM25.9164 36.7375V41.35H38.2164V36.7375H25.9164Z" fill="black"/>
<path d="M45.9039 47.5C45.0548 47.5 44.3664 46.8116 44.3664 45.9625V18.2875C44.3664 17.4384 45.0548 16.75 45.9039 16.75C46.753 16.75 47.4414 17.4384 47.4414 18.2875V45.9625C47.4414 46.8116 46.753 47.5 45.9039 47.5Z" fill="black"/>
</svg>
