<svg width="1338" height="280" viewBox="0 0 1338 280" fill="none" xmlns="http://www.w3.org/2000/svg">
<g clip-path="url(#clip0_601_2358)">
<rect width="1338" height="280" rx="24" fill="#016B83"/>
<path d="M37.8203 43.627L44.5977 51H41.7363L35.6621 44.3887H35.584V51H33.3965V36.9082H35.584V43.2168H35.6621L41.4043 36.9082H44.0215L37.8203 43.627ZM49.5441 51.1953C46.6047 51.1953 44.6711 49.1738 44.6711 45.8633C44.6711 42.5625 46.6145 40.541 49.5441 40.541C52.4738 40.541 54.4172 42.5625 54.4172 45.8633C54.4172 49.1738 52.4836 51.1953 49.5441 51.1953ZM49.5441 49.457C51.2043 49.457 52.2688 48.1484 52.2688 45.8633C52.2688 43.5879 51.1945 42.2793 49.5441 42.2793C47.8938 42.2793 46.8195 43.5879 46.8195 45.8633C46.8195 48.1484 47.8938 49.457 49.5441 49.457ZM61.3949 40.5605C64.0023 40.5605 65.7211 42.6113 65.7211 45.8633C65.7211 49.1152 64.0121 51.1758 61.434 51.1758C59.9594 51.1758 58.7875 50.4531 58.2016 49.3105H58.1527V54.3984H56.0434V40.7266H58.0844V42.4941H58.1234C58.7289 41.3125 59.9105 40.5605 61.3949 40.5605ZM60.8383 49.3887C62.5082 49.3887 63.5531 48.0215 63.5531 45.8633C63.5531 43.7148 62.5082 42.3379 60.8383 42.3379C59.227 42.3379 58.143 43.7441 58.143 45.8633C58.143 48.002 59.2172 49.3887 60.8383 49.3887ZM71.7613 51.1953C68.8219 51.1953 66.8883 49.1738 66.8883 45.8633C66.8883 42.5625 68.8316 40.541 71.7613 40.541C74.691 40.541 76.6344 42.5625 76.6344 45.8633C76.6344 49.1738 74.7008 51.1953 71.7613 51.1953ZM71.7613 49.457C73.4215 49.457 74.4859 48.1484 74.4859 45.8633C74.4859 43.5879 73.4117 42.2793 71.7613 42.2793C70.1109 42.2793 69.0367 43.5879 69.0367 45.8633C69.0367 48.1484 70.1109 49.457 71.7613 49.457ZM86.4637 51H84.3738V46.625H84.2371C83.6805 47.1523 82.8309 47.5039 81.698 47.5039C79.2762 47.5039 77.9383 46.0293 77.9383 43.7832V40.7266H80.0379V43.627C80.0379 44.9062 80.7313 45.707 82.0301 45.707C83.1727 45.707 83.9441 45.2773 84.3738 44.7695V40.7266H86.4637V51ZM92.8457 42.2402C91.3711 42.2402 90.3359 43.3633 90.2285 44.916H95.3652C95.3164 43.3438 94.3203 42.2402 92.8457 42.2402ZM95.3555 47.9824H97.3574C97.0645 49.8574 95.2871 51.1953 92.9336 51.1953C89.916 51.1953 88.0898 49.1543 88.0898 45.9121C88.0898 42.6895 89.9453 40.541 92.8457 40.541C95.6973 40.541 97.4746 42.5527 97.4746 45.668V46.3906H90.2188V46.5176C90.2188 48.3047 91.293 49.4863 92.9824 49.4863C94.1836 49.4863 95.0723 48.8809 95.3555 47.9824ZM109.75 42.3965H105.043V51H102.944V40.7266H109.75V42.3965ZM115.41 51.1953C112.47 51.1953 110.537 49.1738 110.537 45.8633C110.537 42.5625 112.48 40.541 115.41 40.541C118.339 40.541 120.283 42.5625 120.283 45.8633C120.283 49.1738 118.349 51.1953 115.41 51.1953ZM115.41 49.457C117.07 49.457 118.134 48.1484 118.134 45.8633C118.134 43.5879 117.06 42.2793 115.41 42.2793C113.759 42.2793 112.685 43.5879 112.685 45.8633C112.685 48.1484 113.759 49.457 115.41 49.457ZM126.137 42.2598H123.979V44.9551H125.932C127.124 44.9551 127.72 44.4961 127.72 43.5879C127.72 42.7383 127.163 42.2598 126.137 42.2598ZM126.069 46.4297H123.979V49.4668H126.304C127.495 49.4668 128.139 48.9395 128.139 47.9531C128.139 46.9375 127.456 46.4297 126.069 46.4297ZM121.899 51V40.7266H126.567C128.569 40.7266 129.78 41.7227 129.78 43.3438C129.78 44.4082 129.018 45.375 128.032 45.5605V45.6387C129.36 45.8145 130.239 46.752 130.239 48.041C130.239 49.8477 128.852 51 126.626 51H121.899ZM136.338 51.1953C133.398 51.1953 131.465 49.1738 131.465 45.8633C131.465 42.5625 133.408 40.541 136.338 40.541C139.268 40.541 141.211 42.5625 141.211 45.8633C141.211 49.1738 139.277 51.1953 136.338 51.1953ZM136.338 49.457C137.998 49.457 139.062 48.1484 139.062 45.8633C139.062 43.5879 137.988 42.2793 136.338 42.2793C134.688 42.2793 133.613 43.5879 133.613 45.8633C133.613 48.1484 134.688 49.457 136.338 49.457ZM148.189 40.5605C150.796 40.5605 152.515 42.6113 152.515 45.8633C152.515 49.1152 150.806 51.1758 148.228 51.1758C146.753 51.1758 145.581 50.4531 144.995 49.3105H144.946V54.3984H142.837V40.7266H144.878V42.4941H144.917C145.523 41.3125 146.704 40.5605 148.189 40.5605ZM147.632 49.3887C149.302 49.3887 150.347 48.0215 150.347 45.8633C150.347 43.7148 149.302 42.3379 147.632 42.3379C146.021 42.3379 144.937 43.7441 144.937 45.8633C144.937 48.002 146.011 49.3887 147.632 49.3887ZM157.95 45.8535H159.815V42.3867H157.95C156.748 42.3867 155.977 43.0703 155.977 44.1836C155.977 45.1602 156.758 45.8535 157.95 45.8535ZM159.815 51V47.4746H158.252L155.762 51H153.379L156.182 47.1133C154.756 46.6934 153.877 45.6289 153.877 44.1934C153.877 42.0547 155.44 40.7266 157.842 40.7266H161.885V51H159.815ZM165.357 53.9004H163.677L164.556 48.7441H166.685L165.357 53.9004Z" fill="white"/>
<path d="M50.2344 102.109C50.2344 106.203 47.1875 109 42.8125 109H34.2344V86.4531H48.0469V89.4688H37.7344V95.25H42.7344C47.1406 95.25 50.2344 98.0469 50.2344 102.109ZM37.7344 106.031H41.9219C44.9375 106.031 46.6562 104.625 46.6562 102.109C46.6562 99.5781 44.9219 98.1719 41.9062 98.1719H37.7344V106.031ZM56.7581 109H53.43V92.5625H56.7581V104.078H56.8831L64.4769 92.5625H67.805V109H64.4769V97.4531H64.3519L56.7581 109ZM78.4381 109.312C73.2975 109.312 70.5163 105.953 70.5163 99.4531C70.5163 90.3281 73.1725 86.625 79.4225 86.4062L80.8913 86.3594C82.6569 86.2812 84.4381 85.9531 85.1881 85.5469V88.3438C84.7663 88.7344 83.0944 89.1406 81.0788 89.2188L79.6413 89.2656C75.2506 89.4219 73.86 91.3906 73.2506 96.0312H73.3756C74.4225 94.0938 76.4069 93.0312 78.985 93.0312C83.4225 93.0312 86.2663 96.125 86.2663 100.969C86.2663 106.141 83.2819 109.312 78.4381 109.312ZM78.4069 106.484C81.1881 106.484 82.8131 104.516 82.8131 101.016C82.8131 97.6875 81.1881 95.7812 78.4069 95.7812C75.61 95.7812 73.9694 97.6875 73.9694 101.016C73.9694 104.516 75.5944 106.484 78.4069 106.484ZM92.1806 109H88.8525V92.5625H92.1806V104.078H92.3056L99.8994 92.5625H103.228V109H99.8994V97.4531H99.7744L92.1806 109ZM112.439 109.312C108.595 109.312 105.923 107.422 105.626 104.391H108.954C109.298 105.812 110.548 106.594 112.439 106.594C114.595 106.594 115.798 105.594 115.798 104.141C115.798 102.5 114.689 101.75 112.454 101.75H110.048V99.2656H112.408C114.298 99.2656 115.283 98.5469 115.283 97.1094C115.283 95.8438 114.376 94.9531 112.454 94.9531C110.642 94.9531 109.423 95.7344 109.204 97.0156H105.97C106.314 94.0938 108.767 92.2656 112.439 92.2656C116.423 92.2656 118.579 94.0469 118.579 96.7812C118.579 98.4531 117.548 99.875 115.954 100.281V100.406C118.048 100.891 119.158 102.25 119.158 104.125C119.158 107.25 116.517 109.312 112.439 109.312ZM127.947 100.766H130.931V95.2188H127.947C126.025 95.2188 124.791 96.3125 124.791 98.0938C124.791 99.6562 126.041 100.766 127.947 100.766ZM130.931 109V103.359H128.431L124.447 109H120.634L125.119 102.781C122.838 102.109 121.431 100.406 121.431 98.1094C121.431 94.6875 123.931 92.5625 127.775 92.5625H134.244V109H130.931ZM148.346 109V101.844H140.908V109H137.549V92.5625H140.908V99.1875H148.346V92.5625H151.705V109H148.346ZM169.682 109V92.5625H173.026V109H169.682ZM161.244 100.281H158.401V106.344H161.244C163.182 106.344 164.432 105.125 164.432 103.312C164.432 101.484 163.166 100.281 161.244 100.281ZM155.041 109V92.5625H158.401V97.6406H161.541C165.338 97.6406 167.791 99.8438 167.791 103.312C167.791 106.797 165.338 109 161.541 109H155.041ZM193.167 109V95.2344H185.886V109H182.526V92.5625H196.542V109H193.167ZM206.941 109.312C202.238 109.312 199.144 106.078 199.144 100.781C199.144 95.5 202.253 92.2656 206.941 92.2656C211.628 92.2656 214.738 95.5 214.738 100.781C214.738 106.078 211.644 109.312 206.941 109.312ZM206.941 106.531C209.597 106.531 211.3 104.438 211.3 100.781C211.3 97.1406 209.581 95.0469 206.941 95.0469C204.3 95.0469 202.581 97.1406 202.581 100.781C202.581 104.438 204.3 106.531 206.941 106.531ZM220.574 109H217.324V92.5625H221.558L226.824 104.609H226.949L232.246 92.5625H236.386V109H233.105V97.5938H232.996L228.074 108.359H225.605L220.683 97.5938H220.574V109ZM246.769 109.312C242.066 109.312 238.973 106.078 238.973 100.781C238.973 95.5 242.082 92.2656 246.769 92.2656C251.457 92.2656 254.566 95.5 254.566 100.781C254.566 106.078 251.473 109.312 246.769 109.312ZM246.769 106.531C249.426 106.531 251.129 104.438 251.129 100.781C251.129 97.1406 249.41 95.0469 246.769 95.0469C244.129 95.0469 242.41 97.1406 242.41 100.781C242.41 104.438 244.129 106.531 246.769 106.531ZM268.043 95.2344H260.512V109H257.152V92.5625H268.043V95.2344ZM272.192 115.125C271.926 115.125 271.067 115.094 270.817 115.047V112.312C271.067 112.375 271.629 112.375 271.911 112.375C273.489 112.375 274.317 111.719 274.833 110.031C274.833 110 275.129 109.031 275.129 109.016L269.192 92.5625H272.848L277.02 105.938H277.067L281.239 92.5625H284.801L278.629 109.859C277.223 113.844 275.614 115.125 272.192 115.125ZM299.231 92.5625V95.2344H294.075V109H290.716V95.2344H285.559V92.5625H299.231ZM318.201 109V95.2344H310.919V109H307.56V92.5625H321.576V109H318.201ZM331.974 109.312C327.271 109.312 324.177 106.078 324.177 100.781C324.177 95.5 327.287 92.2656 331.974 92.2656C336.662 92.2656 339.771 95.5 339.771 100.781C339.771 106.078 336.677 109.312 331.974 109.312ZM331.974 106.531C334.631 106.531 336.334 104.438 336.334 100.781C336.334 97.1406 334.615 95.0469 331.974 95.0469C329.334 95.0469 327.615 97.1406 327.615 100.781C327.615 104.438 329.334 106.531 331.974 106.531ZM353.154 109V101.844H345.717V109H342.358V92.5625H345.717V99.1875H353.154V92.5625H356.514V109H353.154ZM366.084 100.766H369.069V95.2188H366.084C364.163 95.2188 362.928 96.3125 362.928 98.0938C362.928 99.6562 364.178 100.766 366.084 100.766ZM369.069 109V103.359H366.569L362.584 109H358.772L363.256 102.781C360.975 102.109 359.569 100.406 359.569 98.1094C359.569 94.6875 362.069 92.5625 365.913 92.5625H372.381V109H369.069ZM388.186 92.5625V95.2344H383.03V109H379.671V95.2344H374.514V92.5625H388.186ZM396.538 100.281H393.694V106.344H396.538C398.476 106.344 399.726 105.125 399.726 103.312C399.726 101.484 398.46 100.281 396.538 100.281ZM390.335 109V92.5625H393.694V97.6406H396.835C400.632 97.6406 403.085 99.8438 403.085 103.312C403.085 106.797 400.632 109 396.835 109H390.335ZM407.828 113.641H405.14L406.546 105.391H409.953L407.828 113.641ZM424.828 100.281L432.391 109H428.156L421.641 101.422H421.516V109H418.156V92.5625H421.516V99.5938H421.641L428.078 92.5625H432.109L424.828 100.281ZM439.539 106.609C441.899 106.609 443.742 104.984 443.742 102.844V101.547L439.696 101.797C437.68 101.938 436.539 102.828 436.539 104.234C436.539 105.672 437.727 106.609 439.539 106.609ZM438.602 109.281C435.383 109.281 433.133 107.281 433.133 104.328C433.133 101.453 435.336 99.6875 439.242 99.4688L443.742 99.2031V97.9375C443.742 96.1094 442.508 95.0156 440.446 95.0156C438.492 95.0156 437.274 95.9531 436.977 97.4219H433.789C433.977 94.4531 436.508 92.2656 440.571 92.2656C444.555 92.2656 447.102 94.375 447.102 97.6719V109H443.867V106.297H443.789C442.836 108.125 440.758 109.281 438.602 109.281ZM457.001 100.281L464.563 109H460.329L453.813 101.422H453.688V109H450.329V92.5625H453.688V99.5938H453.813L460.251 92.5625H464.282L457.001 100.281ZM47.8438 133.828H44.5938C44.1562 132.312 42.9062 131.078 40.8125 131.078C38.2031 131.078 36.5 133.312 36.5 136.781C36.5 140.344 38.2188 142.484 40.8438 142.484C42.8438 142.484 44.1562 141.484 44.625 139.766H47.875C47.3906 143.062 44.6875 145.312 40.8125 145.312C36.1094 145.312 33.0781 142.047 33.0781 136.781C33.0781 131.625 36.1094 128.266 40.7812 128.266C44.8438 128.266 47.375 130.797 47.8438 133.828ZM53.6019 145H50.2738V128.562H53.6019V140.078H53.7269L61.3206 128.562H64.6488V145H61.3206V133.453H61.1956L53.6019 145ZM81.985 133.828H78.735C78.2975 132.312 77.0475 131.078 74.9538 131.078C72.3444 131.078 70.6413 133.312 70.6413 136.781C70.6413 140.344 72.36 142.484 74.985 142.484C76.985 142.484 78.2975 141.484 78.7663 139.766H82.0163C81.5319 143.062 78.8288 145.312 74.9538 145.312C70.2506 145.312 67.2194 142.047 67.2194 136.781C67.2194 131.625 70.2506 128.266 74.9225 128.266C78.985 128.266 81.5163 130.797 81.985 133.828ZM96.5713 128.562V131.234H91.415V145H88.0556V131.234H82.8994V128.562H96.5713ZM105.298 130.984C102.939 130.984 101.283 132.781 101.111 135.266H109.329C109.251 132.75 107.658 130.984 105.298 130.984ZM109.314 140.172H112.517C112.048 143.172 109.204 145.312 105.439 145.312C100.611 145.312 97.6888 142.047 97.6888 136.859C97.6888 131.703 100.658 128.266 105.298 128.266C109.861 128.266 112.704 131.484 112.704 136.469V137.625H101.095V137.828C101.095 140.688 102.814 142.578 105.517 142.578C107.439 142.578 108.861 141.609 109.314 140.172ZM118.525 145H115.275V128.562H119.509L124.775 140.609H124.9L130.197 128.562H134.338V145H131.056V133.594H130.947L126.025 144.359H123.556L118.634 133.594H118.525V145ZM143.408 142.609C145.768 142.609 147.611 140.984 147.611 138.844V137.547L143.564 137.797C141.549 137.938 140.408 138.828 140.408 140.234C140.408 141.672 141.596 142.609 143.408 142.609ZM142.471 145.281C139.252 145.281 137.002 143.281 137.002 140.328C137.002 137.453 139.205 135.688 143.111 135.469L147.611 135.203V133.938C147.611 132.109 146.377 131.016 144.314 131.016C142.361 131.016 141.143 131.953 140.846 133.422H137.658C137.846 130.453 140.377 128.266 144.439 128.266C148.424 128.266 150.971 130.375 150.971 133.672V145H147.736V142.297H147.658C146.705 144.125 144.627 145.281 142.471 145.281ZM166.448 128.562V131.234H161.291V145H157.932V131.234H152.776V128.562H166.448ZM171.924 145H168.596V128.562H171.924V140.078H172.049L179.643 128.562H182.971V145H179.643V133.453H179.518L171.924 145ZM192.182 145.312C188.339 145.312 185.667 143.422 185.37 140.391H188.698C189.042 141.812 190.292 142.594 192.182 142.594C194.339 142.594 195.542 141.594 195.542 140.141C195.542 138.5 194.432 137.75 192.198 137.75H189.792V135.266H192.151C194.042 135.266 195.026 134.547 195.026 133.109C195.026 131.844 194.12 130.953 192.198 130.953C190.386 130.953 189.167 131.734 188.948 133.016H185.714C186.057 130.094 188.511 128.266 192.182 128.266C196.167 128.266 198.323 130.047 198.323 132.781C198.323 134.453 197.292 135.875 195.698 136.281V136.406C197.792 136.891 198.901 138.25 198.901 140.125C198.901 143.25 196.261 145.312 192.182 145.312ZM204.878 145H201.55V128.562H204.878V140.078H205.003L212.597 128.562H215.925V145H212.597V133.453H212.472L204.878 145ZM227.808 128.297C231.98 128.297 234.73 131.578 234.73 136.781C234.73 141.984 231.996 145.281 227.871 145.281C225.511 145.281 223.636 144.125 222.699 142.297H222.621V150.438H219.246V128.562H222.511V131.391H222.574C223.542 129.5 225.433 128.297 227.808 128.297ZM226.917 142.422C229.589 142.422 231.261 140.234 231.261 136.781C231.261 133.344 229.589 131.141 226.917 131.141C224.339 131.141 222.605 133.391 222.605 136.781C222.605 140.203 224.324 142.422 226.917 142.422ZM244.394 145.312C239.691 145.312 236.598 142.078 236.598 136.781C236.598 131.5 239.707 128.266 244.394 128.266C249.082 128.266 252.191 131.5 252.191 136.781C252.191 142.078 249.098 145.312 244.394 145.312ZM244.394 142.531C247.051 142.531 248.754 140.438 248.754 136.781C248.754 133.141 247.035 131.047 244.394 131.047C241.754 131.047 240.035 133.141 240.035 136.781C240.035 140.438 241.754 142.531 244.394 142.531ZM261.559 131.016H258.106V135.328H261.231C263.137 135.328 264.09 134.594 264.09 133.141C264.09 131.781 263.199 131.016 261.559 131.016ZM261.449 137.688H258.106V142.547H261.824C263.731 142.547 264.762 141.703 264.762 140.125C264.762 138.5 263.668 137.688 261.449 137.688ZM254.777 145V128.562H262.246C265.449 128.562 267.387 130.156 267.387 132.75C267.387 134.453 266.168 136 264.59 136.297V136.422C266.715 136.703 268.121 138.203 268.121 140.266C268.121 143.156 265.902 145 262.34 145H254.777ZM276.567 142.609C278.926 142.609 280.77 140.984 280.77 138.844V137.547L276.723 137.797C274.708 137.938 273.567 138.828 273.567 140.234C273.567 141.672 274.754 142.609 276.567 142.609ZM275.629 145.281C272.411 145.281 270.161 143.281 270.161 140.328C270.161 137.453 272.364 135.688 276.27 135.469L280.77 135.203V133.938C280.77 132.109 279.536 131.016 277.473 131.016C275.52 131.016 274.301 131.953 274.004 133.422H270.817C271.004 130.453 273.536 128.266 277.598 128.266C281.583 128.266 284.129 130.375 284.129 133.672V145H280.895V142.297H280.817C279.864 144.125 277.786 145.281 275.629 145.281ZM299.606 128.562V131.234H294.45V145H291.091V131.234H285.934V128.562H299.606ZM307.958 136.281H305.114V142.344H307.958C309.896 142.344 311.146 141.125 311.146 139.312C311.146 137.484 309.88 136.281 307.958 136.281ZM301.755 145V128.562H305.114V133.641H308.255C312.052 133.641 314.505 135.844 314.505 139.312C314.505 142.797 312.052 145 308.255 145H301.755ZM334.115 142.328V131.234H328.396L327.943 137.516C327.818 139.453 327.412 141.141 326.662 142.203V142.328H334.115ZM324.771 149.312H321.662V142.328H322.99C324.193 141.578 324.74 139.594 324.896 137.375L325.49 128.562H337.474V142.328H340.021V149.312H336.896V145H324.771V149.312ZM347.748 142.609C350.108 142.609 351.951 140.984 351.951 138.844V137.547L347.904 137.797C345.889 137.938 344.748 138.828 344.748 140.234C344.748 141.672 345.936 142.609 347.748 142.609ZM346.811 145.281C343.592 145.281 341.342 143.281 341.342 140.328C341.342 137.453 343.545 135.688 347.451 135.469L351.951 135.203V133.938C351.951 132.109 350.717 131.016 348.654 131.016C346.701 131.016 345.483 131.953 345.186 133.422H341.998C342.186 130.453 344.717 128.266 348.779 128.266C352.764 128.266 355.311 130.375 355.311 133.672V145H352.076V142.297H351.998C351.045 144.125 348.967 145.281 346.811 145.281ZM373.975 136.281L380.991 145H376.803L370.756 137.422H370.631V145H367.303V137.422H367.194L361.147 145H357.022L363.991 136.344L357.209 128.562H361.225L367.194 135.594H367.303V128.562H370.631V135.594H370.756L376.725 128.562H380.709L373.975 136.281ZM389.139 130.984C386.78 130.984 385.124 132.781 384.952 135.266H393.171C393.092 132.75 391.499 130.984 389.139 130.984ZM393.155 140.172H396.358C395.889 143.172 393.046 145.312 389.28 145.312C384.452 145.312 381.53 142.047 381.53 136.859C381.53 131.703 384.499 128.266 389.139 128.266C393.702 128.266 396.546 131.484 396.546 136.469V137.625H384.936V137.828C384.936 140.688 386.655 142.578 389.358 142.578C391.28 142.578 392.702 141.609 393.155 140.172ZM419.328 133.828H416.078C415.64 132.312 414.39 131.078 412.296 131.078C409.687 131.078 407.984 133.312 407.984 136.781C407.984 140.344 409.703 142.484 412.328 142.484C414.328 142.484 415.64 141.484 416.109 139.766H419.359C418.874 143.062 416.171 145.312 412.296 145.312C407.593 145.312 404.562 142.047 404.562 136.781C404.562 131.625 407.593 128.266 412.265 128.266C416.328 128.266 418.859 130.797 419.328 133.828ZM427.523 142.609C429.883 142.609 431.726 140.984 431.726 138.844V137.547L427.679 137.797C425.664 137.938 424.523 138.828 424.523 140.234C424.523 141.672 425.711 142.609 427.523 142.609ZM426.586 145.281C423.367 145.281 421.117 143.281 421.117 140.328C421.117 137.453 423.32 135.688 427.226 135.469L431.726 135.203V133.938C431.726 132.109 430.492 131.016 428.429 131.016C426.476 131.016 425.258 131.953 424.961 133.422H421.773C421.961 130.453 424.492 128.266 428.554 128.266C432.539 128.266 435.086 130.375 435.086 133.672V145H431.851V142.297H431.773C430.82 144.125 428.742 145.281 426.586 145.281ZM441.562 145H438.312V128.562H442.547L447.812 140.609H447.938L453.234 128.562H457.375V145H454.094V133.594H453.984L449.062 144.359H446.594L441.672 133.594H441.562V145ZM475.321 145V128.562H478.664V145H475.321ZM466.883 136.281H464.039V142.344H466.883C468.821 142.344 470.071 141.125 470.071 139.312C470.071 137.484 468.805 136.281 466.883 136.281ZM460.68 145V128.562H464.039V133.641H467.18C470.977 133.641 473.43 135.844 473.43 139.312C473.43 142.797 470.977 145 467.18 145H460.68ZM485.313 145H481.985V128.562H485.313V140.078H485.438L493.032 128.562H496.36V145H493.032V133.453H492.907L485.313 145ZM484.219 121.344H486.501C486.516 123.109 487.641 124.453 489.407 124.453C491.188 124.453 492.313 123.109 492.329 121.344H494.61C494.61 124.297 492.516 126.297 489.407 126.297C486.313 126.297 484.219 124.297 484.219 121.344ZM521.283 136.281L528.298 145H524.111L518.064 137.422H517.939V145H514.611V137.422H514.501L508.454 145H504.329L511.298 136.344L504.517 128.562H508.533L514.501 135.594H514.611V128.562H517.939V135.594H518.064L524.033 128.562H528.017L521.283 136.281ZM531.478 151.125C531.212 151.125 530.353 151.094 530.103 151.047V148.312C530.353 148.375 530.916 148.375 531.197 148.375C532.775 148.375 533.603 147.719 534.119 146.031C534.119 146 534.416 145.031 534.416 145.016L528.478 128.562H532.134L536.306 141.938H536.353L540.525 128.562H544.087L537.916 145.859C536.509 149.844 534.9 151.125 531.478 151.125ZM558.518 128.562V131.234H553.361V145H550.002V131.234H544.846V128.562H558.518ZM567.338 136.281L574.901 145H570.666L564.151 137.422H564.026V145H560.666V128.562H564.026V135.594H564.151L570.588 128.562H574.619L567.338 136.281ZM580.018 145H576.69V128.562H580.018V140.078H580.143L587.737 128.562H591.065V145H587.737V133.453H587.612L580.018 145ZM597.698 145H594.37V128.562H597.698V140.078H597.823L605.417 128.562H608.745V145H605.417V133.453H605.292L597.698 145ZM596.604 121.344H598.886C598.901 123.109 600.026 124.453 601.792 124.453C603.573 124.453 604.698 123.109 604.714 121.344H606.995C606.995 124.297 604.901 126.297 601.792 126.297C598.698 126.297 596.604 124.297 596.604 121.344ZM629.167 142.328V131.234H623.449L622.996 137.516C622.871 139.453 622.464 141.141 621.714 142.203V142.328H629.167ZM619.824 149.312H616.714V142.328H618.042C619.246 141.578 619.792 139.594 619.949 137.375L620.542 128.562H632.527V142.328H635.074V149.312H631.949V145H619.824V149.312ZM642.801 142.609C645.16 142.609 647.004 140.984 647.004 138.844V137.547L642.957 137.797C640.941 137.938 639.801 138.828 639.801 140.234C639.801 141.672 640.988 142.609 642.801 142.609ZM641.863 145.281C638.644 145.281 636.394 143.281 636.394 140.328C636.394 137.453 638.597 135.688 642.504 135.469L647.004 135.203V133.938C647.004 132.109 645.769 131.016 643.707 131.016C641.754 131.016 640.535 131.953 640.238 133.422H637.051C637.238 130.453 639.769 128.266 643.832 128.266C647.816 128.266 650.363 130.375 650.363 133.672V145H647.129V142.297H647.051C646.097 144.125 644.019 145.281 641.863 145.281ZM665.84 128.562V131.234H660.684V145H657.324V131.234H652.168V128.562H665.84ZM673.223 142.609C675.583 142.609 677.426 140.984 677.426 138.844V137.547L673.379 137.797C671.364 137.938 670.223 138.828 670.223 140.234C670.223 141.672 671.411 142.609 673.223 142.609ZM672.286 145.281C669.067 145.281 666.817 143.281 666.817 140.328C666.817 137.453 669.02 135.688 672.926 135.469L677.426 135.203V133.938C677.426 132.109 676.192 131.016 674.129 131.016C672.176 131.016 670.958 131.953 670.661 133.422H667.473C667.661 130.453 670.192 128.266 674.254 128.266C678.239 128.266 680.786 130.375 680.786 133.672V145H677.551V142.297H677.473C676.52 144.125 674.442 145.281 672.286 145.281ZM698.044 133.828H694.794C694.356 132.312 693.106 131.078 691.013 131.078C688.403 131.078 686.7 133.312 686.7 136.781C686.7 140.344 688.419 142.484 691.044 142.484C693.044 142.484 694.356 141.484 694.825 139.766H698.075C697.591 143.062 694.888 145.312 691.013 145.312C686.309 145.312 683.278 142.047 683.278 136.781C683.278 131.625 686.309 128.266 690.981 128.266C695.044 128.266 697.575 130.797 698.044 133.828ZM707.364 130.984C705.005 130.984 703.349 132.781 703.177 135.266H711.396C711.318 132.75 709.724 130.984 707.364 130.984ZM711.38 140.172H714.583C714.114 143.172 711.271 145.312 707.505 145.312C702.677 145.312 699.755 142.047 699.755 136.859C699.755 131.703 702.724 128.266 707.364 128.266C711.927 128.266 714.771 131.484 714.771 136.469V137.625H703.161V137.828C703.161 140.688 704.88 142.578 707.583 142.578C709.505 142.578 710.927 141.609 711.38 140.172ZM729.247 128.562V131.234H724.091V145H720.732V131.234H715.576V128.562H729.247Z" fill="#016B83"/>
<rect x="32" y="216" width="105" height="32" rx="8" fill="#C3FF34"/>
<path d="M40.6847 235.64H41.4687C41.9594 235.192 42.322 234.541 42.5567 233.688C42.7914 232.835 42.9514 231.741 43.0367 230.408C43.122 229.064 43.186 227.437 43.2287 225.528H50.5407V235.64H52.0127V239.72H50.6207L50.4607 237H42.2207L42.0447 239.72H40.6847V235.64ZM43.2127 235.64H49.0207V226.904H44.6367C44.6047 228.525 44.5354 229.901 44.4287 231.032C44.3327 232.163 44.1834 233.101 43.9807 233.848C43.7887 234.584 43.5327 235.181 43.2127 235.64ZM55.0478 228.696V235.08L59.4798 228.696H60.9038V237H59.4958V230.632L55.0798 237H53.6398V228.696H55.0478ZM65.8583 229.784C64.973 229.784 64.077 230.056 63.1703 230.6V229.336C63.565 229.091 64.0183 228.899 64.5303 228.76C65.053 228.611 65.5596 228.536 66.0503 228.536C67.0956 228.536 67.8903 228.755 68.4343 229.192C68.9783 229.629 69.2503 230.296 69.2503 231.192V235.656C69.2503 235.837 69.2556 236.072 69.2663 236.36C69.2876 236.637 69.309 236.851 69.3303 237H68.0503C68.0183 236.851 67.9863 236.643 67.9543 236.376C67.933 236.099 67.9223 235.859 67.9223 235.656L67.9063 235.416C67.7783 235.672 67.6023 235.939 67.3783 236.216C67.1543 236.483 66.8556 236.707 66.4823 236.888C66.1196 237.069 65.6663 237.16 65.1223 237.16C64.3756 237.16 63.773 236.947 63.3143 236.52C62.8556 236.093 62.6263 235.491 62.6263 234.712C62.6263 233.805 62.9463 233.139 63.5863 232.712C64.2263 232.285 65.1276 232.072 66.2903 232.072H67.8423V231.384C67.8423 230.808 67.693 230.397 67.3943 230.152C67.0956 229.907 66.5836 229.784 65.8583 229.784ZM67.8423 233.8V233.192H66.4343C65.5916 233.192 64.9783 233.315 64.5943 233.56C64.221 233.805 64.0343 234.163 64.0343 234.632C64.0343 235.005 64.1463 235.309 64.3703 235.544C64.605 235.779 64.957 235.896 65.4263 235.896C65.8636 235.896 66.237 235.811 66.5463 235.64C66.8556 235.459 67.1063 235.245 67.2983 235C67.4903 234.744 67.629 234.504 67.7143 234.28C67.7996 234.056 67.8423 233.896 67.8423 233.8ZM71.3042 237V228.696H76.5842V229.896H72.7122V237H71.3042ZM78.1286 228.696H79.3606L79.5046 230.312C79.7712 229.779 80.1392 229.352 80.6086 229.032C81.0886 228.701 81.6752 228.536 82.3686 228.536C83.0192 228.536 83.6166 228.696 84.1606 229.016C84.7152 229.325 85.1632 229.8 85.5046 230.44C85.8459 231.069 86.0166 231.869 86.0166 232.84C86.0166 233.811 85.8406 234.616 85.4886 235.256C85.1472 235.896 84.6939 236.376 84.1286 236.696C83.5739 237.005 82.9659 237.16 82.3046 237.16C81.6752 237.16 81.1259 237.011 80.6566 236.712C80.1872 236.413 79.8139 236.003 79.5366 235.48V239.832H78.1286V228.696ZM84.5606 232.84C84.5606 231.837 84.3312 231.08 83.8726 230.568C83.4139 230.045 82.8219 229.784 82.0966 229.784C81.3712 229.784 80.7579 230.04 80.2566 230.552C79.7659 231.053 79.5206 231.816 79.5206 232.84C79.5206 233.875 79.7659 234.643 80.2566 235.144C80.7579 235.645 81.3712 235.896 82.0966 235.896C82.8219 235.896 83.4139 235.64 83.8726 235.128C84.3312 234.616 84.5606 233.853 84.5606 232.84ZM90.3002 229.784C89.4149 229.784 88.5189 230.056 87.6122 230.6V229.336C88.0069 229.091 88.4602 228.899 88.9722 228.76C89.4949 228.611 90.0015 228.536 90.4922 228.536C91.5375 228.536 92.3322 228.755 92.8762 229.192C93.4202 229.629 93.6922 230.296 93.6922 231.192V235.656C93.6922 235.837 93.6975 236.072 93.7082 236.36C93.7295 236.637 93.7509 236.851 93.7722 237H92.4922C92.4602 236.851 92.4282 236.643 92.3962 236.376C92.3749 236.099 92.3642 235.859 92.3642 235.656L92.3482 235.416C92.2202 235.672 92.0442 235.939 91.8202 236.216C91.5962 236.483 91.2975 236.707 90.9242 236.888C90.5615 237.069 90.1082 237.16 89.5642 237.16C88.8175 237.16 88.2149 236.947 87.7562 236.52C87.2975 236.093 87.0682 235.491 87.0682 234.712C87.0682 233.805 87.3882 233.139 88.0282 232.712C88.6682 232.285 89.5695 232.072 90.7322 232.072H92.2842V231.384C92.2842 230.808 92.1349 230.397 91.8362 230.152C91.5375 229.907 91.0255 229.784 90.3002 229.784ZM92.2842 233.8V233.192H90.8762C90.0335 233.192 89.4202 233.315 89.0362 233.56C88.6629 233.805 88.4762 234.163 88.4762 234.632C88.4762 235.005 88.5882 235.309 88.8122 235.544C89.0469 235.779 89.3989 235.896 89.8682 235.896C90.3055 235.896 90.6789 235.811 90.9882 235.64C91.2975 235.459 91.5482 235.245 91.7402 235C91.9322 234.744 92.0709 234.504 92.1562 234.28C92.2415 234.056 92.2842 233.896 92.2842 233.8ZM95.7461 228.696H97.8421L100.386 234.264L103.106 228.696H105.058V237H103.666V230.328L100.85 236.072H99.7301L97.0741 230.296V237H95.7461V228.696ZM107.195 228.696H109.291L111.835 234.264L114.555 228.696H116.507V237H115.115V230.328L112.299 236.072H111.179L108.523 230.296V237H107.195V228.696ZM120.053 228.696V231.592H121.413C122.469 231.592 123.295 231.8 123.893 232.216C124.49 232.632 124.789 233.304 124.789 234.232C124.789 234.883 124.639 235.411 124.341 235.816C124.042 236.221 123.631 236.52 123.109 236.712C122.586 236.904 121.989 237 121.317 237H118.645V228.696H120.053ZM127.397 228.696V237H125.989V228.696H127.397ZM121.317 235.8C121.914 235.8 122.405 235.683 122.789 235.448C123.173 235.213 123.365 234.835 123.365 234.312C123.365 233.779 123.194 233.395 122.853 233.16C122.511 232.915 122.031 232.792 121.413 232.792H120.053V235.8H121.317Z" fill="black"/>
<rect x="141" y="216" width="80" height="32" rx="8" fill="#C3FF34"/>
<path d="M150.558 225.528H157.246V226.904H152.062V237H150.558V225.528ZM157.956 228.696H159.188L159.332 230.312C159.599 229.779 159.967 229.352 160.436 229.032C160.916 228.701 161.503 228.536 162.196 228.536C162.847 228.536 163.444 228.696 163.988 229.016C164.543 229.325 164.991 229.8 165.332 230.44C165.674 231.069 165.844 231.869 165.844 232.84C165.844 233.811 165.668 234.616 165.316 235.256C164.975 235.896 164.522 236.376 163.956 236.696C163.402 237.005 162.794 237.16 162.132 237.16C161.503 237.16 160.954 237.011 160.484 236.712C160.015 236.413 159.642 236.003 159.364 235.48V239.832H157.956V228.696ZM164.388 232.84C164.388 231.837 164.159 231.08 163.7 230.568C163.242 230.045 162.65 229.784 161.924 229.784C161.199 229.784 160.586 230.04 160.084 230.552C159.594 231.053 159.348 231.816 159.348 232.84C159.348 233.875 159.594 234.643 160.084 235.144C160.586 235.645 161.199 235.896 161.924 235.896C162.65 235.896 163.242 235.64 163.7 235.128C164.159 234.616 164.388 233.853 164.388 232.84ZM170.128 229.784C169.243 229.784 168.347 230.056 167.44 230.6V229.336C167.835 229.091 168.288 228.899 168.8 228.76C169.323 228.611 169.829 228.536 170.32 228.536C171.365 228.536 172.16 228.755 172.704 229.192C173.248 229.629 173.52 230.296 173.52 231.192V235.656C173.52 235.837 173.525 236.072 173.536 236.36C173.557 236.637 173.579 236.851 173.6 237H172.32C172.288 236.851 172.256 236.643 172.224 236.376C172.203 236.099 172.192 235.859 172.192 235.656L172.176 235.416C172.048 235.672 171.872 235.939 171.648 236.216C171.424 236.483 171.125 236.707 170.752 236.888C170.389 237.069 169.936 237.16 169.392 237.16C168.645 237.16 168.043 236.947 167.584 236.52C167.125 236.093 166.896 235.491 166.896 234.712C166.896 233.805 167.216 233.139 167.856 232.712C168.496 232.285 169.397 232.072 170.56 232.072H172.112V231.384C172.112 230.808 171.963 230.397 171.664 230.152C171.365 229.907 170.853 229.784 170.128 229.784ZM172.112 233.8V233.192H170.704C169.861 233.192 169.248 233.315 168.864 233.56C168.491 233.805 168.304 234.163 168.304 234.632C168.304 235.005 168.416 235.309 168.64 235.544C168.875 235.779 169.227 235.896 169.696 235.896C170.133 235.896 170.507 235.811 170.816 235.64C171.125 235.459 171.376 235.245 171.568 235C171.76 234.744 171.899 234.504 171.984 234.28C172.069 234.056 172.112 233.896 172.112 233.8ZM180.854 225.368V228.568C181.675 228.6 182.422 228.781 183.094 229.112C183.766 229.443 184.299 229.917 184.694 230.536C185.099 231.155 185.302 231.923 185.302 232.84C185.302 233.757 185.099 234.531 184.694 235.16C184.299 235.789 183.766 236.269 183.094 236.6C182.422 236.92 181.675 237.096 180.854 237.128V239.832H179.446V237.128C178.614 237.096 177.862 236.915 177.19 236.584C176.518 236.253 175.979 235.779 175.574 235.16C175.179 234.531 174.982 233.757 174.982 232.84C174.982 231.923 175.179 231.155 175.574 230.536C175.979 229.907 176.518 229.432 177.19 229.112C177.873 228.781 178.625 228.6 179.446 228.568V225.368H180.854ZM183.862 232.84C183.862 232.157 183.729 231.597 183.462 231.16C183.195 230.723 182.833 230.392 182.374 230.168C181.926 229.944 181.419 229.816 180.854 229.784V235.896C181.43 235.864 181.942 235.736 182.39 235.512C182.849 235.288 183.206 234.957 183.462 234.52C183.729 234.083 183.862 233.523 183.862 232.84ZM176.422 232.84C176.422 233.523 176.555 234.088 176.822 234.536C177.089 234.973 177.451 235.304 177.91 235.528C178.369 235.741 178.881 235.864 179.446 235.896V229.784C178.87 229.816 178.353 229.949 177.894 230.184C177.446 230.408 177.089 230.739 176.822 231.176C176.555 231.613 176.422 232.168 176.422 232.84ZM188.275 228.696V235.08L192.707 228.696H194.131V237H192.723V230.632L188.307 237H186.867V228.696H188.275ZM203.054 237H201.342L198.414 233.464H197.678V237H196.27V228.696H197.678V232.264H198.478L201.39 228.696H202.99L199.582 232.792L203.054 237ZM205.783 228.696V235.08L210.215 228.696H211.639V237H210.231V230.632L205.815 237H204.375V228.696H205.783Z" fill="black"/>
<rect x="225" y="216" width="80" height="32" rx="8" fill="#C3FF34"/>
<path d="M233.483 226.92V225.528H242.075V226.92H238.539V237H237.019V226.92H233.483ZM245.233 229.784C244.348 229.784 243.452 230.056 242.545 230.6V229.336C242.94 229.091 243.393 228.899 243.905 228.76C244.428 228.611 244.935 228.536 245.425 228.536C246.471 228.536 247.265 228.755 247.809 229.192C248.353 229.629 248.625 230.296 248.625 231.192V235.656C248.625 235.837 248.631 236.072 248.641 236.36C248.663 236.637 248.684 236.851 248.705 237H247.425C247.393 236.851 247.361 236.643 247.329 236.376C247.308 236.099 247.297 235.859 247.297 235.656L247.281 235.416C247.153 235.672 246.977 235.939 246.753 236.216C246.529 236.483 246.231 236.707 245.857 236.888C245.495 237.069 245.041 237.16 244.497 237.16C243.751 237.16 243.148 236.947 242.689 236.52C242.231 236.093 242.001 235.491 242.001 234.712C242.001 233.805 242.321 233.139 242.961 232.712C243.601 232.285 244.503 232.072 245.665 232.072H247.217V231.384C247.217 230.808 247.068 230.397 246.769 230.152C246.471 229.907 245.959 229.784 245.233 229.784ZM247.217 233.8V233.192H245.809C244.967 233.192 244.353 233.315 243.969 233.56C243.596 233.805 243.409 234.163 243.409 234.632C243.409 235.005 243.521 235.309 243.745 235.544C243.98 235.779 244.332 235.896 244.801 235.896C245.239 235.896 245.612 235.811 245.921 235.64C246.231 235.459 246.481 235.245 246.673 235C246.865 234.744 247.004 234.504 247.089 234.28C247.175 234.056 247.217 233.896 247.217 233.8ZM254.439 228.584C255.143 228.584 255.773 228.749 256.327 229.08C256.893 229.411 257.341 229.896 257.671 230.536C258.002 231.165 258.167 231.933 258.167 232.84C258.167 233.757 257.991 234.541 257.639 235.192C257.287 235.832 256.807 236.323 256.199 236.664C255.591 236.995 254.903 237.16 254.135 237.16C253.357 237.16 252.663 236.984 252.055 236.632C251.458 236.269 250.989 235.725 250.647 235C250.306 234.275 250.135 233.352 250.135 232.232C250.135 231.016 250.205 230.003 250.343 229.192C250.493 228.381 250.722 227.72 251.031 227.208C251.341 226.685 251.757 226.269 252.279 225.96C252.535 225.811 252.802 225.693 253.079 225.608C253.357 225.523 253.703 225.459 254.119 225.416C254.546 225.363 255.09 225.325 255.751 225.304C256.167 225.272 256.519 225.219 256.807 225.144C257.095 225.069 257.357 224.968 257.591 224.84V226.12C257.389 226.248 257.165 226.349 256.919 226.424C256.674 226.488 256.333 226.541 255.895 226.584C255.266 226.648 254.765 226.691 254.391 226.712C254.029 226.733 253.735 226.765 253.511 226.808C253.287 226.851 253.063 226.936 252.839 227.064C252.381 227.32 252.034 227.704 251.799 228.216C251.565 228.717 251.405 229.464 251.319 230.456C251.874 229.208 252.914 228.584 254.439 228.584ZM254.135 235.896C254.882 235.896 255.501 235.651 255.991 235.16C256.482 234.659 256.727 233.885 256.727 232.84C256.727 231.795 256.482 231.027 255.991 230.536C255.501 230.035 254.882 229.784 254.135 229.784C253.399 229.784 252.786 230.029 252.295 230.52C251.815 231.011 251.575 231.768 251.575 232.792C251.575 233.859 251.815 234.643 252.295 235.144C252.786 235.645 253.399 235.896 254.135 235.896ZM258.863 235.624C259.503 235.72 259.94 235.32 260.175 234.424C260.26 234.104 260.329 233.704 260.383 233.224C260.436 232.733 260.473 232.125 260.495 231.4C260.516 230.664 260.527 229.763 260.527 228.696H266.111V237H264.687V229.896H261.855C261.844 231.165 261.807 232.184 261.743 232.952C261.689 233.709 261.599 234.344 261.471 234.856C261.268 235.656 260.959 236.227 260.543 236.568C260.127 236.909 259.567 237.059 258.863 237.016V235.624ZM269.642 228.696V235.08L274.074 228.696H275.498V237H274.09V230.632L269.674 237H268.234V228.696H269.642ZM277.637 237V228.696H279.045V235.8H283.125V228.696H284.533V235.8H285.781V239.368H284.581L284.405 237H277.637ZM288.494 228.696V231.592H289.854C290.91 231.592 291.737 231.8 292.334 232.216C292.931 232.632 293.23 233.304 293.23 234.232C293.23 234.883 293.081 235.411 292.782 235.816C292.483 236.221 292.073 236.52 291.55 236.712C291.027 236.904 290.43 237 289.758 237H287.086V228.696H288.494ZM295.838 228.696V237H294.43V228.696H295.838ZM289.758 235.8C290.355 235.8 290.846 235.683 291.23 235.448C291.614 235.213 291.806 234.835 291.806 234.312C291.806 233.779 291.635 233.395 291.294 233.16C290.953 232.915 290.473 232.792 289.854 232.792H288.494V235.8H289.758Z" fill="black"/>
<rect x="309" y="216" width="66" height="32" rx="8" fill="#C3FF34"/>
<path d="M323.765 237.16C322.634 237.16 321.642 236.925 320.789 236.456C319.946 235.987 319.29 235.315 318.821 234.44C318.352 233.555 318.117 232.499 318.117 231.272C318.117 229.427 318.602 227.987 319.573 226.952C320.544 225.907 321.93 225.384 323.733 225.384C324.405 225.384 325.045 225.459 325.653 225.608C326.272 225.747 326.794 225.949 327.221 226.216V227.656C326.762 227.368 326.224 227.144 325.605 226.984C324.997 226.824 324.368 226.744 323.717 226.744C322.373 226.744 321.376 227.123 320.725 227.88C320.074 228.637 319.749 229.768 319.749 231.272C319.749 232.787 320.101 233.923 320.805 234.68C321.509 235.427 322.538 235.8 323.893 235.8C325.173 235.8 326.282 235.448 327.221 234.744V236.184C326.848 236.483 326.352 236.723 325.733 236.904C325.114 237.075 324.458 237.16 323.765 237.16ZM328.611 228.696H330.243L332.227 231.624L334.227 228.696H335.683L332.931 232.664L335.827 237H334.195L331.971 233.704L329.731 237H328.259L331.267 232.696L328.611 228.696ZM340.426 237.16C339.039 237.16 337.978 236.781 337.242 236.024C336.516 235.256 336.154 234.195 336.154 232.84C336.154 231.933 336.324 231.16 336.666 230.52C337.007 229.88 337.476 229.389 338.074 229.048C338.671 228.707 339.343 228.536 340.09 228.536C341.359 228.536 342.292 228.957 342.89 229.8C343.487 230.632 343.679 231.773 343.466 233.224H337.61C337.727 235.005 338.708 235.896 340.554 235.896C341.567 235.896 342.5 235.608 343.354 235.032V236.296C342.97 236.563 342.522 236.776 342.01 236.936C341.498 237.085 340.97 237.16 340.426 237.16ZM340.058 229.784C339.45 229.784 338.927 229.971 338.49 230.344C338.052 230.717 337.775 231.283 337.658 232.04H342.122C342.154 231.325 341.988 230.771 341.626 230.376C341.263 229.981 340.74 229.784 340.058 229.784ZM345.195 228.696H347.291L349.835 234.264L352.555 228.696H354.507V237H353.115V230.328L350.299 236.072H349.179L346.523 230.296V237H345.195V228.696ZM358.053 228.696V231.592H359.413C360.469 231.592 361.295 231.8 361.893 232.216C362.49 232.632 362.789 233.304 362.789 234.232C362.789 234.883 362.639 235.411 362.341 235.816C362.042 236.221 361.631 236.52 361.109 236.712C360.586 236.904 359.989 237 359.317 237H356.645V228.696H358.053ZM365.397 228.696V237H363.989V228.696H365.397ZM359.317 235.8C359.914 235.8 360.405 235.683 360.789 235.448C361.173 235.213 361.365 234.835 361.365 234.312C361.365 233.779 361.194 233.395 360.853 233.16C360.511 232.915 360.031 232.792 359.413 232.792H358.053V235.8H359.317Z" fill="black"/>
<rect x="379" y="216" width="83" height="32" rx="8" fill="#C3FF34"/>
<path d="M393.816 237.16C392.685 237.16 391.693 236.925 390.84 236.456C389.997 235.987 389.341 235.315 388.872 234.44C388.402 233.555 388.168 232.499 388.168 231.272C388.168 229.427 388.653 227.987 389.624 226.952C390.594 225.907 391.981 225.384 393.784 225.384C394.456 225.384 395.096 225.459 395.704 225.608C396.322 225.747 396.845 225.949 397.272 226.216V227.656C396.813 227.368 396.274 227.144 395.656 226.984C395.048 226.824 394.418 226.744 393.768 226.744C392.424 226.744 391.426 227.123 390.776 227.88C390.125 228.637 389.8 229.768 389.8 231.272C389.8 232.787 390.152 233.923 390.856 234.68C391.56 235.427 392.589 235.8 393.944 235.8C395.224 235.8 396.333 235.448 397.272 234.744V236.184C396.898 236.483 396.402 236.723 395.784 236.904C395.165 237.075 394.509 237.16 393.816 237.16ZM400.63 228.696V235.08L405.062 228.696H406.486V237H405.078V230.632L400.662 237H399.222V228.696H400.63ZM412.208 237.16C410.918 237.16 409.899 236.781 409.152 236.024C408.406 235.256 408.032 234.195 408.032 232.84C408.032 231.485 408.411 230.429 409.168 229.672C409.926 228.915 410.96 228.536 412.273 228.536C412.774 228.536 413.243 228.595 413.681 228.712C414.118 228.819 414.47 228.979 414.737 229.192V230.456C414.011 230.008 413.195 229.784 412.289 229.784C411.329 229.784 410.619 230.04 410.161 230.552C409.702 231.053 409.472 231.816 409.472 232.84C409.472 233.864 409.691 234.632 410.128 235.144C410.576 235.645 411.27 235.896 412.208 235.896C413.115 235.896 413.958 235.677 414.737 235.24V236.504C414.043 236.941 413.201 237.16 412.208 237.16ZM415.793 228.696H422.465V229.896H419.809V237H418.401V229.896H415.793V228.696ZM427.375 237.16C425.988 237.16 424.927 236.781 424.191 236.024C423.466 235.256 423.103 234.195 423.103 232.84C423.103 231.933 423.274 231.16 423.615 230.52C423.956 229.88 424.426 229.389 425.023 229.048C425.62 228.707 426.292 228.536 427.039 228.536C428.308 228.536 429.242 228.957 429.839 229.8C430.436 230.632 430.628 231.773 430.415 233.224H424.559C424.676 235.005 425.658 235.896 427.503 235.896C428.516 235.896 429.45 235.608 430.303 235.032V236.296C429.919 236.563 429.471 236.776 428.959 236.936C428.447 237.085 427.919 237.16 427.375 237.16ZM427.007 229.784C426.399 229.784 425.876 229.971 425.439 230.344C425.002 230.717 424.724 231.283 424.607 232.04H429.071C429.103 231.325 428.938 230.771 428.575 230.376C428.212 229.981 427.69 229.784 427.007 229.784ZM432.145 228.696H434.241L436.785 234.264L439.505 228.696H441.457V237H440.065V230.328L437.249 236.072H436.129L433.473 230.296V237H432.145V228.696ZM445.002 228.696V231.592H446.362C447.418 231.592 448.245 231.8 448.842 232.216C449.439 232.632 449.738 233.304 449.738 234.232C449.738 234.883 449.589 235.411 449.29 235.816C448.991 236.221 448.581 236.52 448.058 236.712C447.535 236.904 446.938 237 446.266 237H443.594V228.696H445.002ZM452.346 228.696V237H450.938V228.696H452.346ZM446.266 235.8C446.863 235.8 447.354 235.683 447.738 235.448C448.122 235.213 448.314 234.835 448.314 234.312C448.314 233.779 448.143 233.395 447.802 233.16C447.461 232.915 446.981 232.792 446.362 232.792H445.002V235.8H446.266Z" fill="black"/>
<g filter="url(#filter0_d_601_2358)">
<g filter="url(#filter1_d_601_2358)">
<path d="M1128.59 221.042C1215.96 222.032 1288.17 181.95 1289.88 131.515L1131.7 129.721L1128.59 221.042Z" fill="#016B83"/>
<path d="M1289.88 131.515C1289.93 130.291 1289.93 126.914 1289.88 125.701C1289.77 122.261 1289.32 118.865 1288.56 115.526C1281.09 82.8023 1243.53 57.0951 1192.19 45.2165C1180.94 42.6125 1168.88 46.7662 1165.85 53.543L1131.7 129.721L1289.88 131.515Z" fill="#016B83"/>
<path d="M1289.88 125.701L1289.88 116.292C1289.88 115.869 1289.29 115.526 1288.56 115.526V115.526C1289.32 118.865 1289.77 122.261 1289.88 125.701Z" fill="#FFD7F0"/>
<path d="M974.784 117.992C974.555 117.601 973.554 117.7 973.562 118.112L973.694 125.045C973.902 122.668 974.268 120.316 974.784 117.992V117.992Z" fill="#FFD7F0"/>
<path fill-rule="evenodd" clip-rule="evenodd" d="M973.994 137.107C973.576 134.085 973.413 131.023 973.518 127.928C973.551 126.963 973.61 126.002 973.694 125.045C973.902 122.668 974.268 120.316 974.784 117.992C980.699 91.364 1006.41 68.4099 1042.99 54.0845C1053.03 50.1501 1066.32 52.8123 1071.67 59.1037L1096.84 88.7153L1125.92 122.925L1025.13 174.014C1020.38 176.422 1017.65 179.895 1017.65 183.545L1017.65 193.026C993.033 178.244 976.984 158.705 973.994 137.107Z" fill="#FFD7F0"/>
<path d="M1017.65 193.026L1131.7 129.721L1125.92 122.925L1025.13 174.014C1020.38 176.422 1017.65 179.895 1017.65 183.545L1017.65 193.026Z" fill="#FFD7F0"/>
</g>
<g filter="url(#filter2_d_601_2358)">
<path d="M1129.36 205.31C1216.73 206.3 1288.17 166.527 1289.89 116.092L1131.7 114.298L1131.19 129.367L1129.36 205.31Z" fill="#016B83"/>
<path d="M1289.89 116.092C1291.36 72.9342 1240.73 36.1809 1171.35 25.8525L1131.7 114.298L1289.89 116.092Z" fill="#C3FF34"/>
<path d="M1131.7 114.298L1171.35 25.8525C1171.35 25.8525 1137.54 21.6819 1115.91 22.9265C1094.03 24.1854 1061.98 32.2863 1061.98 32.2863L1096.84 73.2923L1131.7 114.298Z" fill="#F2F8F3"/>
<path d="M1131.7 114.298L1128.47 116.092L1017.65 177.603C1021.95 180.182 1026.5 182.615 1031.29 184.89L1131.19 129.367L1131.7 114.298Z" fill="#E9C3DB"/>
<path d="M1031.29 184.89C1026.5 182.615 1021.95 180.182 1017.65 177.603L1017.65 192.752L1031.29 184.89Z" fill="#E9C3DB"/>
<path fill-rule="evenodd" clip-rule="evenodd" d="M1017.65 177.603C989.591 160.753 972.662 137.722 973.52 112.505C974.053 96.8506 981.376 82.194 993.837 69.4533L1128.47 116.092L1017.65 177.603Z" fill="#FFD7F0"/>
<path d="M1131.7 114.298L1096.84 73.2923L1061.98 32.2863C1033.33 40.421 1009.52 53.4202 993.837 69.4533L1128.47 116.092L1131.7 114.298Z" fill="#FFD7F0"/>
</g>
<g filter="url(#filter3_d_601_2358)">
<path d="M1123.62 243.991L1126.73 152.67L1012.68 215.975C1017.12 218.641 1021.84 221.152 1026.81 223.493C1053.26 235.947 1086.85 243.574 1123.62 243.991Z" fill="#FE6B1B"/>
<path d="M1012.68 215.975L1012.68 232.021L1026.81 223.493C1021.84 221.152 1017.12 218.641 1012.68 215.975Z" fill="#FE6B1B"/>
<path d="M1123.62 258.93L1123.62 243.991C1086.85 243.574 1053.26 235.947 1026.81 223.493L1012.68 232.021C1027.52 239.496 1063.69 258.93 1123.62 258.93Z" fill="#FE6B1B"/>
</g>
</g>
</g>
<defs>
<filter id="filter0_d_601_2358" x="963.487" y="16.6946" width="336.431" height="256.236" filterUnits="userSpaceOnUse" color-interpolation-filters="sRGB">
<feFlood flood-opacity="0" result="BackgroundImageFix"/>
<feColorMatrix in="SourceAlpha" type="matrix" values="0 0 0 0 0 0 0 0 0 0 0 0 0 0 0 0 0 0 127 0" result="hardAlpha"/>
<feOffset dy="4"/>
<feGaussianBlur stdDeviation="5"/>
<feComposite in2="hardAlpha" operator="out"/>
<feColorMatrix type="matrix" values="0 0 0 0 0.00347222 0 0 0 0 0.340385 0 0 0 0 0.416667 0 0 0 1 0"/>
<feBlend mode="normal" in2="BackgroundImageFix" result="effect1_dropShadow_601_2358"/>
<feBlend mode="normal" in="SourceGraphic" in2="effect1_dropShadow_601_2358" result="shape"/>
</filter>
<filter id="filter1_d_601_2358" x="951.808" y="44.4314" width="359.787" height="225.221" filterUnits="userSpaceOnUse" color-interpolation-filters="sRGB">
<feFlood flood-opacity="0" result="BackgroundImageFix"/>
<feColorMatrix in="SourceAlpha" type="matrix" values="0 0 0 0 0 0 0 0 0 0 0 0 0 0 0 0 0 0 127 0" result="hardAlpha"/>
<feOffset dy="26.9135"/>
<feGaussianBlur stdDeviation="10.8395"/>
<feComposite in2="hardAlpha" operator="out"/>
<feColorMatrix type="matrix" values="0 0 0 0 0.00347222 0 0 0 0 0.340385 0 0 0 0 0.416667 0 0 0 1 0"/>
<feBlend mode="normal" in2="BackgroundImageFix" result="effect1_dropShadow_601_2358"/>
<feBlend mode="normal" in="SourceGraphic" in2="effect1_dropShadow_601_2358" result="shape"/>
</filter>
<filter id="filter2_d_601_2358" x="939.538" y="22.6946" width="381.768" height="265.909" filterUnits="userSpaceOnUse" color-interpolation-filters="sRGB">
<feFlood flood-opacity="0" result="BackgroundImageFix"/>
<feColorMatrix in="SourceAlpha" type="matrix" values="0 0 0 0 0 0 0 0 0 0 0 0 0 0 0 0 0 0 127 0" result="hardAlpha"/>
<feOffset dx="-1.28116" dy="50.606"/>
<feGaussianBlur stdDeviation="16.3348"/>
<feComposite in2="hardAlpha" operator="out"/>
<feColorMatrix type="matrix" values="0 0 0 0 0.00625 0 0 0 0 0.154038 0 0 0 0 0.1875 0 0 0 0.15 0"/>
<feBlend mode="normal" in2="BackgroundImageFix" result="effect1_dropShadow_601_2358"/>
<feBlend mode="normal" in="SourceGraphic" in2="effect1_dropShadow_601_2358" result="shape"/>
</filter>
<filter id="filter3_d_601_2358" x="997.955" y="147.592" width="143.502" height="135.713" filterUnits="userSpaceOnUse" color-interpolation-filters="sRGB">
<feFlood flood-opacity="0" result="BackgroundImageFix"/>
<feColorMatrix in="SourceAlpha" type="matrix" values="0 0 0 0 0 0 0 0 0 0 0 0 0 0 0 0 0 0 127 0" result="hardAlpha"/>
<feOffset dy="9.64824"/>
<feGaussianBlur stdDeviation="7.36313"/>
<feComposite in2="hardAlpha" operator="out"/>
<feColorMatrix type="matrix" values="0 0 0 0 0.00625 0 0 0 0 0.154038 0 0 0 0 0.1875 0 0 0 0.15 0"/>
<feBlend mode="normal" in2="BackgroundImageFix" result="effect1_dropShadow_601_2358"/>
<feBlend mode="normal" in="SourceGraphic" in2="effect1_dropShadow_601_2358" result="shape"/>
</filter>
<clipPath id="clip0_601_2358">
<rect width="1338" height="280" rx="24" fill="white"/>
</clipPath>
</defs>
</svg>
