<svg width="747" height="241" viewBox="0 0 747 241" fill="none" xmlns="http://www.w3.org/2000/svg">
<rect x="0.5" y="0.775269" width="362.693" height="207.575" rx="16" fill="white"/>
<rect x="0.874683" y="1.14995" width="361.944" height="206.825" rx="15.6253" stroke="black" stroke-opacity="0.3" stroke-width="0.749367"/>
<g filter="url(#filter0_b_339_2967)">
<path fill-rule="evenodd" clip-rule="evenodd" d="M118.031 63.0123C109.623 63.0123 102.807 69.8286 102.807 78.2369V130.888C102.807 139.297 109.623 146.113 118.031 146.113H245.662C254.071 146.113 260.887 139.296 260.887 130.888V78.2369C260.887 69.8286 254.071 63.0123 245.662 63.0123H118.031ZM128.103 128.791H132.869C129.267 122.129 126.385 114.641 126.385 104.455C126.385 94.4889 129.267 87.0008 132.869 80.3385H128.103C123.946 85.8996 120.399 94.4889 120.399 104.455C120.399 114.751 123.946 123.23 128.103 128.791ZM235.858 128.791H231.092C234.694 122.129 237.576 114.641 237.576 104.455C237.576 94.4889 234.694 87.0008 231.092 80.3385H235.858C240.014 85.8996 243.561 94.4889 243.561 104.455C243.561 114.751 240.014 123.23 235.858 128.791ZM133.508 119.706H139.826L147.307 108.97H147.418L155.066 119.706H161.44L150.688 105.336L160.387 91.6258H154.18L147.529 101.647H147.418L140.657 91.6258H134.45L144.148 105.336L133.508 119.706ZM168.329 119.706H162.898V80.3385H168.329V119.706ZM169.826 119.706H176.144L183.625 108.97H183.736L191.384 119.706H197.758L187.006 105.336L196.705 91.6258H190.498L183.847 101.647H183.736L176.975 91.6258H170.768L180.466 105.336L169.826 119.706ZM209.435 120.477C200.845 120.477 196.577 116.072 196.411 110.346H201.898C202.119 113.595 204.115 116.127 209.38 116.127C214.146 116.127 215.42 114.035 215.42 111.998C215.42 108.808 212.332 108.19 209.034 107.53C208.688 107.461 208.341 107.391 207.994 107.318C203.062 106.162 197.409 104.73 197.409 98.8937C197.409 94.0484 201.344 90.7999 208.16 90.7999C215.919 90.7999 219.632 94.9294 220.02 99.7747H214.534C214.146 97.6273 212.982 95.1496 208.271 95.1496C204.613 95.1496 203.062 96.5812 203.062 98.6735C203.062 101.254 205.531 101.768 208.861 102.461C209.297 102.552 209.749 102.646 210.211 102.748C215.42 103.959 221.073 105.446 221.073 111.723C221.073 117.174 216.861 120.477 209.435 120.477ZM225.266 99.3624H231.307V93.3609H225.266V99.3624ZM225.266 116.211H231.307V110.209H225.266V116.211Z" fill="black"/>
</g>
<rect x="384.307" y="0.775208" width="362.693" height="207.575" rx="16" fill="black"/>
<g filter="url(#filter1_b_339_2967)">
<path fill-rule="evenodd" clip-rule="evenodd" d="M501.838 63.0123C493.43 63.0123 486.613 69.8286 486.613 78.2369V130.888C486.613 139.297 493.43 146.113 501.838 146.113H629.469C637.877 146.113 644.694 139.296 644.694 130.888V78.2369C644.694 69.8286 637.877 63.0123 629.469 63.0123H501.838ZM511.91 128.791H516.676C513.073 122.129 510.191 114.641 510.191 104.455C510.191 94.4888 513.073 87.0007 516.676 80.3384H511.91C507.753 85.8995 504.206 94.4888 504.206 104.455C504.206 114.751 507.753 123.23 511.91 128.791ZM619.664 128.791H614.898C618.501 122.129 621.383 114.641 621.383 104.455C621.383 94.4888 618.501 87.0007 614.898 80.3384H619.664C623.821 85.8995 627.368 94.4888 627.368 104.455C627.368 114.751 623.821 123.23 619.664 128.791ZM517.314 119.706H523.632L531.114 108.97H531.225L538.873 119.706H545.247L534.495 105.336L544.194 91.6257H537.986L531.336 101.647H531.225L524.464 91.6257H518.257L527.955 105.336L517.314 119.706ZM552.136 119.706H546.704V80.3384H552.136V119.706ZM553.632 119.706H559.95L567.432 108.97H567.543L575.191 119.706H581.564L570.813 105.336L580.511 91.6257H574.304L567.654 101.647H567.543L560.782 91.6257H554.575L564.273 105.336L553.632 119.706ZM593.242 120.477C584.652 120.477 580.384 116.072 580.218 110.346H585.705C585.926 113.595 587.921 116.127 593.186 116.127C597.953 116.127 599.227 114.035 599.227 111.998C599.227 108.808 596.139 108.19 592.841 107.53C592.495 107.46 592.147 107.391 591.801 107.318C586.868 106.162 581.215 104.73 581.215 98.8936C581.215 94.0484 585.15 90.7998 591.967 90.7998C599.726 90.7998 603.439 94.9293 603.827 99.7746H598.34C597.953 97.6273 596.789 95.1496 592.078 95.1496C588.42 95.1496 586.868 96.5811 586.868 98.6734C586.868 101.253 589.338 101.768 592.668 102.461L592.669 102.461C593.105 102.552 593.556 102.646 594.018 102.748C599.227 103.959 604.88 105.446 604.88 111.723C604.88 117.174 600.668 120.477 593.242 120.477ZM609.073 99.3624H615.114V93.3608H609.073V99.3624ZM609.073 116.211H615.114V110.209H609.073V116.211Z" fill="white"/>
</g>
<defs>
<filter id="filter0_b_339_2967" x="-319.929" y="-359.723" width="1003.55" height="928.571" filterUnits="userSpaceOnUse" color-interpolation-filters="sRGB">
<feFlood flood-opacity="0" result="BackgroundImageFix"/>
<feGaussianBlur in="BackgroundImageFix" stdDeviation="211.368"/>
<feComposite in2="SourceAlpha" operator="in" result="effect1_backgroundBlur_339_2967"/>
<feBlend mode="normal" in="SourceGraphic" in2="effect1_backgroundBlur_339_2967" result="shape"/>
</filter>
<filter id="filter1_b_339_2967" x="63.8778" y="-359.723" width="1003.55" height="928.571" filterUnits="userSpaceOnUse" color-interpolation-filters="sRGB">
<feFlood flood-opacity="0" result="BackgroundImageFix"/>
<feGaussianBlur in="BackgroundImageFix" stdDeviation="211.368"/>
<feComposite in2="SourceAlpha" operator="in" result="effect1_backgroundBlur_339_2967"/>
<feBlend mode="normal" in="SourceGraphic" in2="effect1_backgroundBlur_339_2967" result="shape"/>
</filter>
</defs>
</svg>
