<svg width="966" height="77" viewBox="0 0 966 77" fill="none" xmlns="http://www.w3.org/2000/svg">
<path d="M80.8902 75.9V33.66L32.0466 75.9H0V1.10001H32.0466V43.34L80.8902 1.10001H112.937V75.9H80.8902Z" fill="white"/>
<path d="M192.825 75.9L161.994 39.49V75.9H128.843V1.10001H161.994V33.77L193.82 1.10001H235.26L196.583 36.19L235.039 75.9H192.825Z" fill="white"/>
<path d="M298.725 0C336.518 0 357.183 10.89 357.183 33.44V33.99H321.268L320.937 32.45C319.611 26.29 313.754 22 299.057 22H294.858C279.387 22 270.657 26.51 270.657 38.06V38.94C270.657 50.49 279.387 55 294.858 55H299.057C313.754 55 319.611 50.71 320.937 44.55L321.268 43.01H357.183V43.56C357.183 66.11 336.518 77 298.725 77H295.189C256.291 77 236.4 66.22 236.4 39.38V37.62C236.4 10.78 256.291 0 295.189 0H298.725Z" fill="white"/>
<path d="M371.96 75.9V1.10001H469.204V23.1H405.111V30.25H459.701V46.75H405.111V53.9H469.204V75.9H371.96Z" fill="white"/>
<path d="M527.17 25.3L526.838 39.82C526.175 67.1 519.656 76.45 489.929 76.45H481.752V50.71H484.183C494.35 50.71 497.554 46.97 497.775 35.09L498.549 1.10001H592.921V75.9H559.769V25.3H527.17Z" fill="white"/>
<path d="M689.707 75.9V33.66L640.864 75.9H608.817V1.10001H640.864V43.34L689.707 1.10001H721.754V75.9H689.707Z" fill="white"/>
<path d="M801.643 75.9L770.812 39.49V75.9H737.66V1.10001H770.812V33.77L802.637 1.10001H844.077L805.4 36.19L843.856 75.9H801.643Z" fill="white"/>
<path d="M907.543 0C945.335 0 966 10.89 966 33.44V33.99H930.086L929.754 32.45C928.428 26.29 922.571 22 907.874 22H903.675C888.204 22 879.474 26.51 879.474 38.06V38.94C879.474 50.49 888.204 55 903.675 55H907.874C922.571 55 928.428 50.71 929.754 44.55L930.086 43.01H966V43.56C966 66.11 945.335 77 907.543 77H904.006C865.108 77 845.217 66.22 845.217 39.38V37.62C845.217 10.78 865.108 0 904.006 0H907.543Z" fill="white"/>
</svg>
